<?xml version="1.0" encoding="UTF-8" standalone="no"?>
<svg
   xmlns:dc="http://purl.org/dc/elements/1.1/"
   xmlns:cc="http://creativecommons.org/ns#"
   xmlns:rdf="http://www.w3.org/1999/02/22-rdf-syntax-ns#"
   xmlns:svg="http://www.w3.org/2000/svg"
   xmlns="http://www.w3.org/2000/svg"
   xmlns:xlink="http://www.w3.org/1999/xlink"
   xmlns:sodipodi="http://sodipodi.sourceforge.net/DTD/sodipodi-0.dtd"
   xmlns:inkscape="http://www.inkscape.org/namespaces/inkscape"
   viewBox="0 0 512 512"
   id="svg2"
   version="1.1"
   inkscape:version="0.48.4 r9939"
   width="100%"
   height="100%"
   sodipodi:docname="strong.svg">
  <metadata
     id="metadata22">
    <rdf:RDF>
      <cc:Work
         rdf:about="">
        <dc:format>image/svg+xml</dc:format>
        <dc:type
           rdf:resource="http://purl.org/dc/dcmitype/StillImage" />
        <dc:title></dc:title>
      </cc:Work>
    </rdf:RDF>
  </metadata>
  <defs
     id="defs20">
    <linearGradient
       id="linearGradient3021">
      <stop
         id="stop3023"
         offset="0"
         style="stop-color:#00ffff;stop-opacity:1;" />
      <stop
         style="stop-color:#02ff00;stop-opacity:1;"
         offset="0"
         id="stop3025" />
      <stop
         id="stop3027"
         offset="1"
         style="stop-color:#040025;stop-opacity:1;" />
    </linearGradient>
    <linearGradient
       id="linearGradient3009">
      <stop
         style="stop-color:#00ffff;stop-opacity:1;"
         offset="0"
         id="stop3011" />
      <stop
         id="stop3017"
         offset="0.62546164"
         style="stop-color:#02ff00;stop-opacity:1;" />
      <stop
         style="stop-color:#040025;stop-opacity:1;"
         offset="1"
         id="stop3013" />
    </linearGradient>
    <linearGradient
       inkscape:collect="always"
       xlink:href="#linearGradient3009"
       id="linearGradient3015"
       x1="296.38364"
       y1="110.36219"
       x2="296.26755"
       y2="87.841408"
       gradientUnits="userSpaceOnUse" />
    <linearGradient
       inkscape:collect="always"
       xlink:href="#linearGradient3021"
       id="linearGradient3019"
       gradientUnits="userSpaceOnUse"
       x1="296.38364"
       y1="110.36219"
       x2="295.98428"
       y2="95.817894" />
  </defs>
  <sodipodi:namedview
     pagecolor="#ffffff"
     bordercolor="#666666"
     borderopacity="1"
     objecttolerance="10"
     gridtolerance="10"
     guidetolerance="10"
     inkscape:pageopacity="0"
     inkscape:pageshadow="2"
     inkscape:window-width="1280"
     inkscape:window-height="1002"
     id="namedview18"
     showgrid="false"
     inkscape:zoom="0.4609375"
     inkscape:cx="256"
     inkscape:cy="256"
     inkscape:window-x="-8"
     inkscape:window-y="-8"
     inkscape:window-maximized="1"
     inkscape:current-layer="svg2" />
  <path
     d="m0,0h512v512h-512z"
     id="path4" />
  <g
     transform="matrix(18.68858,0,0,18.68858,-5276.48083,-1591.7329)"
     id="g6"
     style="fill-opacity:1;fill:url(#linearGradient3015)">
    <path
       d="m291.655,97.0975c3.1932-4.2678 5.6315-4.2552 9.0236,0l-1.5715,8.9073 1.1925,5.6711h-7.978l1.2187-5.6722-1.8852-8.9062z"
       fill="#fff"
       id="path8"
       style="fill-opacity:1;fill:url(#linearGradient3015)" />
    <g
       transform="matrix(1,0,0,1.07085,-27.21039,-12.26164)"
       id="g10"
       style="fill-opacity:1;fill:url(#linearGradient3015)">
      <path
         d="m331.371,94.1529c1.0865.0287 1.283.6952 1.6996,1.4517 1.2466,2.2637 2.9743,8.2317 2.9743,8.2317l-11.2307-.3541-.0837-4.6911 7.632,2.4434-.4249-3.7178c-.1785.0621-.367.1062-.5665.1062-.9577,0-1.735-.7773-1.735-1.735s.7773-1.735 1.735-1.735z"
         fill="#fff"
         id="path12"
         style="fill-opacity:1;fill:url(#linearGradient3015)" />
      <path
         d="m315.2792,94.1529c-1.0865.0287-1.283.6952-1.6996,1.4517-1.2466,2.2637-2.9743,8.2317-2.9743,8.2317l11.2307-.3541 .0837-4.6911-7.632,2.4434 .4249-3.7178c.1785.0621.367.1062.5665.1062 .9577,0 1.735-.7773 1.735-1.735s-.7773-1.735-1.735-1.735z"
         fill="#fff"
         id="path14"
         style="fill-opacity:1;fill:url(#linearGradient3015)" />
    </g>
    <path
       d="m324.3125,101.0184c0,1.5188-.8465,2.75-1.8906,2.75s-1.8906-1.2312-1.8906-2.75 .8465-2.75 1.8906-2.75 1.8906,1.2312 1.8906,2.75z"
       fill="#fff"
       stroke="#000"
       stroke-width=".5792"
       transform="matrix(1.74414,0,0,1.70892,-266.24024,-82.17408)"
       id="path16"
       style="fill-opacity:1;fill:url(#linearGradient3019)" />
  </g>
</svg>
