<?xml version="1.0" encoding="UTF-8" standalone="no"?>
<svg
   xmlns:dc="http://purl.org/dc/elements/1.1/"
   xmlns:cc="http://creativecommons.org/ns#"
   xmlns:rdf="http://www.w3.org/1999/02/22-rdf-syntax-ns#"
   xmlns:svg="http://www.w3.org/2000/svg"
   xmlns="http://www.w3.org/2000/svg"
   xmlns:sodipodi="http://sodipodi.sourceforge.net/DTD/sodipodi-0.dtd"
   xmlns:inkscape="http://www.inkscape.org/namespaces/inkscape"
   viewBox="0 0 512 512"
   id="svg2"
   version="1.1"
   inkscape:version="0.48.4 r9939"
   width="100%"
   height="100%"
   sodipodi:docname="animal_empathy.svg">
  <metadata
     id="metadata36">
    <rdf:RDF>
      <cc:Work
         rdf:about="">
        <dc:format>image/svg+xml</dc:format>
        <dc:type
           rdf:resource="http://purl.org/dc/dcmitype/StillImage" />
      </cc:Work>
    </rdf:RDF>
  </metadata>
  <defs
     id="defs34" />
  <sodipodi:namedview
     pagecolor="#ffffff"
     bordercolor="#666666"
     borderopacity="1"
     objecttolerance="10"
     gridtolerance="10"
     guidetolerance="10"
     inkscape:pageopacity="0"
     inkscape:pageshadow="2"
     inkscape:window-width="1280"
     inkscape:window-height="1002"
     id="namedview32"
     showgrid="false"
     inkscape:zoom="0.4609375"
     inkscape:cx="256"
     inkscape:cy="256"
     inkscape:window-x="-8"
     inkscape:window-y="-8"
     inkscape:window-maximized="1"
     inkscape:current-layer="svg2" />
  <path
     d="m0,0h512v512h-512z"
     id="path4" />
  <path
     style="fill:#00ff00"
     inkscape:connector-curvature="0"
     id="path8"
     d="M 494.22138,163.81701 C 498.63001,304.30841 278.52713,403.01776 257.8613,480.13057 235.28175,395.85816 25.487493,310.41397 20.806004,163.81701 16.31327,23.026596 210.89876,-18.448969 252.81164,99.322724 322.46772,-21.323273 489.87441,25.383226 494.21951,163.81701 z" />
  <path
     inkscape:connector-curvature="0"
     id="path10"
     d="m 258.15026,355.82988 c -21.30468,0 -38.57514,-26.91397 -38.57514,-60.11526 0,-33.20129 17.27046,-60.11525 38.57514,-60.11525 21.30468,0 38.57643,26.91396 38.57643,60.11525 0,33.20129 -17.27175,60.11526 -38.57643,60.11526 z" />
  <path
     inkscape:connector-curvature="0"
     id="path12"
     d="m 228.37083,223.6437 c -13.76855,1.84553 -27.07969,-12.69672 -29.73168,-32.48174 -2.65198,-19.78502 6.3596,-37.31942 20.12814,-39.16496 13.76855,-1.84554 27.08053,12.69661 29.73252,32.48163 2.65198,19.78501 -6.36043,37.31953 -20.12898,39.16507 z" />
  <path
     inkscape:connector-curvature="0"
     id="path14"
     d="m 288.08817,223.6437 c 13.76855,1.84553 27.07969,-12.69672 29.73168,-32.48174 2.65198,-19.78502 -6.3596,-37.31942 -20.12814,-39.16496 -13.76855,-1.84554 -27.08053,12.69661 -29.73252,32.48163 -2.65198,19.78501 6.36043,37.31953 20.12898,39.16507 z" />
  <path
     inkscape:connector-curvature="0"
     id="path16"
     d="m 338.81175,281.40657 c -14.13213,-3.73749 -21.2346,-23.22909 -15.86394,-43.53656 5.37067,-20.30746 21.18037,-33.73954 35.3125,-30.00206 14.13212,3.73749 21.23545,23.22932 15.86479,43.53678 -5.37066,20.30747 -21.18123,33.73932 -35.31335,30.00184 z" />
  <path
     inkscape:connector-curvature="0"
     id="path18"
     d="m 181.47243,279.17765 c 13.6954,-5.11065 18.84431,-25.20669 11.50045,-44.8866 -7.34387,-19.6799 -24.39909,-31.49012 -38.09449,-26.37947 -13.6954,5.11065 -18.84514,25.20699 -11.50128,44.8869 7.34386,19.67991 24.39991,31.48982 38.09532,26.37917 z" />
  <path
     inkscape:connector-curvature="0"
     id="path20"
     d="m 291.29104,306.56517 c 5.70996,23.11118 -17.35357,49.89316 -51.51496,59.82011 -34.1614,9.92696 -66.48237,-0.76084 -72.19233,-23.87203 -5.70995,-23.11118 17.35323,-49.89456 51.51462,-59.82152 34.1614,-9.92695 66.48272,0.76225 72.19267,23.87344 z" />
  <path
     inkscape:connector-curvature="0"
     id="path22"
     d="m 225.35096,306.56517 c -5.70996,23.11118 17.35357,49.89316 51.51496,59.82011 34.1614,9.92696 66.48237,-0.76084 72.19233,-23.87203 5.70995,-23.11118 -17.35323,-49.89456 -51.51462,-59.82152 -34.1614,-9.92695 -66.48272,0.76225 -72.19267,23.87344 z" />
  <path
     inkscape:connector-curvature="0"
     id="path24"
     d="m 209.63542,88.696398 c -10.08623,22.753342 -19.12029,53.268062 4.07784,51.427232 23.77562,-1.88381 11.30286,-29.12241 -4.07784,-51.427232 z" />
  <path
     inkscape:connector-curvature="0"
     id="path26"
     d="m 386.08551,145.63116 c 3.64988,24.62033 4.21428,56.43764 -17.65136,48.4763 -22.41135,-8.16317 -3.12099,-31.08471 17.65136,-48.4763 z" />
  <path
     inkscape:connector-curvature="0"
     id="path28"
     d="m 122.06821,151.2153 c -1.20916,24.85768 1.36239,56.57594 22.33846,46.50093 21.49934,-10.32918 0.0561,-31.23983 -22.33846,-46.50093 z" />
  <path
     inkscape:connector-curvature="0"
     id="path30"
     d="m 306.82351,88.696398 c 10.08622,22.753342 19.12028,53.268062 -4.07785,51.427232 -23.77561,-1.88381 -11.30285,-29.12241 4.07785,-51.427232 z" />
</svg>
