<?xml version="1.0" encoding="UTF-8" standalone="no"?>
<svg
   xmlns:dc="http://purl.org/dc/elements/1.1/"
   xmlns:cc="http://creativecommons.org/ns#"
   xmlns:rdf="http://www.w3.org/1999/02/22-rdf-syntax-ns#"
   xmlns:svg="http://www.w3.org/2000/svg"
   xmlns="http://www.w3.org/2000/svg"
   xmlns:sodipodi="http://sodipodi.sourceforge.net/DTD/sodipodi-0.dtd"
   xmlns:inkscape="http://www.inkscape.org/namespaces/inkscape"
   viewBox="0 0 512 512"
   id="svg2"
   version="1.1"
   inkscape:version="0.48.5 r10040"
   width="100%"
   height="100%"
   sodipodi:docname="bear.svg">
  <metadata
     id="metadata12">
    <rdf:RDF>
      <cc:Work
         rdf:about="">
        <dc:format>image/svg+xml</dc:format>
        <dc:type
           rdf:resource="http://purl.org/dc/dcmitype/StillImage" />
        <dc:title></dc:title>
      </cc:Work>
    </rdf:RDF>
  </metadata>
  <defs
     id="defs10" />
  <sodipodi:namedview
     pagecolor="#ffffff"
     bordercolor="#666666"
     borderopacity="1"
     objecttolerance="10"
     gridtolerance="10"
     guidetolerance="10"
     inkscape:pageopacity="0"
     inkscape:pageshadow="2"
     inkscape:window-width="1280"
     inkscape:window-height="1002"
     id="namedview8"
     showgrid="false"
     inkscape:zoom="0.16296602"
     inkscape:cx="315.73036"
     inkscape:cy="256"
     inkscape:window-x="-8"
     inkscape:window-y="-8"
     inkscape:window-maximized="1"
     inkscape:current-layer="svg2" />
  <path
     stroke-width="0"
     stroke="#fff"
     fill="#000"
     d="M0 0h512v512H0z"
     id="path4" />
  <path
     d="M 104.75,16.813 C 80.46,17.365 56.826,25.233 41.906,42.843 29.71,57.24 27.212,75.418 31.126,93.438 c 3.912,18.02 13.678,36.518 26.25,55.063 l 0.124,0.156 C 41.142,180.15 32,216.558 32,256 c 0,64 32,128 96,128 32,48 32,96 128,96 96,0 96,-48 128,-96 64,0 96,-48 96,-128 0,-39.442 -9.142,-75.85 -25.5,-107.344 l 0.125,-0.156 c 12.57,-18.545 22.337,-37.042 26.25,-55.063 3.913,-18.02 1.414,-36.197 -10.78,-50.593 -15.915,-18.785 -41.757,-26.468 -67.72,-26.032 -25.963,0.437 -52.602,8.894 -71.563,25.094 l -1.593,1.344 C 306.473,35.923 281.892,32 256,32 c -25.892,0 -50.474,3.923 -73.22,11.25 l -1.593,-1.344 c -18.96,-16.2 -45.6,-24.657 -71.562,-25.093 -1.623,-0.028 -3.256,-0.037 -4.875,0 z m 0.375,16 c 1.397,-0.034 2.808,-0.024 4.22,0 19.96,0.335 40.684,6.498 55.81,16.968 C 123.906,67.025 89.78,96 66.406,133.095 56.656,117.775 49.596,102.987 46.782,90.032 43.579,75.277 45.322,63.515 54.096,53.158 65.033,40.248 84.176,33.316 105.126,32.815 z m 297.53,0 c 22.574,-0.38 43.585,6.572 55.25,20.343 8.775,10.357 10.518,22.12 7.314,36.875 -2.814,12.956 -9.874,27.743 -19.626,43.064 -23.372,-37.096 -57.5,-66.07 -98.75,-83.313 15.127,-10.47 35.85,-16.632 55.812,-16.968 z M 176,155.50547 c 16,0 48,4.49453 48,52.49453 0,64 -38.79563,35.40454 -70.79563,35.40454 -32,0 -32.65938,-34.6513 -32.65938,-40.00673 0,-32 39.45501,-47.89234 55.45501,-47.89234 z m 184.54499,3.83515 C 376.54499,159.34062 416,176 416,208 c 0,32 -4.49453,43.84189 -36.49453,43.84189 -16,0 -33.12364,4.27249 -46.24727,0.54499 -13.12363,-3.7275 -22.24727,-15.455 -22.24727,-47.455 0,-48 33.53406,-45.59126 49.53406,-45.59126 z m -179.8587,91.97309 c 6.75692,6.04977 16.68405,5.76108 22.62742,0"
     id="path6"
     inkscape:connector-curvature="0"
     style="fill:#552200"
     sodipodi:nodetypes="cccccscscscccccccscccccccccscccccccccssssssssssscc" />
  <path
     style="fill:#ffff00;stroke:#000000;stroke-width:9.50000000000000000;stroke-linecap:butt;stroke-linejoin:miter;stroke-opacity:1;stroke-miterlimit:4;stroke-dasharray:none"
     d="m 212.46761,355.52566 c 134.23044,-2.3011 118.88982,-3.06813 119.65685,-3.83516 0.76703,-0.76703 10.73257,-1.43951 -24.54499,39.88562 -26.8461,31.44827 -32.21531,18.40875 -39.88562,16.10765 -8.11483,-2.43445 -36.05046,-16.10765 -36.05046,-16.10765 z"
     id="path2991"
     inkscape:connector-curvature="0"
     sodipodi:nodetypes="cssscc" />
</svg>
