<?xml version="1.0" encoding="UTF-8" standalone="no"?>
<svg
   xmlns:dc="http://purl.org/dc/elements/1.1/"
   xmlns:cc="http://creativecommons.org/ns#"
   xmlns:rdf="http://www.w3.org/1999/02/22-rdf-syntax-ns#"
   xmlns:svg="http://www.w3.org/2000/svg"
   xmlns="http://www.w3.org/2000/svg"
   xmlns:sodipodi="http://sodipodi.sourceforge.net/DTD/sodipodi-0.dtd"
   xmlns:inkscape="http://www.inkscape.org/namespaces/inkscape"
   viewBox="0 0 512 512"
   id="svg2"
   version="1.1"
   inkscape:version="0.48.4 r9939"
   width="100%"
   height="100%"
   sodipodi:docname="bear_endurance.svg">
  <metadata
     id="metadata36">
    <rdf:RDF>
      <cc:Work
         rdf:about="">
        <dc:format>image/svg+xml</dc:format>
        <dc:type
           rdf:resource="http://purl.org/dc/dcmitype/StillImage" />
      </cc:Work>
    </rdf:RDF>
  </metadata>
  <defs
     id="defs34" />
  <sodipodi:namedview
     pagecolor="#ffffff"
     bordercolor="#666666"
     borderopacity="1"
     objecttolerance="10"
     gridtolerance="10"
     guidetolerance="10"
     inkscape:pageopacity="0"
     inkscape:pageshadow="2"
     inkscape:window-width="1280"
     inkscape:window-height="1002"
     id="namedview32"
     showgrid="false"
     inkscape:zoom="1.3037281"
     inkscape:cx="74.199421"
     inkscape:cy="272.24246"
     inkscape:window-x="-8"
     inkscape:window-y="-8"
     inkscape:window-maximized="1"
     inkscape:current-layer="svg2" />
  <path
     d="m0,0h512v512h-512z"
     id="path4" />
  <path
     style="fill:#ffff00"
     inkscape:connector-curvature="0"
     id="path8"
     d="M 494.22138,163.81701 C 498.63001,304.30841 278.52713,403.01776 257.8613,480.13057 235.28175,395.85816 25.487493,310.41397 20.806004,163.81701 16.31327,23.026596 210.89876,-18.448969 252.81164,99.322724 322.46772,-21.323273 489.87441,25.383226 494.21951,163.81701 z" />
  <path
     inkscape:connector-curvature="0"
     id="path10"
     d="m 258.15026,355.82988 c -21.30468,0 -38.57514,-26.91397 -38.57514,-60.11526 0,-33.20129 17.27046,-60.11525 38.57514,-60.11525 21.30468,0 38.57643,26.91396 38.57643,60.11525 0,33.20129 -17.27175,60.11526 -38.57643,60.11526 z" />
  <path
     inkscape:connector-curvature="0"
     id="path12"
     d="m 228.37083,223.6437 c -13.76855,1.84553 -27.07969,-12.69672 -29.73168,-32.48174 -2.65198,-19.78502 6.3596,-37.31942 20.12814,-39.16496 13.76855,-1.84554 27.08053,12.69661 29.73252,32.48163 2.65198,19.78501 -6.36043,37.31953 -20.12898,39.16507 z" />
  <path
     inkscape:connector-curvature="0"
     id="path14"
     d="m 288.08817,223.6437 c 13.76855,1.84553 27.07969,-12.69672 29.73168,-32.48174 2.65198,-19.78502 -6.3596,-37.31942 -20.12814,-39.16496 -13.76855,-1.84554 -27.08053,12.69661 -29.73252,32.48163 -2.65198,19.78501 6.36043,37.31953 20.12898,39.16507 z" />
  <path
     inkscape:connector-curvature="0"
     id="path16"
     d="m 338.81175,281.40657 c -14.13213,-3.73749 -21.2346,-23.22909 -15.86394,-43.53656 5.37067,-20.30746 21.18037,-33.73954 35.3125,-30.00206 14.13212,3.73749 21.23545,23.22932 15.86479,43.53678 -5.37066,20.30747 -21.18123,33.73932 -35.31335,30.00184 z" />
  <path
     inkscape:connector-curvature="0"
     id="path18"
     d="m 181.47243,279.17765 c 13.6954,-5.11065 18.84431,-25.20669 11.50045,-44.8866 -7.34387,-19.6799 -24.39909,-31.49012 -38.09449,-26.37947 -13.6954,5.11065 -18.84514,25.20699 -11.50128,44.8869 7.34386,19.67991 24.39991,31.48982 38.09532,26.37917 z" />
  <path
     inkscape:connector-curvature="0"
     id="path20"
     d="m 291.29104,306.56517 c 5.70996,23.11118 -17.35357,49.89316 -51.51496,59.82011 -34.1614,9.92696 -66.48237,-0.76084 -72.19233,-23.87203 -5.70995,-23.11118 17.35323,-49.89456 51.51462,-59.82152 34.1614,-9.92695 66.48272,0.76225 72.19267,23.87344 z" />
  <path
     inkscape:connector-curvature="0"
     id="path22"
     d="m 225.35096,306.56517 c -5.70996,23.11118 17.35357,49.89316 51.51496,59.82011 34.1614,9.92696 66.48237,-0.76084 72.19233,-23.87203 5.70995,-23.11118 -17.35323,-49.89456 -51.51462,-59.82152 -34.1614,-9.92695 -66.48272,0.76225 -72.19267,23.87344 z" />
  <path
     inkscape:connector-curvature="0"
     id="path24"
     d="m 209.63542,88.696398 c -10.08623,22.753342 -19.12029,53.268062 4.07784,51.427232 23.77562,-1.88381 11.30286,-29.12241 -4.07784,-51.427232 z"
     style="fill:#2b1100" />
  <path
     inkscape:connector-curvature="0"
     id="path26"
     d="m 386.08551,145.63116 c 3.64988,24.62033 4.21428,56.43764 -17.65136,48.4763 -22.41135,-8.16317 -3.12099,-31.08471 17.65136,-48.4763 z" />
  <path
     inkscape:connector-curvature="0"
     id="path28"
     d="m 122.06821,151.2153 c -1.20916,24.85768 1.36239,56.57594 22.33846,46.50093 21.49934,-10.32918 0.0561,-31.23983 -22.33846,-46.50093 z" />
  <path
     inkscape:connector-curvature="0"
     id="path30"
     d="m 306.82351,88.696398 c 10.08622,22.753342 19.12028,53.268062 -4.07785,51.427232 -23.77561,-1.88381 -11.30285,-29.12241 4.07785,-51.427232 z"
     style="fill:#502d16;fill-opacity:1" />
  <path
     style="fill:#502d16;fill-opacity:1;stroke:#000000;stroke-width:0.76703107"
     d="m 131.93447,197.53863 c -5.86742,-3.8667 -9.41209,-17.05447 -9.41209,-35.01718 l 0,-10.30344 4.66568,3.27279 c 6.64282,4.65967 16.62562,14.00436 20.52949,19.21723 4.18037,5.58207 5.68499,10.18906 4.60507,14.10023 -2.05042,7.42598 -14.36548,12.69939 -20.38815,8.73037 l 0,0 z"
     id="path3035"
     inkscape:connector-curvature="0" />
  <path
     style="fill:#502d16;fill-opacity:1;stroke:#000000;stroke-width:0.76703107"
     d="m 207.27931,138.91422 c -6.59818,-2.38495 -8.80557,-8.57549 -6.98192,-19.58056 1.14983,-6.93884 4.69667,-18.70901 7.6637,-25.431983 l 1.79947,-4.077402 3.65325,5.647345 c 8.35232,12.91136 14.09242,27.84504 13.00466,33.83344 -0.72141,3.97157 -2.69408,6.8771 -5.71611,8.41919 -3.92288,2.00179 -9.74833,2.51822 -13.42305,1.18997 z"
     id="path3037"
     inkscape:connector-curvature="0" />
  <path
     style="fill:#502d16;fill-opacity:1;stroke:#000000;stroke-width:0.76703107"
     d="m 299.435,139.23354 c -4.40243,-1.09205 -7.12169,-3.39897 -8.61474,-7.30847 -1.66743,-4.36611 -0.87966,-9.49631 2.90182,-18.89765 2.52726,-6.28314 11.89326,-22.840946 12.92008,-22.840946 0.69461,0 5.62182,12.899136 7.66991,20.079346 0.89426,3.13508 1.77552,9.00477 1.99481,13.28651 0.33934,6.62562 0.19014,8.03595 -1.09545,10.35492 -2.65222,4.78413 -9.13661,6.97333 -15.77643,5.32629 l 0,0 z"
     id="path3039"
     inkscape:connector-curvature="0" />
  <path
     style="fill:#502d16;fill-opacity:1;stroke:#000000;stroke-width:0.76703107"
     d="m 371.95337,194.39456 c -1.81816,-0.32701 -4.7387,-1.38565 -6.49008,-2.35254 -11.21693,-6.19259 -8.06624,-17.4447 10.01899,-35.7809 5.49737,-5.57367 9.70424,-9.26768 10.09129,-8.86108 1.20859,1.26961 2.1631,18.79896 1.48995,27.36232 -1.20148,15.28427 -5.83221,21.30086 -15.11015,19.6322 z"
     id="path3041"
     inkscape:connector-curvature="0" />
  <path
     style="fill:#502d16;fill-opacity:1;stroke:#000000;stroke-width:0.76703107"
     d="m 282.24585,220.94953 c -4.67291,-2.37226 -9.14199,-8.00738 -11.77713,-14.84993 -2.31325,-6.00673 -2.88484,-19.26257 -1.12909,-26.18508 5.04652,-19.89725 19.6313,-31.59958 32.48921,-26.06825 9.54108,4.10446 15.74188,15.86926 15.76868,29.918 0.0164,8.59301 -1.27131,14.38788 -4.86932,21.91268 -3.16376,6.61662 -7.12647,11.28404 -12.41447,14.62221 -2.5401,1.60349 -4.49381,2.14196 -8.65541,2.38555 -4.67291,0.27351 -5.90208,0.0469 -9.41247,-1.73518 l 0,0 z"
     id="path3043"
     inkscape:connector-curvature="0" />
  <path
     style="fill:#502d16;fill-opacity:1;stroke:#000000;stroke-width:0.76703107"
     d="m 223.53387,222.83643 c -15.74577,-1.86395 -27.8722,-25.22108 -24.0684,-46.35896 1.47571,-8.20058 3.82162,-12.94776 8.93048,-18.07166 3.12198,-3.13118 5.22206,-4.53441 7.89914,-5.27803 16.01291,-4.44799 32.0438,14.70104 32.01128,38.23774 -0.0267,19.33497 -10.87461,33.1161 -24.7725,31.47091 z"
     id="path3045"
     inkscape:connector-curvature="0" />
  <path
     style="fill:#502d16;fill-opacity:1;stroke:#000000;stroke-width:0.76703107"
     d="m 339.97569,281.20557 c -7.82878,-1.83292 -14.02281,-8.71134 -16.91332,-18.78211 -1.03494,-3.60582 -1.22354,-6.42313 -0.89859,-13.42304 0.65046,-14.01157 4.54383,-23.26198 13.65092,-32.43375 6.25665,-6.30111 10.64873,-8.43823 17.58404,-8.55615 4.17234,-0.0709 5.58242,0.26599 8.64348,2.06533 8.49654,4.99439 13.16759,15.00606 13.13256,28.14762 -0.0365,13.68019 -4.61691,25.1555 -13.65505,34.20975 -7.30852,7.32155 -14.7678,10.35884 -21.54404,8.77235 z"
     id="path3047"
     inkscape:connector-curvature="0" />
  <path
     style="fill:#502d16;fill-opacity:1;stroke:#000000;stroke-width:0.76703107"
     d="m 199.65557,368.16863 c -14.14074,-3.16026 -24.61474,-10.43602 -29.82596,-20.71862 -2.1871,-4.3155 -3.1267,-11.75947 -2.17534,-17.23409 3.21888,-18.52313 22.01838,-36.70342 47.17565,-45.62182 3.3091,-1.1731 6.10376,-2.50809 6.21035,-2.96665 3.44894,-14.83737 5.47987,-20.41754 10.12813,-27.8279 5.42235,-8.64446 12.49295,-14.40321 20.56562,-16.75 17.87179,-5.19547 36.82627,12.48774 42.46385,39.61582 l 1.21427,5.84307 5.11777,1.64829 c 7.24409,2.33312 19.43821,8.47622 24.99474,12.59175 10.17226,7.53423 18.48146,17.85321 21.90595,27.20442 1.15992,3.16741 1.62853,6.32688 1.67597,11.30001 0.0597,6.25689 -0.16562,7.39275 -2.40629,12.13076 -4.43265,9.37309 -14.11411,16.61127 -27.05091,20.22415 -3.99871,1.11673 -7.64298,1.38011 -18.40875,1.33048 -11.95004,-0.0551 -14.24903,-0.28295 -20.95006,-2.0764 -4.13985,-1.10799 -10.3528,-3.28866 -13.80656,-4.84593 -3.45374,-1.55727 -7.14245,-2.83141 -8.19712,-2.83141 -1.05467,0 -4.74337,1.27414 -8.19712,2.83141 -10.77094,4.85655 -19.56382,6.72359 -33.22256,7.05432 -8.82665,0.21372 -13.25997,-0.0186 -17.21163,-0.90166 l 0,0 z"
     id="path3049"
     inkscape:connector-curvature="0" />
  <path
     style="fill:#502d16;fill-opacity:1;stroke:#000000;stroke-width:0.76703107"
     d="m 165.96092,277.75622 c -14.19322,-5.83544 -25.31267,-24.63197 -25.23946,-42.66522 0.0458,-11.27431 3.81829,-19.94295 10.80468,-24.82742 2.80293,-1.95963 4.17611,-2.35673 8.99036,-2.59984 5.08111,-0.25658 6.21962,-0.0354 10.76349,2.09092 15.58907,7.29501 27.19877,30.46203 24.14957,48.19021 -3.03951,17.67184 -15.04368,25.74208 -29.46864,19.81135 z"
     id="path3051"
     inkscape:connector-curvature="0" />
</svg>
