<?xml version="1.0" encoding="UTF-8" standalone="no"?>
<svg
   xmlns:dc="http://purl.org/dc/elements/1.1/"
   xmlns:cc="http://creativecommons.org/ns#"
   xmlns:rdf="http://www.w3.org/1999/02/22-rdf-syntax-ns#"
   xmlns:svg="http://www.w3.org/2000/svg"
   xmlns="http://www.w3.org/2000/svg"
   xmlns:sodipodi="http://sodipodi.sourceforge.net/DTD/sodipodi-0.dtd"
   xmlns:inkscape="http://www.inkscape.org/namespaces/inkscape"
   viewBox="0 0 512 512"
   id="svg2"
   version="1.1"
   inkscape:version="0.48.4 r9939"
   width="100%"
   height="100%"
   sodipodi:docname="cat_grace.svg">
  <metadata
     id="metadata22">
    <rdf:RDF>
      <cc:Work
         rdf:about="">
        <dc:format>image/svg+xml</dc:format>
        <dc:type
           rdf:resource="http://purl.org/dc/dcmitype/StillImage" />
      </cc:Work>
    </rdf:RDF>
  </metadata>
  <defs
     id="defs20" />
  <sodipodi:namedview
     pagecolor="#ffffff"
     bordercolor="#666666"
     borderopacity="1"
     objecttolerance="10"
     gridtolerance="10"
     guidetolerance="10"
     inkscape:pageopacity="0"
     inkscape:pageshadow="2"
     inkscape:window-width="1280"
     inkscape:window-height="1002"
     id="namedview18"
     showgrid="false"
     inkscape:zoom="1.5332031"
     inkscape:cx="256.54016"
     inkscape:cy="256"
     inkscape:window-x="-8"
     inkscape:window-y="-8"
     inkscape:window-maximized="1"
     inkscape:current-layer="svg2" />
  <path
     d="m0,0h512v512h-512z"
     id="path4" />
  <g
     transform="matrix(-18.68858,0,0,18.68858,12314.7711,-35399.05233)"
     id="g6">
    <path
       d="m634.9341,1915.1836h21.6543c5.5603-7.5585-2.9153-16.0184-12.3303-8.5071-9.3759-6.6333-11.3395,1.3932-9.324,8.5071z"
       fill="#fff"
       stroke="#000"
       id="path8" />
    <path
       d="m643.3252,1895.2011c4.5224,8.4475.1803,12.145-4.5507,12.0866-5.4732-.068-9.4201-4.3367-4.6336-12.1298l1.8715,3.0937c1.6091-.5214 4.0037-.4195 5.5106,0z"
       fill="#fff"
       stroke="#000"
       id="path10" />
    <path
       d="m637.4502,1903.4774c-1.9857.9583-2.8876.1819-3.2734-1.4203 1.949-1.2094 3.1097-.238 3.2734,1.4203z"
       id="path12" />
    <path
       d="m639.9294,1903.4774c1.9857.9583 2.8876.1819 3.2734-1.4203-1.949-1.2094-3.1097-.238-3.2734,1.4203z"
       id="path14" />
    <path
       d="m655.5546,1912.2981c-1.1034,2.4709-2.3308,3.5615-3.6303,4.0518s-2.812.3821-4.5247.1397-3.6041-.634-5.5759-.4938-3.9785.8473-5.8526,2.6776c-1.2343,1.2055.2379,2.4229 1.2746,1.2925 1.5204-1.658 3.1818-2.0843 4.8428-2.2026s3.4038.1984 5.1848.4504 3.5898.4431 5.3476-.2201 3.331-2.1807 4.5511-4.9127l-1.6175-.7825z"
       fill="#fff"
       id="path16" />
  </g>
  <path
     style="fill:#552200;fill-opacity:1;stroke:#000000;stroke-width:2.16949153"
     d="m 416.8131,487.9675 c -2.83415,-1.1344 -10.5524,-6.9973 -17.15165,-13.02864 -36.79989,-33.63302 -76.57875,-40.757 -162.10213,-29.03075 -58.57332,8.03109 -89.03975,8.06023 -112.57793,0.10763 -20.83117,-7.03798 -35.837565,-16.71841 -51.539626,-33.2475 -39.312002,-41.38258 -58.176147,-93.18181 -49.349379,-135.50891 8.530772,-40.90771 43.962119,-75.55822 86.234335,-84.3339 17.98685,-3.73405 56.58127,-1.45341 75.16481,4.44169 22.33341,7.08463 47.35622,19.98359 69.19495,35.66915 l 19.29665,13.85973 10.33889,-6.36157 10.33886,-6.36157 12.66955,6.40382 c 33.72214,17.04482 81.17521,19.69003 122.49917,6.82857 l 12.57769,-3.91462 2.13732,6.79706 c 9.64341,30.66788 8.105,91.0421 -3.25515,127.74621 -1.10655,3.57522 -11.5033,3.79661 -178.29415,3.79661 l -177.11906,0 9.672045,9.87252 c 29.893635,30.51326 60.637655,35.70249 140.926285,23.78671 83.03893,-12.32396 125.42535,-5.84245 170.41568,26.0591 29.35448,20.81454 37.15751,37.85446 21.18457,46.26198 -5.42152,2.85366 -4.55388,2.84158 -11.26173,0.15664 l 0,4e-5 z"
     id="path2999"
     inkscape:connector-curvature="0" />
  <path
     style="fill:#ffff00;fill-opacity:1;stroke:#000000;stroke-width:2.16949153000000020"
     d="m 342.17415,231.0434 c -39.68908,-10.05033 -66.51267,-37.01016 -73.38256,-73.75526 -3.03386,-16.22723 -1.16973,-42.85861 4.40389,-62.915259 5.27592,-18.985387 17.41445,-50.987286 19.33341,-50.970415 0.79047,0.007 7.29484,10.233786 14.45416,22.726304 8.95564,15.626967 14.03228,22.438489 16.27119,21.831689 16.79222,-4.55111 33.49486,-6.439016 56.40678,-6.375682 23.5818,0.06519 31.5719,1.098422 50.26927,6.500553 2.7348,0.790153 7.31726,-5.10889 18.6572,-24.017633 l 15.032,-25.065043 8.78798,19.007147 c 13.76228,29.765906 18.27639,46.494959 19.4713,72.159689 0.90752,19.49249 0.37996,24.78862 -3.65596,36.70145 -10.29916,30.40009 -32.6292,50.57645 -68.91692,62.27005 -14.95054,4.81777 -61.12182,5.95656 -77.13174,1.90241 l 0,0 z m 5.13125,-52.3882 c 8.52283,-3.41016 8.89427,-3.94108 7.73881,-11.06137 -3.35323,-20.66354 -16.45098,-31.9368 -35.07314,-30.18753 -11.81308,1.10966 -27.10251,7.35868 -27.06852,11.06331 0.063,6.86525 11.28721,25.43489 17.75872,29.38048 8.86195,5.403 24.30487,5.7423 36.64413,0.80511 z m 99.18587,-0.80511 c 6.47151,-3.94559 17.69574,-22.51523 17.75872,-29.38048 0.034,-3.70463 -15.25544,-9.95365 -27.06852,-11.06331 -18.62344,-1.74939 -31.71989,9.5239 -35.07372,30.19112 -1.14326,7.04508 -0.72481,7.68568 7.15254,10.94957 11.96279,4.95667 28.46469,4.64778 37.23098,-0.6969 z"
     id="path3001"
     inkscape:connector-curvature="0" />
  <path
     style="fill:#784421;fill-opacity:1;stroke:#000000;stroke-width:2.16949153000000020"
     d="m 413.8883,482.97908 c -4.1792,-2.83609 -13.04576,-9.59334 -19.70347,-15.01609 -13.88859,-11.31242 -34.13363,-21.40355 -51.40517,-25.62287 -17.98274,-4.39307 -66.51741,-3.41992 -112.81356,2.26194 -49.07818,6.02329 -87.42752,5.54545 -106.30508,-1.32457 -26.366382,-9.59537 -51.339686,-30.98242 -70.787307,-60.62196 -39.10571,-59.59987 -37.889589,-116.39107 3.362592,-157.02841 24.9986,-24.62601 53.526875,-34.48659 91.895825,-31.76309 36.35591,2.58062 64.20479,13.33172 103.1184,39.80899 11.56135,7.86649 22.00263,14.31834 23.20284,14.33745 1.20021,0.0191 6.26783,-2.54442 11.2614,-5.69671 l 9.07917,-5.73144 13.68777,6.38141 c 22.04803,10.27907 38.9624,13.75138 66.84032,13.72148 18.07974,-0.0193 30.22304,-1.31208 44.10351,-4.69497 10.53488,-2.56751 19.92012,-4.66821 20.85608,-4.66821 7.66753,0 10.14808,80.37983 3.448,111.72882 -2.04019,9.54576 -4.19144,17.84407 -4.78057,18.44068 -0.58912,0.59661 -81.13813,1.57288 -178.9978,2.16949 l -177.926678,1.08474 13.831567,13.28046 c 31.371121,30.12118 55.037091,34.03446 141.525671,23.40196 51.041,-6.27476 91.53868,-6.2632 114.71321,0.0328 34.77227,9.4467 81.80329,42.98478 81.80329,58.33437 0,3.80952 -7.28952,12.34033 -10.54471,12.34033 -1.02671,0 -5.2861,-2.32043 -9.4653,-5.15652 l 0,-4e-5 z"
     id="path3029"
     inkscape:connector-curvature="0" />
</svg>
