<?xml version="1.0" encoding="UTF-8" standalone="no"?>
<svg
   xmlns:dc="http://purl.org/dc/elements/1.1/"
   xmlns:cc="http://creativecommons.org/ns#"
   xmlns:rdf="http://www.w3.org/1999/02/22-rdf-syntax-ns#"
   xmlns:svg="http://www.w3.org/2000/svg"
   xmlns="http://www.w3.org/2000/svg"
   xmlns:sodipodi="http://sodipodi.sourceforge.net/DTD/sodipodi-0.dtd"
   xmlns:inkscape="http://www.inkscape.org/namespaces/inkscape"
   viewBox="0 0 512 512"
   id="svg3065"
   version="1.1"
   inkscape:version="0.48.5 r10040"
   width="100%"
   height="100%"
   sodipodi:docname="haunting.svg">
  <metadata
     id="metadata3075">
    <rdf:RDF>
      <cc:Work
         rdf:about="">
        <dc:format>image/svg+xml</dc:format>
        <dc:type
           rdf:resource="http://purl.org/dc/dcmitype/StillImage" />
        <dc:title></dc:title>
      </cc:Work>
    </rdf:RDF>
  </metadata>
  <defs
     id="defs3073" />
  <sodipodi:namedview
     pagecolor="#ffffff"
     bordercolor="#666666"
     borderopacity="1"
     objecttolerance="10"
     gridtolerance="10"
     guidetolerance="10"
     inkscape:pageopacity="0"
     inkscape:pageshadow="2"
     inkscape:window-width="1280"
     inkscape:window-height="1002"
     id="namedview3071"
     showgrid="false"
     inkscape:zoom="0.4609375"
     inkscape:cx="256"
     inkscape:cy="256"
     inkscape:window-x="-8"
     inkscape:window-y="-8"
     inkscape:window-maximized="1"
     inkscape:current-layer="layer5" />
  <path
     d="M0 0h512v512H0z"
     id="path3067" />
  <g
     inkscape:groupmode="layer"
     id="layer4"
     inkscape:label="Duch">
    <path
       d="m 331.71643,180.81646 c -216.80531,142.68733 -108.40265,71.34367 0,0 z m -207.186,-51.405 c -53.417989,-0.164 -65.812989,17.017 -89.843989,27.342 7.457,62.138 33.86,128.37 17.5,232.438 19.145,-14.237 59.437999,-96.563 59.437999,-96.563 l -7.626,82.064 51.31299,-92 4.906,45.78 28.845,-45.187 c -1.093,24.925 -4.462,51.423 -21.25,74.782 -38.333,53.333 -53.12599,129.84 -53.12599,129.84 l 46.71999,-50.5 -20.44,66.844 c 37.762,-30.703 55.564,-65.578 66.907,-102.187 l 6.5,101.03 26.594,-60.156 35.219,59.565 c -0.13,-24.413 -3.5,-47.555 5.75,-70.094 8.515,29.13 55.87,51.816 80.406,42.657 -40.048,-39.82 -69.453,-161.727 9.906,-204.408 2.53,22.436 -3.683,44.846 -18.843,67.282 26.68,-11.406 44.907,-27.785 54.78,-50.688 l -9.97,114.813 c 23.782,-37.54 43.916,-82.23 45.22,-114.19 10.45,28.937 8.05,75.348 5.375,110.283 50.06,-53.433 50.658,-106.84 53.813,-220.375 -33.91,-26.452 -73.682,-40.823 -117.844,-43.907 -6.46,12.55 -16.095,23.77 -28,32.845 l -9.563,26.156 -0.874,2.376 2.72,32.28 -18.626,1.564 -2.47,-29.22 -21.03,1.69 2.53,30.218 -18.592,1.562 -2.563,-30.313 -18.906,1.5 2.593,30.782 -18.594,1.56 -2.75,-32.468 -1.845,-2.156 -18.72,-22.03 c -20.886,-9.807 -37.6,-25.673 -46.218,-45.5 -24.256,-3.692 -43.582,-5.266 -59.343,-5.314 z"
       id="path3069"
       inkscape:connector-curvature="0"
       style="fill:#ff5555;fill-rule:evenodd"
       sodipodi:nodetypes="ccccccccccccccccccccccccccccccccccccccccccccccc" />
  </g>
  <g
     inkscape:groupmode="layer"
     id="layer5"
     inkscape:label="Czaszka">
    <path
       style="fill:#d40000;fill-rule:evenodd"
       inkscape:connector-curvature="0"
       d="m 226.7463,11.387516 -30.56898,30.77566 46.24476,21.94962 -5.88403,12.41161 -50.63571,-24.01785 -52.88562,53.253374 24.49961,71.32174 41.83248,-5.26326 7.74484,-31.23682 13.33173,3.2877 -33.71767,136.25195 40.68068,-36.52214 7.35503,-6.61953 3.63339,9.19379 10.8928,27.60343 22.98447,-30.61458 5.9767,-7.9758 5.33241,8.43622 22.3637,35.46376 16.6643,-34.38477 3.74517,-7.72279 6.71147,5.3324 45.99248,36.61482 -46.19989,-134.02338 12.98604,-4.48216 9.4012,27.25995 44.54354,-0.69137 19.46877,-74.928654 -53.48579,-45.8542 -51.57716,28.56988 -6.66365,-12.04386 47.09426,-26.08683 -21.88122,-18.77739 -105.98158,-6.48199 z m 140.25162,62.88552 9.76748,49.439054 -78.90478,-11.95193 69.1373,-37.488594 z m -181.07205,0.68843 72.12639,37.763674 -85.50225,9.90723 13.37586,-47.670904 z m 90.60516,90.099134 41.07345,47.62383 -26.66199,9.4696 -12.80291,-31.37288 -11.30763,31.87964 -25.99562,-9.97636 35.69544,-47.62383 z m 54.68025,93.3633 -18.31991,37.78721 -5.40006,11.14655 -6.59746,-10.48092 -23.62731,-37.4886 -24.38635,32.50189 -7.40136,9.81308 -4.50496,-11.42236 -11.74598,-29.85702 -22.38577,20.08806 18.77739,48.84182 45.16504,25.90442 72.67801,-29.09871 12.45721,-48.05998 -24.70702,-19.67471 z"
       id="path3025"
       inkscape:transform-center-y="-46.274367" />
  </g>
</svg>
