<?xml version="1.0" encoding="UTF-8" standalone="no"?>
<svg
   xmlns:dc="http://purl.org/dc/elements/1.1/"
   xmlns:cc="http://creativecommons.org/ns#"
   xmlns:rdf="http://www.w3.org/1999/02/22-rdf-syntax-ns#"
   xmlns:svg="http://www.w3.org/2000/svg"
   xmlns="http://www.w3.org/2000/svg"
   xmlns:sodipodi="http://sodipodi.sourceforge.net/DTD/sodipodi-0.dtd"
   xmlns:inkscape="http://www.inkscape.org/namespaces/inkscape"
   viewBox="0 0 512 512"
   id="svg2"
   version="1.1"
   inkscape:version="0.48.4 r9939"
   width="100%"
   height="100%"
   sodipodi:docname="charm_person.svg">
  <metadata
     id="metadata26">
    <rdf:RDF>
      <cc:Work
         rdf:about="">
        <dc:format>image/svg+xml</dc:format>
        <dc:type
           rdf:resource="http://purl.org/dc/dcmitype/StillImage" />
      </cc:Work>
    </rdf:RDF>
  </metadata>
  <defs
     id="defs24" />
  <sodipodi:namedview
     pagecolor="#ffffff"
     bordercolor="#666666"
     borderopacity="1"
     objecttolerance="10"
     gridtolerance="10"
     guidetolerance="10"
     inkscape:pageopacity="0"
     inkscape:pageshadow="2"
     inkscape:window-width="1280"
     inkscape:window-height="1002"
     id="namedview22"
     showgrid="false"
     inkscape:zoom="0.4609375"
     inkscape:cx="256"
     inkscape:cy="256"
     inkscape:window-x="-8"
     inkscape:window-y="-8"
     inkscape:window-maximized="1"
     inkscape:current-layer="svg2" />
  <path
     d="m0,0h512v512h-512z"
     id="path4" />
  <path
     style="fill:#ffffff;fill-rule:evenodd;stroke:#000000;stroke-width:18.68857956"
     inkscape:connector-curvature="0"
     id="path10"
     d="m 500.06821,258.96695 c -152.18111,-135.29971 -326.68946,-139.90644 -484.05104,0 153.84626,136.78172 334.13686,133.28509 484.05104,0 z" />
  <path
     inkscape:connector-curvature="0"
     id="path12"
     d="m 317.2436,257.98806 c 0,32.69069 -26.50002,59.19168 -59.18952,59.19168 -32.68949,0 -59.18952,-26.50099 -59.18952,-59.19168 0,-32.6907 26.50003,-59.19169 59.18952,-59.19169 32.6895,0 59.18952,26.50099 59.18952,59.19169 z" />
  <path
     style="fill:none;stroke:#000000;stroke-width:18.68688774"
     inkscape:connector-curvature="0"
     id="path14"
     d="m 371.69285,257.9947 c 0,62.76322 -50.87762,113.64278 -113.63845,113.64278 -62.76083,0 -113.63845,-50.87956 -113.63845,-113.64278 0,-62.76322 50.87762,-113.64278 113.63845,-113.64278 62.76083,0 113.63845,50.87956 113.63845,113.64278 z" />
  <path
     style="fill:none;stroke:#ffffff;stroke-width:18.68857956"
     inkscape:connector-curvature="0"
     id="path16"
     d="m 487.50575,224.21554 c -144.28145,-114.16293 -309.73144,-118.04828 -458.926116,0" />
  <path
     style="fill:none;stroke:#ffffff;stroke-width:18.68857956"
     inkscape:connector-curvature="0"
     id="path18"
     d="m 486.22932,294.91444 c -143.47784,117.99035 -308.00836,122.00839 -456.373256,0" />
  <path
     id="path8"
     d="m 260.12485,173.86882 c 12.61896,2.16653 24.9972,8.59145 34.46048,18.19458 -18.80115,-9.57505 -43.65406,-9.99013 -63.01287,-1.2843 3.49658,-3.56659 7.34226,-6.42355 11.42108,-8.56199 -51.51807,13.73137 -70.13018,56.63791 -48.83498,110.44967 -5.54576,-9.81478 -9.81299,-20.37137 -12.01151,-31.03687 -1.88598,29.02926 12.60761,52.5487 39.66156,77.14285 l 40.67985,0.34248 c 25.96004,0.21918 48.89043,-14.16975 62.61904,-35.74597 -3.47831,4.27072 -7.66425,8.07224 -12.40597,11.34498 15.69209,-20.25561 23.87368,-50.56643 20.67578,-77.05791 2.84125,5.96873 4.57537,12.28885 5.31703,18.83638 -0.0504,-55.83857 -40.57777,-85.02399 -78.56949,-82.6239 z"
     inkscape:connector-curvature="0"
     style="fill:#ff0000;stroke:#800000;stroke-width:6.56972218000000030" />
  <path
     style="stroke:#800000;stroke-width:6.56972218000000030"
     id="path10-1"
     d="m 216.40967,231.71432 c 1.09579,-6.7948 2.76563,-13.39507 5.00889,-19.5597 -27.51016,34.4418 -17.40352,84.54383 15.90193,91.40507 l -1.94017,39.83175 c 24.59771,0.99593 59.46777,-10.90661 72.13777,-34.24522 -10.3694,8.24211 -27.93865,14.16564 -42.29613,13.30807 27.57002,-6.3119 52.12803,-26.15243 52.12803,-60.69698 0,-24.00576 -13.34928,-44.4607 -32.46423,-53.23571 22.69975,7.88251 37.19712,27.02095 40.81217,49.60611 -3.98682,-73.73723 -83.59224,-75.88868 -109.28826,-26.41339 z"
     inkscape:connector-curvature="0" />
  <path
     id="path12-7"
     d="m 257.22547,305.98761 c 20.85593,0.8255 22.31029,35.0834 1.11786,34.24379 -9.06821,-0.35842 -34.36152,-9.0164 -34.67044,-18.47291 -0.30893,-9.45653 24.48453,-16.13006 33.55303,-15.77114 z"
     inkscape:connector-curvature="0"
     style="fill:#ff0000;stroke:#ff0000;stroke-width:5.41938114" />
  <path
     id="path8-0"
     d="m 264.70902,206.35303 c 7.40331,1.27106 14.6654,5.04045 20.21733,10.67442 -11.03029,-5.6175 -25.61103,-5.86102 -36.96849,-0.75347 2.05138,-2.09245 4.30756,-3.76858 6.70053,-5.02316 -30.2247,8.05594 -41.14408,33.22842 -28.65058,64.79879 -3.2536,-5.75815 -5.7571,-11.95151 -7.04693,-18.20876 -1.10647,17.03093 7.39665,30.82936 23.26871,45.25829 l 23.86612,0.20093 c 15.23028,0.12859 28.68311,-8.31314 36.73744,-20.97151 -2.04066,2.50556 -4.49648,4.73584 -7.27836,6.6559 9.20627,-11.8836 14.00625,-29.6664 12.1301,-45.20847 1.66691,3.50175 2.68429,7.20965 3.1194,11.05096 -0.0296,-32.75946 -23.80623,-49.88201 -46.09527,-48.47392 z"
     inkscape:connector-curvature="0"
     style="fill:#ff0000;stroke:#ff0000;stroke-width:3.85433531000000020" />
  <path
     style="stroke:#ff0000;stroke-width:3.85433531"
     id="path10-1-9"
     d="m 239.06213,240.28992 c 0.64288,-3.98638 1.62254,-7.85864 2.93862,-11.47531 -16.1397,20.20637 -10.21033,49.60031 9.32937,53.62567 l -1.13826,23.36856 c 14.43102,0.58429 34.88865,-6.39871 42.3219,-20.09105 -6.08353,4.8355 -16.39109,8.31072 -24.81436,7.8076 16.17483,-3.70307 30.58256,-15.34314 30.58256,-35.6098 0,-14.08374 -7.83178,-26.08427 -19.04617,-31.23241 13.31753,4.62452 21.82287,15.8527 23.94375,29.10299 -2.33899,-43.26027 -49.04203,-44.52249 -64.11741,-15.49625 z"
     inkscape:connector-curvature="0" />
  <path
     id="path12-7-4"
     d="m 257.20035,284.62194 c 12.57372,7.89079 1.34602,29.53901 -11.43029,21.52043 -5.46727,-3.43062 -18.00624,-17.72372 -14.84987,-23.66673 3.15637,-5.943 20.81326,-1.28472 26.28053,2.1463 z"
     inkscape:connector-curvature="0"
     style="fill:#ff0000;stroke:#ff0000;stroke-width:3.85433531000000020" />
</svg>
