<?xml version="1.0" encoding="UTF-8" standalone="no"?>
<svg
   xmlns:dc="http://purl.org/dc/elements/1.1/"
   xmlns:cc="http://creativecommons.org/ns#"
   xmlns:rdf="http://www.w3.org/1999/02/22-rdf-syntax-ns#"
   xmlns:svg="http://www.w3.org/2000/svg"
   xmlns="http://www.w3.org/2000/svg"
   xmlns:sodipodi="http://sodipodi.sourceforge.net/DTD/sodipodi-0.dtd"
   xmlns:inkscape="http://www.inkscape.org/namespaces/inkscape"
   viewBox="0 0 512 512"
   id="svg2"
   version="1.1"
   inkscape:version="0.48.5 r10040"
   width="100%"
   height="100%"
   sodipodi:docname="charm_animal.svg">
  <metadata
     id="metadata26">
    <rdf:RDF>
      <cc:Work
         rdf:about="">
        <dc:format>image/svg+xml</dc:format>
        <dc:type
           rdf:resource="http://purl.org/dc/dcmitype/StillImage" />
        <dc:title></dc:title>
      </cc:Work>
    </rdf:RDF>
  </metadata>
  <defs
     id="defs24" />
  <sodipodi:namedview
     pagecolor="#ffffff"
     bordercolor="#666666"
     borderopacity="1"
     objecttolerance="10"
     gridtolerance="10"
     guidetolerance="10"
     inkscape:pageopacity="0"
     inkscape:pageshadow="2"
     inkscape:window-width="1280"
     inkscape:window-height="1002"
     id="namedview22"
     showgrid="false"
     inkscape:zoom="0.4609375"
     inkscape:cx="256"
     inkscape:cy="256"
     inkscape:window-x="-8"
     inkscape:window-y="-8"
     inkscape:window-maximized="1"
     inkscape:current-layer="svg2" />
  <path
     d="m0,0h512v512h-512z"
     id="path4" />
  <path
     style="fill:#ffffff;fill-rule:evenodd;stroke:#000000;stroke-width:18.68857956"
     inkscape:connector-curvature="0"
     id="path10"
     d="m 500.06821,258.96695 c -152.18111,-135.29971 -326.68946,-139.90644 -484.05104,0 153.84626,136.78172 334.13686,133.28509 484.05104,0 z" />
  <path
     inkscape:connector-curvature="0"
     id="path12"
     d="m 317.2436,257.98806 c 0,32.69069 -26.50002,59.19168 -59.18952,59.19168 -32.68949,0 -59.18952,-26.50099 -59.18952,-59.19168 0,-32.6907 26.50003,-59.19169 59.18952,-59.19169 32.6895,0 59.18952,26.50099 59.18952,59.19169 z" />
  <path
     style="fill:none;stroke:#000000;stroke-width:18.68688774"
     inkscape:connector-curvature="0"
     id="path14"
     d="m 371.69285,257.9947 c 0,62.76322 -50.87762,113.64278 -113.63845,113.64278 -62.76083,0 -113.63845,-50.87956 -113.63845,-113.64278 0,-62.76322 50.87762,-113.64278 113.63845,-113.64278 62.76083,0 113.63845,50.87956 113.63845,113.64278 z" />
  <path
     style="fill:none;stroke:#ffffff;stroke-width:18.68857956"
     inkscape:connector-curvature="0"
     id="path16"
     d="m 487.50575,224.21554 c -144.28145,-114.16293 -309.73144,-118.04828 -458.926116,0" />
  <path
     style="fill:none;stroke:#ffffff;stroke-width:18.68857956"
     inkscape:connector-curvature="0"
     id="path18"
     d="m 486.22932,294.91444 c -143.47784,117.99035 -308.00836,122.00839 -456.373256,0" />
  <path
     style="stroke:#800000;stroke-width:6.56972218"
     id="path10-1"
     d="m 209.9012,227.37534 c 1.09579,-6.7948 2.76563,-13.39507 5.00889,-19.5597 -27.51016,34.4418 -17.40352,84.54383 15.90193,91.40507 l -1.94017,39.83175 c 24.59771,0.99593 59.46777,-10.90661 72.13777,-34.24522 -10.3694,8.24211 -27.93865,14.16564 -42.29613,13.30807 27.57002,-6.3119 52.12803,-26.15243 52.12803,-60.69698 0,-24.00576 -13.34928,-44.4607 -32.46423,-53.23571 22.69975,7.88251 37.19712,27.02095 40.81217,49.60611 -3.98682,-73.73723 -83.59224,-75.88868 -109.28826,-26.41339 z"
     inkscape:connector-curvature="0" />
  <path
     style="fill:#ff0000;stroke:#800000"
     inkscape:connector-curvature="0"
     d="m 297.73122,187.15475 c -17.16181,0.21331 -34.58998,8.37954 -45.8437,26.20408 -17.33428,-44.54336 -97.81016,-28.85468 -95.95233,24.39539 1.93642,55.4464 88.70752,87.76293 98.04632,119.63694 8.54721,-29.16593 99.57205,-66.49922 97.74896,-119.63694 -1.09601,-31.90616 -27.22731,-50.93155 -53.99966,-50.59872 z m -63.7049,22.18545 c 6.36098,8.43627 11.52586,18.74248 1.69282,19.45505 -9.59523,0.69593 -5.86467,-10.84896 -1.69364,-19.45505 z m 40.19493,0 c 4.17186,8.60609 7.91442,20.15174 -1.67999,19.45505 -9.83346,-0.71257 -4.68098,-11.01878 1.6804,-19.45505 z m 32.79006,21.53527 c 1.50959,9.31187 1.7412,21.34315 -7.30231,18.33249 -9.26932,-3.08782 -1.28915,-11.75442 7.30231,-18.33249 z m -109.19996,2.11579 c 9.26188,5.77169 18.13293,13.68034 9.2408,17.58738 -8.67542,3.81022 -9.74124,-8.18626 -9.24121,-17.58738 z m 41.06099,0.23601 c 5.30136,0.0567 10.2032,5.32387 11.23179,12.33954 1.09683,7.48276 -2.62876,14.12284 -8.32345,14.82104 -5.6951,0.69821 -11.2074,-4.80909 -12.30423,-12.29224 -1.09684,-7.48315 2.642,-14.11151 8.33627,-14.80972 0.35652,-0.0434 0.70724,-0.0628 1.06044,-0.0589 z m 30.51531,0 c 0.35321,-0.004 0.70393,0.0151 1.06002,0.059 5.69428,0.6982 9.41988,7.32619 8.32346,14.80971 -1.09684,7.48315 -6.59672,12.99045 -12.29182,12.29225 -5.69428,-0.69782 -9.41988,-7.33827 -8.32304,-14.82142 1.02777,-7.01604 5.93002,-12.28356 11.23097,-12.33992 z m -55.26564,20.75576 c 5.03419,-0.0143 10.45218,4.14381 13.0156,10.42383 3.03698,7.44343 0.90742,15.05216 -4.75626,16.98488 -5.6649,1.93272 -12.71781,-2.5322 -15.75562,-9.97565 -3.03738,-7.44344 -0.90782,-15.05139 4.75626,-16.98448 0.88508,-0.30183 1.80738,-0.44631 2.74002,-0.44896 z m 79.16315,0.20046 c 0.7428,-0.0189 1.4794,0.0597 2.21021,0.23638 5.84482,1.41343 8.78708,8.78386 6.56571,16.46406 -2.22097,7.68172 -8.75979,12.76127 -14.60503,11.34671 -5.84482,-1.41304 -8.78667,-8.78349 -6.56569,-16.46407 1.94386,-6.72103 7.19725,-11.4526 12.39521,-11.58308 z m -39.18743,10.72035 c 7.57693,0 13.90647,7.52967 15.5356,17.62294 0.25022,0.0616 0.49795,0.12217 0.74859,0.18911 14.12939,3.75425 23.67458,13.88079 21.31341,22.62229 -2.36159,8.74074 -15.7275,12.7847 -29.85606,9.03008 -2.75036,-0.7311 -5.32867,-1.70352 -7.67743,-2.8605 -2.34629,1.15547 -4.91673,2.13053 -7.66378,2.8605 -14.12898,3.75462 -27.49447,-0.28897 -29.85606,-9.03008 -2.36159,-8.74074 7.17078,-18.86804 21.29976,-22.62266 0.19935,-0.053 0.39539,-0.10363 0.59432,-0.15356 1.62003,-10.11068 7.97604,-17.65774 15.56165,-17.65774 z"
     id="path3033" />
</svg>
