<?xml version="1.0" encoding="UTF-8" standalone="no"?>
<svg
   xmlns:dc="http://purl.org/dc/elements/1.1/"
   xmlns:cc="http://creativecommons.org/ns#"
   xmlns:rdf="http://www.w3.org/1999/02/22-rdf-syntax-ns#"
   xmlns:svg="http://www.w3.org/2000/svg"
   xmlns="http://www.w3.org/2000/svg"
   xmlns:xlink="http://www.w3.org/1999/xlink"
   xmlns:sodipodi="http://sodipodi.sourceforge.net/DTD/sodipodi-0.dtd"
   xmlns:inkscape="http://www.inkscape.org/namespaces/inkscape"
   viewBox="0 0 512 512"
   id="svg2"
   version="1.1"
   inkscape:version="0.48.4 r9939"
   width="100%"
   height="100%"
   sodipodi:docname="sword-smithing.svg">
  <metadata
     id="metadata36">
    <rdf:RDF>
      <cc:Work
         rdf:about="">
        <dc:format>image/svg+xml</dc:format>
        <dc:type
           rdf:resource="http://purl.org/dc/dcmitype/StillImage" />
      </cc:Work>
    </rdf:RDF>
  </metadata>
  <defs
     id="defs34">
    <linearGradient
       id="linearGradient3889">
      <stop
         style="stop-color:#f9e500;stop-opacity:1;"
         offset="0"
         id="stop3891" />
      <stop
         style="stop-color:#ff2300;stop-opacity:1;"
         offset="1"
         id="stop3893" />
    </linearGradient>
    <linearGradient
       id="linearGradient3883">
      <stop
         id="stop3885"
         offset="0"
         style="stop-color:#f98a00;stop-opacity:1;" />
      <stop
         id="stop3887"
         offset="1"
         style="stop-color:#ffe500;stop-opacity:1;" />
    </linearGradient>
    <linearGradient
       inkscape:collect="always"
       xlink:href="#linearGradient3883"
       id="linearGradient3847"
       x1="475.11865"
       y1="182.23729"
       x2="106.30508"
       y2="86.779663"
       gradientUnits="userSpaceOnUse" />
    <linearGradient
       inkscape:collect="always"
       xlink:href="#linearGradient3883"
       id="linearGradient3849"
       x1="475.11865"
       y1="182.23729"
       x2="106.30508"
       y2="86.779663"
       gradientUnits="userSpaceOnUse" />
    <linearGradient
       inkscape:collect="always"
       xlink:href="#linearGradient3883"
       id="linearGradient3851"
       x1="475.11865"
       y1="182.23729"
       x2="106.30508"
       y2="86.779663"
       gradientUnits="userSpaceOnUse" />
    <linearGradient
       inkscape:collect="always"
       xlink:href="#linearGradient3883"
       id="linearGradient3853"
       x1="475.11865"
       y1="182.23729"
       x2="106.30508"
       y2="86.779663"
       gradientUnits="userSpaceOnUse" />
    <linearGradient
       inkscape:collect="always"
       xlink:href="#linearGradient3889"
       id="linearGradient3855"
       x1="475.11865"
       y1="182.23729"
       x2="106.30508"
       y2="86.779663"
       gradientUnits="userSpaceOnUse" />
    <linearGradient
       inkscape:collect="always"
       xlink:href="#linearGradient3883"
       id="linearGradient3857"
       x1="475.11865"
       y1="182.23729"
       x2="106.30508"
       y2="86.779663"
       gradientUnits="userSpaceOnUse" />
    <linearGradient
       inkscape:collect="always"
       xlink:href="#linearGradient3883"
       id="linearGradient3933"
       x1="15.400561"
       y1="120.23563"
       x2="364.5238"
       y2="120.23563"
       gradientUnits="userSpaceOnUse" />
    <linearGradient
       inkscape:collect="always"
       xlink:href="#linearGradient3883"
       id="linearGradient3941"
       x1="379.36151"
       y1="171.34319"
       x2="492.8649"
       y2="171.34319"
       gradientUnits="userSpaceOnUse" />
  </defs>
  <sodipodi:namedview
     pagecolor="#ffffff"
     bordercolor="#666666"
     borderopacity="1"
     objecttolerance="10"
     gridtolerance="10"
     guidetolerance="10"
     inkscape:pageopacity="0"
     inkscape:pageshadow="2"
     inkscape:window-width="1280"
     inkscape:window-height="1002"
     id="namedview32"
     showgrid="false"
     inkscape:zoom="0.75585938"
     inkscape:cx="53.535065"
     inkscape:cy="256"
     inkscape:window-x="-8"
     inkscape:window-y="-8"
     inkscape:window-maximized="1"
     inkscape:current-layer="svg2" />
  <path
     d="m0,0h512v512h-512z"
     id="path4" />
  <g
     id="g3949"
     style="fill:#800080;stroke:#ff00ff">
    <g
       id="g3943"
       style="fill:#800080;stroke:#ff00ff">
      <path
         style="fill:#800080;stroke:#ff00ff"
         inkscape:connector-curvature="0"
         id="path8"
         d="m 213.67705,338.95172 h 90.84706 c 0,63.72245 32.1238,107.91159 84.82933,143.70023 H 133.17039 c 44.23773,-35.83723 80.50853,-80.1329 80.50853,-143.70023 z" />
      <path
         style="fill:#800080;fill-rule:evenodd;stroke:#ff00ff"
         inkscape:connector-curvature="0"
         id="path10"
         d="m 366.69167,295.50637 v 74.22544 c 23.5364,-5.76169 47.07466,-19.65104 70.61106,-40.12252 -23.5364,-20.8172 -46.51401,-30.69599 -70.61106,-34.10292 z" />
      <path
         style="fill:#800080;fill-rule:evenodd;stroke:#ff00ff"
         inkscape:connector-curvature="0"
         id="path12"
         d="M 55.541762,288.21596 H 169.46174 v 77.50341 C 123.19255,364.78494 75.048902,335.54479 55.541762,288.21596 z" />
      <path
         style="fill:#800080;stroke:#ff00ff"
         inkscape:connector-curvature="0"
         id="path14"
         d="M 144.46763,267.87905 H 378.05246 V 395.46224 H 144.46763 V 267.87905 z" />
    </g>
    <path
       d="M 119.09415,482.42208 H 403.42594"
       id="path16"
       inkscape:connector-curvature="0"
       style="fill:#800080;stroke:#ff00ff;stroke-width:18.68857956000000100" />
  </g>
  <path
     style="fill:url(#linearGradient3933);fill-rule:evenodd;fill-opacity:1.0"
     inkscape:connector-curvature="0"
     id="path18"
     d="M 364.52192,113.88141 C 246.58203,82.563087 137.53604,56.572879 15.400561,58.424917 116.66276,122.02029 228.45224,150.80631 346.23328,182.13958 l 18.29051,-68.25817 z" />
  <path
     style="fill:url(#linearGradient3941);fill-opacity:1.0;stroke:url(#linearGradient3849)"
     inkscape:connector-curvature="0"
     id="path20"
     d="m 492.36489,171.88702 -7.26425,27.10966 c -33.1498,-16.5992 -68.01335,-26.81064 -105.23913,-28.1992 l 7.26425,-27.10779 c 32.51813,18.95957 68.14604,26.30792 105.23726,28.19733 z" />
  <a
     id="a3957">
    <path
       d="M 384.04252,110.23916 C 260.39948,76.417746 204.11718,65.486372 82.701425,51.973424 80.312307,51.707527 59.451095,48.699649 33.522908,49.309628 25.157405,49.506432 2.1529913,56.850774 -0.11712704,56.923454 M 8.0337538,58.588355 C 12.995982,61.798269 26.58415,73.518982 31.598668,76.55627 134.57152,138.9268 241.82338,164.57746 361.20283,197.22687"
       id="path22"
       inkscape:connector-curvature="0"
       style="fill:none;stroke:url(#linearGradient3855);stroke-width:18.68857956"
       sodipodi:nodetypes="cssccsc" />
  </a>
  <path
     style="fill:#ffffff;fill-opacity:1;stroke:url(#linearGradient3851)"
     inkscape:connector-curvature="0"
     id="path24"
     d="m 490.3612,186.7632 c -4.14452,15.4674 -14.56655,26.11196 -23.27635,23.7782 -8.70979,-2.33376 -12.41321,-16.76319 -8.26869,-32.23059 4.14451,-15.46741 14.56485,-26.11242 23.27634,-23.7782 8.71149,2.33421 12.41321,16.76318 8.2687,32.23059 z" />
  <path
     style="fill:none;stroke:url(#linearGradient3847);stroke-width:18.68857956000000100;fill-opacity:1"
     inkscape:connector-curvature="0"
     id="path26"
     d="M 397.20264,81.892167 357.91177,228.52837" />
  <path
     style="stroke:url(#linearGradient3853);stroke-width:18.68833542000000100;fill-opacity:1"
     inkscape:connector-curvature="0"
     id="path28"
     d="m 374.79242,146.81078 c 0,14.10936 -11.43812,25.54956 -25.54955,25.54956 -14.11143,0 -25.54955,-11.4402 -25.54955,-25.54956 0,-14.10936 11.43812,-25.54955 25.54955,-25.54955 14.11143,0 25.54955,11.43812 25.54955,25.54955 z" />
  <path
     style="fill-rule:evenodd;fill-opacity:1;stroke:url(#linearGradient3857)"
     inkscape:connector-curvature="0"
     id="path30"
     d="M 354.60389,131.78133 C 296.7291,116.27355 244.37491,102.76731 185.14333,103.65689 c 48.73421,30.61002 102.75355,43.25845 159.80604,58.58309" />
</svg>
