<?xml version="1.0" encoding="UTF-8" standalone="no"?>
<svg
   xmlns:dc="http://purl.org/dc/elements/1.1/"
   xmlns:cc="http://creativecommons.org/ns#"
   xmlns:rdf="http://www.w3.org/1999/02/22-rdf-syntax-ns#"
   xmlns:svg="http://www.w3.org/2000/svg"
   xmlns="http://www.w3.org/2000/svg"
   xmlns:sodipodi="http://sodipodi.sourceforge.net/DTD/sodipodi-0.dtd"
   xmlns:inkscape="http://www.inkscape.org/namespaces/inkscape"
   viewBox="0 0 512 512"
   id="svg2"
   version="1.1"
   inkscape:version="0.48.4 r9939"
   width="100%"
   height="100%"
   sodipodi:docname="darkness.svg">
  <metadata
     id="metadata24">
    <rdf:RDF>
      <cc:Work
         rdf:about="">
        <dc:format>image/svg+xml</dc:format>
        <dc:type
           rdf:resource="http://purl.org/dc/dcmitype/StillImage" />
      </cc:Work>
    </rdf:RDF>
  </metadata>
  <defs
     id="defs22" />
  <sodipodi:namedview
     pagecolor="#ffffff"
     bordercolor="#666666"
     borderopacity="1"
     objecttolerance="10"
     gridtolerance="10"
     guidetolerance="10"
     inkscape:pageopacity="0"
     inkscape:pageshadow="2"
     inkscape:window-width="1280"
     inkscape:window-height="1002"
     id="namedview20"
     showgrid="false"
     inkscape:zoom="0.4609375"
     inkscape:cx="256"
     inkscape:cy="256"
     inkscape:window-x="-8"
     inkscape:window-y="-8"
     inkscape:window-maximized="1"
     inkscape:current-layer="svg2" />
  <path
     d="m0,0h512v512h-512z"
     id="path4" />
  <path
     d="m367.1652,70.1466c0,5.6382-4.5707,10.2089-10.2088,10.2089s-10.2088-4.5707-10.2088-10.2089 4.5707-10.2089 10.2088-10.2089 10.2088,4.5707 10.2088,10.2089z"
     stroke="#fff"
     stroke-width="1.2217"
     transform="matrix(15.29754,0,0,15.29754,-5204.61054,-815.55748)"
     id="path6"
     style="stroke:#666666" />
  <path
     d="m367.1652,70.1466c0,5.6382-4.5707,10.2089-10.2088,10.2089s-10.2088-4.5707-10.2088-10.2089 4.5707-10.2089 10.2088-10.2089 10.2088,4.5707 10.2088,10.2089z"
     fill="none"
     stroke="#fff"
     stroke-width=".8459"
     transform="matrix(22.09345,0,0,22.09345,-7630.43139,-1293.91505)"
     id="path8"
     style="stroke:#808080" />
  <path
     d="m192.0679,103.0271c0,1.4401-1.1674,2.6075-2.6075,2.6075s-2.6075-1.1674-2.6075-2.6075 1.1674-2.6075 2.6075-2.6075 2.6075,1.1674 2.6075,2.6075z"
     transform="matrix(14.23341,0,0,14.23341,-2441.51127,-1212.20447)"
     id="path18"
     style="fill:#4d4d4d" />
</svg>
