<?xml version="1.0" encoding="UTF-8" standalone="no"?>
<svg
   xmlns:dc="http://purl.org/dc/elements/1.1/"
   xmlns:cc="http://creativecommons.org/ns#"
   xmlns:rdf="http://www.w3.org/1999/02/22-rdf-syntax-ns#"
   xmlns:svg="http://www.w3.org/2000/svg"
   xmlns="http://www.w3.org/2000/svg"
   xmlns:xlink="http://www.w3.org/1999/xlink"
   xmlns:sodipodi="http://sodipodi.sourceforge.net/DTD/sodipodi-0.dtd"
   xmlns:inkscape="http://www.inkscape.org/namespaces/inkscape"
   viewBox="0 0 512 512"
   id="svg3133"
   version="1.1"
   inkscape:version="0.48.5 r10040"
   width="100%"
   height="100%"
   sodipodi:docname="delay_poison.svg">
  <metadata
     id="metadata3143">
    <rdf:RDF>
      <cc:Work
         rdf:about="">
        <dc:format>image/svg+xml</dc:format>
        <dc:type
           rdf:resource="http://purl.org/dc/dcmitype/StillImage" />
        <dc:title></dc:title>
      </cc:Work>
    </rdf:RDF>
  </metadata>
  <defs
     id="defs3141">
    <linearGradient
       id="linearGradient3174">
      <stop
         style="stop-color:#00e5fd;stop-opacity:1;"
         offset="0"
         id="stop3176" />
      <stop
         style="stop-color:#0072fd;stop-opacity:1;"
         offset="1"
         id="stop3178" />
    </linearGradient>
    <radialGradient
       inkscape:collect="always"
       xlink:href="#linearGradient3174"
       id="radialGradient3180"
       cx="317.44977"
       cy="110.66342"
       fx="317.44977"
       fy="110.66342"
       r="165.8605"
       gradientTransform="matrix(0.01855687,1.3692751,-1.6176673,0.02192317,423.52793,-211.11715)"
       gradientUnits="userSpaceOnUse" />
  </defs>
  <sodipodi:namedview
     pagecolor="#ffffff"
     bordercolor="#666666"
     borderopacity="1"
     objecttolerance="10"
     gridtolerance="10"
     guidetolerance="10"
     inkscape:pageopacity="0"
     inkscape:pageshadow="2"
     inkscape:window-width="1280"
     inkscape:window-height="1002"
     id="namedview3139"
     showgrid="false"
     inkscape:zoom="0.89855437"
     inkscape:cx="258.59703"
     inkscape:cy="260.18134"
     inkscape:window-x="-8"
     inkscape:window-y="-8"
     inkscape:window-maximized="1"
     inkscape:current-layer="svg3133" />
  <path
     stroke-width="0"
     stroke="#fff"
     fill="#000"
     d="M0 0h512v512H0z"
     id="path3135" />
  <path
     fill="#fdfffd"
     d="M92.656 19.188v41.5h331.72v-41.5H92.655zM119.5 79.374V433.53h22.28V79.376H119.5zm46.594 0c3.212 43.324 13.312 82.022 27.78 110.906 17.685 35.304 40.845 54.75 64.064 54.75 23.218 0 46.346-19.446 64.03-54.75 14.47-28.883 24.57-67.58 27.782-110.905H166.094zm209.156 0V433.53h22.28V79.376h-22.28zm-117.313 185.22c-23.218 0-46.378 19.415-64.062 54.717-14.835 29.614-25.098 69.562-28.03 114.22H350c-2.933-44.658-13.197-84.606-28.03-114.22-17.686-35.302-40.814-54.718-64.033-54.718zM92.657 452.218v41.467h331.718V452.22H92.655z"
     id="path3137"
     style="fill-opacity:1;fill:url(#radialGradient3180)" />
  <path
     style="fill:#00ffff"
     inkscape:connector-curvature="0"
     d="m 264.37891,76.23696 c -206.663024,263.39502 -103.33151,131.69751 0,0 z m -54.21584,33.0167 c 10.14725,-0.26746 0.0587,2.22519 -0.80467,3.43283 -1.93743,2.70692 -6.25714,6.33373 -15.25638,6.33373 -15.54853,0 -29.45415,4.23145 -39.81479,11.61737 -10.36063,7.38591 -17.25714,18.33341 -17.25714,30.6784 l 0,181.47608 c 0,23.34445 18.95204,42.31814 42.29577,42.31814 l 154.09219,0 c 23.34301,0 42.29432,-18.97441 42.29432,-42.31814 l 0,-181.47608 c 0,-12.34499 -6.87701,-23.2434 -17.03048,-30.63365 -10.15419,-7.38952 -23.69816,-11.66212 -38.57538,-11.66212 -12.04759,0 -17.04997,-2.5178 -19.39886,-5.18862 -1.0178,-1.15784 1.39367,3.62612 0.86961,1.71684 l -16.95303,0 c 0.77454,4.80605 1.25221,-1.92773 8.7095,8.3733 5.85416,6.65757 12.78198,8.58615 26.7735,8.58615 12.25548,0 23.13945,3.615 30.63509,9.06925 7.49275,5.45426 11.48094,12.34355 11.48094,19.73813 l 0,181.4768 c 0,16.13683 -12.66838,28.82903 -28.80594,28.82903 l -154.09146,0 c -16.13684,0 -28.80593,-12.6922 -28.80593,-28.82903 l 0,-181.47608 c 0,-7.3953 3.93766,-14.23478 11.59427,-19.69193 7.6566,-5.45931 18.92676,-9.11401 31.9871,-9.11401 11.52208,0 28.90839,2.58379 33.69422,-4.1041 -4.01468,2.37015 12.79941,3.49376 31.04298,0.80506 15.58782,-2.29729 49.72134,9.68853 40.80217,-12.65039 l -89.4776,-7.30624 z m 47.70888,32.77536 c -22.04875,0 -36.13699,9.28653 -45.67978,23.32497 -8.87508,13.05817 -13.27256,30.54485 -13.84931,47.6865 18.06994,9.236 28.55257,19.94601 31.64856,32.46136 0.52983,2.14171 0.84672,4.2892 0.94706,6.42802 6.50382,3.70595 16.76123,6.09237 27.29511,6.09093 9.33706,-0.001 18.82571,-1.83204 26.05354,-4.96268 0.10972,-2.40014 0.44538,-4.80893 1.06111,-7.21845 3.2382,-12.6922 13.73526,-23.96524 32.05352,-32.88941 -0.60491,-16.21263 -4.90349,-33.63435 -13.71505,-46.87515 -9.52835,-14.3214 -23.63681,-24.04609 -45.81332,-24.04609 z m -21.56511,54.04812 c 6.60993,0 11.97757,5.34526 11.97757,11.95591 0,6.60994 -5.36692,11.97757 -11.97757,11.97757 -6.60994,0 -11.9552,-5.36763 -11.9552,-11.97829 0,-6.60993 5.34526,-11.95519 11.95592,-11.95519 z m 40.0169,0 c 6.61065,0 11.97829,5.34526 11.97829,11.95591 0,6.60994 -5.36908,11.97757 -11.97901,11.97757 -6.61065,0 -11.95591,-5.36763 -11.95591,-11.97829 0,-6.60993 5.34526,-11.95519 11.95591,-11.95519 z m -20.82089,24.24965 c 4.52958,9.563 8.12076,19.13105 9.90371,28.69333 -6.60343,-2.18142 -13.20254,-2.47304 -19.80597,0 2.41096,-9.56445 5.307,-19.13178 9.90371,-28.69333 z m -26.72991,45.81548 c -1.54186,4.63424 -3.81495,9.22373 -6.63231,13.7367 8.61161,5.76754 22.79586,9.24683 36.72385,9.09091 13.6934,-0.15447 26.62019,-4.02067 33.36366,-8.95593 -2.56254,-4.16071 -4.62846,-8.51776 -6.02307,-12.9932 -8.62388,3.18767 -18.35218,4.60176 -27.97148,4.60248 -10.42849,0.001 -20.76747,-1.60394 -29.46065,-5.48169 z m -51.00265,12.31467 c -6.42442,8.13374 -9.1631,16.23645 -7.24011,26.21234 49.75315,3.99902 118.52257,23.04128 163.63209,43.85207 6.6121,-8.06012 9.03605,-16.36422 7.19679,-26.54945 -48.91941,-4.95691 -118.47998,-20.74293 -163.58877,-43.51424 z m 156.34722,0 c -15.00715,7.57648 -32.71833,14.36976 -51.47691,20.25712 14.65201,3.20066 29.05642,5.80363 42.38672,7.71508 5.6174,-0.74061 11.08537,-1.33758 16.33102,-1.75986 1.9201,-9.97589 -0.81785,-18.0786 -7.24227,-26.21162 z M 187.04166,319.9861 c -5.70546,0.78248 -11.2319,1.45091 -16.5122,1.98508 -1.8407,10.18523 0.5847,18.49005 7.19535,26.54944 15.42943,-7.11738 33.61992,-14.03771 52.87512,-20.2102 -15.0649,-3.5457 -29.87354,-6.40132 -43.55827,-8.32432 z"
     id="path6"
     sodipodi:nodetypes="ccccsssssssscsccccscsssssscscscccscccccccccsscsssccsssssscccccccccccccccccccccccccccccc" />
</svg>
