<?xml version="1.0" encoding="UTF-8" standalone="no"?>
<svg
   xmlns:dc="http://purl.org/dc/elements/1.1/"
   xmlns:cc="http://creativecommons.org/ns#"
   xmlns:rdf="http://www.w3.org/1999/02/22-rdf-syntax-ns#"
   xmlns:svg="http://www.w3.org/2000/svg"
   xmlns="http://www.w3.org/2000/svg"
   xmlns:sodipodi="http://sodipodi.sourceforge.net/DTD/sodipodi-0.dtd"
   xmlns:inkscape="http://www.inkscape.org/namespaces/inkscape"
   viewBox="0 0 512 512"
   id="svg2"
   version="1.1"
   inkscape:version="0.48.4 r9939"
   width="100%"
   height="100%"
   sodipodi:docname="detect_good.lua.svg">
  <metadata
     id="metadata16">
    <rdf:RDF>
      <cc:Work
         rdf:about="">
        <dc:format>image/svg+xml</dc:format>
        <dc:type
           rdf:resource="http://purl.org/dc/dcmitype/StillImage" />
        <dc:title></dc:title>
      </cc:Work>
    </rdf:RDF>
  </metadata>
  <defs
     id="defs14">
    <linearGradient
       id="linearGradient3774">
      <stop
         style="stop-color:#ff0000;stop-opacity:1;"
         offset="0"
         id="stop3776" />
      <stop
         style="stop-color:#d5e3ed;stop-opacity:1;"
         offset="1"
         id="stop3778" />
    </linearGradient>
  </defs>
  <sodipodi:namedview
     pagecolor="#ffffff"
     bordercolor="#666666"
     borderopacity="1"
     objecttolerance="10"
     gridtolerance="10"
     guidetolerance="10"
     inkscape:pageopacity="0"
     inkscape:pageshadow="2"
     inkscape:window-width="1280"
     inkscape:window-height="1002"
     id="namedview12"
     showgrid="false"
     inkscape:zoom="0.4609375"
     inkscape:cx="256"
     inkscape:cy="256"
     inkscape:window-x="-8"
     inkscape:window-y="-8"
     inkscape:window-maximized="1"
     inkscape:current-layer="svg2" />
  <path
     d="m0,0h512v512h-512z"
     id="path4" />
  <use
     y="0"
     x="0"
     id="use8"
     transform="matrix(15,0,0,15,556,-44.0003)"
     height="1052.3621"
     width="744.09399" />
  <path
     style="fill:#00ff00"
     inkscape:connector-curvature="0"
     id="path8"
     d="M 137.02688,56.225119 C 66.31864,96.833537 18.47027,172.65684 18.47027,260.04838 c 0,87.85875 48.3866,163.96425 119.72278,204.40447 C 90.74461,417.75943 59.93462,343.90964 59.93462,260.04838 c 0,-83.26884 30.2157,-157.07004 77.09039,-203.823261 z m 237.69632,2.33607 c 45.57397,46.859751 74.75432,119.578881 74.75432,201.487191 0,82.12883 -29.55413,154.64052 -75.33741,201.48532 68.68614,-41.11301 115.05064,-115.61317 115.05064,-201.48532 0,-85.87216 -46.02063,-160.318113 -114.46755,-201.487191 z" />
  <path
     style="fill:#00ff00"
     inkscape:connector-curvature="0"
     id="path10-1"
     d="m 193.25921,113.9606 c -61.42376,24.6166 -105.123272,84.54527 -105.123272,154.76574 0,70.41109 44.015352,130.27435 105.706352,154.76387 -41.34848,-30.25308 -69.49909,-88.18955 -69.49909,-154.76387 0,-66.36689 27.78057,-124.43418 68.91414,-154.76574 z m 142.50042,8.75934 c 35.18125,31.96121 57.81873,85.57127 57.81873,146.0064 0,61.13221 -23.11591,114.76096 -58.9849,146.58761 52.00658,-28.25153 87.60272,-83.2408 87.60272,-146.58761 0,-62.88521 -35.05043,-117.57173 -86.43468,-146.0064 z" />
  <g
     transform="matrix(0.50109716,0,0,0.50109716,133.72081,145.8317)"
     id="g3912"
     style="fill:#00ff00">
    <path
       d="m 342.33603,95.227904 -20.95364,-79.906761 -58.67279,58.571878 25.77902,6.9073 -91.02273,339.706059 -25.77902,-6.9073 21.52737,80.06001 58.10093,-58.72513 -28.64212,-7.6754 91.02273,-339.704187 28.64399,7.6754 z"
       id="path10"
       inkscape:connector-curvature="0"
       style="fill:#00ff00" />
    <g
       id="g3906"
       style="fill:#00ff00">
      <path
         style="fill:#00ff00"
         inkscape:connector-curvature="0"
         id="path8-4"
         d="m 97.749238,169.16366 -79.906761,20.95364 58.571878,58.6728 6.9073,-25.77903 339.704185,91.02273 -6.9073,25.77903 80.06001,-21.52738 -58.72512,-58.10093 -7.6754,28.64399 -339.704191,-91.02273 7.675399,-28.64212 z" />
      <path
         style="fill:#00ff00"
         inkscape:connector-curvature="0"
         id="path12"
         d="m 204.56382,81.744094 -71.31936,-41.686747 -0.0748,82.904413 23.11217,-13.34365 175.84459,304.57153 -23.11217,13.34364 71.8333,41.3896 -0.44105,-82.60726 -25.67998,14.82565 L 178.88197,96.569744 204.56195,81.742225 z" />
      <path
         style="fill:#00ff00"
         inkscape:connector-curvature="0"
         id="path14"
         d="m 429.75747,202.04248 41.68675,-71.31936 -82.90441,-0.0729 13.34364,23.11217 L 97.311926,329.60697 83.96828,306.49481 42.578681,378.3281 l 82.607259,-0.44105 -14.82565,-25.67998 304.57153,-175.84458 14.82752,25.67997 z" />
      <path
         style="fill:#00ff00;stroke:#ffffff;stroke-width:18.68808556000000100"
         inkscape:connector-curvature="0"
         id="path20"
         d="m 290.12839,267.89548 c -5.37168,20.04736 -25.9765,31.94356 -46.02386,26.57189 -20.04736,-5.37167 -31.94356,-25.9765 -26.57189,-46.02386 5.37167,-20.04736 25.97649,-31.94356 46.02385,-26.57189 20.04737,5.37168 31.94357,25.9765 26.5719,46.02386 z" />
    </g>
  </g>
</svg>
