<?xml version="1.0" encoding="UTF-8" standalone="no"?>
<svg
   xmlns:dc="http://purl.org/dc/elements/1.1/"
   xmlns:cc="http://creativecommons.org/ns#"
   xmlns:rdf="http://www.w3.org/1999/02/22-rdf-syntax-ns#"
   xmlns:svg="http://www.w3.org/2000/svg"
   xmlns="http://www.w3.org/2000/svg"
   xmlns:sodipodi="http://sodipodi.sourceforge.net/DTD/sodipodi-0.dtd"
   xmlns:inkscape="http://www.inkscape.org/namespaces/inkscape"
   viewBox="0 0 512 512"
   id="svg2"
   version="1.1"
   inkscape:version="0.48.4 r9939"
   width="100%"
   height="100%"
   sodipodi:docname="detect_chaos.lua.svg">
  <metadata
     id="metadata16">
    <rdf:RDF>
      <cc:Work
         rdf:about="">
        <dc:format>image/svg+xml</dc:format>
        <dc:type
           rdf:resource="http://purl.org/dc/dcmitype/StillImage" />
        <dc:title></dc:title>
      </cc:Work>
    </rdf:RDF>
  </metadata>
  <defs
     id="defs14">
    <linearGradient
       id="linearGradient3774">
      <stop
         style="stop-color:#ff0000;stop-opacity:1;"
         offset="0"
         id="stop3776" />
      <stop
         style="stop-color:#d5e3ed;stop-opacity:1;"
         offset="1"
         id="stop3778" />
    </linearGradient>
  </defs>
  <sodipodi:namedview
     pagecolor="#ffffff"
     bordercolor="#666666"
     borderopacity="1"
     objecttolerance="10"
     gridtolerance="10"
     guidetolerance="10"
     inkscape:pageopacity="0"
     inkscape:pageshadow="2"
     inkscape:window-width="1280"
     inkscape:window-height="1002"
     id="namedview12"
     showgrid="false"
     inkscape:zoom="0.4609375"
     inkscape:cx="256"
     inkscape:cy="256"
     inkscape:window-x="-8"
     inkscape:window-y="-8"
     inkscape:window-maximized="1"
     inkscape:current-layer="svg2" />
  <path
     d="m0,0h512v512h-512z"
     id="path4" />
  <use
     y="0"
     x="0"
     id="use8"
     transform="matrix(15,0,0,15,556,-44.0003)"
     height="1052.3621"
     width="744.09399" />
  <path
     style="fill:#2a7fff"
     inkscape:connector-curvature="0"
     id="path8"
     d="M 137.02688,56.225119 C 66.31864,96.833537 18.47027,172.65684 18.47027,260.04838 c 0,87.85875 48.3866,163.96425 119.72278,204.40447 C 90.74461,417.75943 59.93462,343.90964 59.93462,260.04838 c 0,-83.26884 30.2157,-157.07004 77.09039,-203.823261 z m 237.69632,2.33607 c 45.57397,46.859751 74.75432,119.578881 74.75432,201.487191 0,82.12883 -29.55413,154.64052 -75.33741,201.48532 68.68614,-41.11301 115.05064,-115.61317 115.05064,-201.48532 0,-85.87216 -46.02063,-160.318113 -114.46755,-201.487191 z" />
  <path
     style="fill:#2a7fff"
     inkscape:connector-curvature="0"
     id="path10-1"
     d="m 193.25921,113.9606 c -61.42376,24.6166 -105.123272,84.54527 -105.123272,154.76574 0,70.41109 44.015352,130.27435 105.706352,154.76387 -41.34848,-30.25308 -69.49909,-88.18955 -69.49909,-154.76387 0,-66.36689 27.78057,-124.43418 68.91414,-154.76574 z m 142.50042,8.75934 c 35.18125,31.96121 57.81873,85.57127 57.81873,146.0064 0,61.13221 -23.11591,114.76096 -58.9849,146.58761 52.00658,-28.25153 87.60272,-83.2408 87.60272,-146.58761 0,-62.88521 -35.05043,-117.57173 -86.43468,-146.0064 z" />
  <g
     transform="matrix(10.073845,0,0,10.073845,809.05742,-8596.8475)"
     id="g6"
     style="fill:#2a7fff">
    <path
       style="fill:#2a7fff;fill-rule:evenodd"
       inkscape:connector-curvature="0"
       d="m -59.5839,887.3389 0.5982,2.1865 2.6648,-0.7699 1.7947,2.0941 1.8218,-2.0634 2.6648,0.8315 0.5438,-2.3098 -5.0577,-5.8513 -5.0305,5.8821 z"
       id="path8-4" />
    <g
       transform="matrix(0.65105,0,0,0.80395,-218.84592,126.34423)"
       id="g10"
       style="fill:#2a7fff">
      <path
         style="fill:#2a7fff;fill-rule:evenodd"
         inkscape:connector-curvature="0"
         d="m 233.7808,943.1036 c 2.5291,3.0958 6.8333,2.1686 17.8137,-2.7026 l -0.5176,-1.9319 c -5.4383,2.7654 -11.2042,4.3084 -17.2961,4.6345 z"
         id="path12" />
      <path
         style="fill:#2a7fff;fill-rule:evenodd"
         inkscape:connector-curvature="0"
         d="m 232.7779,937.8261 c 1.6417,3.6449 6.0392,3.8633 17.9062,2 v -2 c -5.9688,1.2636 -11.9375,1.2617 -17.9062,-10e-6 z"
         id="path14" />
      <path
         style="fill:#2a7fff;fill-rule:evenodd"
         inkscape:connector-curvature="0"
         d="m 233.1258,932.2634 c 0.6424,3.9456 4.8335,5.2947 16.7785,6.5663 l 0.5176,-1.9319 c -6.0924,-0.3243 -11.8573,-1.8709 -17.2961,-4.6345 z"
         id="path16" />
      <path
         style="fill:#2a7fff;fill-rule:evenodd"
         inkscape:connector-curvature="0"
         d="m 234.8512,926.9746 c -0.4007,3.9774 3.2984,6.3653 14.5073,10.6852 l 1,-1.7321 c -5.8009,-1.8901 -10.9691,-4.876 -15.5073,-8.9531 z"
         id="path18" />
    </g>
    <path
       style="fill:#2a7fff;stroke:#000000"
       inkscape:connector-curvature="0"
       d="m -56.4887,889.3106 1.9324,-9.2399 2.1305,9.3531"
       id="path20" />
    <g
       transform="matrix(-0.65105,0,0,0.80395,109.7021,126.34423)"
       id="g22"
       style="fill:#2a7fff">
      <path
         style="fill:#2a7fff;fill-rule:evenodd"
         inkscape:connector-curvature="0"
         d="m 233.7808,943.1036 c 2.5291,3.0958 6.8333,2.1686 17.8137,-2.7026 l -0.5176,-1.9319 c -5.4383,2.7654 -11.2042,4.3084 -17.2961,4.6345 z"
         id="path24" />
      <path
         style="fill:#2a7fff;fill-rule:evenodd"
         inkscape:connector-curvature="0"
         d="m 232.7779,937.8261 c 1.6417,3.6449 6.0392,3.8633 17.9062,2 v -2 c -5.9688,1.2636 -11.9375,1.2617 -17.9062,-10e-6 z"
         id="path26" />
      <path
         style="fill:#2a7fff;fill-rule:evenodd"
         inkscape:connector-curvature="0"
         d="m 233.1258,932.2634 c 0.6424,3.9456 4.8335,5.2947 16.7785,6.5663 l 0.5176,-1.9319 c -6.0924,-0.3243 -11.8573,-1.8709 -17.2961,-4.6345 z"
         id="path28" />
      <path
         style="fill:#2a7fff;fill-rule:evenodd"
         inkscape:connector-curvature="0"
         d="m 234.8512,926.9746 c -0.4007,3.9774 3.2984,6.3653 14.5073,10.6852 l 1,-1.7321 c -5.8009,-1.8901 -10.9691,-4.876 -15.5073,-8.9531 z"
         id="path30" />
    </g>
    <path
       style="stroke:#ffffff;fill:#2a7fff"
       inkscape:connector-curvature="0"
       d="m 247.298,935.7527 c 0,1.4645 -1.1872,2.6517 -2.6517,2.6517 -1.4645,0 -2.6517,-1.1872 -2.6517,-2.6517 0,-1.4645 1.1872,-2.6517 2.6517,-2.6517 1.4645,0 2.6517,1.1872 2.6517,2.6517 z"
       transform="translate(-299.2396,-54.1963)"
       id="path32" />
    <path
       style="fill:#2a7fff"
       inkscape:connector-curvature="0"
       d="m 502.0172,930.2615 c 0,0.9616 -0.7795,1.741 -1.741,1.741 -0.9615,0 -1.741,-0.7795 -1.741,-1.741 0,-0.9615 0.7795,-1.741 1.741,-1.741 0.9615,0 1.741,0.7795 1.741,1.741 z"
       transform="matrix(1.217,0,0,1.217,-663.38539,-254.76766)"
       id="path34" />
    <path
       style="fill:#2a7fff"
       inkscape:connector-curvature="0"
       d="m -52.9982,878.7538 -1.5491,3.3747 -1.5491,-3.3746 3.0981,-6e-5 z"
       id="path36" />
  </g>
</svg>
