<?xml version="1.0" encoding="UTF-8" standalone="no"?>
<svg
   xmlns:dc="http://purl.org/dc/elements/1.1/"
   xmlns:cc="http://creativecommons.org/ns#"
   xmlns:rdf="http://www.w3.org/1999/02/22-rdf-syntax-ns#"
   xmlns:svg="http://www.w3.org/2000/svg"
   xmlns="http://www.w3.org/2000/svg"
   xmlns:sodipodi="http://sodipodi.sourceforge.net/DTD/sodipodi-0.dtd"
   xmlns:inkscape="http://www.inkscape.org/namespaces/inkscape"
   viewBox="0 0 512 512"
   id="svg2"
   version="1.1"
   inkscape:version="0.48.5 r10040"
   width="100%"
   height="100%"
   sodipodi:docname="detect_template.svg">
  <metadata
     id="metadata16">
    <rdf:RDF>
      <cc:Work
         rdf:about="">
        <dc:format>image/svg+xml</dc:format>
        <dc:type
           rdf:resource="http://purl.org/dc/dcmitype/StillImage" />
        <dc:title></dc:title>
      </cc:Work>
    </rdf:RDF>
  </metadata>
  <defs
     id="defs14">
    <linearGradient
       id="linearGradient3774">
      <stop
         style="stop-color:#ff0000;stop-opacity:1;"
         offset="0"
         id="stop3776" />
      <stop
         style="stop-color:#d5e3ed;stop-opacity:1;"
         offset="1"
         id="stop3778" />
    </linearGradient>
  </defs>
  <sodipodi:namedview
     pagecolor="#ffffff"
     bordercolor="#666666"
     borderopacity="1"
     objecttolerance="10"
     gridtolerance="10"
     guidetolerance="10"
     inkscape:pageopacity="0"
     inkscape:pageshadow="2"
     inkscape:window-width="1280"
     inkscape:window-height="1002"
     id="namedview12"
     showgrid="false"
     inkscape:zoom="0.4609375"
     inkscape:cx="256"
     inkscape:cy="256"
     inkscape:window-x="-8"
     inkscape:window-y="-8"
     inkscape:window-maximized="1"
     inkscape:current-layer="svg2" />
  <path
     d="m0,0h512v512h-512z"
     id="path4" />
  <use
     y="0"
     x="0"
     id="use8"
     transform="matrix(15,0,0,15,556,-44.0003)"
     height="1052.3621"
     width="744.09399" />
  <path
     style="fill:#00ffff"
     inkscape:connector-curvature="0"
     id="path8"
     d="M 137.02688,56.225119 C 66.31864,96.833537 18.47027,172.65684 18.47027,260.04838 c 0,87.85875 48.3866,163.96425 119.72278,204.40447 C 90.74461,417.75943 59.93462,343.90964 59.93462,260.04838 c 0,-83.26884 30.2157,-157.07004 77.09039,-203.823261 z m 237.69632,2.33607 c 45.57397,46.859751 74.75432,119.578881 74.75432,201.487191 0,82.12883 -29.55413,154.64052 -75.33741,201.48532 68.68614,-41.11301 115.05064,-115.61317 115.05064,-201.48532 0,-85.87216 -46.02063,-160.318113 -114.46755,-201.487191 z" />
  <path
     style="fill:#00ffff"
     inkscape:connector-curvature="0"
     id="path10-1"
     d="m 193.25921,113.9606 c -61.42376,24.6166 -105.123272,84.54527 -105.123272,154.76574 0,70.41109 44.015352,130.27435 105.706352,154.76387 -41.34848,-30.25308 -69.49909,-88.18955 -69.49909,-154.76387 0,-66.36689 27.78057,-124.43418 68.91414,-154.76574 z m 142.50042,8.75934 c 35.18125,31.96121 57.81873,85.57127 57.81873,146.0064 0,61.13221 -23.11591,114.76096 -58.9849,146.58761 52.00658,-28.25153 87.60272,-83.2408 87.60272,-146.58761 0,-62.88521 -35.05043,-117.57173 -86.43468,-146.0064 z" />
  <path
     style="fill:#00ffff"
     inkscape:connector-curvature="0"
     d="m 264.99059,138.44473 c -164.56726,209.74336 -82.28363,104.87168 0,0 z m -43.17247,26.29144 c 8.08034,-0.21298 0.0467,1.77194 -0.64076,2.73359 -1.54279,2.15554 -4.98261,5.04359 -12.14877,5.04359 -12.38141,0 -23.45455,3.36954 -31.7048,9.251 -8.25025,5.88145 -13.74199,14.59902 -13.74199,24.42943 l 0,144.51071 c 0,18.58935 15.09165,33.69824 33.68043,33.69824 l 122.70473,0 c 18.58821,0 33.67927,-15.10946 33.67927,-33.69824 l 0,-144.51071 c 0,-9.83041 -5.47621,-18.50889 -13.56149,-24.3938 -8.08586,-5.88433 -18.87102,-9.28663 -30.71786,-9.28663 -9.59358,0 -13.57701,-2.00494 -15.44745,-4.13173 -0.81048,-0.922 1.10979,2.8875 0.69248,1.36713 l -13.49982,0 c 0.61677,3.82709 0.99714,-1.53507 6.93544,6.66772 4.6617,5.30147 10.17838,6.83721 21.31993,6.83721 9.75912,0 18.42611,2.87865 24.39494,7.22191 5.96653,4.34327 9.14235,9.82926 9.14235,15.71762 l 0,144.51128 c 0,12.84987 -10.08792,22.95676 -22.93837,22.95676 l -122.70415,0 c -12.84988,0 -22.93837,-10.10689 -22.93837,-22.95676 l 0,-144.51071 c 0,-5.88893 3.13559,-11.33526 9.2326,-15.68083 6.09701,-4.34728 15.07151,-7.25755 25.47156,-7.25755 9.17511,0 23.01997,2.05749 26.83096,-3.26812 -3.19692,1.88736 10.19226,2.7821 24.71974,0.64107 12.4127,-1.82935 39.59347,7.71505 32.49107,-10.07359 l -71.25167,-5.81802 z m 37.99093,26.09926 c -17.55757,0 -28.77614,7.39493 -36.37514,18.57384 -7.06729,10.39831 -10.56904,24.32308 -11.02831,37.9731 14.38923,7.35469 22.73663,15.88315 25.20199,25.84922 0.4219,1.70546 0.67425,3.41552 0.75415,5.11868 5.17904,2.95107 13.34709,4.85139 21.73529,4.85025 7.43517,-8e-4 14.99105,-1.45887 20.74662,-3.95182 0.0874,-1.91125 0.35466,-3.82939 0.84497,-5.74811 2.5786,-10.10689 10.93749,-19.08369 25.52445,-26.19007 -0.48169,-12.91023 -3.90468,-26.78327 -10.92139,-37.32702 -7.5875,-11.40423 -18.82216,-19.14807 -36.48148,-19.14807 z m -17.17245,43.0389 c 5.26354,0 9.53783,4.25647 9.53783,9.52058 0,5.26354 -4.27372,9.53783 -9.53783,9.53783 -5.26354,0 -9.52001,-4.27429 -9.52001,-9.5384 0,-5.26354 4.25647,-9.52001 9.52058,-9.52001 z m 31.86575,0 c 5.26411,0 9.5384,4.25647 9.5384,9.52058 0,5.26354 -4.27544,9.53783 -9.53898,9.53783 -5.2641,0 -9.52057,-4.27429 -9.52057,-9.5384 0,-5.26354 4.25647,-9.52001 9.52057,-9.52001 z m -16.57983,19.31017 c 3.60694,7.61509 6.46662,15.2342 7.8864,22.84871 -5.25836,-1.73708 -10.51328,-1.9693 -15.77164,0 1.91987,-7.61624 4.226,-15.23477 7.8864,-22.84871 z m -21.28522,36.4832 c -1.22779,3.69028 -3.03787,7.34492 -5.28135,10.93863 6.85748,4.59274 18.1525,7.36332 29.24346,7.23916 10.90416,-0.123 21.19785,-3.20169 26.56773,-7.13167 -2.04057,-3.3132 -3.68568,-6.78275 -4.79622,-10.34658 -6.86726,2.53837 -14.61397,3.66442 -22.27389,3.66499 -8.30428,8e-4 -16.53729,-1.27723 -23.45973,-4.36511 z m -40.61378,9.80626 c -5.11582,6.47696 -7.29665,12.9292 -5.76536,20.87308 39.6188,3.18445 94.38039,18.34793 130.30143,34.91972 5.26526,-6.41833 7.19547,-13.03095 5.73085,-21.14152 -38.95488,-3.94722 -94.34646,-16.51775 -130.26692,-34.6507 z m 124.50042,0 c -11.9503,6.03321 -26.05384,11.44275 -40.99143,16.13089 11.6675,2.54871 23.13784,4.62148 33.75285,6.14358 4.47318,-0.58976 8.82736,-1.06513 13.00451,-1.40139 1.52899,-7.94388 -0.65126,-14.39612 -5.76707,-20.8725 z m -117.11756,33.06997 c -4.5433,0.6231 -8.94405,1.15537 -13.14879,1.58074 -1.46576,8.11057 0.4656,14.72376 5.72971,21.14151 12.28657,-5.66763 26.77179,-11.17833 42.10485,-16.09353 -11.9963,-2.82347 -23.78853,-5.09742 -34.68577,-6.62872 z"
     id="path6"
     sodipodi:nodetypes="ccccsssssssscsccccscsssssscscscccscccccccccsscsssccsssssscccccccccccccccccccccccccccccc" />
</svg>
