<?xml version="1.0" encoding="UTF-8" standalone="no"?>
<svg
   xmlns:dc="http://purl.org/dc/elements/1.1/"
   xmlns:cc="http://creativecommons.org/ns#"
   xmlns:rdf="http://www.w3.org/1999/02/22-rdf-syntax-ns#"
   xmlns:svg="http://www.w3.org/2000/svg"
   xmlns="http://www.w3.org/2000/svg"
   xmlns:xlink="http://www.w3.org/1999/xlink"
   xmlns:sodipodi="http://sodipodi.sourceforge.net/DTD/sodipodi-0.dtd"
   xmlns:inkscape="http://www.inkscape.org/namespaces/inkscape"
   viewBox="0 0 512 512"
   id="svg2"
   version="1.1"
   inkscape:version="0.48.4 r9939"
   width="100%"
   height="100%"
   sodipodi:docname="detect evil.svg">
  <metadata
     id="metadata16">
    <rdf:RDF>
      <cc:Work
         rdf:about="">
        <dc:format>image/svg+xml</dc:format>
        <dc:type
           rdf:resource="http://purl.org/dc/dcmitype/StillImage" />
        <dc:title></dc:title>
      </cc:Work>
    </rdf:RDF>
  </metadata>
  <defs
     id="defs14">
    <linearGradient
       id="linearGradient3774">
      <stop
         style="stop-color:#ff0000;stop-opacity:1;"
         offset="0"
         id="stop3776" />
      <stop
         style="stop-color:#d5e3ed;stop-opacity:1;"
         offset="1"
         id="stop3778" />
    </linearGradient>
    <radialGradient
       inkscape:collect="always"
       xlink:href="#linearGradient3774"
       id="radialGradient3780"
       cx="302.15625"
       cy="343.72351"
       fx="302.15625"
       fy="343.72351"
       r="89.83511"
       gradientTransform="matrix(0.02414971,-2.3183716,1.6209612,0.01688502,-304.12045,981.07957)"
       gradientUnits="userSpaceOnUse" />
  </defs>
  <sodipodi:namedview
     pagecolor="#ffffff"
     bordercolor="#666666"
     borderopacity="1"
     objecttolerance="10"
     gridtolerance="10"
     guidetolerance="10"
     inkscape:pageopacity="0"
     inkscape:pageshadow="2"
     inkscape:window-width="1280"
     inkscape:window-height="1002"
     id="namedview12"
     showgrid="false"
     inkscape:zoom="0.4609375"
     inkscape:cx="256"
     inkscape:cy="256"
     inkscape:window-x="-8"
     inkscape:window-y="-8"
     inkscape:window-maximized="1"
     inkscape:current-layer="svg2" />
  <path
     d="m0,0h512v512h-512z"
     id="path4" />
  <use
     y="0"
     x="0"
     id="use8"
     transform="matrix(15,0,0,15,556,-44.0003)"
     height="1052.3621"
     width="744.09399" />
  <path
     style="fill:url(#radialGradient3780);fill-opacity:1"
     inkscape:connector-curvature="0"
     id="path10"
     d="m 212.20565,224.59322 c 9.98167,0 39.92671,-36.40678 19.96335,-63.71186 9.98168,-9.1017 9.98168,-18.20338 29.94504,-18.20338 19.96336,0 39.92672,27.30508 39.92672,45.50846 0,18.2034 -19.96336,36.40678 -49.9084,54.61018 -29.94504,18.20338 -79.85343,54.61016 -79.85343,100.11864 0,36.40678 29.94504,72.81356 79.85343,72.81356 49.9084,0 99.81679,-18.20339 99.81679,-72.81356 0,-36.40678 -39.92672,-54.61016 -59.89007,-54.61016 -29.94504,0 -49.9084,18.20338 -59.89008,45.50846 29.94504,-36.40678 89.83511,-36.40678 89.83511,9.1017 0,27.30508 -29.94503,45.50848 -69.87175,45.50848 -19.96336,0 -39.92671,-18.2034 -39.92671,-45.50848 0,-27.30508 29.94503,-54.61016 59.89007,-72.81356 29.94504,-18.20338 59.89007,-45.50848 59.89007,-72.81356 0,-36.40678 -29.94503,-72.81356 -69.87175,-72.81356 -19.96336,0 -39.92672,18.2034 -49.90839,27.30508 -9.98168,9.1017 -29.94504,9.1017 -29.94504,36.40678 0,9.1017 19.96336,36.40678 29.94504,36.40678 z" />
  <path
     style="fill:#ff0000"
     inkscape:connector-curvature="0"
     id="path8"
     d="M 137.02688,56.225119 C 66.31864,96.833537 18.47027,172.65684 18.47027,260.04838 c 0,87.85875 48.3866,163.96425 119.72278,204.40447 C 90.74461,417.75943 59.93462,343.90964 59.93462,260.04838 c 0,-83.26884 30.2157,-157.07004 77.09039,-203.823261 z m 237.69632,2.33607 c 45.57397,46.859751 74.75432,119.578881 74.75432,201.487191 0,82.12883 -29.55413,154.64052 -75.33741,201.48532 68.68614,-41.11301 115.05064,-115.61317 115.05064,-201.48532 0,-85.87216 -46.02063,-160.318113 -114.46755,-201.487191 z" />
  <path
     style="fill:#ff0000"
     inkscape:connector-curvature="0"
     id="path10-1"
     d="m 193.25921,113.9606 c -61.42376,24.6166 -105.123272,84.54527 -105.123272,154.76574 0,70.41109 44.015352,130.27435 105.706352,154.76387 -41.34848,-30.25308 -69.49909,-88.18955 -69.49909,-154.76387 0,-66.36689 27.78057,-124.43418 68.91414,-154.76574 z m 142.50042,8.75934 c 35.18125,31.96121 57.81873,85.57127 57.81873,146.0064 0,61.13221 -23.11591,114.76096 -58.9849,146.58761 52.00658,-28.25153 87.60272,-83.2408 87.60272,-146.58761 0,-62.88521 -35.05043,-117.57173 -86.43468,-146.0064 z" />
</svg>
