<?xml version="1.0" encoding="UTF-8" standalone="no"?>
<svg
   xmlns:dc="http://purl.org/dc/elements/1.1/"
   xmlns:cc="http://creativecommons.org/ns#"
   xmlns:rdf="http://www.w3.org/1999/02/22-rdf-syntax-ns#"
   xmlns:svg="http://www.w3.org/2000/svg"
   xmlns="http://www.w3.org/2000/svg"
   xmlns:sodipodi="http://sodipodi.sourceforge.net/DTD/sodipodi-0.dtd"
   xmlns:inkscape="http://www.inkscape.org/namespaces/inkscape"
   viewBox="0 0 512 512"
   id="svg2"
   version="1.1"
   inkscape:version="0.48.4 r9939"
   width="100%"
   height="100%"
   sodipodi:docname="eagle_splendor.svg">
  <metadata
     id="metadata66">
    <rdf:RDF>
      <cc:Work
         rdf:about="">
        <dc:format>image/svg+xml</dc:format>
        <dc:type
           rdf:resource="http://purl.org/dc/dcmitype/StillImage" />
      </cc:Work>
    </rdf:RDF>
  </metadata>
  <defs
     id="defs64" />
  <sodipodi:namedview
     pagecolor="#ffffff"
     bordercolor="#666666"
     borderopacity="1"
     objecttolerance="10"
     gridtolerance="10"
     guidetolerance="10"
     inkscape:pageopacity="0"
     inkscape:pageshadow="2"
     inkscape:window-width="1280"
     inkscape:window-height="1002"
     id="namedview62"
     showgrid="false"
     inkscape:zoom="20.85965"
     inkscape:cx="225.71158"
     inkscape:cy="166.20685"
     inkscape:window-x="-8"
     inkscape:window-y="-8"
     inkscape:window-maximized="1"
     inkscape:current-layer="svg2" />
  <path
     d="m0,0h512v512h-512z"
     id="path4" />
  <g
     id="g8"
     transform="matrix(-18.68858,0,0,18.68858,1331.5881,-15413.196)">
    <path
       style="fill:#ffffff"
       inkscape:connector-curvature="0"
       id="path10"
       transform="matrix(0.66667,0,0,0.66667,16.94791,283.14143)"
       d="m 54.5,845.9559 c 0,1.5015 -1.2172,2.7188 -2.7188,2.7188 -1.5016,0 -2.7188,-1.2172 -2.7188,-2.7188 0,-1.5016 1.2172,-2.7188 2.7188,-2.7188 1.5016,0 2.7188,1.2172 2.7188,2.7188 z" />
    <path
       inkscape:connector-curvature="0"
       id="path12"
       transform="matrix(0.48276,0,0,0.48276,25.9709,439.21957)"
       d="m 54.5,845.9559 c 0,1.5015 -1.2172,2.7188 -2.7188,2.7188 -1.5016,0 -2.7188,-1.2172 -2.7188,-2.7188 0,-1.5016 1.2172,-2.7188 2.7188,-2.7188 1.5016,0 2.7188,1.2172 2.7188,2.7188 z" />
    <path
       style="fill:#ffffff;fill-rule:evenodd"
       inkscape:connector-curvature="0"
       id="path14"
       d="m 55.5407,842.7109 c -2.2052,1.6064 -4.2359,3.3821 -5.5407,5.7763 2.258,-1.2259 4.4645,-2.7759 6.2869,-4.8731" />
  </g>
  <path
     style="fill:#ffff00;stroke:#ffff00"
     inkscape:connector-curvature="0"
     id="path16"
     d="m 185.30905,485.33398 c 48.26887,22.46928 115.70287,22.75895 157.87552,0 L 264.24775,327.26971 185.31092,485.33398 z" />
  <path
     style="fill:#ffff00"
     inkscape:connector-curvature="0"
     id="path18"
     d="m 197.66781,296.755 c 0,52.55041 30.6119,125.94234 68.32919,125.94234 37.71729,0 68.32918,-73.39193 68.32918,-125.94234 0,-52.55042 -30.61189,-64.45879 -68.32918,-64.45879 -37.71729,0 -68.32919,11.90837 -68.32919,64.45879 z" />
  <g
     id="g20"
     transform="matrix(18.68858,0,0,18.68858,-803.68761,-15413.195)">
    <path
       style="fill:#ffffff"
       inkscape:connector-curvature="0"
       id="path22"
       transform="matrix(0.66667,0,0,0.66667,16.94791,283.14143)"
       d="m 54.5,845.9559 c 0,1.5015 -1.2172,2.7188 -2.7188,2.7188 -1.5016,0 -2.7188,-1.2172 -2.7188,-2.7188 0,-1.5016 1.2172,-2.7188 2.7188,-2.7188 1.5016,0 2.7188,1.2172 2.7188,2.7188 z" />
    <path
       inkscape:connector-curvature="0"
       id="path24"
       transform="matrix(0.48276,0,0,0.48276,25.9709,439.21957)"
       d="m 54.5,845.9559 c 0,1.5015 -1.2172,2.7188 -2.7188,2.7188 -1.5016,0 -2.7188,-1.2172 -2.7188,-2.7188 0,-1.5016 1.2172,-2.7188 2.7188,-2.7188 1.5016,0 2.7188,1.2172 2.7188,2.7188 z" />
    <path
       style="fill:#ffffff;fill-rule:evenodd"
       inkscape:connector-curvature="0"
       id="path26"
       d="m 55.5407,842.7109 c -2.2052,1.6064 -4.2359,3.3821 -5.5407,5.7763 2.258,-1.2259 4.4645,-2.7759 6.2869,-4.8731" />
  </g>
  <path
     style="fill:#784421"
     inkscape:connector-curvature="0"
     id="path28"
     d="m 483.83669,22.300116 c 10.29928,26.976965 16.35251,56.402135 16.35251,87.017764 0,133.78781 -107.79573,242.36846 -240.61547,242.36846 -132.81973,0 -240.615464,-108.58065 -240.615464,-242.36846 0,-30.615629 6.053231,-60.042667 16.352508,-87.017764 26.519095,41.509205 83.594016,73.933892 154.763866,87.017764 -12.66899,15.6031 -20.44157,35.51952 -20.44157,57.23378 2e-5,49.96952 40.33183,90.52374 89.93879,90.52374 49.60697,0 89.9388,-40.55422 89.9388,-90.52374 0,-21.71426 -7.77258,-41.63068 -20.44157,-57.23378 71.17172,-13.085741 128.24664,-45.510428 154.76387,-87.017764 z" />
  <path
     style="fill:#ffff00"
     inkscape:connector-curvature="0"
     id="path30"
     d="m 270.18698,139.00095 -80.86923,17.4514 33.9067,50.16389 58.81483,-12.69142 -11.8523,-54.922 z" />
  <path
     style="fill:#784421;fill-rule:evenodd"
     inkscape:connector-curvature="0"
     id="path32"
     d="m 264.36362,154.06208 50.57129,-10.91226 18.3036,40.41405 c -21.83761,-10.22452 -42.1334,-11.7682 -58.96621,4.67775" />
  <path
     inkscape:connector-curvature="0"
     id="path34"
     d="m 240.84706,168.52095 c 1.3134,6.08666 7.31227,9.9561 13.39892,8.6427 6.08666,-1.3134 9.95611,-7.31227 8.64271,-13.39893 -1.3134,-6.08666 -7.31227,-9.9561 -13.39893,-8.6427 -6.08666,1.3134 -9.9561,7.31227 -8.6427,13.39893 z" />
  <path
     style="fill:#ffff00;fill-rule:evenodd"
     inkscape:connector-curvature="0"
     id="path36"
     d="M 314.32006,244.07376 C 288.69802,229.74522 260.55488,208.85887 264.4907,191.41868 l -44.5162,-19.8211 c -23.88027,24.86515 -13.55296,58.0542 -1.69318,79.60774" />
  <path
     style="fill:none;stroke:#000000;stroke-width:18.68857956"
     inkscape:connector-curvature="0"
     id="path38"
     d="M 116.58554,159.89105 H 5.0857333" />
  <path
     style="fill:none;stroke:#000000;stroke-width:18.68857956"
     inkscape:connector-curvature="0"
     id="path40"
     d="M 121.28572,195.58997 13.585299,224.44888" />
  <path
     style="fill:none;stroke:#000000;stroke-width:18.68857956"
     inkscape:connector-curvature="0"
     id="path42"
     d="m 135.06481,228.85565 -96.562027,55.7499" />
  <path
     style="fill:none;stroke:#000000;stroke-width:18.68857956"
     inkscape:connector-curvature="0"
     id="path44"
     d="M 156.98464,257.42114 78.141261,336.26265" />
  <path
     style="fill:none;stroke:#000000;stroke-width:18.68857956"
     inkscape:connector-curvature="0"
     id="path46"
     d="M 185.55014,279.34098 129.80023,375.903" />
  <path
     style="fill:none;stroke:#000000;stroke-width:18.68857956"
     inkscape:connector-curvature="0"
     id="path48"
     d="M 13.585299,95.333218 121.28572,124.19212" />
  <path
     style="fill:none;stroke:#000000;stroke-width:18.68857956"
     inkscape:connector-curvature="0"
     id="path50"
     d="M 399.93244,159.89105 H 511.43225" />
  <path
     style="fill:none;stroke:#000000;stroke-width:18.68857956"
     inkscape:connector-curvature="0"
     id="path52"
     d="m 395.23227,195.58997 107.70041,28.85891" />
  <path
     style="fill:none;stroke:#000000;stroke-width:18.68857956"
     inkscape:connector-curvature="0"
     id="path54"
     d="m 381.45318,228.85565 96.56202,55.7499" />
  <path
     style="fill:none;stroke:#000000;stroke-width:18.68857956"
     inkscape:connector-curvature="0"
     id="path56"
     d="m 359.53334,257.42114 78.84338,78.84151" />
  <path
     style="fill:none;stroke:#000000;stroke-width:18.68857956"
     inkscape:connector-curvature="0"
     id="path58"
     d="m 330.96785,279.34098 55.7499,96.56202" />
  <path
     style="fill:none;stroke:#000000;stroke-width:18.68857956"
     inkscape:connector-curvature="0"
     id="path60"
     d="M 502.93455,95.333218 395.23414,124.19212" />
  <path
     style="fill:#ffff00;fill-opacity:1;stroke:#ffff00"
     id="path3072"
     d="m 210.05448,355.09886 c 0.88853,1.3393 1.92808,2.56838 2.91887,3.83166 1.77414,2.15413 3.46404,4.37495 5.19624,6.56214 1.49778,1.92866 3.02071,3.83649 4.54401,5.7449 0.77539,0.93466 1.38732,1.98573 2.01115,3.02326 0.40666,0.61719 0.84271,1.21179 1.31196,1.78309 0.41519,0.49417 0.93025,0.87583 1.4335,1.27175 0,0 -1.49036,0.13467 -1.49036,0.13467 l 0,0 c -0.50603,-0.4031 -1.01621,-0.8034 -1.4321,-1.30431 -0.46935,-0.57822 -0.91211,-1.17523 -1.30997,-1.80529 -0.60634,-1.0293 -1.18814,-2.07889 -1.9462,-3.00803 -1.49654,-1.91914 -3.01001,-3.82484 -4.50178,-5.74778 -1.72511,-2.19791 -3.42399,-4.41641 -5.21721,-6.5603 -1.02289,-1.27423 -2.09146,-2.51538 -3.02811,-3.8557 0,0 1.51,-0.0701 1.51,-0.0701 z"
     inkscape:connector-curvature="0" />
  <path
     style="fill:#ffff00;fill-opacity:1;stroke:#ffff00"
     id="path3074"
     d="m 219.16393,381.86315 c -0.0862,-0.81853 -0.35507,-1.60451 -0.57504,-2.39418 -0.36837,-1.25348 -0.77299,-2.49618 -1.16851,-3.74152 -0.48722,-1.49663 -0.9507,-2.99849 -1.54388,-4.45733 -0.58988,-1.40075 -1.20247,-2.78961 -1.66094,-4.24 -0.30405,-1.0946 -0.50438,-2.22005 -0.89581,-3.2886 -0.27665,-0.67544 -0.64411,-1.30771 -0.93972,-1.97624 -0.32082,-0.86155 -0.64621,-1.72127 -0.97622,-2.57936 -0.23255,-0.53381 -0.38939,-1.09658 -0.59691,-1.6386 -0.1133,-0.24388 -0.3208,-0.40258 -0.4953,-0.59709 0,0 1.51226,-0.11352 1.51226,-0.11352 l 0,0 c 0.1936,0.20038 0.38819,0.39241 0.49338,0.65798 0.18836,0.54672 0.35632,1.10029 0.57461,1.63701 0.32379,0.85674 0.6394,1.71662 0.9711,2.5703 0.31071,0.66572 0.69014,1.30033 0.94651,1.98898 0.36526,1.07582 0.55299,2.20121 0.85713,3.29466 0.45798,1.44576 1.07758,2.82786 1.6547,4.22891 0.58971,1.465 1.0585,2.97001 1.55613,4.46798 0.39818,1.24752 0.80704,2.49183 1.18349,3.74592 0.22815,0.79719 0.50273,1.58647 0.62161,2.40961 0,0 -1.51859,0.0251 -1.51859,0.0251 z"
     inkscape:connector-curvature="0" />
  <path
     style="fill:#ffff00;fill-opacity:1;stroke:#ffff00"
     id="path3076"
     d="m 220.29213,380.34096 c -0.40521,-1.66665 -0.84314,-3.32568 -1.27717,-4.98514 -0.53719,-1.90299 -1.11926,-3.80108 -1.90094,-5.62008 -0.29729,-0.69183 -0.65378,-1.41173 -0.98228,-2.09119 -0.60401,-1.18186 -1.29294,-2.33148 -2.15317,-3.34578 -0.27911,-0.48366 -0.92713,-0.73391 -1.09736,-1.27864 0.41472,-1.19197 2.03507,0.16463 2.48998,0.57249 0.69508,0.63453 1.30097,1.34879 1.87975,2.0882 0.69618,0.83794 1.28358,1.759 1.79487,2.71911 0.5074,1.00215 0.8424,2.07641 1.22455,3.12922 0.2909,0.91246 0.68021,1.78916 0.94288,2.71048 0.18479,0.7207 0.31886,1.45282 0.49534,2.17538 0.16701,0.60356 0.22872,1.22642 0.33076,1.84171 0.11093,0.48573 0.28957,0.94655 0.47383,1.40751 0.0992,0.17117 0.34065,0.92284 0.55723,0.91106 -0.49094,-0.008 -0.98509,0.0327 -1.47281,-0.024 -0.0489,-0.006 0.03,-0.0942 0.0375,-0.14283 0.0145,-0.0948 0.0213,-0.19066 0.028,-0.28632 0.0324,-0.45999 0.0332,-0.92238 0.0398,-1.38318 -0.002,-0.99414 -0.1563,-1.97601 -0.27917,-2.95968 -0.0655,-0.55389 -0.24131,-1.07533 -0.4476,-1.58924 -0.16135,-0.46696 -0.2332,-0.96013 -0.34363,-1.44132 -0.11667,-0.54163 -0.25792,-1.07883 -0.49296,-1.58205 -0.021,-0.0169 -0.09,-0.051 -0.0631,-0.0507 0.51048,0.005 1.02569,-0.0135 1.53013,0.0649 0.0656,0.0102 0.0451,0.12527 0.0748,0.18468 0.0444,0.0889 0.095,0.17462 0.14711,0.25919 0.14574,0.23649 0.37423,0.56411 0.52601,0.78623 0.90823,1.20161 1.73977,2.4541 2.51437,3.74562 0.54958,1.07128 1.21866,2.13102 1.50796,3.31132 0.24481,0.98806 -1.32723,0.94716 -1.93932,0.43256 -0.0601,-0.0505 -0.10772,-0.11428 -0.16159,-0.17141 -0.36362,-0.36962 -0.62506,-0.82972 -0.8684,-1.28421 -0.25957,-0.44944 -0.51371,-0.90189 -0.77065,-1.35285 -0.145,-0.24553 -0.36007,-0.70536 -0.61342,-0.8457 0.48744,0.0148 0.9756,0.0139 1.46231,0.0443 0.0194,0.001 -0.0314,0.0262 -0.0373,0.0447 -0.0171,0.0539 -0.0229,0.11083 -0.0299,0.16693 -0.0337,0.27349 -0.0299,0.54106 -0.0169,0.81557 0.0949,0.69642 0.27138,1.37604 0.47262,2.04801 0,0 -1.49758,0.0428 -1.49758,0.0428 l 0,0 c -0.19691,-0.68455 -0.37648,-1.37581 -0.47428,-2.08258 -0.006,-0.0935 -0.0249,-1.2042 0.0662,-1.21393 0.52115,-0.0557 1.04824,-0.001 1.57236,-0.002 0.24851,0.26276 0.43458,0.58669 0.60208,0.90456 0.25351,0.45282 0.50981,0.90393 0.76522,1.35564 0.24294,0.4411 0.50456,0.8857 0.87244,1.23509 0.0536,0.0429 0.1016,0.0941 0.16086,0.12881 0.0519,0.0305 0.2287,0.0589 0.16875,0.0644 -0.45276,0.0417 -0.90908,0.0245 -1.36327,0.0456 -0.0347,0.002 0.0738,0.031 0.10337,0.0128 0.10247,-0.0627 0.0378,-0.30955 0.0339,-0.35468 -0.25883,-1.16754 -0.92219,-2.21413 -1.46013,-3.26749 -0.77576,-1.29427 -1.61885,-2.54141 -2.54365,-3.73426 -0.24393,-0.34689 -0.52332,-0.69385 -0.70799,-1.07872 -0.0353,-0.0735 -0.16494,-0.20625 -0.0866,-0.22884 0.48734,-0.14043 1.00427,-0.15299 1.51064,-0.18153 0.0361,-0.002 0.0368,0.0622 0.0551,0.0933 0.21056,0.52072 0.3631,1.06037 0.48153,1.60928 0.11519,0.47347 0.18709,0.95959 0.35094,1.41918 0.2063,0.52618 0.36957,1.0634 0.42914,1.6287 0.11047,0.9908 0.25757,1.97929 0.26535,2.97846 -0.001,0.56303 0.0176,1.13344 -0.0303,1.69524 -0.006,0.0748 0.0452,0.20917 -0.0286,0.22347 -0.51336,0.0996 -1.0443,0.0573 -1.56645,0.0859 -0.26878,-0.28067 -0.37147,-0.68508 -0.54537,-1.02321 -0.18922,-0.47034 -0.36609,-0.94301 -0.4735,-1.44041 -0.0997,-0.61123 -0.14989,-1.23164 -0.31879,-1.83066 -0.1741,-0.72081 -0.31374,-1.44946 -0.49087,-2.16966 -0.26056,-0.91653 -0.63899,-1.79248 -0.92569,-2.70085 -0.37555,-1.04873 -0.71838,-2.11417 -1.22992,-3.10745 -0.51251,-0.95046 -1.09203,-1.86568 -1.78885,-2.69347 -0.58218,-0.73284 -1.19861,-1.43646 -1.8997,-2.05937 -0.0882,-0.0756 -0.17412,-0.15399 -0.26469,-0.22673 -0.17315,-0.13907 -0.2649,-0.20302 -0.4499,-0.30697 -0.0483,-0.0271 -0.20342,-0.0697 -0.14828,-0.0751 1.4182,-0.1387 1.56526,0.4058 1.38737,-0.13724 0.13377,0.42332 0.84097,0.81159 1.05322,1.22252 0.83579,1.03456 1.50866,2.19031 2.08771,3.38558 0.32098,0.68988 0.65906,1.39925 0.95024,2.10143 0.76014,1.83306 1.33837,3.73601 1.90266,5.63623 0.45715,1.66115 0.91397,3.32266 1.4104,4.9726 0,0 -1.51741,0.0488 -1.51741,0.0488 z"
     inkscape:connector-curvature="0" />
  <path
     style="fill:#ffff00;fill-opacity:1;stroke:#ffff00"
     id="path3078"
     d="m 226.74864,375.87553 c -0.95156,-1.89595 -2.15266,-3.64664 -3.32258,-5.41102 -2.363,-3.41328 -4.89314,-6.70591 -7.54337,-9.8999 -1.18433,-1.45817 -2.5324,-2.76258 -3.8698,-4.07525 -0.7463,-0.69559 -1.32538,-1.54391 -2.01494,-2.29396 -0.39624,-0.29741 -0.69801,-0.74878 -1.12019,-1.01379 -0.0469,-0.0294 -0.21158,-0.0553 -0.15625,-0.0562 0.47398,-0.008 0.94778,0.0241 1.42166,0.0361 0.005,-0.0158 7.9e-4,-0.0577 0.0137,-0.0474 0.0403,0.032 0.0567,0.086 0.0872,0.12747 0.0617,0.084 0.12165,0.16962 0.18924,0.24898 0.45924,0.5392 0.94222,1.06156 1.40548,1.59773 2.08435,2.52517 3.99311,5.19219 5.93234,7.82946 2.09713,2.93589 4.00074,6.0025 5.76118,9.15012 0.9071,1.78608 1.93874,3.50541 2.87399,5.27613 0.28369,0.5938 0.15762,0.30787 0.38315,0.85557 0,0 -1.48769,0.0568 -1.48769,0.0568 l 0,0 c -0.21019,-0.53794 -0.0923,-0.25641 -0.35875,-0.8425 -0.89726,-1.77356 -1.88589,-3.49987 -2.77679,-5.27689 -1.72643,-3.15281 -3.61383,-6.21547 -5.71343,-9.13533 -1.95765,-2.64468 -3.88722,-5.32131 -6.04273,-7.80992 -0.67694,-0.75215 -0.50044,-0.56312 -1.12239,-1.2305 -0.1971,-0.2115 -0.57858,-0.52612 -0.65711,-0.83751 -0.0154,-0.0609 0.003,-0.12555 0.005,-0.18833 0.53075,0.007 1.06266,-0.0136 1.59226,0.0221 0.0707,0.005 0.34054,0.26751 0.34951,0.27584 0.30194,0.28032 0.60586,0.55898 0.89458,0.85306 0.68027,0.75502 1.26917,1.59242 2.01455,2.28653 1.30332,1.31052 2.57324,2.65353 3.72763,4.10017 2.61398,3.22976 5.1426,6.52864 7.55584,9.91162 1.21409,1.771 2.44108,3.53539 3.48522,5.41438 0,0 -1.50629,0.0765 -1.50629,0.0765 z"
     inkscape:connector-curvature="0" />
  <path
     style="fill:#ffff00;fill-opacity:1;stroke:#ffff00"
     id="path3080"
     d="m 229.83558,372.72034 c -1.94652,-2.0232 -3.80538,-4.12887 -5.67263,-6.22481 -2.69352,-2.98111 -5.43436,-5.92619 -8.36896,-8.67343 -0.98362,-0.92082 -2.03252,-1.82762 -3.04776,-2.71726 -1.1438,-0.98828 -2.32128,-1.94841 -3.22968,-3.16672 0,0 1.49425,-0.0949 1.49425,-0.0949 l 0,0 c 0.86604,1.1953 1.9816,2.16094 3.06883,3.14923 0.88723,0.81184 2.10967,1.92211 2.95004,2.7308 2.89587,2.78667 5.62768,5.73729 8.36081,8.68158 1.94886,2.1065 3.8971,4.21652 5.95964,6.21313 0,0 -1.51454,0.10234 -1.51454,0.10234 z"
     inkscape:connector-curvature="0" />
  <path
     style="fill:#ffff00;fill-opacity:1;stroke:#ffff00"
     id="path3082"
     d="m 228.08814,374.48585 c -0.83557,-0.63357 -1.7017,-1.21717 -2.51898,-1.87549 -1.27824,-1.04019 -2.35474,-2.28848 -3.29286,-3.63663 -0.75259,-1.15108 -1.41434,-2.35806 -2.09165,-3.55425 -0.35604,-0.7357 -0.85858,-1.38366 -1.26382,-2.08939 -0.7176,-1.10695 -0.48246,-0.81898 1.28931,-0.68046 0.96198,0.8872 1.90654,1.7949 2.84362,2.70944 1.1081,1.07638 2.00725,2.32924 2.94416,3.54954 0.60536,0.89922 1.28071,1.74488 1.95194,2.59442 0.44633,0.49195 0.85708,1.017 1.22324,1.57123 0.19417,0.28742 0.35565,0.59592 0.57591,0.86484 0,0 -1.51201,0.0995 -1.51201,0.0995 l 0,0 c -0.20517,-0.28176 -0.37512,-0.58568 -0.56737,-0.87605 -0.36511,-0.54636 -0.76482,-1.06912 -1.20139,-1.56056 -0.66574,-0.84939 -1.32117,-1.70535 -1.9286,-2.59822 -0.92268,-1.21874 -1.81532,-2.46484 -2.92137,-3.5297 -0.94991,-0.92105 -1.90122,-1.84205 -2.9204,-2.68714 0.46722,-0.0163 0.93815,0.0121 1.40167,-0.0488 0.0446,-0.006 -0.0353,-0.0867 -0.0305,-0.13141 0.004,-0.0329 0.0209,0.0629 0.0347,0.093 0.0886,0.19378 0.20811,0.37032 0.31767,0.55235 0.40096,0.70298 0.87989,1.3608 1.23281,2.09224 0.66389,1.19359 1.31439,2.39688 2.0608,3.54165 0.93812,1.33807 2.02315,2.56938 3.30278,3.59394 0.83705,0.65827 1.72243,1.24296 2.58226,1.87016 0,0 -1.5119,0.13584 -1.5119,0.13584 z"
     inkscape:connector-curvature="0" />
  <path
     style="fill:#ffff00;fill-opacity:1;stroke:#ffff00"
     id="path3084"
     d="m 232.11505,369.30839 c -0.93327,-0.9365 -1.82759,-1.90719 -2.66989,-2.92601 -0.25218,-0.31616 -0.51307,-0.62556 -0.75653,-0.94848 -0.56651,-0.7514 -1.0936,-1.53177 -1.64739,-2.2926 -0.90995,-1.25011 -1.83341,-2.48872 -2.7738,-3.71602 -1.61275,-1.98922 -3.31877,-3.90037 -5.0117,-5.82112 -0.95042,-1.01817 -1.88531,-2.05994 -2.92182,-2.99272 -0.4198,-0.40954 -0.8191,-0.62774 -1.39314,-0.70736 -0.0738,-0.006 -0.14752,-0.0131 -0.22146,-0.0171 -0.14946,-0.008 -0.3559,-0.01 -0.50354,-0.0107 -0.0901,-4.3e-4 -0.36047,10e-5 -0.27035,2.2e-4 1.21673,0.002 1.61641,-0.002 0.91624,0.003 -0.0814,0.006 -0.16286,0.0123 -0.2443,0.0185 0,0 -1.49064,-0.22056 -1.49064,-0.22056 l 0,0 c 0.0834,-0.0107 0.16677,-0.0213 0.25015,-0.032 1.01808,-0.008 2.04389,-0.0539 3.05833,0.0481 0.54951,0.11315 0.98703,0.39395 1.38063,0.79558 1.00194,0.95416 1.923,1.99112 2.85392,3.01333 1.67233,1.92767 3.36488,3.83978 4.95836,5.83387 0.94072,1.23047 1.86679,2.47089 2.78419,3.71888 0.12157,0.16537 1.51622,2.07959 1.67407,2.28367 0.24875,0.32159 0.51456,0.62962 0.77184,0.94442 0.86967,1.01162 1.77919,1.99278 2.76874,2.88932 0,0 -1.51191,0.13584 -1.51191,0.13584 z"
     inkscape:connector-curvature="0" />
  <path
     style="fill:#ffff00;fill-opacity:1;stroke:#ffff00"
     id="path3086"
     d="m 231.53978,371.41772 c -0.70817,-0.59343 -1.43519,-1.16428 -2.15697,-1.74111 -1.7424,-1.49902 -3.49108,-2.99266 -5.20187,-4.528 -1.64048,-1.48963 -3.30154,-2.95908 -5.03137,-4.3446 -0.54797,-0.3989 -1.08918,-0.80946 -1.68264,-1.13999 -0.35145,-0.19574 -0.71659,-0.36426 -1.06668,-0.56336 -0.42691,-0.25371 -0.76892,-0.6257 -1.06622,-1.01878 -0.30338,-0.43412 -0.70259,-0.78563 -1.0597,-1.1729 -0.44457,-0.43354 -0.86795,-0.88765 -1.28972,-1.34354 -0.37246,-0.40292 -0.6978,-0.84419 -1.04504,-1.26744 -0.29212,-0.29622 -0.49576,-0.63822 -0.53478,-1.05479 -0.0122,-0.54283 0.23583,-0.70589 0.74167,-0.77181 0.58902,0.0164 1.17936,0.007 1.76706,0.0492 0.11425,0.008 0.22104,0.0615 0.32795,0.10266 0.60989,0.23459 1.05338,0.62625 1.52376,1.06689 1.09486,1.11912 1.99969,2.40104 2.97237,3.62322 1.33765,1.76562 2.9197,3.31732 4.41761,4.94158 1.01326,1.04959 1.906,2.19753 2.73317,3.39606 0.42746,0.58853 0.85396,1.17091 1.22323,1.79815 0.33545,0.60286 0.8724,1.04637 1.42743,1.43907 0.54386,0.34968 1.0942,0.69028 1.70359,0.91158 0.41019,0.15629 0.83446,0.30807 1.26623,0.38864 -2.68819,-0.0868 -1.14009,0.38187 -1.45278,-0.12039 -0.16381,-0.26311 -0.37183,-0.48051 -0.58649,-0.70187 -0.63881,-0.74674 -1.37888,-1.39679 -2.12215,-2.03648 -0.89357,-0.67198 -1.66761,-1.47098 -2.42325,-2.28902 -0.76042,-0.88931 -1.50184,-1.79346 -2.21613,-2.72033 -0.66965,-0.95109 -1.27454,-1.94232 -1.84033,-2.95786 -0.54991,-0.93674 -1.08664,-1.88809 -1.85842,-2.66213 -0.45936,-0.35745 -0.98112,-0.6181 -1.45324,-0.95932 -0.47661,-0.32649 -0.93172,-0.67997 -1.38158,-1.04145 -0.48466,-0.3881 -0.96872,-0.77886 -1.49317,-1.11225 -0.38277,-0.31142 -0.80485,-0.57025 -1.19758,-0.86695 -0.24667,-0.17467 -0.47583,-0.37595 -0.75426,-0.50083 -0.46039,-0.20648 -1.43267,-0.0822 1.26919,-0.0211 -0.004,-0.009 -0.0192,-0.0324 -0.0127,-0.0256 0.0687,0.0719 0.1198,0.15925 0.18795,0.23167 0.27096,0.28797 0.58064,0.54698 0.87067,0.81486 1.09126,0.9758 2.16476,1.97174 3.24768,2.95703 1.09625,0.99886 2.15889,2.03935 3.13623,3.15549 0.59466,0.64782 1.08857,1.37737 1.67724,2.0307 0.56868,0.68804 1.16173,0.6996 -1.15662,0.41656 -0.0897,-0.011 -0.11832,-0.13679 -0.18157,-0.20134 -0.10511,-0.10728 -0.2155,-0.20925 -0.32325,-0.31387 -1.32177,-1.2109 -2.64505,-2.41996 -3.9637,-3.63469 -1.18089,-1.06946 -2.33215,-2.16994 -3.49291,-3.26066 -0.3701,-0.3251 -0.7599,-0.62634 -1.14488,-0.93326 -0.22035,-0.17568 -0.42586,-0.37173 -0.68196,-0.4921 0.52984,-0.0131 1.06101,-0.0791 1.58951,-0.0393 0.0988,0.007 0.15754,0.12038 0.23882,0.17708 0.1285,0.0896 0.26068,0.17387 0.39034,0.26181 0.6626,0.44943 1.32312,0.90111 1.98942,1.34511 1.36178,0.87506 2.65166,1.85374 3.97219,2.78769 0.097,0.0477 0.18703,0.11383 0.29113,0.14306 0.0635,0.0178 0.26364,-0.002 0.1978,-0.006 -0.47454,-0.0284 -0.95746,0.0207 -1.42458,-0.0677 -0.0664,-0.0126 0.0104,-0.13678 -0.005,-0.20265 -0.0633,-0.27716 -0.20033,-0.47165 -0.33878,-0.72002 -0.76339,-0.98708 -1.71833,-1.80738 -2.64621,-2.63524 -0.57159,-0.51782 -1.12581,-1.04095 -1.63173,-1.62185 -0.78659,-0.73498 -1.28715,-0.4602 1.00116,-0.54207 0.75657,0.66507 1.53593,1.30346 2.30152,1.95827 0.378,0.28097 0.70842,0.61878 1.08537,0.90084 0.0542,0.0406 0.23721,0.10808 0.16961,0.11167 -1.6184,0.0861 -1.28029,0.3426 -1.83966,-0.30205 -0.96782,-0.91665 -2.03973,-1.71417 -3.11043,-2.50517 -0.39837,-0.24828 -0.73817,-0.57831 -1.13402,-0.8298 -0.0702,-0.0446 -0.1422,-0.0881 -0.2198,-0.11802 -0.0483,-0.0186 -0.20505,-0.0262 -0.15325,-0.0258 0.46945,0.004 0.93863,0.0241 1.40795,0.0362 -0.19951,0.33372 -0.13491,0.81156 -0.13251,1.19003 0.002,0.26106 -0.005,0.52086 0.0325,0.78004 0.009,0.0645 0.018,0.12966 0.0375,0.19183 0.007,0.022 0.0633,0.0565 0.0403,0.0562 -0.49018,-0.008 -0.97909,-0.052 -1.46863,-0.0781 0.18645,-0.38436 0.19635,-0.83833 0.28446,-1.25522 0.092,-0.43034 0.35759,-0.71488 0.729,-0.92629 0.82844,-0.30118 1.97133,-0.3333 2.75934,-0.11135 0.46325,0.12073 0.85239,0.39913 1.18831,0.73105 0.38993,0.39277 0.66914,0.87151 0.94039,1.34975 0.40645,0.76503 0.89852,1.47961 1.42446,2.16642 0.65879,0.91812 0.38989,0.75906 -1.3015,0.72285 -0.0835,-0.002 -0.14441,-0.0839 -0.21519,-0.12812 -0.111,-0.0694 -0.22004,-0.14194 -0.33007,-0.2129 -0.9669,-0.65958 -1.90866,-1.35387 -2.83729,-2.06611 -0.69138,-0.54829 -1.41981,-1.06156 -2.06167,-1.66925 -0.73655,-0.86621 1.11614,-0.47925 1.57388,-0.45473 0.10227,0.005 0.60476,0.27763 0.63304,0.29208 1.40967,0.79029 2.54105,1.92572 3.60802,3.11927 0.24535,0.3003 0.49735,0.59529 0.73606,0.9009 0.21981,0.28141 1.44885,1.94299 1.62508,2.17797 0.98304,1.31082 1.99425,2.59745 3.01422,3.87959 1.58265,1.96602 3.12084,3.96672 4.49479,6.0846 0.0253,0.0387 0.29691,0.48899 0.41149,0.57663 0.0167,0.0127 0.0806,-0.0191 0.0597,-0.0198 -0.51268,-0.0182 -1.03452,0.0623 -1.53866,-0.0326 -0.0947,-0.0178 -0.0566,-0.18445 -0.0915,-0.27431 -0.0516,-0.13306 -0.11186,-0.26262 -0.16779,-0.39393 -0.63518,-1.35405 -1.60541,-2.48877 -2.6001,-3.58762 -0.77007,-0.91728 -1.7799,-1.58205 -2.60863,-2.43609 -0.0324,-0.0427 -0.093,-0.0746 -0.0971,-0.12805 -0.005,-0.0608 0.0133,-0.16431 0.0742,-0.16726 0.57223,-0.0278 1.14842,0.009 1.71683,0.0804 0.241,0.0304 1.14352,0.70645 1.32559,0.83336 1.40044,0.95692 2.62044,2.13211 3.77915,3.36234 0.98361,1.08055 1.81146,2.28412 2.69774,3.44189 0.6122,0.7995 1.23883,1.59083 1.90345,2.34757 0.65471,0.92569 -0.87416,0.50218 -1.59802,0.40784 -0.0702,-0.009 -0.60772,-0.40345 -0.65041,-0.4338 -1.39471,-0.93559 -2.2504,-2.41088 -3.12962,-3.79878 -1.00388,-1.70926 -2.12677,-3.34222 -3.39946,-4.86178 -0.57907,-0.74239 -1.20622,-1.43746 -1.84144,-2.13079 -0.87841,-0.93067 -1.7286,-1.88601 -2.5753,-2.84553 -0.87611,-0.97086 -1.66421,-2.01572 -2.51226,-3.01079 -0.42654,-0.41108 -0.77823,-1.01511 -1.34988,-1.24174 -0.0328,0.004 -0.13147,0.0136 -0.0984,0.0132 1.63051,-0.0183 1.15284,-0.3546 1.70991,0.14789 0.15797,0.14248 0.32846,0.27059 0.48759,0.41177 0.50248,0.37852 0.98132,1.03165 1.61232,1.18701 -0.49135,-0.003 -0.98325,0.0157 -1.47404,-0.008 -0.0293,-0.001 -0.0417,-0.0416 -0.0587,-0.0655 -0.0514,-0.0723 -0.0939,-0.15076 -0.14593,-0.22263 -0.28808,-0.39779 -0.62366,-0.75836 -0.95157,-1.12275 -0.61205,-0.71873 -1.33755,-1.31659 -2.11166,-1.85044 0,0 1.47597,-0.14141 1.47597,-0.14141 l 0,0 c 0.76461,0.55465 1.48456,1.16594 2.10306,1.88378 0.33043,0.36362 0.93856,0.94824 1.14492,1.39441 0.035,0.0757 0.14867,0.22358 0.0671,0.241 -0.50748,0.10842 -1.0366,0.0512 -1.5549,0.0768 -0.61146,-0.29186 -1.07121,-0.82866 -1.59481,-1.24463 -0.16917,-0.14236 -0.34603,-0.27608 -0.50719,-0.42744 -0.744,-0.69874 0.65779,-0.67356 1.40228,-0.44124 0.53354,0.32021 0.89942,0.85862 1.31722,1.30626 0.83174,1.0005 1.61039,2.0453 2.48575,3.00884 0.8564,0.95947 1.71721,1.91373 2.60954,2.84 0.63993,0.68579 1.24621,1.3935 1.81328,2.14173 1.23504,1.5454 2.34301,3.18272 3.35763,4.88106 0.89489,1.38044 1.7758,2.83169 3.19611,3.73507 0.1266,0.0825 0.24981,0.17046 0.37979,0.24751 0.0951,0.0563 0.40259,0.12907 0.29453,0.1522 -0.43103,0.0923 -0.88345,0.0113 -1.32064,0.0675 -0.0388,0.005 0.0326,0.0932 0.0718,0.093 0.1067,-6.1e-4 -0.34413,-0.47067 -0.14725,-0.28425 -0.6413,-0.77103 -1.26599,-1.55678 -1.86878,-2.35834 -0.87468,-1.15642 -1.70115,-2.35095 -2.67611,-3.42817 -1.15624,-1.22876 -2.38668,-2.39127 -3.79673,-3.32885 -0.36262,-0.23935 -0.63238,-0.4342 -1.0124,-0.6293 -0.1155,-0.0593 -0.48353,-0.12747 -0.35688,-0.15602 0.42034,-0.0947 0.86628,0.015 1.2915,-0.0546 0.0392,-0.006 -0.21076,-0.34111 0.009,-0.0345 0.79882,0.86383 1.8001,1.52605 2.54813,2.44421 1.00589,1.11685 1.98437,2.27044 2.64852,3.6319 0.0608,0.1349 0.12578,0.26802 0.1825,0.4047 0.0411,0.099 0.21064,0.26307 0.11073,0.30181 -1.47523,0.57215 -1.40126,0.45124 -1.90452,-0.41955 -1.29692,-2.13999 -2.82112,-4.12574 -4.38636,-6.0755 -1.02593,-1.28551 -2.04624,-2.57374 -3.04366,-3.88158 -0.22279,-0.29213 -1.38903,-1.8371 -1.65449,-2.16957 -0.24206,-0.30316 -0.497,-0.59581 -0.7455,-0.89371 -1.08476,-1.18098 -2.23734,-2.30724 -3.67427,-3.05629 -0.1273,-0.0566 -0.25171,-0.12018 -0.3819,-0.16976 -0.0884,-0.0336 -0.3661,-0.067 -0.27235,-0.0794 0.44217,-0.0585 0.89241,-0.0217 1.33666,-0.0614 0.03,-0.003 -0.052,-0.0716 -0.0744,-0.0514 -0.0703,0.0632 0.28666,0.23308 0.15885,0.23519 0.63848,0.59572 1.34446,1.11823 2.03028,1.65701 0.93036,0.71291 1.87022,1.41404 2.85708,2.04778 0.11499,0.0651 0.22579,0.13816 0.34497,0.1952 0.0708,0.0339 0.30004,0.064 0.22258,0.0764 -1.74225,0.27893 -1.10227,0.39558 -1.68949,-0.40435 -0.52068,-0.69844 -1.01228,-1.42029 -1.43307,-2.18402 -0.27547,-0.46361 -0.55684,-0.93011 -0.94939,-1.30594 -0.34083,-0.30812 -0.72499,-0.5552 -1.1812,-0.65052 -0.61631,-0.10424 -0.38045,-0.0513 1.05848,-0.0504 0.074,5e-5 -0.14782,0.008 -0.22156,0.0148 -0.11727,0.0103 -0.30429,0.0311 -0.4207,0.0578 -0.0594,0.0136 -0.11663,0.035 -0.17495,0.0525 -0.35878,0.15899 -0.63213,0.39497 -0.72492,0.79203 -0.10083,0.45402 -0.13338,0.91956 -0.27279,1.36425 -0.52505,6.7e-4 -1.05099,0.0324 -1.57517,0.002 -0.0823,-0.005 -0.0942,-0.99166 -0.0932,-1.09229 -0.002,-0.45448 -0.0379,-0.93058 0.12678,-1.36254 0.53623,-0.0195 1.07211,-0.06 1.6087,-0.0585 0.0727,2.1e-4 0.33594,0.18299 0.35661,0.19761 0.37684,0.26659 0.71997,0.57865 1.10538,0.83384 1.07469,0.80854 2.15299,1.61978 3.14103,2.53384 0.53789,0.60713 0.50046,0.40001 -1.15586,0.55175 -0.0195,0.002 -0.75991,-0.65116 -0.78127,-0.66947 -0.14148,-0.12123 -0.28574,-0.23916 -0.42861,-0.35874 -0.7742,-0.65959 -1.55557,-1.31059 -2.35281,-1.94217 1.56273,-0.25267 1.03159,-0.50038 1.59153,-0.0714 0.14811,0.11348 0.30539,0.21608 0.42284,0.36445 0.48517,0.5811 1.04214,1.08613 1.59268,1.60516 0.9318,0.84542 1.89871,1.67659 2.66163,2.68295 0.0373,0.0668 0.57234,1.01823 0.37779,1.07928 -0.96861,0.30399 -1.3811,0.40513 -2.05322,-0.0117 -1.28284,-0.96224 -2.56853,-1.92266 -3.92148,-2.78591 -0.68077,-0.44579 -1.36048,-0.89316 -2.04016,-1.34061 -0.13652,-0.0899 -0.27605,-0.17538 -0.40913,-0.27028 -0.0911,-0.065 -0.36796,-0.17018 -0.26294,-0.20898 0.45452,-0.1679 0.95746,-0.14961 1.43619,-0.22442 0.63095,0.43748 1.18773,0.9825 1.78325,1.46476 1.14248,1.09324 2.27164,2.20024 3.44341,3.26264 1.32976,1.22546 2.67044,2.43686 4.02712,3.63227 0.11448,0.10809 0.2329,0.21215 0.34345,0.32426 0.0698,0.0707 0.28979,0.18823 0.19699,0.22376 -1.30706,0.50048 -1.28494,0.4627 -1.85055,-0.22184 -0.56917,-0.66269 -1.06555,-1.38306 -1.64924,-2.03324 -0.96798,-1.111 -2.01336,-2.15506 -3.10822,-3.14101 -1.08852,-0.99235 -2.17881,-1.98294 -3.28648,-2.95382 -0.27009,-0.24273 -1.06806,-0.84066 -1.10985,-1.23015 -0.005,-0.0434 0.02,-0.085 0.03,-0.12746 1.77702,0.004 1.42239,-0.19847 2.49936,0.59423 0.39685,0.28461 0.7949,0.56717 1.1865,0.85903 0.52076,0.34447 1.00577,0.73951 1.49465,1.12722 0.44977,0.35945 0.90925,0.70637 1.38397,1.0325 0.47848,0.3341 1.01063,0.5923 1.44256,0.98861 0.74354,0.80615 1.282,1.76152 1.83748,2.7013 0.56445,1.00962 1.17467,1.99177 1.84355,2.93601 0.71112,0.92424 1.44991,1.82577 2.21362,2.70709 0.75552,0.81323 1.54011,1.59556 2.42397,2.27222 0.75014,0.64455 1.48965,1.30437 2.14322,2.04907 0.22878,0.24124 0.64753,0.59109 0.67289,0.95809 0.004,0.0636 0.0307,0.18147 -0.0327,0.18853 -0.52787,0.0587 -1.06225,-0.005 -1.59337,-0.008 -0.42375,-0.12017 -0.85009,-0.23339 -1.2547,-0.41104 -0.60334,-0.24594 -1.15713,-0.59032 -1.69806,-0.95138 -0.56032,-0.4172 -1.1016,-0.87479 -1.43835,-1.49939 -0.36955,-0.61807 -0.7893,-1.19846 -1.19909,-1.79016 -0.8045,-1.19516 -1.68588,-2.33191 -2.67886,-3.37868 -1.49351,-1.63208 -3.06377,-3.1976 -4.41976,-4.95099 -0.98417,-1.21749 -1.90423,-2.49481 -3.02123,-3.59738 -0.37063,-0.33303 -0.71655,-0.6411 -1.17306,-0.85225 -0.11846,-0.0548 -0.24027,-0.10291 -0.36435,-0.14341 -0.1086,-0.0354 -0.4454,-0.0683 -0.33225,-0.0839 0.40034,-0.0555 0.80794,-0.0253 1.2119,-0.0379 -0.42713,0.0157 -0.73284,0.0152 -0.71795,0.53353 0.0412,0.38776 0.26793,0.6873 0.52635,0.96824 0.33279,0.42906 0.66939,0.8534 1.03314,1.25728 0.42191,0.45657 0.85401,0.90276 1.29382,1.34206 0.36777,0.38427 0.75741,0.75166 1.06762,1.18651 0.29776,0.37312 0.63012,0.72453 1.05023,0.96081 0.92971,0.5296 1.87648,1.02681 2.69249,1.73309 1.70512,1.40057 3.35024,2.87228 4.98328,4.3558 1.7214,1.54205 3.48759,3.03544 5.26387,4.51348 0.74245,0.57641 1.48585,1.15159 2.2217,1.7364 0,0 -1.5119,0.13584 -1.5119,0.13584 z"
     inkscape:connector-curvature="0" />
  <path
     style="fill:#ffff00;fill-opacity:1;stroke:#ffff00"
     id="path3088"
     d="m 236.4166,367.95509 c -0.49074,-0.59823 -1.07072,-1.09214 -1.68441,-1.55885 -1.37995,-0.9823 -2.79597,-1.91287 -4.19602,-2.8663 -1.2127,-0.86513 -2.5041,-1.61191 -3.72392,-2.46568 -0.80086,-0.55509 -1.23508,-1.46754 -1.74237,-2.27165 -0.77483,-1.23511 -1.65677,-2.39269 -2.61324,-3.49087 -0.0992,-0.10467 -0.19848,-0.20935 -0.29773,-0.31402 0,0 1.03473,-0.0773 1.03473,-0.0773 l 0,0 c 0.0957,0.10624 0.19142,0.21248 0.28713,0.31872 0.93685,1.11355 1.79829,2.28515 2.59081,3.50628 0.51789,0.79303 0.98123,1.67218 1.77131,2.23032 1.19535,0.86086 2.46248,1.61696 3.66408,2.46939 1.41281,0.95821 2.84716,1.88474 4.24332,2.86701 0.62861,0.47536 1.21988,0.98353 1.73725,1.58062 0,0 -1.07094,0.0724 -1.07094,0.0724 z"
     inkscape:connector-curvature="0" />
  <path
     style="fill:#ffff00;fill-opacity:1;stroke:#ffff00"
     id="path3090"
     d="m 234.88233,367.67709 c -0.62087,0.0521 -1.13021,-0.13563 -1.69279,-0.37559 -1.00787,-0.50672 -1.98976,-1.06496 -2.97337,-1.61734 -0.65857,-0.32445 -1.27901,-0.71112 -1.89426,-1.10878 -0.80284,-0.58881 0.0712,-0.5002 0.98183,-0.41367 0.1084,0.0103 0.20246,0.0802 0.30369,0.12038 1.56491,0.76249 2.99814,1.76295 4.44204,2.72805 1.14456,0.77674 2.24448,1.61618 3.33132,2.47063 0.0239,0.0168 0.10073,0.0475 0.0717,0.0503 -0.38437,0.0368 -0.77197,0.0809 -1.15714,0.0536 -0.0809,-0.006 -0.12833,-0.0992 -0.19224,-0.14906 -0.10187,-0.0795 -0.20487,-0.15771 -0.30509,-0.23932 -0.37528,-0.30556 -0.51559,-0.43606 -0.89453,-0.76931 -1.01832,-0.86972 -1.97404,-1.80857 -2.97936,-2.6927 -0.25948,-0.23312 -0.51191,-0.47308 -0.77521,-0.70184 0,0 1.05052,-0.0887 1.05052,-0.0887 l 0,0 c 0.25303,0.23174 0.49846,0.47121 0.75057,0.70398 0.98842,0.89666 1.93486,1.8398 2.96291,2.69242 0.4055,0.34414 0.80801,0.6887 1.24331,0.99517 0.0676,0.0476 0.28436,0.10768 0.20694,0.13662 -0.84942,0.31744 -0.76224,0.37874 -1.03283,0.10188 -1.03048,-0.88712 -2.12567,-1.69828 -3.24543,-2.46861 -1.45714,-0.97289 -2.91019,-1.98365 -4.51819,-2.69493 -0.10608,-0.0346 -0.4261,-0.0751 -0.31825,-0.1037 0.28653,-0.076 0.59396,-0.0102 0.88805,-0.0474 0.0263,-0.003 -0.0277,-0.0564 -0.0542,-0.0582 -0.0954,-0.007 0.35827,0.30165 0.29239,0.27004 0.60104,0.40173 1.21832,0.77464 1.86223,1.105 0.9813,0.55717 1.9628,1.11989 2.98267,1.60357 0.6009,0.23974 1.07199,0.37759 1.72183,0.3299 0,0 -1.05912,0.16774 -1.05912,0.16774 z"
     inkscape:connector-curvature="0" />
  <path
     style="fill:#ffff00;fill-opacity:1;stroke:#ffff00"
     id="path3092"
     d="m 234.20166,368.26249 c -0.63728,-0.39196 -1.14902,-0.94928 -1.67353,-1.47391 -0.47068,-0.4708 -0.88578,-0.88774 -1.35556,-1.35917 -0.65613,-0.67198 -1.35212,-1.30052 -2.08857,-1.88247 0,0 1.02436,-0.0915 1.02436,-0.0915 l 0,0 c 0.71669,0.59286 1.39105,1.23214 2.0414,1.89727 0.45574,0.45787 0.89898,0.90694 1.36236,1.35725 0.54184,0.52656 1.08729,1.0708 1.75407,1.44018 0,0 -1.06453,0.11236 -1.06453,0.11236 z"
     inkscape:connector-curvature="0" />
  <path
     style="fill:#ffff00;fill-opacity:1;stroke:#ffff00"
     id="path3094"
     d="m 247.8982,353.28046 c -0.50851,-0.0728 -1.02281,-0.0864 -1.53555,-0.0999 -0.71604,0.008 -1.42884,-0.0311 -2.14273,-0.0797 -0.60433,-0.0126 -1.20061,-0.0969 -1.79592,-0.19381 -0.69971,-0.14549 -1.40221,-0.26496 -2.1134,-0.33603 -0.62821,-0.0808 -1.25712,-0.1548 -1.88924,-0.19665 -0.52152,-0.0262 -1.04401,-0.0223 -1.56602,-0.0236 -1.4986,-0.0449 -2.97984,-0.31174 -4.45869,-0.53867 -1.92547,-0.34857 -3.86365,-0.61885 -5.7916,-0.95213 -1.1314,-0.246 -2.2551,-0.53069 -3.37231,-0.83496 -0.75779,-0.21242 -1.53792,-0.31217 -2.32103,-0.36479 -0.43776,-0.034 -2.17524,-0.0237 -0.23686,-0.0225 -0.29067,0.002 -0.58134,0.004 -0.87201,0.004 -0.30322,6.3e-4 -0.60644,6e-4 -0.90966,7.1e-4 -0.64933,0.14021 -1.18583,-0.062 -1.79576,-0.11622 -0.26219,-0.0187 -0.5252,-0.0191 -0.78791,-0.0201 -0.045,-5e-5 -0.09,-10e-5 -0.13506,-1.5e-4 0,0 1.05683,-0.16712 1.05683,-0.16712 l 0,0 c 0.0451,1.7e-4 0.0901,3.4e-4 0.13517,5.2e-4 0.26368,0.002 0.52785,0.004 0.79051,0.0302 0.42606,0.0496 1.51477,0.2358 -0.31878,0.10586 0.30266,5e-5 0.60532,4e-5 0.90798,-6.7e-4 0.29195,-6.9e-4 0.58389,-0.002 0.87584,-0.004 0.7758,-3.5e-4 1.5538,-0.0172 2.32875,0.032 0.77851,0.0613 1.55273,0.17189 2.30527,0.38733 1.10554,0.301 2.21594,0.58943 3.33613,0.83029 1.91946,0.33641 3.84864,0.61384 5.76763,0.95338 1.50052,0.2255 3.00496,0.48741 4.5257,0.51332 0.52805,-3.2e-4 1.05684,-0.006 1.58409,0.0283 0.62536,0.0482 1.24736,0.12695 1.86983,0.2029 0.71507,0.0764 1.42125,0.20191 2.12681,0.34015 0.59305,0.0953 1.18841,0.16554 1.78942,0.18497 0.71373,0.0487 1.4269,0.0778 2.14256,0.0754 0.52157,0.0151 1.04415,0.0333 1.56128,0.10831 0,0 -1.06127,0.15268 -1.06127,0.15268 z"
     inkscape:connector-curvature="0" />
  <path
     style="fill:#ffff00;fill-opacity:1;stroke:#ffff00"
     id="path3096"
     d="m 247.08572,352.49065 c -0.55691,0.008 -1.11146,-0.002 -1.66675,-0.0441 -0.5796,-0.0777 -1.15424,-0.18942 -1.72769,-0.30322 -0.53905,-0.10991 -1.08732,-0.15677 -1.63589,-0.18346 -0.41581,-0.0589 -0.83217,-0.10685 -1.2516,-0.12885 -0.48888,-0.0205 -0.97833,-0.0199 -1.46755,-0.0209 -0.52188,0.003 -1.04084,-0.0667 -1.56123,-0.10085 -0.44892,-0.0276 -0.89883,-0.0308 -1.34844,-0.0332 -0.44112,0.0213 -0.87655,-0.0208 -1.31423,-0.0674 -0.4741,-0.0271 -0.94473,-0.0789 -1.41658,-0.13113 -0.48114,-0.0181 -0.95236,-0.0998 -1.42189,-0.20027 -0.43172,-0.0752 -0.84232,-0.23349 -1.25728,-0.36925 -0.36808,-0.12187 -0.75432,-0.15612 -1.13904,-0.17476 -0.16877,-0.007 -0.33768,-0.008 -0.50656,-0.009 0,0 1.05427,-0.16587 1.05427,-0.16587 l 0,0 c 0.16826,0.002 0.33657,0.005 0.50463,0.0142 0.38638,0.0255 0.772,0.0733 1.13935,0.20284 0.41264,0.13775 0.82487,0.28268 1.25477,0.35773 0.46845,0.0979 0.94048,0.1625 1.41859,0.19034 0.47258,0.0533 0.94538,0.0943 1.41953,0.13005 0.43703,0.0458 0.87322,0.0712 1.31303,0.057 0.44903,0.004 0.89838,0.009 1.34651,0.0401 0.51813,0.0373 1.03552,0.10325 1.55576,0.0946 0.49174,0.001 0.98381,2.7e-4 1.47504,0.0257 0.41832,0.0266 0.83284,0.0828 1.24928,0.12874 0.54775,0.0322 1.09435,0.0872 1.63237,0.19875 0.57248,0.10927 1.14432,0.22813 1.72424,0.29104 0.56175,0.0393 1.12351,0.0405 1.68648,0.0332 0,0 -1.05912,0.16774 -1.05912,0.16774 z"
     inkscape:connector-curvature="0" />
  <path
     style="fill:#ffff00;fill-opacity:1;stroke:#ffff00"
     id="path3098"
     d="m 246.91944,354.11749 c -1.55112,0.0596 -3.08127,-0.19385 -4.60789,-0.43068 -3.05476,-0.5563 -6.07889,-1.26352 -9.11311,-1.91932 -2.96017,-0.6686 -5.97373,-1.00771 -8.99731,-1.20523 -1.65101,-0.0766 -3.30139,-0.1667 -4.9533,-0.22203 -0.52584,-0.0171 -1.05193,-0.0226 -1.57802,-0.0221 0.30129,0.004 0.60258,0.007 0.90386,0.0109 -0.0473,0.0174 -0.54144,0.0611 -0.23194,0.12644 0.26837,0.0981 0.2282,0.0918 0.57424,0.1653 0.50225,0.10672 0.87031,0.15496 1.39675,0.23989 1.49466,0.2411 1.20391,0.19578 2.90298,0.48455 4.30941,0.75756 8.60239,1.66264 12.79952,2.90935 0.90793,0.26969 1.80604,0.57141 2.70906,0.85711 4.12234,1.41872 8.13836,3.11918 12.24816,4.57236 0.17913,0.0625 1.37812,0.47671 1.67586,0.59362 0.12538,0.0492 0.25346,0.0957 0.36863,0.16548 0.0838,0.0508 0.23688,0.24859 -0.0432,0.27388 -0.45722,0.0413 -0.91813,-0.009 -1.3772,-0.013 -2.25006,-0.39442 -4.46061,-0.98964 -6.66599,-1.5784 -3.93763,-0.99686 -7.86453,-2.04635 -11.83034,-2.9279 -0.8025,-0.17839 -1.60856,-0.3404 -2.41283,-0.5106 -3.2236,-0.66623 -6.48759,-1.11237 -9.76104,-1.4439 -0.76197,-0.067 -0.5787,-0.0534 -1.23619,-0.1035 -0.10257,-0.008 -0.41061,-0.0203 -0.30777,-0.0227 0.3239,-0.008 0.64897,0.0329 0.97194,0.007 0.0463,-0.004 0.0693,-0.0618 0.10388,-0.0927 0.10484,0.0245 0.20967,0.0491 0.3145,0.0736 1.34272,0.37933 2.70326,0.69239 4.04321,1.08216 1.51348,0.44025 2.37843,0.73802 3.89962,1.23558 3.49864,1.15215 6.90048,2.56323 10.25562,4.07674 0.26153,0.12497 0.52156,0.25311 0.78457,0.3749 0.4853,0.22473 1.71452,0.58391 -0.80539,0.20645 -0.2134,-0.032 -0.38709,-0.19084 -0.58195,-0.28353 -0.30218,-0.14374 -0.60608,-0.28383 -0.90912,-0.42575 -3.21421,-1.48578 -6.55965,-2.65319 -9.93457,-3.71177 -1.22634,-0.32966 -2.42872,-0.78094 -3.68228,-1.00758 -0.23135,-0.0418 -0.4799,9.2e-4 -0.7008,-0.0795 -0.17716,-0.0645 0.38839,-0.0365 0.56481,0.03 0.0732,0.0276 -0.14053,0.069 -0.21079,0.10347 0.005,0.0669 -0.0165,0.14091 0.0139,0.20068 0.24616,0.48392 1.06636,0.95989 1.48709,1.21818 0.81713,0.50164 1.29967,0.73288 2.16932,1.18743 2.7397,1.38545 5.48479,2.75908 8.18758,4.21568 0.82458,0.43685 1.59257,0.96867 2.39973,1.43482 0.11299,0.0652 0.47241,0.15346 0.34554,0.1839 -0.55562,0.1333 -0.78878,0.0348 -1.19961,-0.0998 -0.17613,-0.11444 -0.34852,-0.23486 -0.5284,-0.34332 -1.04095,-0.62766 -2.13087,-1.1747 -3.20696,-1.73802 -2.61581,-1.36935 -0.0903,-0.0501 -2.7134,-1.4193 -1.07052,-0.56379 -2.12448,-1.15823 -3.19276,-1.72617 -0.18679,-0.0993 -0.36886,-0.20891 -0.56305,-0.29285 -0.0844,-0.0365 -0.35976,-0.063 -0.26785,-0.0663 0.3667,-0.0134 0.73349,0.024 1.10024,0.036 0.1026,0.10428 0.20197,0.21185 0.30781,0.31285 0.77581,0.74031 1.59589,1.43589 2.39715,2.14795 1.07698,0.9571 1.16054,1.03671 2.23706,2.00952 0.96182,0.9105 1.92565,1.81893 2.89148,2.72517 0.27287,0.25602 0.79176,0.7642 1.13923,0.99568 0.0932,0.0621 0.20384,0.093 0.30577,0.13955 -0.31685,-0.0245 -0.64613,0.0177 -0.95056,-0.0735 -0.0817,-0.0245 -0.0492,-0.16488 -0.0917,-0.23879 -0.23372,-0.40651 -0.55193,-0.78344 -0.88095,-1.11153 -0.65483,-0.65297 -1.06022,-0.92599 -1.80667,-1.5037 -1.75808,-1.29739 -3.65111,-2.39866 -5.40229,-3.70471 0.74491,0.24228 -0.51941,-0.31438 -0.35809,-0.32818 0.3954,-0.0338 0.79792,-0.07 1.19049,-0.0119 0.12608,0.0187 0.20302,0.15417 0.30314,0.23304 0.57657,0.45421 0.52069,0.41775 1.14689,0.94902 1.91738,1.6448 3.74412,3.38952 5.61475,5.08628 0.19099,0.17181 1.06293,0.96573 1.32496,1.16994 0.13858,0.108 0.27828,0.22006 0.43806,0.29311 0.0902,0.0413 0.39238,0.0592 0.29469,0.0419 -1.03813,-0.18435 -0.87485,0.15935 -0.96859,-0.50713 -0.0773,-0.17712 -0.13355,-0.365 -0.2319,-0.53136 -0.31197,-0.5277 -0.74169,-0.98625 -1.1861,-1.40143 -0.98701,-0.92209 -2.11006,-1.65791 -3.22945,-2.40429 -1.11027,-0.7305 -2.22846,-1.4496 -3.32318,-2.20345 -0.60534,-0.41685 -1.19674,-0.83403 -1.74321,-1.32497 -0.0553,-0.0689 -0.13394,-0.12438 -0.16596,-0.20675 -0.13644,-0.35087 1.18214,-0.0539 1.32243,-0.0221 0.1494,0.0338 0.24952,0.17793 0.36985,0.2727 0.29112,0.22925 0.8838,0.73651 1.14425,0.9572 1.50476,1.35024 3.03959,2.66297 4.66868,3.86107 0.19661,0.1442 0.76511,0.58625 1.03528,0.7041 0.0982,0.0428 0.42275,0.0678 0.31601,0.0587 -0.29979,-0.0257 -0.61622,0.002 -0.89614,-0.10842 -0.0785,-0.0309 0.007,-0.17202 -0.0188,-0.25232 -0.0465,-0.14484 -0.12992,-0.27513 -0.19488,-0.41269 -0.12531,-0.16663 -0.23765,-0.34386 -0.37593,-0.4999 -0.92979,-1.04919 -2.30821,-1.90402 -3.49877,-2.63398 -0.2202,-0.13949 -0.58298,-0.35785 -0.80657,-0.53272 -0.0362,-0.0283 -0.14134,-0.0925 -0.0959,-0.0988 1.26674,-0.17751 1.07566,-0.14175 1.87161,0.43808 1.15834,0.88475 2.26623,1.8338 3.35078,2.80698 0.0706,0.0596 0.76855,0.65304 0.87895,0.7324 0.093,0.0669 0.40977,0.15091 0.29726,0.17251 -1.12031,0.21505 -0.78428,0.15968 -1.08073,-0.28703 -0.14448,-0.2177 -0.30408,-0.42499 -0.45612,-0.63749 -0.28149,-0.32394 -0.54542,-0.66402 -0.84446,-0.97183 -1.85669,-1.9111 -4.05315,-3.49229 -6.3035,-4.90254 -0.53301,-0.33403 -1.07999,-0.64524 -1.61998,-0.96785 -1.085,-0.59867 -2.15975,-1.22139 -3.26718,-1.77884 -0.13318,-0.067 -0.55097,-0.147 -0.40696,-0.18569 0.66535,-0.17874 0.7861,-0.0746 1.1848,0.14063 1.03606,0.89988 2.11763,1.75247 3.24919,2.5298 0.96731,0.6645 1.49208,0.96154 2.50231,1.57271 2.38073,1.40363 4.85479,2.63811 7.33608,3.85174 0.24268,0.11379 0.94194,0.46125 1.26214,0.55207 0.0788,0.0224 0.32712,0.0169 0.2453,0.0135 -0.38903,-0.0162 -0.78571,0.0274 -1.16694,-0.0518 -0.17158,-0.0356 -0.28888,-0.19975 -0.44335,-0.2825 -0.27854,-0.1492 -0.56909,-0.27482 -0.85364,-0.41223 -0.43657,-0.17372 -0.86977,-0.35617 -1.30971,-0.52116 -1.91331,-0.71755 -3.85968,-1.3473 -5.78755,-2.02367 -2.05526,-0.72106 -1.88106,-0.66897 -3.84023,-1.41522 -1.2135,-0.49887 -2.46464,-0.92477 -3.63314,-1.52854 -0.008,-0.004 -0.71232,-0.35251 -0.7607,-0.55049 -0.0175,-0.0718 0.0757,-0.12696 0.11353,-0.19044 0.49066,0.01 0.98555,-0.0357 1.47199,0.0293 0.22656,0.0303 1.5417,0.63846 1.61848,0.67484 1.28163,0.60742 2.53786,1.2737 3.80161,1.91699 2.14759,1.12782 4.31344,2.21868 6.50206,3.26447 -0.65311,0.0837 1.10535,0.27854 0.81671,0.28962 -0.311,0.0119 -0.6299,0.0192 -0.93203,-0.0555 -0.0761,-0.0188 -0.0706,-0.14072 -0.11704,-0.20381 -0.12792,-0.17382 -0.25452,-0.35042 -0.40484,-0.50528 -0.24016,-0.24742 -0.50887,-0.46544 -0.76331,-0.69817 -1.92458,-1.57272 -4.21868,-2.55654 -6.51416,-3.44988 0.26247,-0.16703 -0.66866,-0.11486 -0.63162,-0.35323 0.0114,-0.0735 0.11044,-0.12726 0.18474,-0.12495 0.5112,0.0159 1.02501,0.0658 1.52397,0.17809 0.27543,0.062 0.51844,0.22379 0.77589,0.33968 0.35022,0.15765 0.69802,0.32061 1.04704,0.48091 2.77212,1.32591 5.63372,2.43941 8.53988,3.43141 0.90887,0.24198 1.84975,0.69242 2.78226,0.85412 0.14379,0.0249 0.57981,0.048 0.43754,0.0155 -1.10272,-0.25195 -0.73297,0.18446 -1.10299,-0.44113 -0.17047,-0.18964 -0.32384,-0.39619 -0.51142,-0.56893 -0.63106,-0.58113 -1.42483,-1.11431 -2.15296,-1.54547 -1.63489,-0.9681 -3.38684,-1.69926 -5.1228,-2.46037 -1.54182,-0.64704 -3.10097,-1.2511 -4.65672,-1.86337 -0.83241,-0.3276 -1.6576,-0.65941 -2.50651,-0.94139 -0.0982,-0.003 -0.39246,-0.0153 -0.29453,-0.008 0.35202,0.0271 0.71523,-0.0218 1.05711,0.0664 0.12059,0.0311 0.16375,0.18844 0.25591,0.27219 0.17716,0.161 0.36156,0.31421 0.55075,0.46087 0.74077,0.57428 1.1312,0.81261 1.94162,1.35542 2.64941,1.71425 5.4682,3.13006 8.32583,4.45725 0.78487,0.34434 1.54979,0.74063 2.35188,1.04582 0.104,0.0396 0.42881,0.0892 0.31817,0.10101 -0.9613,0.10256 -0.81377,0.12599 -1.3236,-0.22471 -0.22053,-0.15172 -0.43406,-0.31413 -0.66157,-0.45516 -2.54038,-1.57468 -5.4222,-2.64676 -8.20881,-3.69214 -1.3947,-0.52492 -2.82296,-0.95702 -4.21586,-1.48683 -0.21597,-0.0821 -0.42958,-0.17078 -0.64044,-0.26529 -0.0827,-0.0371 -0.32729,-0.10773 -0.23922,-0.12902 0.39374,-0.0952 0.8071,-0.0705 1.21065,-0.10581 0.15072,0.0755 0.30485,0.14447 0.45216,0.2264 0.90552,0.50357 1.77551,1.0732 2.66101,1.61003 1.0356,0.62782 1.3595,0.80432 2.4239,1.41399 2.04274,1.13299 4.15924,2.1296 6.33598,2.97615 -0.71853,0.10129 1.07408,0.21128 0.79981,0.19753 -0.3331,-0.0167 -0.67581,0.0213 -0.99857,-0.0627 -0.10244,-0.0267 -0.12226,-0.17423 -0.19766,-0.24852 -0.16204,-0.15966 -0.32916,-0.31593 -0.51224,-0.45095 -0.283,-0.20871 -0.58841,-0.38517 -0.88262,-0.57775 -2.62901,-1.46155 -5.48549,-2.43745 -8.30983,-3.44234 -0.0147,-0.006 -0.95064,-0.34015 -1.10542,-0.48421 -0.0334,-0.0311 -0.0352,-0.13423 0.0104,-0.13651 0.472,-0.0237 0.95099,-0.0177 1.4163,0.065 0.21814,0.0388 0.40067,0.18955 0.59673,0.29271 0.27896,0.14678 0.55197,0.30461 0.82796,0.45691 2.08822,1.28709 4.1784,2.57072 6.2754,3.84361 0.66507,0.36391 1.30556,0.78728 1.9914,1.11378 0.12897,0.0614 0.25995,0.12342 0.39888,0.1566 0.0824,0.0197 0.33789,0.0121 0.25414,-6.6e-4 -0.32843,-0.0499 -0.66024,-0.0741 -0.99036,-0.11111 -0.0503,-0.11694 -0.0862,-0.24116 -0.15083,-0.35081 -0.31143,-0.52835 -0.65704,-0.91803 -1.11169,-1.34592 -0.73286,-0.68971 -1.55896,-1.3144 -2.39418,-1.87113 -0.48433,-0.32283 -0.99054,-0.61158 -1.48581,-0.91737 -1.36913,-0.7795 -2.79414,-1.44973 -4.23535,-2.08258 -0.76831,-0.33737 -1.52948,-0.66191 -2.32765,-0.91958 -0.094,-0.003 -0.37573,-0.0156 -0.28196,-0.009 0.34703,0.0257 0.7035,-0.016 1.04192,0.065 0.10755,0.0258 0.15038,0.16233 0.22966,0.23943 0.15017,0.14602 0.30019,0.29253 0.45847,0.42971 0.59651,0.51697 0.93542,0.74991 1.58937,1.23926 2.27673,1.5881 4.67766,2.98475 7.05576,4.41254 0.31307,0.18775 1.32502,0.79609 1.68233,1.00525 0.29661,0.17362 0.74008,0.44194 1.07793,0.57403 0.0975,0.0381 0.40901,0.0745 0.30433,0.0782 -0.3193,0.0111 -0.63791,-0.037 -0.95687,-0.0555 -0.60766,-0.78731 -1.50751,-1.36443 -2.34436,-1.87479 -1.17251,-0.71507 -1.6818,-0.93389 -2.92992,-1.55553 -2.06143,-0.92101 -4.13729,-1.85237 -6.29922,-2.51819 0.32852,0.0117 0.66044,-0.0135 0.98556,0.0351 0.0813,0.0121 0.13887,0.0891 0.20157,0.14231 0.15178,0.12888 0.29187,0.27097 0.4408,0.40314 0.75007,0.66568 1.52107,1.30566 2.29633,1.94155 1.75366,1.40994 3.47665,2.85943 5.26502,4.22558 0.70237,0.51749 1.26097,0.87591 2.12705,0.99056 -0.17536,0.009 0.55791,0.0219 0.41839,0.0174 -0.29201,-0.009 -0.58808,0.0237 -0.87613,-0.0252 -0.0659,-0.0112 0.12413,-0.0531 0.17758,-0.0933 0.13395,-0.1007 0.2086,-0.23078 0.30346,-0.36515 0.31668,-0.54443 0.56662,-1.1237 0.86196,-1.67987 0.23683,-0.44195 0.58032,-0.8003 0.95791,-1.12281 0.30146,-0.24351 0.61147,-0.47348 0.90323,-0.72881 0.27773,-0.27513 0.16966,-0.19586 1.03604,0.10979 0.0619,0.0219 -0.0955,0.0901 -0.14309,0.13539 -0.0731,0.0695 -0.14593,0.13922 -0.21887,0.20886 -0.30159,0.28793 -0.25357,0.24216 -0.57872,0.55328 -0.94821,0.81511 -1.90165,1.62048 -2.80678,2.48393 -0.48554,0.47863 -0.97497,0.95409 -1.44349,1.44961 -0.0463,0.049 -0.0693,0.15808 -0.13619,0.1495 -0.31418,-0.0403 -0.60471,-0.18887 -0.90706,-0.2833 1.6334,-1.78294 3.24566,-3.58501 4.85058,-5.39377 0.38725,-0.43866 0.77262,-0.87898 1.16174,-1.31597 1.21456,-1.36397 2.43635,-2.81023 3.82985,-3.99746 0.0646,-0.039 0.11833,-0.11527 0.19378,-0.11715 0.36979,-0.009 0.75374,-0.0265 1.10647,0.0849 0.0802,0.0253 -0.0447,0.16351 -0.0834,0.23824 -0.24298,0.46965 -0.64999,0.87237 -0.99407,1.26321 -1.17416,1.29252 -2.3365,2.59596 -3.5231,3.87706 -0.38927,0.39636 -0.71641,0.85075 -1.10231,1.24999 -0.0639,0.0661 -0.13458,0.12534 -0.2046,0.18489 -0.0232,0.0198 -0.0446,0.0572 -0.0748,0.0527 -0.33555,-0.0492 -0.66372,-0.13971 -0.99558,-0.20956 0.96986,-1.1525 2.02141,-2.23314 3.0733,-3.31032 0.46731,-0.46273 0.94685,-0.91303 1.43528,-1.35336 0.078,-0.0703 0.15783,-0.13844 0.23585,-0.20865 0.0305,-0.0274 0.0487,-0.0867 0.0896,-0.0843 0.34306,0.0203 0.68002,0.0999 1.02002,0.14985 -0.74751,0.73961 -1.59997,1.36263 -2.39681,2.04633 -0.25563,0.21933 -0.50351,0.44755 -0.75526,0.67133 -1.42954,1.32444 -2.68428,2.81669 -3.85851,4.36735 -0.34137,0.49008 -0.69131,0.97423 -1.04317,1.45681 -0.0694,0.0952 -0.13777,0.1911 -0.21065,0.28359 -0.0298,0.0379 -0.0491,0.10999 -0.0972,0.10704 -0.35211,-0.0216 -0.6956,-0.118 -1.04341,-0.177 0.0729,-0.13087 0.13872,-0.26595 0.21872,-0.39261 0.36107,-0.57163 0.78242,-1.13297 1.19408,-1.66434 1.03921,-1.34139 2.15331,-2.60711 3.28775,-3.86781 1.53813,-1.64443 3.17678,-3.19958 4.93637,-4.6061 0.79612,-0.63638 1.04405,-0.79687 1.83387,-1.3567 0.22004,-0.14782 0.43808,-0.29866 0.66011,-0.44347 0.005,-0.003 0.79927,-0.52086 0.88881,-0.50981 1.12983,0.13948 1.20166,-0.0426 0.86621,0.36249 -0.57436,0.51293 -1.14795,1.0268 -1.7097,1.55356 -0.66199,0.63329 -1.41514,1.15656 -2.13974,1.71308 -1.19179,0.91536 -0.0888,0.0909 -1.26645,0.96256 -0.73466,0.52084 -1.45332,1.0647 -2.12599,1.6639 -0.36284,0.31491 -0.66627,0.68446 -0.94665,1.07241 -0.40152,0.55273 -0.84145,1.08108 -1.35915,1.52851 0,0 -1.04689,-0.0917 -1.04689,-0.0917 l 0,0 c 0.52636,-0.42607 0.96112,-0.95062 1.35118,-1.50213 0.27926,-0.39794 0.5815,-0.77633 0.95033,-1.09631 0.68922,-0.60438 1.4305,-1.14426 2.18214,-1.66809 1.1561,-0.84566 2.30567,-1.71177 3.37465,-2.6657 0.54798,-0.5259 1.10684,-1.04138 1.67578,-1.54452 0.36142,-0.41924 0.10821,-0.19761 1.25402,-0.15939 0.0546,0.002 -0.10612,0.0275 -0.15639,0.0489 -0.10654,0.0453 -0.21105,0.0956 -0.31297,0.15045 -0.4619,0.24868 -0.70552,0.42029 -1.17133,0.71893 -0.82085,0.55785 -1.05873,0.70213 -1.88345,1.34446 -1.78178,1.38774 -3.43078,2.94135 -4.97326,4.58919 -1.11774,1.25539 -2.21644,2.5115 -3.21786,3.86327 -0.43492,0.58708 -0.75314,1.04111 -1.10883,1.65524 -0.068,0.1175 -0.12291,0.24216 -0.18437,0.36325 -0.36424,0.0219 -0.72789,0.0732 -1.0927,0.0657 -0.0489,-0.001 0.0853,-0.0503 0.11876,-0.0859 0.0819,-0.0873 0.15138,-0.18556 0.22459,-0.28029 0.36937,-0.47798 0.72953,-0.96368 1.07895,-1.45639 1.19428,-1.54618 2.45604,-3.04304 3.88134,-4.38408 0.24872,-0.22522 0.49366,-0.45467 0.74614,-0.67566 0.76923,-0.67328 1.59158,-1.29068 2.3036,-2.02712 0.37323,0.004 0.74801,-0.0234 1.11969,0.0108 0.0457,0.004 -0.0743,0.0538 -0.11041,0.082 -0.0861,0.0672 -0.17247,0.13401 -0.25624,0.20404 -0.51069,0.42693 -0.99649,0.88291 -1.47727,1.34285 -1.0393,1.05673 -2.07867,2.11976 -2.98858,3.29244 -0.38001,0.009 -0.7599,0.0252 -1.14001,0.0275 -0.0315,1.8e-4 0.0651,-0.005 0.092,-0.0214 0.079,-0.0483 0.15266,-0.10601 0.22018,-0.16937 0.41104,-0.38568 0.73753,-0.85642 1.14215,-1.2483 1.19777,-1.26606 2.35862,-2.56676 3.5109,-3.87422 0.34258,-0.39968 0.47119,-0.52618 0.75575,-0.93669 0.0662,-0.0955 0.12387,-0.19676 0.18345,-0.29656 0.0252,-0.0422 0.0222,-0.1221 0.0709,-0.12942 0.33677,-0.0507 0.68141,-0.0595 1.02108,-0.035 0.0796,0.006 -0.14711,0.0618 -0.22067,0.0927 -0.66425,0.50196 -1.25591,1.06824 -1.83736,1.66541 -1.13754,1.16829 -2.21118,2.39708 -3.28819,3.62056 -1.57205,1.78991 -3.14421,3.58045 -4.68809,5.39462 -0.40209,0.0453 -0.80166,0.14075 -1.20625,0.13577 -0.0716,-8.9e-4 0.10382,-0.0987 0.15506,-0.14871 0.34654,-0.33839 0.6873,-0.68265 1.03317,-1.02172 0.1462,-0.14332 0.29334,-0.28567 0.44001,-0.4285 0.90068,-0.85964 1.84585,-1.66632 2.78338,-2.4849 0.257,-0.25348 0.52062,-0.50197 0.77133,-0.76175 0.0462,-0.0479 0.0684,-0.14076 0.13463,-0.14735 0.38382,-0.0382 0.77223,-0.008 1.15699,0.0188 0.028,0.002 -0.0405,0.0391 -0.0607,0.0586 -0.30094,0.2452 -0.59744,0.49515 -0.90826,0.72853 -0.37569,0.31169 -0.73218,0.64832 -0.96917,1.0822 -0.3039,0.55459 -0.54648,1.13894 -0.85511,1.6908 -0.0759,0.11685 -0.32194,0.52297 -0.48075,0.54274 -0.54242,0.0675 -1.09947,0.0671 -1.64375,0.0102 -0.83318,-0.14498 -1.40963,-0.53249 -2.07471,-1.04943 -1.75443,-1.39403 -3.46472,-2.84304 -5.22391,-4.23134 -0.79239,-0.63896 -1.58104,-1.2821 -2.35732,-1.94064 -0.15942,-0.13525 -0.32946,-0.25965 -0.47409,-0.41061 -0.0901,-0.0941 -0.34481,-0.26771 -0.22522,-0.31932 0.34276,-0.14795 0.74536,-0.044 1.11804,-0.066 2.08985,0.75374 4.14193,1.61206 6.15615,2.54873 1.25571,0.62203 1.7872,0.85386 2.97541,1.56159 0.59837,0.3564 1.88726,1.15273 2.34386,1.75052 0.0695,0.091 0.0882,0.21132 0.13234,0.31697 -0.38414,0.03 -0.76712,0.0922 -1.15242,0.09 -0.14767,-8.8e-4 -0.6872,-0.3061 -0.72983,-0.33017 -0.76012,-0.42935 -1.48328,-0.92229 -2.23584,-1.36419 -2.37261,-1.44688 -4.77359,-2.85172 -7.06945,-4.42009 -0.7217,-0.52754 -1.50298,-1.04055 -2.13184,-1.68434 -0.0967,-0.099 -0.37354,-0.24912 -0.25795,-0.32513 0.49319,-0.32428 0.86801,-0.23976 1.32664,-0.17186 0.76413,0.2756 1.49977,0.60347 2.23952,0.93961 1.42399,0.64706 2.83523,1.32306 4.19486,2.09876 1.26708,0.78065 1.68484,0.99265 2.85421,1.88739 0.83471,0.63867 1.74051,1.37372 2.28663,2.29651 0.0791,0.13357 0.11822,0.28702 0.17733,0.43053 -0.37316,0.0769 -0.74235,0.1766 -1.11949,0.23073 -0.18186,0.0261 -0.50292,-0.14471 -0.62138,-0.20531 -0.66452,-0.33997 -1.29167,-0.75367 -1.93875,-1.12387 -2.09032,-1.28814 -4.17427,-2.58805 -6.2883,-3.83673 -0.286,-0.1492 -0.56778,-0.30678 -0.858,-0.44761 -0.20518,-0.0996 -0.66414,-0.0481 -0.62731,-0.27314 0.0975,-0.59566 0.86313,-0.0355 0.96683,0.013 0.2289,0.107 0.46652,0.19422 0.69979,0.29133 2.81581,1.04402 5.67189,2.0271 8.31929,3.46307 0.51539,0.3279 1.05403,0.60845 1.47475,1.06184 0.0967,0.10418 0.34753,0.28974 0.22518,0.36206 -0.63748,0.37679 -1.27762,0.15966 -1.86918,-0.0657 -2.14269,-0.87614 -4.23295,-1.87848 -6.25921,-2.99835 -1.17869,-0.67113 -1.29813,-0.7313 -2.44525,-1.41459 -0.89804,-0.53492 -1.79868,-1.1298 -2.73987,-1.5887 -0.15712,-0.0766 -0.32484,-0.12925 -0.48726,-0.19388 0.29927,-0.0516 0.59425,-0.1457 0.8978,-0.15493 0.0758,-0.002 0.12408,0.0882 0.19203,0.12177 0.19389,0.0959 0.39144,0.18469 0.59195,0.26581 1.35405,0.54783 2.75391,0.9747 4.11653,1.49954 2.81131,1.0623 5.74908,2.16273 8.34192,3.699 0.24253,0.1437 0.47203,0.30834 0.70804,0.46251 0.1101,0.10928 0.46399,0.24916 0.3303,0.32783 -0.69367,0.40815 -1.32216,0.0341 -1.91748,-0.23827 -0.55956,-0.25598 -1.17893,-0.55388 -1.72892,-0.81565 -2.84575,-1.3562 -5.66116,-2.78013 -8.3265,-4.47082 -0.77904,-0.50847 -1.28197,-0.81633 -2.0078,-1.35932 -0.20157,-0.15079 -0.40386,-0.30232 -0.58752,-0.47448 -0.10944,-0.1026 -0.40816,-0.25651 -0.28777,-0.34602 0.45843,-0.34089 0.86866,-0.25055 1.31964,-0.18553 0.81335,0.29816 1.61048,0.63128 2.41323,0.9569 1.5347,0.62253 3.07656,1.22757 4.60189,1.87308 1.74943,0.76843 3.51502,1.5078 5.17071,2.46948 0.75012,0.43569 1.57922,0.97687 2.23565,1.56295 0.20146,0.17987 0.3684,0.39502 0.5526,0.59253 0.0699,0.14515 0.34315,0.34543 0.20956,0.43543 -0.32874,0.2215 -0.7761,0.16894 -1.17017,0.21181 -0.29408,0.032 -0.86894,-0.16408 -1.08308,-0.23014 -0.47513,-0.14656 -1.61346,-0.53728 -2.03419,-0.6801 -2.90789,-1.01291 -5.77213,-2.14075 -8.56673,-3.43677 -0.35995,-0.15821 -0.71779,-0.32131 -1.07984,-0.47464 -0.26888,-0.11387 -0.66898,-0.0727 -0.81272,-0.32686 -0.0929,-0.16429 0.39456,-0.0312 0.54856,-0.14027 0.0583,-0.0413 -0.10508,-0.10719 -0.17434,-0.12489 -0.20717,-0.053 1.50151,1.03562 0.55696,0.3183 2.27659,0.93462 4.55584,1.93683 6.49241,3.48675 0.42104,0.37075 0.93687,0.7534 1.2523,1.24129 0.0694,0.10735 0.24842,0.3109 0.13063,0.36057 -0.75209,0.31713 -1.3195,0.0652 -1.94776,-0.23545 -2.14705,-1.07392 -4.28391,-2.16727 -6.41336,-3.27576 -0.95625,-0.4832 -1.74264,-0.88495 -2.70331,-1.35341 -0.68358,-0.33335 -1.39589,-0.68423 -2.10971,-0.95584 -0.23695,-0.0902 -0.64484,0.006 -0.72338,-0.23492 -0.0645,-0.19793 0.41222,-0.0583 0.61833,-0.0875 -0.17553,0.0309 -0.23949,0.005 0.0514,0.22518 0.35201,0.26659 0.98914,0.56617 1.34912,0.73078 0.88,0.40241 1.78792,0.75586 2.68404,1.11829 1.9304,0.74651 1.77395,0.70299 3.8092,1.41596 1.95296,0.68414 3.92713,1.31063 5.87228,2.01699 0.45665,0.16582 0.90718,0.348 1.36077,0.522 0.30015,0.14017 0.60822,0.26449 0.90044,0.42051 0.17092,0.0913 0.60444,0.16649 0.48558,0.3195 -0.57941,0.74591 -1.84833,-0.096 -2.36805,-0.34132 -2.45347,-1.23963 -4.91452,-2.46936 -7.28435,-3.86512 -1.03919,-0.6274 -1.52317,-0.90002 -2.52061,-1.57831 -1.16175,-0.79001 -2.27428,-1.6527 -3.36464,-2.53757 -0.0742,-0.10968 -0.34655,-0.2824 -0.22261,-0.32903 0.88648,-0.33356 1.49948,0.20114 2.19153,0.59146 1.94492,1.09696 0.18766,0.0924 2.44314,1.39035 0.5329,0.32446 1.07211,0.63878 1.59872,0.97336 2.26444,1.43875 4.47315,3.0315 6.38944,4.91858 0.31542,0.31061 0.59975,0.65129 0.89962,0.97694 0.16893,0.21997 0.36292,0.42278 0.50678,0.6599 0.0764,0.1259 0.28165,0.3585 0.14642,0.4168 -1.06206,0.45788 -1.61438,-0.33989 -2.29141,-0.90921 -1.08163,-0.97888 -2.19055,-1.93168 -3.36903,-2.79298 -0.14617,-0.0991 -0.28948,-0.20255 -0.4385,-0.29731 -0.0947,-0.0602 -0.39312,-0.11841 -0.29211,-0.16727 0.90107,-0.43584 0.80626,-0.20257 1.30068,0.1418 0.15681,0.10922 0.31855,0.2112 0.47783,0.3168 0.74798,0.47342 1.48999,0.95492 2.19302,1.49436 0.4717,0.36193 0.92665,0.73076 1.32416,1.17513 0.14504,0.16214 0.26311,0.34652 0.39467,0.51978 0.0717,0.15022 0.16716,0.29126 0.21503,0.45068 0.0338,0.11248 0.13371,0.30492 0.0259,0.35139 -1.17085,0.50444 -1.66572,-0.0148 -2.49847,-0.65379 -1.61479,-1.21978 -3.14791,-2.53814 -4.67439,-3.86597 -0.34802,-0.28541 -0.8101,-0.67474 -1.18306,-0.94477 -0.12652,-0.0916 -0.50975,-0.15497 -0.39168,-0.25723 0.21428,-0.18557 0.56262,-0.0738 0.84021,-0.13121 0.021,-0.004 -0.0377,-0.0205 -0.0566,-0.0308 0.0465,0.0636 0.093,0.12723 0.13951,0.19085 0.51756,0.49108 1.08326,0.90548 1.66645,1.31727 1.07893,0.76181 2.1872,1.4811 3.29132,2.20543 1.13447,0.75208 2.27217,1.49503 3.27724,2.4204 0.46006,0.42359 0.90926,0.89458 1.23688,1.43339 0.10634,0.1749 0.16962,0.3726 0.25443,0.55889 0.0221,0.14444 0.19171,0.35858 0.0662,0.43331 -0.22563,0.1343 -1.04944,0.37758 -1.45644,0.14534 -0.29312,-0.16726 -0.75879,-0.61763 -0.97283,-0.81424 -0.24098,-0.22135 -0.47962,-0.44524 -0.71944,-0.66787 -1.85816,-1.72013 -3.69338,-3.467 -5.6484,-5.07852 -0.55255,-0.44715 -0.6649,-0.55255 -1.19829,-0.93765 -0.10767,-0.0777 -0.44089,-0.1528 -0.32911,-0.22449 0.80145,-0.51394 0.84844,-0.23459 1.24254,0.14018 1.704,1.33936 3.58951,2.42459 5.33235,3.71139 0.86986,0.66521 1.74464,1.30952 2.4437,2.16314 0.12996,0.15871 0.25598,0.32358 0.35156,0.50509 0.0596,0.1132 0.22552,0.31688 0.10832,0.36822 -0.35464,0.15536 -0.77194,0.061 -1.15792,0.0916 -0.0925,-0.0549 -0.19204,-0.0992 -0.27741,-0.16461 -0.32387,-0.24805 -0.82162,-0.75187 -1.08396,-1.00731 -0.94149,-0.91671 -1.88959,-1.82632 -2.84762,-2.72581 -1.04227,-0.93816 -1.20255,-1.09059 -2.25573,-2.00636 -0.82613,-0.71834 -1.69134,-1.40264 -2.49379,-2.14793 -0.12178,-0.11311 -0.23179,-0.23827 -0.34768,-0.35741 0.33922,-0.0682 0.67309,-0.17325 1.01767,-0.20473 0.0825,-0.008 0.15761,0.0529 0.2313,0.0907 0.17925,0.0919 0.35047,0.19863 0.52597,0.29747 1.03885,0.58513 2.07839,1.16925 3.13023,1.73084 0.66438,0.34674 2.05666,1.07428 2.72222,1.41804 1.10205,0.5692 2.22182,1.11421 3.29512,1.73749 0.19336,0.11228 0.37905,0.23725 0.56858,0.35587 0.0765,0.10725 0.35431,0.27972 0.22946,0.32174 -0.88332,0.29728 -1.35327,-0.16795 -1.99909,-0.57834 -1.06281,-0.67536 -0.56204,-0.36562 -1.75794,-1.07284 -2.69197,-1.47563 -5.43695,-2.84872 -8.18621,-4.21398 -0.85328,-0.43901 -1.4102,-0.70577 -2.21842,-1.19223 -0.43755,-0.26336 -1.35005,-0.77861 -1.56252,-1.31106 -0.0392,-0.0982 -0.005,-0.21129 -0.008,-0.31693 0.62795,-0.39178 0.25798,-0.21797 1.69517,-0.16704 0.46454,0.0165 1.18288,0.21037 1.59513,0.32254 0.70088,0.19072 2.0226,0.59965 2.6728,0.79758 3.39415,1.08361 6.75917,2.26595 10.01796,3.71313 0.31596,0.14073 0.63209,0.2811 0.94789,0.4222 0.20782,0.0928 0.69463,0.0636 0.62297,0.27965 -0.22032,0.66423 -0.96025,0.15611 -1.22633,0.0222 -0.24945,-0.12554 -0.4989,-0.25105 -0.74835,-0.37657 -3.30353,-1.54881 -6.6753,-2.94943 -10.14752,-4.07909 -1.65634,-0.53181 -2.32042,-0.76339 -3.96332,-1.22269 -1.38391,-0.38689 -2.78745,-0.69875 -4.17721,-1.06302 -0.11381,-0.0306 -0.2421,-0.0283 -0.34142,-0.0917 -0.0609,-0.0389 -0.17286,-0.17818 -0.10182,-0.19135 0.7759,-0.14376 1.81112,0.10962 2.60569,0.13952 3.21868,0.35509 6.42823,0.81087 9.59882,1.47645 0.80018,0.17128 1.60201,0.335 2.40054,0.51383 3.98865,0.89327 7.94177,1.93962 11.90941,2.91975 2.25686,0.58466 4.52091,1.18574 6.82807,1.53724 -0.23965,0.0112 -0.48234,-0.006 -0.71894,0.0335 -0.0513,0.009 0.0928,0.0777 0.14274,0.0631 0.0359,-0.0105 -0.0438,-0.0635 -0.0759,-0.0827 -0.10612,-0.0633 -0.21973,-0.11366 -0.33361,-0.16162 -0.34809,-0.14658 -1.3336,-0.50419 -1.59841,-0.60191 -4.04662,-1.48956 -8.01253,-3.19025 -12.09299,-4.58835 -0.90126,-0.285 -1.79749,-0.58647 -2.70379,-0.85501 -4.23484,-1.25481 -8.56913,-2.15499 -12.92246,-2.8836 -2.15642,-0.34526 -1.16313,-0.1907 -2.99758,-0.47027 -0.60669,-0.0924 -1.25282,-0.15271 -1.84114,-0.34578 -0.0747,-0.0245 -0.14363,-0.064 -0.21544,-0.096 -0.0368,-0.0413 -0.0876,-0.0734 -0.11032,-0.12386 -0.21776,-0.48384 2.38132,-0.28297 1.55774,-0.28331 0.5152,0.002 1.03034,0.0115 1.5452,0.0309 1.62132,0.0641 3.24118,0.15894 4.86175,0.23908 3.01337,0.2071 6.01622,0.55559 8.96649,1.2233 3.04588,0.6595 6.0827,1.36801 9.15296,1.90792 1.56624,0.23314 3.13627,0.47181 4.72539,0.39761 0,0 -1.05562,0.16719 -1.05562,0.16719 z"
     inkscape:connector-curvature="0" />
  <path
     style="fill:#ffff00;fill-opacity:1;stroke:#ffff00"
     id="path3100"
     d="m 242.89767,357.91452 c -0.89157,-0.001 -1.78285,-9.4e-4 -2.67418,-0.0229 -2.01246,-0.14261 -3.99082,-0.56885 -5.94747,-1.0423 -1.49557,-0.39575 -2.99172,-0.78218 -4.52552,-0.99515 -0.27574,-0.0292 -0.65212,-0.0739 -0.93385,-0.0858 -0.12346,-0.005 -0.49428,-0.004 -0.37073,-0.001 0.26556,0.006 0.53137,9e-5 0.7968,0.0101 0.0116,4.4e-4 -0.29075,0.0614 0.0402,-0.006 2.39507,1.07734 4.79619,2.14135 7.18487,3.23317 3.04388,1.41099 6.05601,2.88924 9.0458,4.41106 -1.08719,-0.0113 1.1735,0.34917 0.86107,0.39645 -0.37298,0.0564 -0.75969,0.0817 -1.13155,0.0183 -0.15011,-0.0256 -0.24121,-0.18613 -0.36573,-0.2738 -0.57168,-0.40254 -0.96638,-0.64527 -1.57623,-1.03731 -2.23126,-1.44954 -4.619,-2.62301 -7.06993,-3.64711 -0.29006,-0.11582 -0.57974,-0.23261 -0.87019,-0.34745 -1.00255,-0.39638 -0.40868,-0.16303 -1.31419,-0.49576 -0.33989,-0.12489 -0.68652,-0.23967 -1.01097,-0.40091 -0.016,-0.0315 -0.0584,-0.0607 -0.048,-0.0944 0.19313,-0.62341 2.85984,0.43315 3.2627,0.58026 1.82326,0.67315 3.65142,1.33415 5.50106,1.93161 0.17143,0.0472 0.34067,0.10329 0.51429,0.14163 0.11808,0.0261 0.4799,0.0455 0.35912,0.0513 -0.28708,0.0137 -0.57601,0.003 -0.86177,-0.0273 -0.0219,-0.002 0.0265,-0.0419 0.02,-0.0629 -0.0199,-0.064 -0.0532,-0.12491 -0.0949,-0.17747 -0.067,-0.0845 -0.15195,-0.15302 -0.22792,-0.22953 -0.79301,-0.65919 -1.80797,-0.94906 -2.78849,-1.20523 -0.12602,-0.0167 -0.25122,-0.0417 -0.37807,-0.05 -0.0868,-0.006 -0.3477,0.002 -0.2609,0.008 0.30599,0.0218 0.61412,0.009 0.91949,0.0387 0.019,0.002 -0.0305,0.0273 -0.0341,0.0461 -0.0115,0.059 0.0342,0.10563 0.0622,0.14842 0.14034,0.41158 0.0716,0.14564 -1.1034,0.1433 -0.0588,-1.2e-4 -0.10206,-0.0586 -0.15463,-0.085 -0.0888,-0.0446 -0.17876,-0.0868 -0.26929,-0.12769 -0.36171,-0.16339 -0.50891,-0.21866 -0.8948,-0.37599 -1.23233,-0.45522 -2.4988,-0.80652 -3.77962,-1.09446 0.43693,-0.0278 -0.96073,-0.0688 -0.71994,-0.0622 0.98953,0.0268 0.67468,-0.0713 1.30258,0.22843 1.50714,0.5915 3.06873,1.03177 4.62376,1.47716 0.97427,0.2751 1.95349,0.54535 2.96181,0.65713 0.2647,0.0184 0.2759,0.0219 0.53188,0.0295 0.0742,0.002 0.29699,0.006 0.22275,0.004 -0.30161,-0.007 -0.60322,-0.0146 -0.90483,-0.0219 0.0124,-0.008 0.0452,-0.0107 0.0373,-0.0229 -0.0146,-0.0226 -0.0491,-0.0223 -0.0737,-0.0334 -0.82293,-0.46442 -1.75362,-0.67533 -2.64925,-0.95192 -0.97335,-0.29852 -1.94047,-0.62776 -2.93196,-0.86325 -0.62892,-0.14937 -0.87902,-0.18238 -1.50839,-0.29043 -0.55724,-0.0909 -1.11933,-0.1436 -1.68095,-0.19767 -0.0897,-0.009 -0.35918,-0.0239 -0.26909,-0.0263 1.1096,-0.0292 0.70988,0.20131 1.14805,-0.0989 1.84706,0.4889 3.66034,1.10266 5.48113,1.68128 0.93685,0.30592 1.8765,0.60287 2.81815,0.89359 0.39168,0.12092 0.75642,0.24902 1.16527,0.27772 -0.0789,-2.45942 -0.7402,0.11343 -1.07961,-0.006 -0.0673,-0.0238 -0.12566,-0.0682 -0.19081,-0.0975 -0.1036,-0.0466 -0.20881,-0.0897 -0.31503,-0.12994 -0.48152,-0.18259 -0.50863,-0.17709 -1.04482,-0.33123 -1.77355,-0.4105 -3.578,-0.66299 -5.3596,-1.03646 -1.11828,-0.28347 -2.25187,-0.5891 -3.29097,-1.10097 -0.0585,-0.0627 -1.00055,-0.35434 -0.65107,-0.54711 0.0603,-0.0333 0.13701,-0.0145 0.20551,-0.0218 0.45849,0.008 0.91774,-0.003 1.37547,0.0244 0.19661,0.0119 1.17279,0.24419 1.23536,0.25852 1.07694,0.24664 2.14296,0.51949 3.2089,0.80999 1.67761,0.44467 3.31929,1.00714 4.96503,1.55429 0.11292,0.0306 0.22362,0.0711 0.33877,0.0917 0.0777,0.0139 0.31557,0.0134 0.23663,0.0113 -0.29382,-0.008 -0.58914,0.003 -0.88133,-0.0288 -0.0423,-0.005 0.0815,-0.0288 0.11513,-0.0549 0.0801,-0.0622 0.0924,-0.13261 0.12745,-0.22238 0.0635,-0.29799 0.0939,-0.62491 -0.0532,-0.90615 -0.0375,-0.0717 -0.0933,-0.13206 -0.14003,-0.19809 -0.65662,-0.66482 -1.59885,-0.82483 -2.48039,-0.98947 -0.21495,-0.0295 -0.42931,-0.0635 -0.64484,-0.0884 -0.63486,-0.0733 -1.27999,-0.12144 -1.91901,-0.13816 -0.17405,-0.005 -0.67135,-0.09 -0.52233,2e-5 0.16111,0.0973 0.37608,0.0168 0.56411,0.0252 -0.45398,0.0134 -0.90295,0.13936 -1.35713,0.14581 -0.47222,0.007 -0.94487,0.0118 -1.4168,-0.006 -0.15997,-0.006 -0.31712,-0.0442 -0.47568,-0.0663 -0.19324,-0.0442 -0.38772,-0.0833 -0.57972,-0.1326 -0.50512,-0.12972 -1.00347,-0.28462 -1.50736,-0.41903 -0.82787,-0.22083 -1.65885,-0.40938 -2.49811,-0.58072 -0.63378,-0.11459 -0.62892,-0.12507 -1.2222,-0.19385 -0.13198,-0.0153 -0.52951,-0.0313 -0.3968,-0.0378 0.27332,0.006 0.54665,0.0114 0.81998,0.0171 -0.0162,0.01 -0.0568,0.0123 -0.0486,0.0293 0.0151,0.0309 0.059,0.0352 0.0885,0.0528 1.3293,0.79247 2.73538,1.45261 4.13226,2.11598 2.35893,1.15198 4.78145,2.16213 7.18446,3.21609 0.80317,0.3598 1.59933,0.73693 2.40885,1.08256 0.2579,0.11011 0.61954,0.26991 0.91043,0.32073 0.0895,0.0156 0.18169,0.004 0.27254,0.007 -0.29027,-0.0166 -0.58523,0.005 -0.8708,-0.05 -0.0444,-0.008 0.0787,-0.0559 0.0928,-0.0988 0.0184,-0.056 0.0104,-0.1193 -0.002,-0.1769 -0.0823,-0.37571 -0.33792,-0.69869 -0.54906,-1.00691 -0.63468,-0.84654 -1.4959,-1.46407 -2.41147,-1.97279 -0.29757,-0.20983 -0.65232,-0.22835 -0.98667,-0.32521 -0.17129,-0.0496 -0.23395,-0.10068 -0.39371,-0.1932 -0.80536,-0.59682 -1.69798,-1.0482 -2.65196,-1.3558 -0.28642,-0.0924 -0.57932,-0.16322 -0.86898,-0.24484 -1.32579,-0.32295 -2.68262,-0.49288 -4.0428,-0.57763 -0.88979,-0.024 0.29518,-0.0148 0.4421,-0.003 0.0825,0.006 -0.16469,0.0178 -0.24647,0.0306 -0.14859,0.0233 -0.3147,0.0469 -0.44889,0.11913 0.0174,-0.004 0.0345,-0.0153 0.0522,-0.0124 0.20949,0.0348 0.41082,0.10925 0.61948,0.14869 0.21757,0.0411 0.43616,0.077 0.65531,0.10862 0.79004,0.11387 1.29618,0.15848 2.11471,0.24523 2.94046,0.31641 5.86521,0.75108 8.76885,1.31055 1.19049,0.2433 2.37216,0.51958 3.5333,0.87708 -0.0862,0.16829 0.21709,-0.003 0.22825,0.0763 0.007,0.0517 0.009,0.14565 -0.0429,0.15056 -0.70625,0.0669 -1.24888,-0.0497 -1.90799,-0.14101 -1.87447,-0.24316 -3.76946,-0.26777 -5.6567,-0.30921 0,0 0.94509,-0.14753 0.94509,-0.14753 l 0,0 c 1.91485,0.0431 3.83676,0.0694 5.73949,0.30839 0.14192,0.0196 0.28407,0.0376 0.42577,0.0588 0.0988,0.0147 0.39486,0.0381 0.29558,0.0488 -0.30124,0.0325 -0.6111,-0.039 -0.90879,0.0173 -0.31265,0.0592 0.37889,0.26728 -0.16617,0.0709 -1.12156,-0.36345 -2.26806,-0.63546 -3.42111,-0.88051 -2.90328,-0.57054 -5.83077,-1.00051 -8.77466,-1.30121 -0.80764,-0.0822 -1.38689,-0.13201 -2.17331,-0.24268 -0.23726,-0.0334 -1.12374,-0.1176 -1.34737,-0.3316 -0.0386,-0.037 -0.033,-0.10169 -0.0495,-0.15253 0.12826,-0.12566 0.29884,-0.13885 0.47285,-0.17191 0.61862,-0.11755 1.25377,-0.066 1.87953,-0.0329 1.34347,0.0992 2.68274,0.28013 3.99142,0.60626 0.29221,0.0838 0.58765,0.15711 0.87663,0.25146 0.9733,0.31779 1.87449,0.78687 2.71895,1.36229 0.4491,0.2205 0.93475,0.24288 1.36117,0.5233 0.91181,0.5326 1.76854,1.16791 2.4089,2.01972 0.21287,0.30735 0.68455,0.89634 0.58604,1.31461 -0.0145,0.0617 -0.0393,0.14953 -0.10168,0.16068 -0.40398,0.0722 -0.81916,0.0514 -1.22874,0.0771 -0.42823,-0.0518 -0.74104,-0.19285 -1.13839,-0.36983 -0.79162,-0.35259 -1.57287,-0.72847 -2.36166,-1.08723 -2.39705,-1.06276 -4.81241,-2.08434 -7.17697,-3.21934 -1.68548,-0.78758 -0.54012,-0.24369 -2.08252,-0.99574 -0.63837,-0.31127 -1.29871,-0.60448 -1.90749,-0.97352 -0.092,-0.0558 -0.17574,-0.1241 -0.26361,-0.18615 -0.0316,-0.0653 -0.0894,-0.12348 -0.0947,-0.19579 -0.003,-0.0447 0.0272,-0.10947 0.0718,-0.11361 0.96475,-0.0895 1.8971,0.0403 2.83578,0.23818 0.83722,0.1764 1.66732,0.36942 2.49485,0.58745 0.2087,0.055 1.28793,0.35212 1.53232,0.4103 0.19563,0.0466 0.39392,0.0812 0.59088,0.12179 0.0177,0.002 1.55978,0.1533 -0.16636,0.0667 -0.10781,-0.005 0.21513,-0.0181 0.32253,-0.0289 0.33705,-0.0339 0.31713,-0.0384 0.6603,-0.0771 0.12958,-0.0146 0.25937,-0.0273 0.38905,-0.041 1.52177,-0.0307 3.04537,-0.0507 4.55132,0.21707 0.90788,0.17622 1.87711,0.35253 2.52929,1.06717 0.0477,0.075 0.10413,0.14499 0.14305,0.22485 0.14944,0.30664 0.12617,0.65384 0.0628,0.97802 -0.0339,0.10475 -0.0555,0.20861 -0.13131,0.29466 -0.38424,0.43634 -1.36204,0.14879 -1.89757,1.7e-4 -1.61414,-0.56405 -3.23059,-1.1251 -4.88633,-1.55794 -1.07996,-0.28976 -2.15908,-0.56454 -3.25255,-0.79908 -0.26114,-0.056 -0.5221,-0.11322 -0.78474,-0.16163 -0.16497,-0.0304 -0.65143,-0.008 -0.49766,-0.0748 0.21751,-0.0948 0.47441,-0.0123 0.71162,-0.0185 -0.14749,-0.008 -0.18965,0.0344 -0.25997,-0.0899 -0.0117,-0.0206 0.0335,0.0341 0.0533,0.0471 0.0466,0.0304 0.0958,0.0566 0.14509,0.0824 0.16393,0.0858 0.33433,0.15894 0.4958,0.24964 1.02418,0.49388 2.12701,0.81382 3.22832,1.08348 1.79189,0.37521 3.60686,0.62753 5.39072,1.03969 0.47211,0.13548 0.96419,0.25755 1.40585,0.48081 0.073,0.0369 0.15119,0.0714 0.20778,0.13044 0.04,0.0417 0.12567,0.14578 0.0694,0.15868 -0.36201,0.083 -0.74087,0.0534 -1.1113,0.0802 -0.38278,-0.0607 -0.73615,-0.18664 -1.10502,-0.30606 -0.92219,-0.29857 -1.84408,-0.59803 -2.76499,-0.90058 -1.85586,-0.58929 -3.70746,-1.20794 -5.60168,-1.66357 -0.0539,-0.0663 -0.24554,-0.18209 -0.16175,-0.19896 0.43835,-0.0882 0.91869,-0.0138 1.36679,0.0354 0.55059,0.0606 1.10208,0.1158 1.64835,0.20985 0.62888,0.1125 0.87513,0.14703 1.50456,0.29958 0.99489,0.2411 1.96664,0.57003 2.94599,0.86521 0.91886,0.27737 1.90208,0.47884 2.71413,1.01164 0.0265,0.0568 0.0733,0.10811 0.0794,0.17051 0.0293,0.30379 -1.57648,0.11756 -2.00144,0.0952 -0.98776,-0.1284 -1.94545,-0.40656 -2.90059,-0.68212 -1.57341,-0.45631 -3.15589,-0.89917 -4.68585,-1.48819 -0.10542,-0.0543 -0.2201,-0.0936 -0.31626,-0.16303 -0.11211,-0.0809 -0.21193,-0.27927 -0.10609,-0.29499 0.65088,-0.0967 1.26399,-0.0674 1.89799,0.0383 1.27891,0.30186 2.54487,0.65928 3.77978,1.11066 0.46932,0.1873 0.4908,0.19184 0.92205,0.3776 0.0948,0.0408 0.18767,0.0861 0.28319,0.12522 0.0539,0.0221 0.22211,0.0475 0.16483,0.0581 -1.01047,0.18783 -0.9189,0.42369 -1.03672,0.0581 -0.30099,-0.66924 0.62763,-0.42346 1.1676,-0.45065 0.22727,-0.0114 0.38883,0.0328 0.61941,0.0721 0.99085,0.27377 2.01338,0.58033 2.80876,1.26027 0.14705,0.15983 0.31175,0.28102 0.34844,0.5101 0.0103,0.0644 0.0277,0.18135 -0.0366,0.19221 -0.77624,0.13108 -1.36465,0.0365 -2.06589,-0.19224 -1.83724,-0.6195 -3.65793,-1.28656 -5.48468,-1.93603 -0.80838,-0.28109 -0.69963,-0.25484 -1.44333,-0.47518 -0.14954,-0.0443 -0.58707,-0.0528 -0.45017,-0.12755 0.45746,-0.24976 1.04494,0.16088 0.69013,-0.15646 -0.011,-0.01 0.0187,0.0229 0.0281,0.0344 0.31044,0.15533 0.64084,0.27079 0.96475,0.39494 0.86091,0.32997 0.32994,0.1139 1.28146,0.5029 0.28415,0.11617 0.56757,0.23411 0.85135,0.35116 2.44289,1.04874 4.82121,2.24155 7.07151,3.66269 0.49461,0.30661 1.14736,0.70326 1.64503,1.03746 0.13885,0.0932 0.53757,0.18638 0.40797,0.2921 -0.6607,0.53891 -1.22676,0.0467 -1.7688,-0.23007 -2.93014,-1.5633 -5.91102,-3.03019 -8.92765,-4.41933 -1.7063,-0.76942 -3.4164,-1.52754 -5.13882,-2.26029 -0.61351,-0.261 -1.23378,-0.50623 -1.84371,-0.7755 -0.14026,-0.0619 -0.27693,-0.13166 -0.41539,-0.1975 -0.0393,-0.0675 -0.11121,-0.12474 -0.11797,-0.20259 -0.003,-0.0359 0.06,-0.0481 0.096,-0.0497 0.8582,-0.038 1.71531,-0.0279 2.56602,0.0921 1.5163,0.22602 2.99457,0.62135 4.47559,1.01155 1.96474,0.47382 3.9532,0.89665 5.97568,1.01673 0.9148,0.0171 1.82953,0.0143 2.74446,0.01 0,0 -1.06088,0.16802 -1.06088,0.16802 z"
     inkscape:connector-curvature="0" />
  <path
     style="fill:#ffff00;fill-opacity:1;stroke:#ffff00"
     id="path3102"
     d="m 238.67786,356.80589 c -1.35923,-0.3152 -2.70726,-0.67725 -4.06192,-1.01225 -1.90088,-0.49335 -3.83831,-0.80601 -5.78315,-1.0617 -0.88698,-0.1222 -1.77152,-0.26512 -2.66545,-0.32518 -0.67432,-0.0493 -1.33135,-0.20906 -1.99517,-0.32645 -1.02682,-0.18267 -2.0512,-0.3814 -3.07043,-0.60251 -0.53454,-0.15877 -1.0976,-0.19122 -1.63729,-0.31886 -0.0266,-0.01 -0.16467,-0.0277 -0.12843,-0.1111 0.0677,-0.15586 0.18094,-0.14373 0.33481,-0.14427 1.35168,-0.005 1.08995,-0.0127 2.05572,0.0751 2.61534,0.32094 5.20298,0.8288 7.78115,1.36548 2.3078,0.43824 4.53658,1.16386 6.71765,2.02194 0.58265,0.22503 1.15391,0.47796 1.73464,0.70769 0.27444,0.10857 0.55293,0.20118 0.81858,0.32994 0.0117,0.0184 0.0566,0.052 0.035,0.0551 -0.38412,0.0553 -0.77159,0.091 -1.15935,0.10681 -0.0721,0.003 -0.14064,-0.0322 -0.21032,-0.0508 -0.11023,-0.0294 -0.22071,-0.0584 -0.32935,-0.0932 -0.39671,-0.12731 -0.78802,-0.27089 -1.18253,-0.40486 -2.01286,-0.69866 -4.03399,-1.38275 -6.10298,-1.8985 -0.50619,-0.12618 -1.01655,-0.23501 -1.52483,-0.35252 -2.70585,-0.59233 -5.46306,-0.88671 -8.21441,-1.17162 -0.85353,-0.10489 -1.71063,-0.17964 -2.56473,-0.27911 -0.41212,-0.048 -0.79604,-0.0929 -1.17932,-0.25046 -0.0268,-0.043 -0.0804,-0.0784 -0.0804,-0.12912 -1.4e-4,-0.42652 1.44393,-0.60886 1.72335,-0.65762 1.461,-0.21791 2.93876,-0.209 4.41141,-0.20322 1.08018,0.0471 2.13882,0.28038 3.20201,0.45853 0.7037,0.10621 1.38762,0.30933 2.05333,0.55691 0.76007,0.27004 1.5311,0.50949 2.30311,0.74284 0.82237,0.22462 1.629,0.49542 2.42594,0.79684 0.68646,0.27729 1.41455,0.42522 2.12573,0.62363 0.59931,0.16116 1.17966,0.37847 1.76798,0.57331 0.30492,0.0657 0.59412,0.18591 0.89925,0.24936 0.2494,0.0418 0.50308,0.0429 0.75524,0.0453 -0.14836,0.0134 0.2942,-0.008 0.22097,8e-5 -0.38317,0.0417 -0.76538,0.0998 -1.15048,0.11585 -0.0171,7.1e-4 -0.76754,-0.24091 -0.78356,-0.24554 -0.97094,-0.30634 -1.94328,-0.60717 -2.91619,-0.90733 -1.01563,-0.36245 -2.07415,-0.55773 -3.13334,-0.74053 -1.74288,-0.29539 -3.5033,-0.46382 -5.25726,-0.67734 -1.32793,-0.13749 -2.62234,-0.46477 -3.91535,-0.78177 -0.53209,-0.11137 -1.06516,-0.22083 -1.60134,-0.31126 0,0 1.04664,-0.14726 1.04664,-0.14726 l 0,0 c 0.5289,0.0957 1.0562,0.20245 1.58023,0.32164 1.27393,0.32176 2.55181,0.64083 3.86235,0.77666 1.76326,0.21419 3.5327,0.38464 5.2853,0.67828 1.06747,0.18295 2.13226,0.38374 3.1549,0.75099 0.97601,0.30289 1.9507,0.61001 2.92955,0.90344 0.24815,0.0706 0.40218,0.1114 0.64,0.18896 0.0588,0.0192 0.23413,0.0438 0.17495,0.0617 -0.50299,0.15218 -0.76927,0.18878 -1.19477,0.17926 -0.25424,-0.005 -0.51047,-0.011 -0.75954,-0.0679 -0.29876,-0.077 -0.58993,-0.18225 -0.88817,-0.26137 -0.58059,-0.20179 -1.15905,-0.40778 -1.75282,-0.56917 -0.71311,-0.19538 -1.43996,-0.35172 -2.12617,-0.63317 -0.79347,-0.29888 -1.5972,-0.56526 -2.41475,-0.79136 -0.77797,-0.23807 -1.55796,-0.47192 -2.32414,-0.7461 -0.65925,-0.23813 -1.33332,-0.43828 -2.02835,-0.54099 -1.05975,-0.1831 -2.11775,-0.40901 -3.19627,-0.44324 0.16342,-0.003 0.65258,-0.0269 0.49024,-0.008 -0.18156,0.0212 -0.3655,0.008 -0.54818,0.0147 -0.77663,0.0268 -1.55345,0.0746 -2.32378,0.18024 -0.46636,0.0779 -0.92538,0.15233 -1.37195,0.31316 -0.0207,0.007 -0.29468,0.12128 -0.29675,0.13475 -0.005,0.0306 0.0412,0.0462 0.0618,0.0694 0.36674,0.13686 0.73683,0.18244 1.12571,0.22981 0.8384,0.10211 1.67954,0.18246 2.51781,0.28578 2.7365,0.29254 5.47849,0.59484 8.16938,1.18962 0.50948,0.11839 1.02098,0.22841 1.52844,0.35516 2.09498,0.5233 4.14316,1.21071 6.19024,1.89297 0.0726,0.0235 1.05407,0.34391 1.22434,0.39322 0.11292,0.0327 0.22734,0.0603 0.34222,0.0853 0.0737,0.0161 0.29677,0.022 0.22302,0.0378 -0.87587,0.18698 -0.69518,0.28246 -0.9986,0.11485 -0.2543,-0.12408 -0.51957,-0.21999 -0.78105,-0.32792 -0.56718,-0.23413 -1.12733,-0.48509 -1.69812,-0.71055 -2.15214,-0.86159 -4.35615,-1.57952 -6.63807,-2.01554 -2.60908,-0.54023 -5.22931,-1.05028 -7.88009,-1.33942 -0.21226,-0.0162 -0.62996,0.16424 -0.63678,-0.0485 -0.0155,-0.48449 1.0897,0.12618 0.4204,-0.009 -0.0374,-0.008 -0.0626,-0.0445 -0.0891,-0.0719 -0.0247,-0.0255 0.31053,-0.15008 0.10546,0.0149 0.53444,0.10554 1.075,0.18248 1.60249,0.32358 1.02017,0.22142 2.04532,0.42064 3.07407,0.59806 0.6679,0.11933 1.33179,0.26732 2.01054,0.31334 0.87611,0.0692 1.74241,0.21772 2.61226,0.33933 1.93521,0.26574 3.86243,0.58738 5.75572,1.07617 1.38514,0.33772 2.76359,0.71223 4.16246,0.9881 0,0 -1.06128,0.15269 -1.06128,0.15269 z"
     inkscape:connector-curvature="0" />
  <path
     style="fill:#ffff00;fill-opacity:1;stroke:#ffff00"
     id="path3104"
     d="m 243.3015,356.05551 c -0.96255,-0.59854 -2.05208,-0.961 -3.12471,-1.30553 -2.32454,-0.69817 -4.72306,-1.07198 -7.12933,-1.34352 -1.38488,-0.14111 -2.77527,-0.22483 -4.16703,-0.24835 0.26868,0.004 0.53735,0.008 0.80602,0.0125 -0.15299,0.0917 -0.0337,-0.0687 -0.01,-0.0719 0.0782,-0.0105 0.15477,0.0309 0.23246,0.0448 0.15135,0.0269 0.30264,0.0545 0.45463,0.0776 0.22908,0.0348 0.45897,0.0641 0.68845,0.0962 2.8459,0.3716 5.69943,0.6751 8.54051,1.08414 2.32336,0.41725 4.67256,0.73742 6.94582,1.38948 -0.0905,-0.10776 0.45144,0.126 0.37148,0.25261 -0.0449,0.071 -0.13357,0.12227 -0.21743,0.12754 -0.50043,0.0315 -1.00325,0.004 -1.50413,-0.0193 -0.22703,-0.0105 -0.45141,-0.0533 -0.67693,-0.0815 -0.29472,-0.0367 -0.58919,-0.0754 -0.88378,-0.1131 -2.1248,-0.28935 -4.26458,-0.44285 -6.40493,-0.55703 0.70295,-0.006 -1.37312,-0.0397 -1.02964,-0.0484 0.28781,0.002 0.57562,0.005 0.86343,0.007 0.0202,-0.035 0.021,-0.0971 0.0606,-0.10508 0.0854,-0.0172 0.17178,0.0288 0.25799,0.041 0.15591,0.0221 0.31221,0.0412 0.46831,0.0618 1.45774,0.14369 2.92371,0.17798 4.38737,0.20933 0,0 -1.00769,0.15714 -1.00769,0.15714 l 0,0 c -1.46809,-0.0385 -2.93843,-0.076 -4.4008,-0.21864 -0.055,-0.007 -0.68729,-0.0742 -0.77789,-0.1417 -0.0463,-0.0345 -0.0976,-0.16013 -0.0405,-0.1683 0.71936,-0.10295 1.47788,0.0439 2.20162,0.0557 2.1375,0.12616 4.27385,0.28795 6.39784,0.56482 0.30207,0.0362 0.60388,0.0747 0.90622,0.10853 0.23316,0.0261 0.51026,-0.0663 0.70024,0.0713 0.15356,0.11128 -0.38474,-0.023 -0.56841,0.0242 -0.0672,0.0173 0.12659,0.0628 0.1954,0.0717 0.0186,0.002 -0.0173,-0.0332 -0.0259,-0.0498 -0.0953,-0.0397 -0.19066,-0.0794 -0.28599,-0.11907 -2.22476,-0.67176 -4.53772,-0.97838 -6.81879,-1.39292 -2.87718,-0.41094 -5.76689,-0.71165 -8.65103,-1.06759 -0.14055,-0.0189 -1.2852,-0.12887 -1.44964,-0.25422 -0.15029,-0.11455 -0.0725,-0.19276 0.0337,-0.19627 0.42386,-0.014 0.84814,-0.009 1.27221,-0.0138 1.36348,0.0343 2.72513,0.12675 4.08146,0.27074 2.41505,0.28214 4.82154,0.66512 7.15729,1.35882 1.1035,0.35232 2.22159,0.71994 3.21795,1.32376 0,0 -1.06678,0.10518 -1.06678,0.10518 z"
     inkscape:connector-curvature="0" />
  <path
     style="fill:#ffff00;fill-opacity:1;stroke:#ffff00"
     id="path3106"
     d="m 244.00982,355.61611 c -0.65004,-0.54177 -1.58854,-0.61078 -2.39022,-0.74406 -2.07712,-0.29195 -4.16274,-0.51532 -6.24208,-0.79125 -1.95738,-0.3126 -3.92636,-0.57167 -5.87078,-0.95949 -0.55353,-0.14595 -1.12083,-0.24367 -1.668,-0.41433 -0.35375,-0.11033 -0.69949,-0.25587 -1.04795,-0.38208 -0.15273,-0.0757 -0.78835,-0.14759 -0.788,-0.38403 5e-5,-0.0391 0.0246,-0.0743 0.0369,-0.11146 0.0406,-0.0254 0.0772,-0.0587 0.12173,-0.0761 0.31327,-0.1227 0.87052,-0.0956 1.20651,-0.10326 1.04955,0.003 2.10241,-0.0637 3.14727,0.0555 0.74857,0.0646 1.48018,0.22182 2.21253,0.38152 0.76189,0.15406 1.51565,0.3368 2.26824,0.53072 0.6947,0.13014 1.36711,0.3492 2.05897,0.49024 0.86336,0.16213 1.72747,0.3185 2.59048,0.48272 0.77449,0.14358 1.52134,0.39422 2.27334,0.62185 0.62761,0.2269 1.27756,0.37393 1.92057,0.54762 0.52261,0.12373 1.04102,0.26241 1.55079,0.43173 0.30093,0.0872 0.6046,0.16427 0.90754,0.24459 0,0 -1.05187,0.13845 -1.05187,0.13845 l 0,0 c -0.30208,-0.082 -0.60633,-0.15667 -0.90496,-0.25055 -0.50859,-0.16223 -1.02362,-0.29999 -1.54201,-0.42719 -0.6429,-0.17029 -1.28841,-0.32953 -1.9162,-0.55193 -0.74718,-0.23079 -1.49362,-0.4689 -2.26414,-0.6118 -0.86546,-0.1672 -1.73357,-0.31827 -2.59941,-0.48331 -0.69014,-0.14892 -1.36567,-0.35766 -2.05872,-0.49526 -0.75097,-0.19649 -1.50613,-0.36896 -2.26612,-0.52692 -0.73142,-0.16035 -1.46483,-0.30332 -2.2119,-0.37002 -0.33172,-0.0323 -1.52446,-0.0525 -0.0747,-0.0503 0.11792,1.9e-4 -0.23584,1.7e-4 -0.35376,5e-4 -0.11131,3.1e-4 -0.22263,6.7e-4 -0.33394,0.001 -0.1039,7.1e-4 -0.2078,0.002 -0.3117,0.003 -0.43215,0.008 -0.86459,0.0177 -1.29288,0.0806 -0.0123,-6.5e-4 -0.0338,-0.0139 -0.0368,-0.002 -0.0123,0.0492 0.0736,0.0732 0.12017,0.0934 0.20469,0.0888 0.43096,0.12015 0.63452,0.21259 0.34119,0.12753 0.68077,0.268 1.02897,0.37548 0.53785,0.16602 1.09262,0.2712 1.63714,0.41134 1.92969,0.38579 3.88159,0.65707 5.82555,0.95941 2.09447,0.27636 4.19564,0.49625 6.28801,0.78797 0.83228,0.13866 1.81739,0.2124 2.46792,0.81225 0,0 -1.07094,0.0724 -1.07094,0.0724 z"
     inkscape:connector-curvature="0" />
  <path
     style="fill:#ffff00;fill-opacity:1;stroke:#ffff00"
     id="path3108"
     d="m 217.90512,360.0073 c 0.19185,0.27683 0.41078,0.53329 0.62503,0.79272 0.35912,0.42854 0.69155,0.87554 0.98499,1.35138 0.0961,0.16098 0.18891,0.32345 0.27565,0.48961 0,0 -0.36594,0.0174 -0.36594,0.0174 l 0,0 c -0.0834,-0.16535 -0.17206,-0.32766 -0.2659,-0.48739 -0.28943,-0.47639 -0.62081,-0.92208 -0.98261,-1.3463 -0.22093,-0.26135 -0.44562,-0.52005 -0.64956,-0.79512 0,0 0.37834,-0.0223 0.37834,-0.0223 z"
     inkscape:connector-curvature="0" />
  <path
     style="fill:#ffff00;fill-opacity:1;stroke:#ffff00"
     id="path3110"
     d="m 223.96651,350.94987 c 0.37124,0.0609 0.74011,0.13481 1.10838,0.21143 0.59005,0.1222 1.16831,0.29188 1.7433,0.47042 0.27757,0.0864 0.55338,0.17768 0.82428,0.28308 0,0 -0.36897,0.0443 -0.36897,0.0443 l 0,0 c -0.26476,-0.10611 -0.5352,-0.19649 -0.80712,-0.28252 -0.57346,-0.18026 -1.1512,-0.3484 -1.74104,-0.46714 -0.37627,-0.0762 -0.75309,-0.15121 -1.13334,-0.20501 0,0 0.37451,-0.0546 0.37451,-0.0546 z"
     inkscape:connector-curvature="0" />
  <path
     style="fill:#ffff00;fill-opacity:1;stroke:#ffff00"
     id="path3112"
     d="m 217.06323,348.5529 c 0.28011,0.0779 0.5638,0.14111 0.84486,0.21544 0.31316,0.0888 0.62736,0.17332 0.94006,0.26368 0.19422,0.0531 0.38458,0.11918 0.57868,0.1726 0.19397,0.0593 0.39033,0.10893 0.58914,0.14897 0.19973,0.0395 0.40276,0.0626 0.60062,0.11085 0.11408,0.0292 0.0585,0.0153 0.16671,0.0418 0,0 -0.37138,0.0496 -0.37138,0.0496 l 0,0 c -0.10681,-0.0269 -0.0519,-0.0131 -0.16472,-0.0415 -0.19828,-0.0444 -0.40043,-0.0696 -0.59961,-0.10999 -0.19932,-0.0421 -0.39625,-0.0929 -0.59141,-0.15135 -0.19215,-0.0555 -0.38178,-0.11926 -0.57429,-0.17354 -0.31022,-0.0918 -0.62264,-0.17552 -0.93395,-0.26345 -0.28521,-0.0742 -0.57208,-0.14245 -0.85922,-0.20849 0,0 0.37451,-0.0545 0.37451,-0.0545 z"
     inkscape:connector-curvature="0" />
  <path
     style="fill:#ffff00;fill-opacity:1;stroke:#ffff00"
     id="path3120"
     d="m 217.93548,348.78453 c 0.51444,-0.0147 1.02269,0.0697 1.5302,0.1413 0.60559,0.092 1.19925,0.2463 1.7946,0.38775 0.41104,0.0985 0.82438,0.18564 1.23414,0.28952 0.19796,0.0654 0.40375,0.0957 0.60673,0.13859 0.022,0.005 0.044,0.009 0.0661,0.0139 0,0 -0.37269,0.0511 -0.37269,0.0511 l 0,0 c -0.0217,-0.005 -0.0435,-0.009 -0.0652,-0.0138 -0.20136,-0.0396 -0.40194,-0.0808 -0.59838,-0.1416 -0.40473,-0.10518 -0.81386,-0.19068 -1.21982,-0.29081 -0.59449,-0.14252 -1.1878,-0.29638 -1.7935,-0.3845 -0.25736,-0.0353 -0.51474,-0.073 -0.7732,-0.0997 -0.0605,-0.006 -0.12118,-0.0105 -0.18175,-0.0158 -0.0463,-0.004 -0.18512,-0.007 -0.13892,-0.0126 0.0946,-0.0108 0.19038,-0.003 0.28557,-0.004 0,0 -0.37384,-0.0592 -0.37384,-0.0592 z"
     inkscape:connector-curvature="0" />
  <path
     style="fill:#ffff00;fill-opacity:1;stroke:#ffff00"
     id="path3122"
     d="m 217.39606,348.92825 c 0.0819,3.1e-4 0.16374,2.6e-4 0.24561,2.6e-4 0,0 0.37187,0.0589 0.37187,0.0589 l 0,0 c -0.0808,0 -0.1616,-5e-5 -0.2424,2.6e-4 0,0 -0.37508,-0.0594 -0.37508,-0.0594 z"
     inkscape:connector-curvature="0" />
  <path
     style="fill:#ffff00;fill-opacity:1;stroke:#ffff00"
     id="path3124"
     d="m 217.39606,348.64061 c 0.35248,-0.003 0.70457,0.005 1.05694,0.0138 0.30271,0.041 0.60518,0.0947 0.89926,0.17839 0.0305,0.009 0.061,0.0185 0.0916,0.0277 0,0 -0.37013,0.0475 -0.37013,0.0475 l 0,0 c -0.0298,-0.009 -0.0596,-0.0181 -0.0894,-0.0272 -0.29256,-0.081 -0.59236,-0.13715 -0.89388,-0.17172 0.0698,-0.003 0.14027,4.1e-4 0.20935,-0.01 0.0475,-0.007 -0.096,9e-5 -0.14399,1.4e-4 -0.1072,1.3e-4 -0.2144,2.1e-4 -0.32159,5.4e-4 -0.021,7e-5 -0.042,1.7e-4 -0.0631,2.6e-4 0,0 -0.37508,-0.0594 -0.37508,-0.0594 z"
     inkscape:connector-curvature="0" />
  <path
     style="fill:#ffff00;fill-opacity:1;stroke:#ffff00"
     id="path3126"
     d="m 220.18508,348.99958 c 0.37978,0.11652 0.76491,0.21494 1.15033,0.31095 0.52359,0.12589 1.04562,0.2589 1.57492,0.35901 0.20558,0.0388 0.41346,0.0624 0.62223,0.0737 0,0 -0.37019,0.0563 -0.37019,0.0563 l 0,0 c -0.20463,-0.0144 -0.40823,-0.0403 -0.60952,-0.0804 -0.52566,-0.1043 -1.04461,-0.23833 -1.5659,-0.36206 -0.3939,-0.0966 -0.78737,-0.19601 -1.17649,-0.31048 0,0 0.37462,-0.047 0.37462,-0.047 z"
     inkscape:connector-curvature="0" />
  <path
     style="fill:#ffff00;fill-opacity:1;stroke:#ffff00"
     id="path3132"
     d="m 229.2108,350.42579 c -0.33993,-0.001 -0.67988,-0.002 -1.01982,-0.002 -0.71864,-0.0121 -1.43592,-0.062 -2.15364,-0.0973 -0.49111,-0.0235 -0.98261,-0.0379 -1.47424,-0.0442 0,0 0.36248,-0.0568 0.36248,-0.0568 l 0,0 c 0.48382,0.009 0.9675,0.0249 1.45081,0.0491 0.72086,0.0363 1.44145,0.0858 2.16337,0.0941 0.3485,-5.1e-4 0.697,-8.3e-4 1.0455,-0.002 0,0 -0.37446,0.0593 -0.37446,0.0593 z"
     inkscape:connector-curvature="0" />
  <path
     style="fill:#ffff00;fill-opacity:1;stroke:#ffff00"
     id="path3134"
     d="m 247.5291,351.91196 c 0.099,0.001 0.19811,-0.002 0.29685,0.004 0.0396,0.003 -0.0792,0.006 -0.11881,0.008 -0.0552,0.003 -0.1104,0.005 -0.16558,0.008 -0.24162,0.0131 -0.48306,0.0272 -0.72479,0.0384 -0.56934,0.0177 -1.13862,0.0345 -1.70788,0.0554 -0.44262,0.0165 -0.88552,0.0235 -1.3284,0.0278 -0.13319,0.001 -0.26639,0.002 -0.39959,0.002 0,0 -0.36629,-0.058 -0.36629,-0.058 l 0,0 c 0.13525,-2e-5 0.2705,-1.1e-4 0.40575,-9.1e-4 0.44639,-0.003 0.89279,-0.009 1.33893,-0.0252 0.56911,-0.0204 1.13821,-0.0381 1.70743,-0.0551 0.47917,-0.0226 0.95748,-0.0647 1.43745,-0.0638 0,0 -0.37507,0.0594 -0.37507,0.0594 z"
     inkscape:connector-curvature="0" />
  <path
     style="fill:#ffff00;fill-opacity:1;stroke:#ffff00"
     id="path3136"
     d="m 246.04253,351.90312 c -0.29003,-0.0387 -0.58042,-0.0756 -0.87135,-0.10741 -0.52325,-0.0439 -1.04805,-0.0685 -1.57244,-0.0954 -0.343,-0.0174 -0.68639,-0.025 -1.02978,-0.0283 0,0 0.36628,-0.0576 0.36628,-0.0576 l 0,0 c 0.33907,0.005 0.67813,0.0137 1.01678,0.0318 0.5247,0.0283 1.04989,0.0524 1.57346,0.0973 0.29802,0.0323 0.59577,0.0675 0.89301,0.10641 0,0 -0.37596,0.0532 -0.37596,0.0532 z"
     inkscape:connector-curvature="0" />
  <path
     style="fill:#ffff00;fill-opacity:1;stroke:#ffff00"
     id="path3138"
     d="m 241.86682,351.67222 c -0.31171,0.004 -0.62294,-0.0123 -0.93433,-0.0239 -0.49245,-0.0164 -0.98448,-0.0444 -1.47632,-0.0737 -0.42574,-0.0281 -0.84962,-0.0767 -1.27456,-0.11409 -0.0464,-0.004 -0.0927,-0.007 -0.13912,-0.0105 0,0 0.36428,-0.0547 0.36428,-0.0547 l 0,0 c 0.0456,0.004 0.0912,0.008 0.13684,0.0113 0.42121,0.0395 0.84165,0.0875 1.26395,0.11455 0.49307,0.0295 0.98639,0.0562 1.48008,0.0723 0.3178,0.0114 0.63554,0.0263 0.95363,0.0195 0,0 -0.37445,0.0593 -0.37445,0.0593 z"
     inkscape:connector-curvature="0" />
  <path
     style="fill:#ffff00;fill-opacity:1;stroke:#ffff00"
     id="path3140"
     d="m 242.53195,351.8958 c -0.23937,-0.0664 -0.48673,-0.10003 -0.73165,-0.13955 -0.32394,-0.0447 -0.64394,-0.10954 -0.9692,-0.14459 -0.32627,-0.0281 -0.65373,-0.0314 -0.98053,-0.0513 -0.25715,-0.0173 -0.51473,-0.0258 -0.77238,-0.0304 -0.0933,-0.001 -0.18662,-0.002 -0.27993,-0.002 0,0 0.36945,-0.0583 0.36945,-0.0583 l 0,0 c 0.0927,6.1e-4 0.18535,0.001 0.27801,0.003 0.25591,0.006 0.51173,0.0153 0.76714,0.0327 0.32652,0.0194 0.65389,0.022 0.97964,0.0533 0.32538,0.0371 0.64603,0.10192 0.97043,0.14619 0.24924,0.0396 0.49976,0.0765 0.74404,0.14108 0,0 -0.37502,0.05 -0.37502,0.05 z"
     inkscape:connector-curvature="0" />
  <path
     style="fill:#ffff00;fill-opacity:1;stroke:#ffff00"
     id="path3142"
     d="m 239.89554,351.42441 c -0.26843,-0.028 -0.53861,-0.0284 -0.80792,-0.0423 -0.42637,-0.0259 -0.84756,-0.0976 -1.27222,-0.14075 -0.36977,-0.0446 -0.74099,-0.0735 -1.11304,-0.0889 -0.24706,0.004 -0.4891,-0.0346 -0.73021,-0.0829 -0.19906,-0.0369 -0.40006,-0.0633 -0.59867,-0.1025 -0.1489,-0.0352 -0.30071,-0.05 -0.45312,-0.0581 -0.1502,-0.007 -0.68528,-0.005 -0.0326,-0.005 -0.1359,1.4e-4 -0.2718,4.1e-4 -0.4077,5.8e-4 -0.20807,0.002 -0.41599,-0.004 -0.62405,-0.007 0,0 0.3732,-0.0553 0.3732,-0.0553 l 0,0 c -0.63235,0.008 -0.2631,0.003 -0.12075,0.004 0.13597,-1e-4 0.27193,-3.3e-4 0.4079,-5.8e-4 0.2584,1e-5 0.51731,-0.004 0.77561,0.007 0.15199,0.0101 0.30286,0.0286 0.45145,0.0632 0.1984,0.0367 0.39815,0.0658 0.59644,0.10309 0.2393,0.0473 0.48025,0.0785 0.72486,0.0779 0.36992,0.0172 0.73882,0.0484 1.10659,0.0921 0.42532,0.0446 0.84766,0.11582 1.27518,0.13831 0.27457,0.0124 0.54999,0.0136 0.82355,0.0428 0,0 -0.37451,0.0546 -0.37451,0.0546 z"
     inkscape:connector-curvature="0" />
  <path
     style="fill:#ffff00;fill-opacity:1;stroke:#ffff00"
     id="path3144"
     d="m 243.0653,351.67222 c -0.28571,-0.0207 -0.57054,-0.049 -0.85559,-0.0778 -0.44963,-0.0512 -0.9005,-0.0926 -1.35185,-0.12539 -0.37633,-0.0259 -0.75354,-0.0334 -1.13063,-0.0371 -0.11523,-0.001 -0.74978,-0.001 -0.15287,-8.9e-4 0,0 -0.36636,-0.058 -0.36636,-0.058 l 0,0 c 0.29373,3e-5 0.58747,-8.3e-4 0.88119,0.002 0.37472,0.005 0.74953,0.0137 1.12341,0.0405 0.4521,0.0339 0.90368,0.0757 1.35425,0.12598 0.29059,0.0289 0.58111,0.0578 0.87291,0.0714 0,0 -0.37446,0.0593 -0.37446,0.0593 z"
     inkscape:connector-curvature="0" />
  <path
     style="fill:#ffff00;fill-opacity:1;stroke:#ffff00"
     id="path3146"
     d="m 234.58545,350.90524 c -0.21867,0.005 -0.43591,-0.0223 -0.65286,-0.0454 -0.29891,-0.0462 -0.59988,-0.0729 -0.9018,-0.0879 -0.30333,7e-4 -0.60414,-0.0334 -0.90462,-0.071 -0.40546,-0.0566 -0.81217,-0.0934 -1.22099,-0.11325 -0.41645,-0.0167 -0.8333,-0.0192 -1.25004,-0.02 -0.17048,1e-4 -0.0902,0.003 -0.24101,-0.006 0,0 0.36784,-0.0562 0.36784,-0.0562 l 0,0 c 0.14643,0.007 0.0682,0.005 0.23462,0.005 0.41425,0.002 0.82861,0.005 1.24255,0.0228 0.41098,0.0208 0.81979,0.0592 1.22758,0.1149 0.30145,0.0359 0.60315,0.0666 0.9071,0.0681 0.30218,0.0165 0.60303,0.0462 0.90258,0.0898 0.22068,0.023 0.44183,0.0472 0.66412,0.0397 0,0 -0.37507,0.0594 -0.37507,0.0594 z"
     inkscape:connector-curvature="0" />
  <path
     style="fill:#ffff00;fill-opacity:1;stroke:#ffff00"
     id="path3154"
     d="m 230.12165,350.52167 c -0.21233,-8.2e-4 -0.42466,-7.1e-4 -0.63699,-6.8e-4 -0.10615,-0.004 -0.21196,-0.0139 -0.31777,-0.0231 0,0 0.36908,-0.0552 0.36908,-0.0552 l 0,0 c 0.10468,0.009 0.20941,0.0183 0.31452,0.0204 0.21521,3e-5 0.43041,1.2e-4 0.64562,-6.9e-4 0,0 -0.37446,0.0593 -0.37446,0.0593 z"
     inkscape:connector-curvature="0" />
  <path
     style="fill:#ffff00;fill-opacity:1;stroke:#ffff00"
     id="path3156"
     d="m 229.93532,350.47378 c -0.26279,-0.008 -0.5246,-0.0389 -0.78675,-0.0591 -0.23496,-0.0172 -0.47036,-0.0275 -0.70584,-0.0342 0,0 0.36796,-0.0571 0.36796,-0.0571 l 0,0 c 0.23275,0.008 0.46539,0.0197 0.69765,0.0372 0.26703,0.0208 0.53402,0.0519 0.80206,0.0538 0,0 -0.37508,0.0594 -0.37508,0.0594 z"
     inkscape:connector-curvature="0" />
  <path
     style="fill:#ffff00;fill-opacity:1;stroke:#ffff00"
     id="path3158"
     d="m 227.38844,350.16939 c -0.29099,-0.0613 -0.58241,-0.12045 -0.87416,-0.17804 -0.55357,-0.1129 -1.11354,-0.18585 -1.67356,-0.25747 -0.52235,-0.0704 -1.04653,-0.13657 -1.56307,-0.24286 -0.0531,-0.0114 -0.10628,-0.0228 -0.15942,-0.0341 0,0 0.36248,-0.0495 0.36248,-0.0495 l 0,0 c 0.0521,0.0114 0.10414,0.0228 0.15621,0.0342 0.51194,0.10565 1.03116,0.1735 1.5491,0.24209 0.56378,0.0718 1.12726,0.14644 1.68484,0.25825 0.29809,0.0579 0.59635,0.11547 0.89337,0.17863 0,0 -0.37579,0.0488 -0.37579,0.0488 z"
     inkscape:connector-curvature="0" />
  <path
     style="fill:#ffff00;fill-opacity:1;stroke:#ffff00"
     id="path3160"
     d="m 228.97653,350.28202 c -0.17582,0.003 -0.3507,-0.0191 -0.52596,-0.0307 -0.2,-0.0182 -0.39661,-0.0594 -0.5952,-0.0879 -0.15028,-0.003 -0.29188,-0.0433 -0.43589,-0.0807 -0.0196,-0.007 -0.0393,-0.0137 -0.0589,-0.0205 0,0 0.37382,-0.047 0.37382,-0.047 l 0,0 c 0.0194,0.006 0.0389,0.0122 0.0583,0.0182 0.14264,0.0381 0.285,0.0684 0.43299,0.0769 0.1973,0.0303 0.39332,0.07 0.59266,0.0853 0.17756,0.0123 0.35501,0.0325 0.53326,0.027 0,0 -0.37508,0.0594 -0.37508,0.0594 z"
     inkscape:connector-curvature="0" />
  <path
     style="fill:#ffff00;fill-opacity:1;stroke:#ffff00"
     id="path3170"
     d="m 222.5945,349.64206 c -0.25464,-0.0697 -0.51388,-0.124 -0.77138,-0.18283 -0.32608,-0.0906 -0.65758,-0.15207 -0.99054,-0.20992 -0.14976,-0.0326 -0.29997,-0.0628 -0.45107,-0.0885 0,0 0.36961,-0.0519 0.36961,-0.0519 l 0,0 c 0.14906,0.0272 0.29727,0.0586 0.44567,0.0892 0.33185,0.0581 0.66103,0.12541 0.98677,0.2123 0.2626,0.0591 0.5266,0.1137 0.78672,0.18287 0,0 -0.37578,0.0488 -0.37578,0.0488 z"
     inkscape:connector-curvature="0" />
  <path
     style="fill:#ffff00;fill-opacity:1;stroke:#ffff00"
     id="path3174"
     d="m 222.4989,349.6983 c -0.19751,-0.0155 -0.39142,-0.0563 -0.58662,-0.0884 -0.0337,-0.005 -0.0674,-0.01 -0.10107,-0.015 0,0 0.36865,-0.0527 0.36865,-0.0527 l 0,0 c 0.0333,0.005 0.0666,0.0104 0.1,0.0157 0.1975,0.0334 0.39442,0.0701 0.5943,0.0864 0,0 -0.37522,0.054 -0.37522,0.054 z"
     inkscape:connector-curvature="0" />
  <path
     style="fill:#ffff00;fill-opacity:1;stroke:#ffff00"
     id="path3176"
     d="m 222.64244,349.49824 c -0.21728,-0.0451 -0.43957,-0.0587 -0.65968,-0.0849 -0.0364,-0.004 -0.0727,-0.008 -0.10904,-0.0125 0,0 0.36766,-0.0539 0.36766,-0.0539 l 0,0 c 0.0359,0.004 0.0718,0.009 0.10762,0.0128 0.22339,0.0267 0.44953,0.0391 0.66922,0.0896 0,0 -0.37578,0.0488 -0.37578,0.0488 z"
     inkscape:connector-curvature="0" />
  <path
     style="fill:#ffff00;fill-opacity:1;stroke:#ffff00"
     id="path3178"
     d="m 221.48636,349.34713 c -0.2549,-0.0871 -0.51928,-0.13799 -0.78267,-0.19146 -0.35589,-0.0846 -0.71725,-0.1375 -1.07796,-0.19541 -0.0422,-0.007 -0.0844,-0.0135 -0.12656,-0.0203 0,0 0.36595,-0.0519 0.36595,-0.0519 l 0,0 c 0.0414,0.007 0.0828,0.0137 0.12425,0.0206 0.35959,0.058 0.71886,0.11629 1.07422,0.1974 0.26866,0.054 0.53818,0.10692 0.79815,0.19541 0,0 -0.37538,0.0457 -0.37538,0.0457 z"
     inkscape:connector-curvature="0" />
</svg>
