<?xml version="1.0" encoding="UTF-8" standalone="no"?>
<svg
   xmlns:dc="http://purl.org/dc/elements/1.1/"
   xmlns:cc="http://creativecommons.org/ns#"
   xmlns:rdf="http://www.w3.org/1999/02/22-rdf-syntax-ns#"
   xmlns:svg="http://www.w3.org/2000/svg"
   xmlns="http://www.w3.org/2000/svg"
   xmlns:xlink="http://www.w3.org/1999/xlink"
   xmlns:sodipodi="http://sodipodi.sourceforge.net/DTD/sodipodi-0.dtd"
   xmlns:inkscape="http://www.inkscape.org/namespaces/inkscape"
   viewBox="0 0 512 512"
   id="svg2"
   version="1.1"
   inkscape:version="0.48.5 r10040"
   width="100%"
   height="100%"
   sodipodi:docname="shield-reflect.svg">
  <metadata
     id="metadata12">
    <rdf:RDF>
      <cc:Work
         rdf:about="">
        <dc:format>image/svg+xml</dc:format>
        <dc:type
           rdf:resource="http://purl.org/dc/dcmitype/StillImage" />
        <dc:title></dc:title>
      </cc:Work>
    </rdf:RDF>
  </metadata>
  <defs
     id="defs10">
    <linearGradient
       id="linearGradient2989">
      <stop
         style="stop-color:#ffffff;stop-opacity:1;"
         offset="0"
         id="stop2991" />
      <stop
         style="stop-color:#58ffff;stop-opacity:1;"
         offset="1"
         id="stop2993" />
    </linearGradient>
    <radialGradient
       inkscape:collect="always"
       xlink:href="#linearGradient2989"
       id="radialGradient2995"
       cx="554.32306"
       cy="7.7907004"
       fx="554.32306"
       fy="7.7907004"
       r="236.422"
       gradientTransform="matrix(-0.66771416,-0.53019175,0.65362485,-0.82316363,683.95241,510.75119)"
       gradientUnits="userSpaceOnUse" />
  </defs>
  <sodipodi:namedview
     pagecolor="#ffffff"
     bordercolor="#666666"
     borderopacity="1"
     objecttolerance="10"
     gridtolerance="10"
     guidetolerance="10"
     inkscape:pageopacity="0"
     inkscape:pageshadow="2"
     inkscape:window-width="1280"
     inkscape:window-height="1002"
     id="namedview8"
     showgrid="false"
     inkscape:zoom="0.4609375"
     inkscape:cx="256"
     inkscape:cy="256"
     inkscape:window-x="-8"
     inkscape:window-y="-8"
     inkscape:window-maximized="1"
     inkscape:current-layer="svg2" />
  <path
     d="M0 0h512v512H0z"
     id="path4" />
  <path
     d="M19.36 19.457l-.38 27.84 267.127 154.75-58.703 19.916 57.602 19.36L142.12 383.546l-19.214-19.213-51.47 114.324 123.125-43.482-17.492-18.95 151.868-151.87 12.433 43.078 22.976-68.5 56.675-16.565-57.475-15.492-22.934-79.828-14.145 48.266-268.65-155.41-38.454-.446zM370.614 81.94c-4.53.02-9.035.12-13.51.302-3.275.134-6.528.32-9.76.547l31.25 108.786 104.05 28.045c6.204-39.085 8.902-80.275 9.18-120.075C456.37 88.82 415.098 82.257 375.15 81.95c-1.514-.012-3.027-.015-4.537-.01zm-36.87 2.1c-31.99 3.653-61.013 12.153-83.014 25.87l64.493 37.31 18.52-63.18zm148.18 139.997L378.958 254.13l-38.93 116.054-20.268-70.225-39.07 39.067c18.814 35.364 46.1 62.287 86.175 77.604 47.473-17.834 78.566-62.795 98.014-121.6 7.323-22.14 12.905-46.11 17.042-70.993z"
     fill="#fff"
     fill-rule="evenodd"
     id="path6"
     style="fill-opacity:1;fill:url(#radialGradient2995)" />
</svg>
