<?xml version="1.0" encoding="UTF-8" standalone="no"?>
<svg
   xmlns:dc="http://purl.org/dc/elements/1.1/"
   xmlns:cc="http://creativecommons.org/ns#"
   xmlns:rdf="http://www.w3.org/1999/02/22-rdf-syntax-ns#"
   xmlns:svg="http://www.w3.org/2000/svg"
   xmlns="http://www.w3.org/2000/svg"
   xmlns:xlink="http://www.w3.org/1999/xlink"
   xmlns:sodipodi="http://sodipodi.sourceforge.net/DTD/sodipodi-0.dtd"
   xmlns:inkscape="http://www.inkscape.org/namespaces/inkscape"
   viewBox="0 0 512 512"
   id="svg2"
   version="1.1"
   inkscape:version="0.48.4 r9939"
   width="100%"
   height="100%"
   sodipodi:docname="fire-ring.svg">
  <metadata
     id="metadata32">
    <rdf:RDF>
      <cc:Work
         rdf:about="">
        <dc:format>image/svg+xml</dc:format>
        <dc:type
           rdf:resource="http://purl.org/dc/dcmitype/StillImage" />
      </cc:Work>
    </rdf:RDF>
  </metadata>
  <defs
     id="defs30">
    <linearGradient
       id="linearGradient3166">
      <stop
         style="stop-color:#ff00ff;stop-opacity:1;"
         offset="0"
         id="stop3168" />
      <stop
         style="stop-color:#06ff00;stop-opacity:0;"
         offset="1"
         id="stop3170" />
    </linearGradient>
    <linearGradient
       id="linearGradient3142">
      <stop
         style="stop-color:#ff00ff;stop-opacity:1;"
         offset="0"
         id="stop3144" />
      <stop
         style="stop-color:#00ff00;stop-opacity:0;"
         offset="1"
         id="stop3146" />
    </linearGradient>
    <linearGradient
       id="linearGradient3132">
      <stop
         style="stop-color:#ff0000;stop-opacity:1;"
         offset="0"
         id="stop3134" />
      <stop
         style="stop-color:#00ff00;stop-opacity:0;"
         offset="1"
         id="stop3136" />
    </linearGradient>
    <linearGradient
       inkscape:collect="always"
       xlink:href="#linearGradient3132"
       id="linearGradient3138"
       x1="266.70444"
       y1="101.56531"
       x2="271.04343"
       y2="257.76871"
       gradientUnits="userSpaceOnUse" />
    <linearGradient
       inkscape:collect="always"
       xlink:href="#linearGradient3132"
       id="linearGradient3140"
       x1="264.67795"
       y1="86.779663"
       x2="269.01694"
       y2="242.98305"
       gradientUnits="userSpaceOnUse" />
    <linearGradient
       inkscape:collect="always"
       xlink:href="#linearGradient3142"
       id="linearGradient3148"
       x1="99.270721"
       y1="1992.0983"
       x2="100.10624"
       y2="1981.9664"
       gradientUnits="userSpaceOnUse" />
    <linearGradient
       inkscape:collect="always"
       xlink:href="#linearGradient3166"
       id="linearGradient3172"
       x1="96.391663"
       y1="1985.9053"
       x2="97.766792"
       y2="1968.985"
       gradientUnits="userSpaceOnUse" />
    <linearGradient
       inkscape:collect="always"
       xlink:href="#linearGradient3142"
       id="linearGradient3942"
       gradientUnits="userSpaceOnUse"
       x1="99.270721"
       y1="1992.0983"
       x2="100.10624"
       y2="1981.9664" />
    <linearGradient
       inkscape:collect="always"
       xlink:href="#linearGradient3166"
       id="linearGradient3944"
       gradientUnits="userSpaceOnUse"
       x1="96.391663"
       y1="1985.9053"
       x2="97.766792"
       y2="1968.985" />
    <linearGradient
       inkscape:collect="always"
       xlink:href="#linearGradient3142"
       id="linearGradient3946"
       gradientUnits="userSpaceOnUse"
       x1="99.270721"
       y1="1992.0983"
       x2="100.10624"
       y2="1981.9664" />
    <linearGradient
       inkscape:collect="always"
       xlink:href="#linearGradient3166"
       id="linearGradient3948"
       gradientUnits="userSpaceOnUse"
       x1="96.391663"
       y1="1985.9053"
       x2="97.766792"
       y2="1968.985" />
    <linearGradient
       inkscape:collect="always"
       xlink:href="#linearGradient3142"
       id="linearGradient3950"
       gradientUnits="userSpaceOnUse"
       x1="99.270721"
       y1="1992.0983"
       x2="100.10624"
       y2="1981.9664" />
    <linearGradient
       inkscape:collect="always"
       xlink:href="#linearGradient3166"
       id="linearGradient3952"
       gradientUnits="userSpaceOnUse"
       x1="96.391663"
       y1="1985.9053"
       x2="97.766792"
       y2="1968.985" />
    <linearGradient
       inkscape:collect="always"
       xlink:href="#linearGradient3142"
       id="linearGradient3954"
       gradientUnits="userSpaceOnUse"
       x1="99.270721"
       y1="1992.0983"
       x2="100.10624"
       y2="1981.9664" />
    <linearGradient
       inkscape:collect="always"
       xlink:href="#linearGradient3166"
       id="linearGradient3956"
       gradientUnits="userSpaceOnUse"
       x1="96.391663"
       y1="1985.9053"
       x2="97.766792"
       y2="1968.985" />
    <linearGradient
       inkscape:collect="always"
       xlink:href="#linearGradient3142"
       id="linearGradient3958"
       gradientUnits="userSpaceOnUse"
       x1="99.270721"
       y1="1992.0983"
       x2="100.10624"
       y2="1981.9664" />
    <linearGradient
       inkscape:collect="always"
       xlink:href="#linearGradient3166"
       id="linearGradient3960"
       gradientUnits="userSpaceOnUse"
       x1="96.391663"
       y1="1985.9053"
       x2="97.766792"
       y2="1968.985" />
    <linearGradient
       inkscape:collect="always"
       xlink:href="#linearGradient3142"
       id="linearGradient3962"
       gradientUnits="userSpaceOnUse"
       x1="99.270721"
       y1="1992.0983"
       x2="100.10624"
       y2="1981.9664" />
    <linearGradient
       inkscape:collect="always"
       xlink:href="#linearGradient3166"
       id="linearGradient3964"
       gradientUnits="userSpaceOnUse"
       x1="96.391663"
       y1="1985.9053"
       x2="97.766792"
       y2="1968.985" />
    <linearGradient
       inkscape:collect="always"
       xlink:href="#linearGradient3142"
       id="linearGradient3966"
       gradientUnits="userSpaceOnUse"
       x1="99.270721"
       y1="1992.0983"
       x2="100.10624"
       y2="1981.9664" />
    <linearGradient
       inkscape:collect="always"
       xlink:href="#linearGradient3166"
       id="linearGradient3968"
       gradientUnits="userSpaceOnUse"
       x1="96.391663"
       y1="1985.9053"
       x2="97.766792"
       y2="1968.985" />
    <linearGradient
       inkscape:collect="always"
       xlink:href="#linearGradient3142"
       id="linearGradient3970"
       gradientUnits="userSpaceOnUse"
       x1="99.270721"
       y1="1992.0983"
       x2="100.10624"
       y2="1981.9664" />
    <linearGradient
       inkscape:collect="always"
       xlink:href="#linearGradient3166"
       id="linearGradient3972"
       gradientUnits="userSpaceOnUse"
       x1="96.391663"
       y1="1985.9053"
       x2="97.766792"
       y2="1968.985" />
    <linearGradient
       inkscape:collect="always"
       xlink:href="#linearGradient3142"
       id="linearGradient3974"
       gradientUnits="userSpaceOnUse"
       x1="99.270721"
       y1="1992.0983"
       x2="100.10624"
       y2="1981.9664" />
    <linearGradient
       inkscape:collect="always"
       xlink:href="#linearGradient3166"
       id="linearGradient3976"
       gradientUnits="userSpaceOnUse"
       x1="96.391663"
       y1="1985.9053"
       x2="97.766792"
       y2="1968.985" />
    <linearGradient
       inkscape:collect="always"
       xlink:href="#linearGradient3142"
       id="linearGradient3978"
       gradientUnits="userSpaceOnUse"
       x1="99.270721"
       y1="1992.0983"
       x2="100.10624"
       y2="1981.9664" />
    <linearGradient
       inkscape:collect="always"
       xlink:href="#linearGradient3166"
       id="linearGradient3980"
       gradientUnits="userSpaceOnUse"
       x1="96.391663"
       y1="1985.9053"
       x2="97.766792"
       y2="1968.985" />
    <linearGradient
       inkscape:collect="always"
       xlink:href="#linearGradient3142"
       id="linearGradient3983"
       gradientUnits="userSpaceOnUse"
       x1="99.270721"
       y1="1992.0983"
       x2="100.10624"
       y2="1981.9664"
       gradientTransform="matrix(12.982942,0,0,13.70405,-1011.1311,-26809.509)" />
    <linearGradient
       inkscape:collect="always"
       xlink:href="#linearGradient3166"
       id="linearGradient3985"
       gradientUnits="userSpaceOnUse"
       x1="96.391663"
       y1="1985.9053"
       x2="97.766792"
       y2="1968.985"
       gradientTransform="matrix(12.982942,0,0,13.70405,-1011.1311,-26809.509)" />
    <linearGradient
       inkscape:collect="always"
       xlink:href="#linearGradient3142"
       id="linearGradient3988"
       gradientUnits="userSpaceOnUse"
       x1="99.270721"
       y1="1992.0983"
       x2="100.10624"
       y2="1981.9664"
       gradientTransform="matrix(12.982942,0,0,13.70405,-977.38173,-26829.452)" />
    <linearGradient
       inkscape:collect="always"
       xlink:href="#linearGradient3166"
       id="linearGradient3990"
       gradientUnits="userSpaceOnUse"
       x1="96.391663"
       y1="1985.9053"
       x2="97.766792"
       y2="1968.985"
       gradientTransform="matrix(12.982942,0,0,13.70405,-977.38173,-26829.452)" />
    <linearGradient
       inkscape:collect="always"
       xlink:href="#linearGradient3142"
       id="linearGradient3993"
       gradientUnits="userSpaceOnUse"
       x1="99.270721"
       y1="1992.0983"
       x2="100.10624"
       y2="1981.9664"
       gradientTransform="matrix(11.158861,6.6360078,-7.0045897,11.778655,13039.024,-23659.624)" />
    <linearGradient
       inkscape:collect="always"
       xlink:href="#linearGradient3166"
       id="linearGradient3995"
       gradientUnits="userSpaceOnUse"
       x1="96.391663"
       y1="1985.9053"
       x2="97.766792"
       y2="1968.985"
       gradientTransform="matrix(11.158861,6.6360078,-7.0045897,11.778655,13039.024,-23659.624)" />
    <linearGradient
       inkscape:collect="always"
       xlink:href="#linearGradient3142"
       id="linearGradient3998"
       gradientUnits="userSpaceOnUse"
       x1="99.270721"
       y1="1992.0983"
       x2="100.10624"
       y2="1981.9664"
       gradientTransform="matrix(12.982942,0,0,13.70405,-1011.1311,-26809.509)" />
    <linearGradient
       inkscape:collect="always"
       xlink:href="#linearGradient3166"
       id="linearGradient4000"
       gradientUnits="userSpaceOnUse"
       x1="96.391663"
       y1="1985.9053"
       x2="97.766792"
       y2="1968.985"
       gradientTransform="matrix(12.982942,0,0,13.70405,-1011.1311,-26809.509)" />
    <linearGradient
       inkscape:collect="always"
       xlink:href="#linearGradient3142"
       id="linearGradient4003"
       gradientUnits="userSpaceOnUse"
       x1="99.270721"
       y1="1992.0983"
       x2="100.10624"
       y2="1981.9664"
       gradientTransform="matrix(12.982942,0,0,13.70405,-1011.1311,-26809.509)" />
    <linearGradient
       inkscape:collect="always"
       xlink:href="#linearGradient3166"
       id="linearGradient4005"
       gradientUnits="userSpaceOnUse"
       x1="96.391663"
       y1="1985.9053"
       x2="97.766792"
       y2="1968.985"
       gradientTransform="matrix(12.982942,0,0,13.70405,-1011.1311,-26809.509)" />
    <linearGradient
       inkscape:collect="always"
       xlink:href="#linearGradient3142"
       id="linearGradient4008"
       gradientUnits="userSpaceOnUse"
       x1="99.270721"
       y1="1992.0983"
       x2="100.10624"
       y2="1981.9664"
       gradientTransform="matrix(12.982942,0,0,13.70405,-1011.1311,-26809.509)" />
    <linearGradient
       inkscape:collect="always"
       xlink:href="#linearGradient3166"
       id="linearGradient4010"
       gradientUnits="userSpaceOnUse"
       x1="96.391663"
       y1="1985.9053"
       x2="97.766792"
       y2="1968.985"
       gradientTransform="matrix(12.982942,0,0,13.70405,-1011.1311,-26809.509)" />
    <linearGradient
       inkscape:collect="always"
       xlink:href="#linearGradient3142"
       id="linearGradient4013"
       gradientUnits="userSpaceOnUse"
       x1="99.270721"
       y1="1992.0983"
       x2="100.10624"
       y2="1981.9664"
       gradientTransform="matrix(12.982942,0,0,13.70405,-1011.1311,-26809.509)" />
    <linearGradient
       inkscape:collect="always"
       xlink:href="#linearGradient3166"
       id="linearGradient4015"
       gradientUnits="userSpaceOnUse"
       x1="96.391663"
       y1="1985.9053"
       x2="97.766792"
       y2="1968.985"
       gradientTransform="matrix(12.982942,0,0,13.70405,-1011.1311,-26809.509)" />
    <linearGradient
       inkscape:collect="always"
       xlink:href="#linearGradient3142"
       id="linearGradient4018"
       gradientUnits="userSpaceOnUse"
       x1="99.270721"
       y1="1992.0983"
       x2="100.10624"
       y2="1981.9664"
       gradientTransform="matrix(12.982942,0,0,13.70405,-1011.1311,-26809.509)" />
    <linearGradient
       inkscape:collect="always"
       xlink:href="#linearGradient3166"
       id="linearGradient4020"
       gradientUnits="userSpaceOnUse"
       x1="96.391663"
       y1="1985.9053"
       x2="97.766792"
       y2="1968.985"
       gradientTransform="matrix(12.982942,0,0,13.70405,-1011.1311,-26809.509)" />
    <linearGradient
       inkscape:collect="always"
       xlink:href="#linearGradient3142"
       id="linearGradient4023"
       gradientUnits="userSpaceOnUse"
       x1="99.270721"
       y1="1992.0983"
       x2="100.10624"
       y2="1981.9664"
       gradientTransform="matrix(12.339767,0,0,12.732159,-63.184186,-24854.436)" />
    <linearGradient
       inkscape:collect="always"
       xlink:href="#linearGradient3166"
       id="linearGradient4025"
       gradientUnits="userSpaceOnUse"
       x1="96.391663"
       y1="1985.9053"
       x2="97.766792"
       y2="1968.985"
       gradientTransform="matrix(12.339767,0,0,12.732159,-63.184186,-24854.436)" />
    <linearGradient
       inkscape:collect="always"
       xlink:href="#linearGradient3142"
       id="linearGradient4028"
       gradientUnits="userSpaceOnUse"
       x1="99.270721"
       y1="1992.0983"
       x2="100.10624"
       y2="1981.9664"
       gradientTransform="matrix(14.741741,0,0,15.210536,-128.03281,-29776.805)" />
    <linearGradient
       inkscape:collect="always"
       xlink:href="#linearGradient3166"
       id="linearGradient4030"
       gradientUnits="userSpaceOnUse"
       x1="96.391663"
       y1="1985.9053"
       x2="97.766792"
       y2="1968.985"
       gradientTransform="matrix(14.741741,0,0,15.210536,-128.03281,-29776.805)" />
    <filter
       inkscape:collect="always"
       id="filter4096"
       x="-0.18918383"
       width="1.3783677"
       y="-0.26397691"
       height="1.5279538">
      <feGaussianBlur
         inkscape:collect="always"
         stdDeviation="21.626469"
         id="feGaussianBlur4098" />
    </filter>
    <linearGradient
       inkscape:collect="always"
       xlink:href="#linearGradient3166"
       id="linearGradient4124"
       x1="266.92682"
       y1="444.50125"
       x2="260.79056"
       y2="-3.4448891"
       gradientUnits="userSpaceOnUse" />
    <linearGradient
       inkscape:collect="always"
       xlink:href="#linearGradient3166"
       id="linearGradient4136"
       x1="269.99493"
       y1="459.84189"
       x2="256.18839"
       y2="-37.194256"
       gradientUnits="userSpaceOnUse" />
    <linearGradient
       inkscape:collect="always"
       xlink:href="#linearGradient3142"
       id="linearGradient4138"
       gradientUnits="userSpaceOnUse"
       gradientTransform="matrix(12.982942,0,0,13.70405,-1011.1311,-26809.509)"
       x1="99.270721"
       y1="1992.0983"
       x2="100.10624"
       y2="1981.9664" />
    <linearGradient
       inkscape:collect="always"
       xlink:href="#linearGradient3166"
       id="linearGradient4140"
       gradientUnits="userSpaceOnUse"
       x1="269.99493"
       y1="459.84189"
       x2="256.18839"
       y2="-37.194256" />
    <linearGradient
       inkscape:collect="always"
       xlink:href="#linearGradient3142"
       id="linearGradient4142"
       gradientUnits="userSpaceOnUse"
       gradientTransform="matrix(12.339767,0,0,12.732159,-63.184186,-24854.436)"
       x1="99.270721"
       y1="1992.0983"
       x2="100.10624"
       y2="1981.9664" />
    <linearGradient
       inkscape:collect="always"
       xlink:href="#linearGradient3166"
       id="linearGradient4144"
       gradientUnits="userSpaceOnUse"
       x1="269.99493"
       y1="459.84189"
       x2="256.18839"
       y2="-37.194256" />
    <linearGradient
       inkscape:collect="always"
       xlink:href="#linearGradient3142"
       id="linearGradient4146"
       gradientUnits="userSpaceOnUse"
       gradientTransform="matrix(12.982942,0,0,13.70405,-1011.1311,-26809.509)"
       x1="99.270721"
       y1="1992.0983"
       x2="100.10624"
       y2="1981.9664" />
    <linearGradient
       inkscape:collect="always"
       xlink:href="#linearGradient3166"
       id="linearGradient4148"
       gradientUnits="userSpaceOnUse"
       x1="269.99493"
       y1="459.84189"
       x2="256.18839"
       y2="-37.194256" />
    <linearGradient
       inkscape:collect="always"
       xlink:href="#linearGradient3142"
       id="linearGradient4150"
       gradientUnits="userSpaceOnUse"
       gradientTransform="matrix(12.982942,0,0,13.70405,-1011.1311,-26809.509)"
       x1="99.270721"
       y1="1992.0983"
       x2="100.10624"
       y2="1981.9664" />
    <linearGradient
       inkscape:collect="always"
       xlink:href="#linearGradient3166"
       id="linearGradient4152"
       gradientUnits="userSpaceOnUse"
       x1="269.99493"
       y1="459.84189"
       x2="256.18839"
       y2="-37.194256" />
    <linearGradient
       inkscape:collect="always"
       xlink:href="#linearGradient3142"
       id="linearGradient4154"
       gradientUnits="userSpaceOnUse"
       gradientTransform="matrix(12.982942,0,0,13.70405,-1011.1311,-26809.509)"
       x1="99.270721"
       y1="1992.0983"
       x2="100.10624"
       y2="1981.9664" />
    <linearGradient
       inkscape:collect="always"
       xlink:href="#linearGradient3166"
       id="linearGradient4156"
       gradientUnits="userSpaceOnUse"
       x1="269.99493"
       y1="459.84189"
       x2="256.18839"
       y2="-37.194256" />
    <linearGradient
       inkscape:collect="always"
       xlink:href="#linearGradient3142"
       id="linearGradient4158"
       gradientUnits="userSpaceOnUse"
       gradientTransform="matrix(11.158861,6.6360078,-7.0045897,11.778655,13039.024,-23659.624)"
       x1="99.270721"
       y1="1992.0983"
       x2="100.10624"
       y2="1981.9664" />
    <linearGradient
       inkscape:collect="always"
       xlink:href="#linearGradient3166"
       id="linearGradient4160"
       gradientUnits="userSpaceOnUse"
       x1="269.99493"
       y1="459.84189"
       x2="256.18839"
       y2="-37.194256" />
    <linearGradient
       inkscape:collect="always"
       xlink:href="#linearGradient3142"
       id="linearGradient4162"
       gradientUnits="userSpaceOnUse"
       gradientTransform="matrix(12.982942,0,0,13.70405,-977.38173,-26829.452)"
       x1="99.270721"
       y1="1992.0983"
       x2="100.10624"
       y2="1981.9664" />
    <linearGradient
       inkscape:collect="always"
       xlink:href="#linearGradient3166"
       id="linearGradient4164"
       gradientUnits="userSpaceOnUse"
       x1="269.99493"
       y1="459.84189"
       x2="256.18839"
       y2="-37.194256" />
    <linearGradient
       inkscape:collect="always"
       xlink:href="#linearGradient3166"
       id="linearGradient4166"
       gradientUnits="userSpaceOnUse"
       x1="269.99493"
       y1="459.84189"
       x2="256.18839"
       y2="-37.194256" />
    <linearGradient
       inkscape:collect="always"
       xlink:href="#linearGradient3142"
       id="linearGradient4176"
       gradientUnits="userSpaceOnUse"
       gradientTransform="matrix(12.982942,0,0,13.70405,-1011.1311,-26809.509)"
       x1="99.270721"
       y1="1992.0983"
       x2="100.10624"
       y2="1981.9664" />
    <linearGradient
       inkscape:collect="always"
       xlink:href="#linearGradient3166"
       id="linearGradient4178"
       gradientUnits="userSpaceOnUse"
       x1="269.99493"
       y1="459.84189"
       x2="256.18839"
       y2="-37.194256" />
    <linearGradient
       inkscape:collect="always"
       xlink:href="#linearGradient3142"
       id="linearGradient4180"
       gradientUnits="userSpaceOnUse"
       gradientTransform="matrix(12.339767,0,0,12.732159,-63.184186,-24854.436)"
       x1="99.270721"
       y1="1992.0983"
       x2="100.10624"
       y2="1981.9664" />
    <linearGradient
       inkscape:collect="always"
       xlink:href="#linearGradient3166"
       id="linearGradient4182"
       gradientUnits="userSpaceOnUse"
       x1="269.99493"
       y1="459.84189"
       x2="256.18839"
       y2="-37.194256" />
    <linearGradient
       inkscape:collect="always"
       xlink:href="#linearGradient3142"
       id="linearGradient4184"
       gradientUnits="userSpaceOnUse"
       gradientTransform="matrix(12.982942,0,0,13.70405,-1011.1311,-26809.509)"
       x1="99.270721"
       y1="1992.0983"
       x2="100.10624"
       y2="1981.9664" />
    <linearGradient
       inkscape:collect="always"
       xlink:href="#linearGradient3166"
       id="linearGradient4186"
       gradientUnits="userSpaceOnUse"
       x1="269.99493"
       y1="459.84189"
       x2="256.18839"
       y2="-37.194256" />
    <linearGradient
       inkscape:collect="always"
       xlink:href="#linearGradient3142"
       id="linearGradient4188"
       gradientUnits="userSpaceOnUse"
       gradientTransform="matrix(12.982942,0,0,13.70405,-1011.1311,-26809.509)"
       x1="99.270721"
       y1="1992.0983"
       x2="100.10624"
       y2="1981.9664" />
    <linearGradient
       inkscape:collect="always"
       xlink:href="#linearGradient3166"
       id="linearGradient4190"
       gradientUnits="userSpaceOnUse"
       x1="269.99493"
       y1="459.84189"
       x2="256.18839"
       y2="-37.194256" />
    <linearGradient
       inkscape:collect="always"
       xlink:href="#linearGradient3142"
       id="linearGradient4192"
       gradientUnits="userSpaceOnUse"
       gradientTransform="matrix(12.982942,0,0,13.70405,-1011.1311,-26809.509)"
       x1="99.270721"
       y1="1992.0983"
       x2="100.10624"
       y2="1981.9664" />
    <linearGradient
       inkscape:collect="always"
       xlink:href="#linearGradient3166"
       id="linearGradient4194"
       gradientUnits="userSpaceOnUse"
       x1="269.99493"
       y1="459.84189"
       x2="256.18839"
       y2="-37.194256" />
    <linearGradient
       inkscape:collect="always"
       xlink:href="#linearGradient3142"
       id="linearGradient4196"
       gradientUnits="userSpaceOnUse"
       gradientTransform="matrix(11.158861,6.6360078,-7.0045897,11.778655,13039.024,-23659.624)"
       x1="99.270721"
       y1="1992.0983"
       x2="100.10624"
       y2="1981.9664" />
    <linearGradient
       inkscape:collect="always"
       xlink:href="#linearGradient3166"
       id="linearGradient4198"
       gradientUnits="userSpaceOnUse"
       x1="269.99493"
       y1="459.84189"
       x2="256.18839"
       y2="-37.194256" />
    <linearGradient
       inkscape:collect="always"
       xlink:href="#linearGradient3142"
       id="linearGradient4200"
       gradientUnits="userSpaceOnUse"
       gradientTransform="matrix(12.982942,0,0,13.70405,-977.38173,-26829.452)"
       x1="99.270721"
       y1="1992.0983"
       x2="100.10624"
       y2="1981.9664" />
    <linearGradient
       inkscape:collect="always"
       xlink:href="#linearGradient3166"
       id="linearGradient4202"
       gradientUnits="userSpaceOnUse"
       x1="269.99493"
       y1="459.84189"
       x2="256.18839"
       y2="-37.194256" />
    <linearGradient
       inkscape:collect="always"
       xlink:href="#linearGradient3166"
       id="linearGradient4204"
       gradientUnits="userSpaceOnUse"
       x1="269.99493"
       y1="459.84189"
       x2="256.18839"
       y2="-37.194256" />
    <linearGradient
       inkscape:collect="always"
       xlink:href="#linearGradient3142"
       id="linearGradient4207"
       gradientUnits="userSpaceOnUse"
       gradientTransform="matrix(12.982942,0,0,13.70405,-977.38173,-26829.452)"
       x1="99.270721"
       y1="1992.0983"
       x2="100.10624"
       y2="1981.9664" />
    <linearGradient
       inkscape:collect="always"
       xlink:href="#linearGradient3166"
       id="linearGradient4209"
       gradientUnits="userSpaceOnUse"
       x1="269.99493"
       y1="459.84189"
       x2="256.18839"
       y2="-37.194256" />
    <linearGradient
       inkscape:collect="always"
       xlink:href="#linearGradient3142"
       id="linearGradient4212"
       gradientUnits="userSpaceOnUse"
       gradientTransform="matrix(11.158861,6.6360078,-7.0045897,11.778655,13039.024,-23659.624)"
       x1="99.270721"
       y1="1992.0983"
       x2="100.10624"
       y2="1981.9664" />
    <linearGradient
       inkscape:collect="always"
       xlink:href="#linearGradient3166"
       id="linearGradient4214"
       gradientUnits="userSpaceOnUse"
       x1="269.99493"
       y1="459.84189"
       x2="256.18839"
       y2="-37.194256" />
    <linearGradient
       inkscape:collect="always"
       xlink:href="#linearGradient3142"
       id="linearGradient4217"
       gradientUnits="userSpaceOnUse"
       gradientTransform="matrix(12.982942,0,0,13.70405,-1011.1311,-26809.509)"
       x1="99.270721"
       y1="1992.0983"
       x2="100.10624"
       y2="1981.9664" />
    <linearGradient
       inkscape:collect="always"
       xlink:href="#linearGradient3166"
       id="linearGradient4219"
       gradientUnits="userSpaceOnUse"
       x1="269.99493"
       y1="459.84189"
       x2="256.18839"
       y2="-37.194256" />
    <linearGradient
       inkscape:collect="always"
       xlink:href="#linearGradient3142"
       id="linearGradient4222"
       gradientUnits="userSpaceOnUse"
       gradientTransform="matrix(12.982942,0,0,13.70405,-1011.1311,-26809.509)"
       x1="99.270721"
       y1="1992.0983"
       x2="100.10624"
       y2="1981.9664" />
    <linearGradient
       inkscape:collect="always"
       xlink:href="#linearGradient3166"
       id="linearGradient4224"
       gradientUnits="userSpaceOnUse"
       x1="269.99493"
       y1="459.84189"
       x2="256.18839"
       y2="-37.194256" />
    <linearGradient
       inkscape:collect="always"
       xlink:href="#linearGradient3142"
       id="linearGradient4227"
       gradientUnits="userSpaceOnUse"
       gradientTransform="matrix(12.982942,0,0,13.70405,-1011.1311,-26809.509)"
       x1="99.270721"
       y1="1992.0983"
       x2="100.10624"
       y2="1981.9664" />
    <linearGradient
       inkscape:collect="always"
       xlink:href="#linearGradient3166"
       id="linearGradient4229"
       gradientUnits="userSpaceOnUse"
       x1="269.99493"
       y1="459.84189"
       x2="256.18839"
       y2="-37.194256" />
    <linearGradient
       inkscape:collect="always"
       xlink:href="#linearGradient3142"
       id="linearGradient4300"
       gradientUnits="userSpaceOnUse"
       gradientTransform="matrix(12.339767,0,0,12.732159,-63.184186,-24854.436)"
       x1="99.270721"
       y1="1992.0983"
       x2="100.10624"
       y2="1981.9664" />
    <linearGradient
       inkscape:collect="always"
       xlink:href="#linearGradient3166"
       id="linearGradient4302"
       gradientUnits="userSpaceOnUse"
       x1="269.99493"
       y1="459.84189"
       x2="256.18839"
       y2="-37.194256" />
    <filter
       inkscape:collect="always"
       id="filter4332">
      <feGaussianBlur
         inkscape:collect="always"
         stdDeviation="4.306024"
         id="feGaussianBlur4334" />
    </filter>
    <linearGradient
       inkscape:collect="always"
       xlink:href="#linearGradient3142-2"
       id="linearGradient4217-8"
       gradientUnits="userSpaceOnUse"
       gradientTransform="matrix(12.982942,0,0,13.70405,-1011.1311,-26809.509)"
       x1="99.270721"
       y1="1992.0983"
       x2="100.10624"
       y2="1981.9664" />
    <linearGradient
       id="linearGradient3142-2">
      <stop
         style="stop-color:#ff00ff;stop-opacity:1;"
         offset="0"
         id="stop3144-7" />
      <stop
         style="stop-color:#00ff00;stop-opacity:0;"
         offset="1"
         id="stop3146-8" />
    </linearGradient>
    <linearGradient
       inkscape:collect="always"
       xlink:href="#linearGradient3166-2"
       id="linearGradient4219-0"
       gradientUnits="userSpaceOnUse"
       x1="269.99493"
       y1="459.84189"
       x2="256.18839"
       y2="-37.194256" />
    <linearGradient
       id="linearGradient3166-2">
      <stop
         style="stop-color:#ff00ff;stop-opacity:1;"
         offset="0"
         id="stop3168-0" />
      <stop
         style="stop-color:#06ff00;stop-opacity:0;"
         offset="1"
         id="stop3170-8" />
    </linearGradient>
    <linearGradient
       y2="1981.9664"
       x2="100.10624"
       y1="1992.0983"
       x1="99.270721"
       gradientTransform="matrix(12.982942,0,0,13.70405,-917.49037,-26739.515)"
       gradientUnits="userSpaceOnUse"
       id="linearGradient4355"
       xlink:href="#linearGradient3142-2"
       inkscape:collect="always" />
    <linearGradient
       gradientTransform="translate(93.640725,69.994001)"
       y2="-37.194256"
       x2="256.18839"
       y1="459.84189"
       x1="269.99493"
       gradientUnits="userSpaceOnUse"
       id="linearGradient4357"
       xlink:href="#linearGradient3166-2"
       inkscape:collect="always" />
    <linearGradient
       inkscape:collect="always"
       xlink:href="#linearGradient3142-2"
       id="linearGradient4387"
       gradientUnits="userSpaceOnUse"
       gradientTransform="matrix(12.982942,0,0,13.70405,-917.49037,-26739.515)"
       x1="99.270721"
       y1="1992.0983"
       x2="100.10624"
       y2="1981.9664" />
    <linearGradient
       inkscape:collect="always"
       xlink:href="#linearGradient3166-2"
       id="linearGradient4389"
       gradientUnits="userSpaceOnUse"
       gradientTransform="translate(93.640725,69.994001)"
       x1="269.99493"
       y1="459.84189"
       x2="256.18839"
       y2="-37.194256" />
  </defs>
  <sodipodi:namedview
     pagecolor="#ffffff"
     bordercolor="#666666"
     borderopacity="1"
     objecttolerance="10"
     gridtolerance="10"
     guidetolerance="10"
     inkscape:pageopacity="0"
     inkscape:pageshadow="2"
     inkscape:window-width="1280"
     inkscape:window-height="1002"
     id="namedview28"
     showgrid="false"
     inkscape:zoom="0.65186406"
     inkscape:cx="192.53321"
     inkscape:cy="185.95482"
     inkscape:window-x="-8"
     inkscape:window-y="-8"
     inkscape:window-maximized="1"
     inkscape:current-layer="svg2" />
  <path
     d="m0,0h512v512h-512z"
     id="path4" />
  <path
     style="fill:url(#linearGradient4028);fill-opacity:1;stroke:url(#linearGradient4030);stroke-width:1.97400000000000000;opacity:1;stroke-miterlimit:4;stroke-dasharray:none;filter:url(#filter4332)"
     inkscape:connector-curvature="0"
     id="path8"
     d="m 433.8398,384.69312 c 0,64.86381 -73.37112,117.44663 -163.87951,117.44663 -90.50839,0 -163.87951,-52.58282 -163.87951,-117.44663 0,-64.86381 73.37112,-117.44815 163.87951,-117.44815 90.50839,0 163.87951,52.58282 163.87951,117.44815 z" />
  <path
     style="fill:url(#linearGradient4018);fill-opacity:1;stroke:url(#linearGradient4020);stroke-width:13.338624"
     inkscape:connector-curvature="0"
     id="path12"
     d="m 152.60811,309.13143 c 2.21765,-5.2632 -31.02056,29.49486 -29.16492,24.4561 8.93191,-24.25349 21.14173,-69.46068 19.37556,-94.82514 13.3179,18.30998 25.04669,37.20101 21.85289,60.81035"
     sodipodi:nodetypes="cscc" />
  <path
     style="fill:url(#linearGradient4176);fill-opacity:1;stroke:url(#linearGradient4178);stroke-width:13.338624"
     inkscape:connector-curvature="0"
     id="path16"
     d="m 309.65215,162.15675 c 3.54045,38.87565 -53.27161,52.751 2.65112,96.05854 -14.59023,-49.75667 27.75753,-59.35087 -2.65112,-96.05854 z" />
  <path
     style="fill:url(#linearGradient4300);fill-opacity:1;stroke:url(#linearGradient4302);stroke-width:12.53442764;filter:url(#filter4096)"
     inkscape:connector-curvature="0"
     id="path10"
     d="m 407.13863,392.60261 c 0,54.29502 -61.41625,98.3101 -137.17749,98.3101 -75.76123,0 -137.17749,-44.01508 -137.17749,-98.3101 0,-54.29502 61.41626,-98.31136 137.17749,-98.31136 75.76124,0 137.17749,44.01507 137.17749,98.31136 z"
     transform="matrix(0.93215883,0,0,1.0014117,5.2749508,-0.55422051)" />
  <path
     style="fill:url(#linearGradient4227);fill-opacity:1;stroke:url(#linearGradient4229);stroke-width:13.338624"
     inkscape:connector-curvature="0"
     id="path14"
     d="m 269.72831,207.68846 c -15.30949,7.52626 -17.19201,23.60111 -11.36008,41.97002 13.34777,42.04539 -39.39933,-7.43034 -37.32596,-41.11215 l -15.82361,71.08839 55.53152,-17.35715 70.21347,13.14041 c -38.91247,-3.64528 -74.63114,-41.47531 -61.23664,-67.72952 z"
     sodipodi:nodetypes="cccccccc" />
  <path
     style="fill:url(#linearGradient4222);fill-opacity:1;stroke:url(#linearGradient4224);stroke-width:13.338624"
     inkscape:connector-curvature="0"
     id="path18"
     d="m 203.45006,279.53754 c 8.96082,-11.51137 -48.65744,39.11182 -43.89777,25.36747 6.77748,-19.57108 30.86984,-83.5444 29.59998,-111.12754 18.97068,16.46816 21.01679,54.2886 19.74706,81.89541"
     sodipodi:nodetypes="cscc" />
  <path
     style="fill:url(#linearGradient4217);fill-opacity:1;stroke:url(#linearGradient4219);stroke-width:13.338624"
     inkscape:connector-curvature="0"
     id="path20"
     d="m 344.78659,195.559 c -18.97068,16.46816 -23.81098,46.51825 -22.54254,74.12642 l 51.85318,26.32663 c -5.55151,-26.09662 37.26019,43.64008 42.92855,35.94114 8.38957,-11.39491 21.917,-41.14556 12.14993,-58.02347 -5.2503,35.24408 -27.16031,22.08271 -43.81743,-39.39914 -19.42507,69.64946 -50.20373,-3.2136 -40.57169,-38.97158 z"
     sodipodi:nodetypes="cccsccc" />
  <path
     style="fill:url(#linearGradient4212);fill-opacity:1;stroke:url(#linearGradient4214);stroke-width:13.338624"
     inkscape:connector-curvature="0"
     id="path22"
     d="m 106.10232,334.23027 c 8.24013,13.11632 17.41771,10.88421 26.5628,9.13343 -2.16243,9.71711 -7.92676,18.36368 -13.80985,26.9763 11.5072,8.21436 23.52767,14.2626 36.28531,-3.90845 0.9093,26.22842 -27.38308,24.11825 -18.15811,43.50593 5.2294,10.99584 31.52149,-3.97509 44.32935,-21.52953 -9.52957,21.36626 -29.40642,38.46056 -11.36161,64.1121 l -63.23486,-63.60499 z" />
  <path
     style="fill:url(#linearGradient4207);fill-opacity:1;stroke:url(#linearGradient4209);stroke-width:13.338624"
     inkscape:connector-curvature="0"
     id="path24"
     d="m 432.16979,411.88498 c -14.88494,19.28296 -23.03823,-7.82639 -24.30277,-24.49462 -11.19779,15.09912 -0.39598,43.20476 -12.08841,55.04094 -1.47746,-7.51119 -8.31947,-16.83816 -17.61656,-22.55001 1.6021,17.80841 -3.63133,34.68495 -26.01781,46.33613 l 43.37081,-12.29938 z" />
  <g
     transform="translate(-2.0264934,-14.785648)"
     id="g3027"
     style="fill-opacity:1;fill:url(#linearGradient3138)">
    <path
       d="m 214.42268,77.106748 c 0,14.336481 -11.62246,25.960382 -25.96038,25.960382 -14.33792,0 -25.96038,-11.623901 -25.96038,-25.960382 0,-14.336482 11.62246,-25.96182 25.96038,-25.96182 14.33792,0 25.96038,11.623903 25.96038,25.96182 z"
       id="path8-8"
       inkscape:connector-curvature="0"
       style="fill:url(#linearGradient3138);fill-opacity:1" />
    <path
       d="m 117.11803,213.82068 c 0,9.55766 -7.74831,17.30693 -17.306923,17.30693 -9.558611,0 -17.306923,-7.74927 -17.306923,-17.30693 0,-9.55765 7.748312,-17.30787 17.306923,-17.30787 9.558613,0 17.306923,7.74926 17.306923,17.30787 z"
       id="path12-8"
       inkscape:connector-curvature="0"
       style="fill:url(#linearGradient3138);fill-opacity:1" />
    <path
       d="m 256.63933,41.378685 c 0,9.557654 -7.74831,17.306922 -17.30692,17.306922 -9.55861,0 -17.30693,-7.749268 -17.30693,-17.306922 0,-9.557654 7.74832,-17.30788 17.30693,-17.30788 9.55861,0 17.30692,7.749269 17.30692,17.30788 z"
       id="path18-2"
       inkscape:connector-curvature="0"
       style="fill:url(#linearGradient3138);fill-opacity:1" />
    <path
       d="m 71.806829,108.09468 c 0,9.55766 -7.748311,17.30693 -17.306922,17.30693 -9.558611,0 -17.306923,-7.74927 -17.306923,-17.30693 0,-9.557649 7.748312,-17.307875 17.306923,-17.307875 9.558611,0 17.306922,7.749269 17.306922,17.307875 z"
       id="path22-4"
       inkscape:connector-curvature="0"
       style="fill:url(#linearGradient3138);fill-opacity:1" />
    <path
       d="m 133.89893,150.09822 c 0,14.28402 -11.57995,25.86539 -25.8654,25.86539 -14.285454,0 -25.865395,-11.58137 -25.865395,-25.86539 0,-14.28402 11.579941,-25.86683 25.865395,-25.86683 14.28545,0 25.8654,11.58138 25.8654,25.86683 z"
       id="path24-5"
       inkscape:connector-curvature="0"
       style="fill:url(#linearGradient3138);fill-opacity:1" />
    <path
       d="m 58.404142,54.571764 c 0,10.391742 -8.424499,18.817281 -18.817281,18.817281 -10.392781,0 -18.817281,-8.425539 -18.817281,-18.817281 0,-10.391741 8.4245,-18.818321 18.817281,-18.818321 10.392782,0 18.817281,8.425539 18.817281,18.818321 z"
       id="path26-5"
       inkscape:connector-curvature="0"
       style="fill:url(#linearGradient3138);fill-opacity:1" />
    <path
       d="m 142.00219,116.81836 c 0,11.52358 -9.34208,20.86681 -20.86681,20.86681 -11.52474,0 -20.86682,-9.34323 -20.86682,-20.86681 0,-11.52359 9.34208,-20.86797 20.86682,-20.86797 11.52473,0 20.86681,9.34323 20.86681,20.86797 z"
       id="path30"
       inkscape:connector-curvature="0"
       style="fill:url(#linearGradient3138);fill-opacity:1" />
  </g>
  <g
     id="g3123"
     style="fill-opacity:1;fill:url(#linearGradient3140)">
    <path
       d="m 477.07416,55.812625 c 0,14.336481 -11.62246,25.960382 -25.96038,25.960382 -14.33792,0 -25.96038,-11.623901 -25.96038,-25.960382 0,-14.336482 11.62246,-25.96182 25.96038,-25.96182 14.33792,0 25.96038,11.623903 25.96038,25.96182 z"
       id="path8-7"
       inkscape:connector-curvature="0"
       style="fill:url(#linearGradient3140);fill-opacity:1" />
    <path
       d="m 440.51527,186.01809 c 0,9.55766 -7.74831,17.30693 -17.30692,17.30693 -9.55861,0 -17.30693,-7.74927 -17.30693,-17.30693 0,-9.55765 7.74832,-17.30787 17.30693,-17.30787 9.55861,0 17.30692,7.74926 17.30692,17.30787 z"
       id="path12-1"
       inkscape:connector-curvature="0"
       style="fill:url(#linearGradient3140);fill-opacity:1" />
    <path
       d="m 519.29081,20.084562 c 0,9.557654 -7.74831,17.306922 -17.30692,17.306922 -9.55861,0 -17.30693,-7.749268 -17.30693,-17.306922 0,-9.557654 7.74832,-17.30788 17.30693,-17.30788 9.55861,0 17.30692,7.749269 17.30692,17.30788 z"
       id="path18-1"
       inkscape:connector-curvature="0"
       style="fill:url(#linearGradient3140);fill-opacity:1" />
    <path
       d="m 334.45831,86.800557 c 0,9.55766 -7.74831,17.306933 -17.30692,17.306933 -9.55861,0 -17.30693,-7.749273 -17.30693,-17.306933 0,-9.557649 7.74832,-17.307875 17.30693,-17.307875 9.55861,0 17.30692,7.749269 17.30692,17.307875 z"
       id="path22-5"
       inkscape:connector-curvature="0"
       style="fill:url(#linearGradient3140);fill-opacity:1" />
    <path
       d="m 492.00804,126.63461 c 0,14.28402 -11.57995,25.86539 -25.8654,25.86539 -14.28545,0 -25.8654,-11.58137 -25.8654,-25.86539 0,-14.28402 11.57995,-25.86683 25.8654,-25.86683 14.28545,0 25.8654,11.58138 25.8654,25.86683 z"
       id="path24-2"
       inkscape:connector-curvature="0"
       style="fill:url(#linearGradient3140);fill-opacity:1" />
    <path
       d="m 321.05562,33.277641 c 0,10.391742 -8.4245,18.817281 -18.81728,18.817281 -10.39278,0 -18.81728,-8.425539 -18.81728,-18.817281 0,-10.391741 8.4245,-18.818321 18.81728,-18.818321 10.39278,0 18.81728,8.425539 18.81728,18.818321 z"
       id="path26-7"
       inkscape:connector-curvature="0"
       style="fill:url(#linearGradient3140);fill-opacity:1" />
    <path
       d="m 404.65367,95.524237 c 0,11.523583 -9.34208,20.866813 -20.86681,20.866813 -11.52474,0 -20.86682,-9.34323 -20.86682,-20.866813 0,-11.52359 9.34208,-20.86797 20.86682,-20.86797 11.52473,0 20.86681,9.34323 20.86681,20.86797 z"
       id="path30-6"
       inkscape:connector-curvature="0"
       style="fill:url(#linearGradient3140);fill-opacity:1" />
  </g>
  <path
     style="fill:url(#linearGradient4387);fill-opacity:1;stroke:url(#linearGradient4389);stroke-width:13.338624"
     d="m 438.42732,265.553 c -16.08981,14.20128 -21.30228,36.53761 -22.49213,57.13473 0.0583,6.27352 -1.10176,12.87439 0.61549,18.96566 3.25586,9.65161 6.51173,19.30323 9.7676,28.95485 0.004,-2.72933 4.84709,-8.80472 4.57462,-2.54053 -0.87335,12.84493 -8.1345,25.8984 -5.7856,38.57242 1.56857,8.1173 15.68865,-6.02711 19.24017,-7.40315 21.66448,-24.82004 31.62651,-63.6067 25.44717,-110.05302 -3.17577,10.45372 -6.13766,21.61651 -13.58299,29.93249 -4.52021,5.79446 -10.72693,1.51096 -12.66026,-4.27207 -6.26532,-13.37259 -8.53102,-28.81685 -6.42979,-43.25392 0.34066,-2.03134 0.77009,-4.04839 1.30572,-6.03746 z"
     id="path20-9"
     inkscape:connector-curvature="0"
     sodipodi:nodetypes="cccccccccccc" />
</svg>
