<?xml version="1.0" encoding="UTF-8" standalone="no"?>
<svg
   xmlns:dc="http://purl.org/dc/elements/1.1/"
   xmlns:cc="http://creativecommons.org/ns#"
   xmlns:rdf="http://www.w3.org/1999/02/22-rdf-syntax-ns#"
   xmlns:svg="http://www.w3.org/2000/svg"
   xmlns="http://www.w3.org/2000/svg"
   xmlns:xlink="http://www.w3.org/1999/xlink"
   xmlns:sodipodi="http://sodipodi.sourceforge.net/DTD/sodipodi-0.dtd"
   xmlns:inkscape="http://www.inkscape.org/namespaces/inkscape"
   viewBox="0 0 512 512"
   id="svg2"
   version="1.1"
   inkscape:version="0.48.4 r9939"
   width="100%"
   height="100%"
   sodipodi:docname="fireball.svg">
  <metadata
     id="metadata72">
    <rdf:RDF>
      <cc:Work
         rdf:about="">
        <dc:format>image/svg+xml</dc:format>
        <dc:type
           rdf:resource="http://purl.org/dc/dcmitype/StillImage" />
      </cc:Work>
    </rdf:RDF>
  </metadata>
  <defs
     id="defs70">
    <linearGradient
       id="linearGradient3835">
      <stop
         style="stop-color:#ff1f0f;stop-opacity:1;"
         offset="0"
         id="stop3837" />
      <stop
         style="stop-color:#ff0000;stop-opacity:0.01438849;"
         offset="1"
         id="stop3839" />
    </linearGradient>
    <linearGradient
       id="linearGradient3057">
      <stop
         style="stop-color:#ff7000;stop-opacity:1;"
         offset="0"
         id="stop3059" />
      <stop
         style="stop-color:#ff7900;stop-opacity:0;"
         offset="1"
         id="stop3061" />
    </linearGradient>
    <radialGradient
       inkscape:collect="always"
       xlink:href="#linearGradient3057"
       id="radialGradient3065"
       cx="144.09181"
       cy="1684.0684"
       fx="144.09181"
       fy="1684.0684"
       r="13.551892"
       gradientTransform="matrix(0,-1.1600012,1.3027696,3.9589943e-6,-2053.9642,1862.0425)"
       gradientUnits="userSpaceOnUse" />
    <radialGradient
       inkscape:collect="always"
       xlink:href="#linearGradient3835"
       id="radialGradient3841"
       cx="139.11873"
       cy="1682.1786"
       fx="139.11873"
       fy="1682.1786"
       r="13.551892"
       gradientTransform="matrix(-0.0934371,-0.99097937,1.1566969,-0.10906237,-1789.3004,2019.1309)"
       gradientUnits="userSpaceOnUse" />
  </defs>
  <sodipodi:namedview
     pagecolor="#ffffff"
     bordercolor="#666666"
     borderopacity="1"
     objecttolerance="10"
     gridtolerance="10"
     guidetolerance="10"
     inkscape:pageopacity="0"
     inkscape:pageshadow="2"
     inkscape:window-width="1280"
     inkscape:window-height="1002"
     id="namedview68"
     showgrid="false"
     inkscape:zoom="0.4609375"
     inkscape:cx="-151.86441"
     inkscape:cy="256"
     inkscape:window-x="-8"
     inkscape:window-y="-8"
     inkscape:window-maximized="1"
     inkscape:current-layer="svg2" />
  <path
     d="m0,0h512v512h-512z"
     id="path4" />
  <g
     transform="matrix(18.68858,0,0,18.68858,-2271.24426,-31323.86473)"
     id="g6"
     style="fill-opacity:1.0;stroke:url(#radialGradient3065);fill:url(#radialGradient3841)">
    <path
       d="m139.4375,1700.956c-3.5814-3.0109-5.3952-.7858-7.2913-4.5031-1.1296-2.2146-.7268-4.3486.4139-5.587"
       fill="none"
       stroke="#fff"
       id="path8"
       style="fill-opacity:1.0;stroke:url(#radialGradient3065);fill:url(#radialGradient3841)" />
    <path
       d="m132.1462,1696.4529c-7.8118,1.6659-5.8554-6.2341-10.1462-6.3619"
       fill="none"
       stroke="#fff"
       id="path10"
       style="fill-opacity:1.0;stroke:url(#radialGradient3065);fill:url(#radialGradient3841)" />
    <path
       d="m136.8693,1676.5903c1.8944,1.8274 2.9482,7.8131-2.9054,8.7269"
       fill="none"
       stroke="#fff"
       id="path12"
       style="fill-opacity:1.0;stroke:url(#radialGradient3065);fill:url(#radialGradient3841)" />
    <path
       d="m138.3834,1681.3839c2.1405.1345 6.0178,1.3924 5.5409,6.0132-.0382,2.4047.5058,4.4087 2.4693,6.6957"
       fill="none"
       stroke="#fff"
       id="path14"
       style="fill-opacity:1.0;stroke:url(#radialGradient3065);fill:url(#radialGradient3841)" />
    <path
       d="m121.8875,1686.9905c5.0711,3.0001 8.8619-3.1926 5.5685-6.9827"
       fill="none"
       stroke="#fff"
       id="path16"
       style="fill-opacity:1.0;stroke:url(#radialGradient3065);fill:url(#radialGradient3841)" />
    <path
       d="m125.7329,1678.979c-2.5197.598-2.478,6.092.8,5.322 3.4775-.817 2.1315-6.0186-.8-5.322z"
       fill="#fff"
       id="path18"
       style="fill-opacity:1.0;stroke:url(#radialGradient3065);fill:url(#radialGradient3841)" />
    <path
       d="m145.4872,1693.8848c0,3.0265-2.7899,5.48-6.2314,5.48s-6.2314-2.4535-6.2314-5.48 2.7899-5.4801 6.2314-5.4801 6.2314,2.4535 6.2314,5.4801z"
       fill="#fff"
       transform="matrix(.70711,.70711,-.70711,.70711,1241.4171,400.48704)"
       id="path20"
       style="fill-opacity:1.0;stroke:url(#radialGradient3065);fill:url(#radialGradient3841)" />
    <path
       d="m127.086,1691.487c3.7322.3825 3.6286-4.4096.6393-5.4395"
       fill="none"
       stroke="#fff"
       id="path22"
       style="fill-opacity:1.0;stroke:url(#radialGradient3065);fill:url(#radialGradient3841)" />
    <path
       d="m132.5575,1680.1769c1.4314,2.4001-2.4067,4.7688-3.9052,2.3262"
       fill="none"
       stroke="#fff"
       id="path24"
       style="fill-opacity:1.0;stroke:url(#radialGradient3065);fill:url(#radialGradient3841)" />
    <path
       d="m139.4262,1691.7238c3.9351-1.0244 2.3184-6.7791-1.3027-5.3994"
       fill="none"
       stroke="#fff"
       id="path26"
       style="fill-opacity:1.0;stroke:url(#radialGradient3065);fill:url(#radialGradient3841)" />
    <path
       d="m136.9006,1693.0841c2.1405,1.3609 3.8746.4284 2.3221-2.4829-.9132-1.7118-4.3322,1.2053-2.3221,2.4829z"
       id="path28"
       style="fill-opacity:1.0;stroke:url(#radialGradient3065);fill:url(#radialGradient3841)" />
    <path
       d="m142.4233,1695.5994c-2.9334-.162-1.9163-4.8964 0-5.1412 2.8889-.3691 2.1706,5.2611 0,5.1412z"
       id="path30"
       style="fill-opacity:1.0;stroke:url(#radialGradient3065);fill:url(#radialGradient3841)" />
    <path
       d="m137.3094,1699.0343c-2.8811-.5745-2.838-4.9963 1.25-4.11 2.3959.5195 1.7019,4.6987-1.25,4.11z"
       id="path32"
       style="fill-opacity:1.0;stroke:url(#radialGradient3065);fill:url(#radialGradient3841)" />
    <path
       d="m139.622,1697.7189c.0497-1.9135-3.8355-2.3271-3.7599.246 .0679,2.312 3.6876,2.5399 3.7599-.246z"
       fill="#fff"
       id="path34"
       style="fill-opacity:1.0;stroke:url(#radialGradient3065);fill:url(#radialGradient3841)" />
    <path
       d="m135.1195,1685.1272c-1.6691-1.2263-4.3907,1.3728-2.2572,3.0178 2.4081,1.8568 4.3654-1.4689 2.2572-3.0178z"
       fill="#fff"
       id="path36"
       style="fill-opacity:1.0;stroke:url(#radialGradient3065);fill:url(#radialGradient3841)" />
    <path
       d="m137.3876,1686.2418c1.0578-1.329 3.618.3916 2.2458,2.1232-1.4559,1.837-3.4767-.577-2.2458-2.1232z"
       fill="#fff"
       id="path38"
       style="fill-opacity:1.0;stroke:url(#radialGradient3065);fill:url(#radialGradient3841)" />
    <path
       d="m128.1616,1688.9607c1.6522.7188.5921,3.8143-1.5588,2.8838-2.2817-.9874-.3633-3.7205 1.5588-2.8838z"
       fill="#fff"
       id="path40"
       style="fill-opacity:1.0;stroke:url(#radialGradient3065);fill:url(#radialGradient3841)" />
    <path
       d="m131.2898,1679.0182c-1.7512.4156-1.7222,4.234.556,3.6988 2.4169-.5678 1.4814-4.183-.556-3.6988z"
       fill="#fff"
       id="path42"
       style="fill-opacity:1.0;stroke:url(#radialGradient3065);fill:url(#radialGradient3841)" />
    <path
       d="m127.0155,1682.0569c1.0511-2.7858-2.3886-3.6787-3.1816-1.1979-.8244,2.5789 2.3754,3.3347 3.1816,1.1979z"
       id="path44"
       style="fill-opacity:1.0;stroke:url(#radialGradient3065);fill:url(#radialGradient3841)" />
    <path
       d="m143.2553,1693.8902c.0435-1.6749-3.3574-2.037-3.2912.2154 .0594,2.0238 3.2279,2.2233 3.2912-.2154z"
       fill="#fff"
       id="path46"
       style="fill-opacity:1.0;stroke:url(#radialGradient3065);fill:url(#radialGradient3841)" />
    <path
       d="m135.2279,1692.5707c1.0979-2.065-2.0641-4.0964-3.322-1.6387-1.0359,2.024 2.0358,4.0578 3.322,1.6387z"
       fill="#fff"
       id="path48"
       style="fill-opacity:1.0;stroke:url(#radialGradient3065);fill:url(#radialGradient3841)" />
    <path
       d="m124.4549,1680.645c-.1821-1.8418 2.0267-1.8243 2.1036-.2072 .0814,1.6813-1.963,1.6202-2.1036.2072z"
       fill="#fff"
       id="path50"
       style="fill-opacity:1.0;stroke:url(#radialGradient3065);fill:url(#radialGradient3841)" />
    <path
       d="m127.812,1678.1651c-1.2655-1.0377.1265-2.4078 1.1857-1.4448 1.1021,1.0003-.2144,2.2403-1.1857,1.4448z"
       fill="#fff"
       id="path52"
       style="fill-opacity:1.0;stroke:url(#radialGradient3065);fill:url(#radialGradient3841)" />
    <path
       d="m122.0425,1702.8705v-26.2686h25.2563"
       fill="none"
       stroke="#000"
       id="path54"
       style="fill-opacity:1.0;stroke:url(#radialGradient3065);fill:url(#radialGradient3841)" />
    <path
       d="m137.2264,1691.2649c1.2892.1276 1.2772-1.4182.1452-1.4721-1.1767-.057-1.134,1.3739-.1452,1.4721z"
       fill="#fff"
       id="path56"
       style="fill-opacity:1.0;stroke:url(#radialGradient3065);fill:url(#radialGradient3841)" />
    <path
       d="m141.6155,1691.0003c.5341,1.1802 1.8668.3967 1.3475-.6104-.539-1.0475-1.7568-.2951-1.3475.6104z"
       fill="#fff"
       id="path58"
       style="fill-opacity:1.0;stroke:url(#radialGradient3065);fill:url(#radialGradient3841)" />
    <path
       d="m135.3164,1683.1257c-.5341,1.1802-1.8668.3967-1.3475-.6104 .539-1.0475 1.7568-.2951 1.3475.6104z"
       fill="#fff"
       id="path60"
       style="fill-opacity:1.0;stroke:url(#radialGradient3065);fill:url(#radialGradient3841)" />
    <path
       d="m132.3564,1692.2272c-.9828,1.3701.7677,2.3624 1.565,1.1216 .83-1.2893-.8107-2.1723-1.565-1.1216z"
       id="path62"
       style="fill-opacity:1.0;stroke:url(#radialGradient3065);fill:url(#radialGradient3841)" />
    <path
       d="m134.2897,1685.2335c-1.7082-1.2252-2.9454.9573-1.3983,1.9512 1.6076,1.0346 2.7083-1.0107 1.3983-1.9512z"
       id="path64"
       style="fill-opacity:1.0;stroke:url(#radialGradient3065);fill:url(#radialGradient3841)" />
    <path
       d="m131.4171,1690.5886c-.6107-1.6204 1.3898-2.1395 1.851-.6967 .4807,1.4998-1.3817,1.9396-1.851.6967z"
       fill="#fff"
       id="path66"
       style="fill-opacity:1.0;stroke:url(#radialGradient3065);fill:url(#radialGradient3841)" />
  </g>
</svg>
