<?xml version="1.0" encoding="UTF-8" standalone="no"?>
<svg
   xmlns:dc="http://purl.org/dc/elements/1.1/"
   xmlns:cc="http://creativecommons.org/ns#"
   xmlns:rdf="http://www.w3.org/1999/02/22-rdf-syntax-ns#"
   xmlns:svg="http://www.w3.org/2000/svg"
   xmlns="http://www.w3.org/2000/svg"
   xmlns:xlink="http://www.w3.org/1999/xlink"
   xmlns:sodipodi="http://sodipodi.sourceforge.net/DTD/sodipodi-0.dtd"
   xmlns:inkscape="http://www.inkscape.org/namespaces/inkscape"
   viewBox="0 0 512 512"
   id="svg2"
   version="1.1"
   inkscape:version="0.48.4 r9939"
   width="100%"
   height="100%"
   sodipodi:docname="wingfoot.svg">
  <metadata
     id="metadata22">
    <rdf:RDF>
      <cc:Work
         rdf:about="">
        <dc:format>image/svg+xml</dc:format>
        <dc:type
           rdf:resource="http://purl.org/dc/dcmitype/StillImage" />
        <dc:title></dc:title>
      </cc:Work>
    </rdf:RDF>
  </metadata>
  <defs
     id="defs20">
    <linearGradient
       id="linearGradient3050">
      <stop
         style="stop-color:#ffcdd3;stop-opacity:1;"
         offset="0"
         id="stop3052" />
      <stop
         style="stop-color:#ffffff;stop-opacity:1;"
         offset="1"
         id="stop3054" />
    </linearGradient>
    <linearGradient
       inkscape:collect="always"
       xlink:href="#linearGradient3050"
       id="linearGradient3056"
       x1="229.96609"
       y1="247.32202"
       x2="145.35593"
       y2="180.06779"
       gradientUnits="userSpaceOnUse" />
    <linearGradient
       inkscape:collect="always"
       xlink:href="#linearGradient3050"
       id="linearGradient3058"
       x1="229.96609"
       y1="247.32202"
       x2="145.35593"
       y2="180.06779"
       gradientUnits="userSpaceOnUse" />
    <linearGradient
       inkscape:collect="always"
       xlink:href="#linearGradient3050"
       id="linearGradient3060"
       x1="229.96609"
       y1="247.32202"
       x2="145.35593"
       y2="180.06779"
       gradientUnits="userSpaceOnUse" />
    <linearGradient
       inkscape:collect="always"
       xlink:href="#linearGradient3050"
       id="linearGradient3062"
       x1="229.96609"
       y1="247.32202"
       x2="145.35593"
       y2="180.06779"
       gradientUnits="userSpaceOnUse" />
    <linearGradient
       inkscape:collect="always"
       xlink:href="#linearGradient3050"
       id="linearGradient3064"
       x1="229.96609"
       y1="247.32202"
       x2="145.35593"
       y2="180.06779"
       gradientUnits="userSpaceOnUse" />
  </defs>
  <sodipodi:namedview
     pagecolor="#ffffff"
     bordercolor="#666666"
     borderopacity="1"
     objecttolerance="10"
     gridtolerance="10"
     guidetolerance="10"
     inkscape:pageopacity="0"
     inkscape:pageshadow="2"
     inkscape:window-width="1280"
     inkscape:window-height="1002"
     id="namedview18"
     showgrid="false"
     inkscape:zoom="0.4609375"
     inkscape:cx="256"
     inkscape:cy="256"
     inkscape:window-x="-8"
     inkscape:window-y="-8"
     inkscape:window-maximized="1"
     inkscape:current-layer="svg2" />
  <path
     d="m0,0h512v512h-512z"
     id="path4" />
  <path
     style="fill:url(#linearGradient3064);stroke:#000000;stroke-width:18.68857956000000100;fill-opacity:1"
     inkscape:connector-curvature="0"
     id="path8"
     d="m 503.60546,11.708017 -0.0149,118.782743 c -67.69939,23.02807 -147.54261,78.37056 -190.6665,142.86859 22.50291,80.98136 74.47959,173.26743 148.56673,202.50198 -106.51743,57.78322 -262.37084,0.99236 -294.44792,-111.96889 l -32.8321,11.45423 C 107.045,348.23141 91.995088,326.58443 72.504768,298.48241 157.3939,182.32915 265.69609,123.23959 324.31469,13.059202 l 179.29077,-1.351185 z" />
  <path
     style="fill:url(#linearGradient3056);fill-rule:evenodd;stroke:#000000;stroke-width:18.68857956000000100;fill-opacity:1"
     inkscape:connector-curvature="0"
     id="path10"
     d="M 262.30038,333.26559 C 244.78357,260.63617 238.60326,181.24708 291.29945,111.73304 196.1073,87.727554 90.886855,65.46198 19.730087,15.088781 -14.795196,53.893749 77.294651,126.99787 212.34954,150.01285" />
  <path
     style="fill:url(#linearGradient3058);fill-rule:evenodd;stroke:#000000;stroke-width:18.68857956000000100;fill-opacity:1"
     inkscape:connector-curvature="0"
     id="path12"
     d="M 225.22597,146.88625 C 160.14486,136.76826 75.481859,105.35275 20.481368,61.858822 1.9329521,111.1948 94.4788,189.87933 203.93221,191.82668" />
  <path
     style="fill:url(#linearGradient3060);fill-rule:evenodd;stroke:#000000;stroke-width:18.68857956000000100;fill-opacity:1"
     inkscape:connector-curvature="0"
     id="path14"
     d="M 212.49345,190.53904 C 147.77863,186.06873 76.905928,158.3517 28.052111,122.3033 11.049241,166.7653 109.64085,245.39376 202.26332,248.59885" />
  <path
     style="fill:url(#linearGradient3062);fill-rule:evenodd;stroke:#000000;stroke-width:18.68857956000000100;fill-opacity:1"
     inkscape:connector-curvature="0"
     id="path16"
     d="M 207.21392,238.96115 C 146.80869,234.41983 94.353587,211.49828 47.002332,188.16933 c -3.515322,62.45723 71.407198,90.78912 153.808878,102.78345 1.16804,16.86457 5.52061,26.38454 11.0001,35.74565" />
</svg>
