<?xml version="1.0" encoding="UTF-8" standalone="no"?>
<svg
   xmlns:dc="http://purl.org/dc/elements/1.1/"
   xmlns:cc="http://creativecommons.org/ns#"
   xmlns:rdf="http://www.w3.org/1999/02/22-rdf-syntax-ns#"
   xmlns:svg="http://www.w3.org/2000/svg"
   xmlns="http://www.w3.org/2000/svg"
   xmlns:xlink="http://www.w3.org/1999/xlink"
   xmlns:sodipodi="http://sodipodi.sourceforge.net/DTD/sodipodi-0.dtd"
   xmlns:inkscape="http://www.inkscape.org/namespaces/inkscape"
   viewBox="0 0 512 512"
   id="svg2"
   version="1.1"
   inkscape:version="0.48.4 r9939"
   width="100%"
   height="100%"
   sodipodi:docname="lay_on_hands.svg">
  <metadata
     id="metadata60">
    <rdf:RDF>
      <cc:Work
         rdf:about="">
        <dc:format>image/svg+xml</dc:format>
        <dc:type
           rdf:resource="http://purl.org/dc/dcmitype/StillImage" />
      </cc:Work>
    </rdf:RDF>
  </metadata>
  <defs
     id="defs58">
    <linearGradient
       id="linearGradient3075">
      <stop
         style="stop-color:#113ffb;stop-opacity:1;"
         offset="0"
         id="stop3077" />
      <stop
         style="stop-color:#000000;stop-opacity:0;"
         offset="1"
         id="stop3079" />
    </linearGradient>
    <linearGradient
       id="linearGradient3067">
      <stop
         style="stop-color:#e4c80b;stop-opacity:1;"
         offset="0"
         id="stop3069" />
      <stop
         style="stop-color:#000000;stop-opacity:0;"
         offset="1"
         id="stop3071" />
    </linearGradient>
    <linearGradient
       id="linearGradient3047">
      <stop
         style="stop-color:#1375fc;stop-opacity:1;"
         offset="0"
         id="stop3049" />
      <stop
         id="stop3059"
         offset="0"
         style="stop-color:#2e77d5;stop-opacity:0.8745098;" />
      <stop
         id="stop3057"
         offset="0"
         style="stop-color:#497aaf;stop-opacity:0.74901961;" />
      <stop
         id="stop3055"
         offset="1"
         style="stop-color:#869b91;stop-opacity:0.49803922;" />
      <stop
         style="stop-color:#ffdd55;stop-opacity:0;"
         offset="1"
         id="stop3051" />
    </linearGradient>
    <linearGradient
       inkscape:collect="always"
       xlink:href="#linearGradient3075"
       id="linearGradient3073"
       x1="330.84744"
       y1="238.64407"
       x2="321.08475"
       y2="245.15254"
       gradientUnits="userSpaceOnUse" />
    <linearGradient
       inkscape:collect="always"
       xlink:href="#linearGradient3067"
       id="linearGradient3093"
       x1="221.50432"
       y1="334.10165"
       x2="368.91757"
       y2="263.5932"
       gradientUnits="userSpaceOnUse" />
  </defs>
  <sodipodi:namedview
     pagecolor="#ffffff"
     bordercolor="#666666"
     borderopacity="1"
     objecttolerance="10"
     gridtolerance="10"
     guidetolerance="10"
     inkscape:pageopacity="0"
     inkscape:pageshadow="2"
     inkscape:window-width="1280"
     inkscape:window-height="1002"
     id="namedview56"
     showgrid="false"
     inkscape:zoom="0.921875"
     inkscape:cx="238.74625"
     inkscape:cy="256"
     inkscape:window-x="-8"
     inkscape:window-y="-8"
     inkscape:window-maximized="1"
     inkscape:current-layer="svg2" />
  <path
     d="m0,0h512v512h-512z"
     id="path4" />
  <g
     transform="matrix(18.68858,0,0,18.68858,-12483.33814,-34037.10993)"
     id="g6">
    <path
       d="m2995.9695-3717.7549h12.9025v12.9025h-12.9025z"
       fill="#fff"
       transform="matrix(-.96192,.27333,-.96192,-.27333,0,0)"
       id="path8" />
    <path
       d="m-2207.6777,287.0705h12.9025v12.9025h-12.9025z"
       fill="#fff"
       transform="matrix(-.27333,-.96192,.27333,-.96192,0,0)"
       id="path10" />
    <path
       d="m-3685.9854,2825.3877h12.9025v12.9025h-12.9025z"
       fill="#fff"
       transform="matrix(.48691,-.87345,.87345,-.48691,0,0)"
       id="path12" />
    <path
       d="m-2423.1877,560.0786h12.9025v12.9025h-12.9025z"
       fill="#fff"
       transform="matrix(-.48691,-.87345,-.87345,-.48691,0,0)"
       id="path14" />
    <path
       d="m690.3719,1835.2504c0,4.3279-3.5085,7.8365-7.8365,7.8365s-7.8365-3.5086-7.8365-7.8365 3.5085-7.8365 7.8365-7.8365 7.8365,3.5085 7.8365,7.8365z"
       fill="#fff"
       transform="matrix(1.23544,0,0,1.23544,-161.24561,-432.16172)"
       id="path16" />
    <path
       d="m684.9074,1841.3695 3.3893,7.0476"
       fill="none"
       stroke="#fff"
       id="path18" />
    <path
       d="m688.7809,1833.6763 6.2944-2.3671"
       fill="none"
       stroke="#fff"
       id="path20" />
    <path
       d="m676.8377,1840.1859-8.3874,7.9622"
       fill="none"
       stroke="#fff"
       id="path22" />
    <path
       d="m677.8598,1829.48-4.0349-7.8007"
       fill="none"
       stroke="#fff"
       id="path24" />
    <path
       d="m685.4454,1828.8345 5.0033-7.2628"
       fill="none"
       stroke="#fff"
       id="path26" />
    <path
       d="m668.4652,1821.7767h26.4314v26.4314h-26.4314z"
       fill="none"
       stroke="#000"
       id="path28" />
    <g
       transform="translate(.3043)"
       id="g30">
      <path
         d="m673.2765,1835.9118 4.1817,1.064"
         fill="none"
         stroke="#000"
         id="path32" />
      <path
         d="m677.2963,1835.691-3.892-2.1403"
         fill="none"
         stroke="#000"
         id="path34" />
      <path
         d="m674.8399,1831.6715 3.0956,3.072"
         fill="none"
         stroke="#000"
         id="path36" />
      <path
         d="m677.1436,1830.4607 2.0255,4.1376"
         fill="none"
         stroke="#000"
         id="path38" />
      <path
         d="m680.7496,1832.0834-.814,3.7911"
         fill="none"
         stroke="#000"
         id="path40" />
      <path
         d="m676.1843,1836.9095c-.0109-1.7862 1.1712-3.4777 2.6658-3.5178 .5793.4952 1.0845.9271 1.848.9086-.23,4.0429-2.5732,3.8463-4.5152,2.6068z"
         fill-rule="evenodd"
         id="path42" />
      <path
         d="m690.1067,1835.9118-4.1817,1.064"
         fill="none"
         stroke="#000"
         id="path44" />
      <path
         d="m686.087,1835.691 3.892-2.1403"
         fill="none"
         stroke="#000"
         id="path46" />
      <path
         d="m688.5434,1831.6715-3.0956,3.072"
         fill="none"
         stroke="#000"
         id="path48" />
      <path
         d="m686.2397,1830.4607-2.0255,4.1376"
         fill="none"
         stroke="#000"
         id="path50" />
      <path
         d="m682.6336,1832.0834 .871,3.8291"
         fill="none"
         stroke="#000"
         id="path52" />
      <path
         d="m687.199,1836.9095c.0109-1.7862-1.1712-3.4777-2.6658-3.5178-.5793.4952-1.0845.9271-1.848.9086 .23,4.0429 2.5732,3.8463 4.5152,2.6068z"
         fill-rule="evenodd"
         id="path54" />
    </g>
  </g>
  <path
     sodipodi:type="arc"
     style="fill:#0000ff"
     id="path3116-8"
     sodipodi:cx="168.13559"
     sodipodi:cy="193.08475"
     sodipodi:rx="8.6779661"
     sodipodi:ry="13.016949"
     d="m 176.81356,193.08475 a 8.6779661,13.016949 0 1 1 -17.35594,0 8.6779661,13.016949 0 1 1 17.35594,0 z"
     transform="matrix(10,0,0,6.1666669,-1334.2372,-946.62153)" />
  <path
     sodipodi:type="arc"
     style="fill:#0000ff"
     id="path3116"
     sodipodi:cx="168.13559"
     sodipodi:cy="193.08475"
     sodipodi:rx="8.6779661"
     sodipodi:ry="13.016949"
     d="m 176.81356,193.08475 a 8.6779661,13.016949 0 1 1 -17.35594,0 8.6779661,13.016949 0 1 1 17.35594,0 z"
     transform="matrix(10,0,0,6.1666669,-1505.6271,-945.53677)" />
  <path
     style="fill:#ffdd55"
     d="M 19.573276,486.83379 19.621128,480 44.793615,456.2153 c 62.752935,-59.29331 68.644715,-65.22602 73.423995,-73.93411 l 4.47825,-8.1596 -5.32837,-7.26419 C 98.323141,340.89416 87.194428,313.38435 83.317164,282.68615 l -1.319956,-10.45076 -3.846062,-1.0525 c -2.115333,-0.57887 -13.731959,-3.88105 -25.814722,-7.33817 l -21.968661,-6.28567 25.041982,-7.01682 c 13.77309,-3.85924 25.468602,-7.27677 25.990025,-7.5945 0.521423,-0.31773 1.496878,-4.22282 2.167676,-8.67796 4.698984,-31.20861 16.349009,-58.6081 35.901694,-84.4366 l 5.26188,-6.95079 -3.13794,-5.54288 C 110.78315,118.24472 98.722531,96.170296 98.966853,95.926941 c 0.158062,-0.157434 10.653607,5.530189 23.323437,12.639169 12.66982,7.10898 23.4088,12.91815 23.86441,12.90928 0.45559,-0.009 2.65499,-1.59532 4.88755,-3.52543 l 4.05918,-3.50928 -24.39817,-47.075293 c -13.419,-25.89141 -24.39818,-47.247342 -24.39818,-47.457627 0,-0.210285 4.33124,-0.382336 9.62497,-0.382336 l 9.62497,0 22.04336,42.670229 22.04336,42.670227 8.73845,-4.64202 c 16.43461,-8.73035 38.48667,-15.87874 58.09163,-18.830959 4.47307,-0.673578 8.43466,-1.56762 8.80354,-1.98676 0.36888,-0.419141 3.75828,-11.855252 7.53203,-25.413581 3.77374,-13.55833 7.13419,-24.394091 7.46766,-24.079468 0.33347,0.314623 3.77919,11.631391 7.65715,25.148374 l 7.05085,24.576332 11.9322,1.813977 c 19.47197,2.960199 39.06028,8.76672 52.43021,15.541779 l 5.37436,2.723387 27.50449,-40.058517 27.5045,-40.058518 10.62839,-0.03724 10.62838,-0.03724 -3.52664,5.152542 c -1.93966,2.833898 -15.29073,22.237288 -29.66906,43.118644 -14.37832,20.881356 -26.47729,38.52111 -26.8866,39.19944 -0.44822,0.74282 2.47802,3.65859 7.3575,7.33118 l 8.10171,6.09783 22.24208,-12.48372 c 12.23315,-6.86604 22.46584,-12.483713 22.73932,-12.483713 0.27348,0 -5.09994,9.983793 -11.94093,22.186213 l -12.43817,22.18621 6.93404,9.00024 c 11.46479,14.88107 21.3522,32.45303 26.73223,47.50869 1.38576,3.87797 2.86019,7.44291 3.27651,7.9221 0.41632,0.47917 13.83923,-4.03608 29.82869,-10.0339 15.98944,-5.99783 29.25978,-10.90515 29.48962,-10.90515 0.22985,0 0.27687,4.19773 0.10446,9.3283 l -0.31339,9.32828 -20.0678,7.51033 c -11.03729,4.13068 -23.2816,8.73108 -27.20959,10.22309 l -7.14179,2.71277 1.42345,9.46556 c 0.78289,5.20607 1.43399,10.0109 1.44688,10.67741 0.0129,0.66651 10.95518,4.3206 24.31621,8.12021 l 24.29279,6.90838 -23.85756,6.72139 c -13.12166,3.69676 -23.96572,6.87658 -24.09791,7.06623 -0.1322,0.18966 -0.84545,5.47026 -1.58501,11.73466 -3.57065,30.24521 -15.91142,60.22519 -35.50838,86.26211 l -5.9909,7.95964 11.41205,20.37648 c 6.27663,11.20707 11.24537,20.54317 11.04167,20.74687 -0.20372,0.20372 -8.60051,-4.21777 -18.65954,-9.82553 -10.05903,-5.60776 -19.28119,-10.721 -20.49369,-11.36276 -1.88112,-0.99564 -3.31337,-0.29882 -9.76271,4.74979 -4.15699,3.25414 -11.55489,8.35428 -16.43979,11.33363 l -8.8816,5.41702 5.22624,11.08663 c 2.87443,6.09765 9.48636,19.87307 14.69317,30.61206 5.2068,10.73898 10.85843,22.57627 12.55914,26.30508 l 3.09224,6.77966 -9.54124,0 -9.54123,0 -16.01433,-33.35593 c -8.80788,-18.34576 -16.14569,-33.49585 -16.30626,-33.66687 -0.16057,-0.17103 -2.91812,0.72847 -6.12789,1.99888 -9.58263,3.79275 -28.96068,8.5142 -40.69246,9.9147 l -10.9921,1.3122 -6.23514,22.28835 c -3.42933,12.25858 -6.49722,22.74072 -6.81754,23.29363 -0.32031,0.55292 -3.56572,-9.45386 -7.21202,-22.23729 l -6.62963,-23.24258 -10.81496,-1.78882 c -33.67464,-5.56988 -58.00124,-16.09609 -85.44675,-36.97311 l -8.46228,-6.43702 -9.10473,5.24354 c -7.76501,4.47197 -15.91351,11.708 -55.376925,49.17575 l -46.272188,43.9322 -5.855712,0.32531 -5.855711,0.32533 0.04785,-6.8338 z M 216.7858,303.85255 c 11.17203,-5.79521 19.73538,-18.15459 23.38469,-33.75086 2.93087,-12.52581 13.66002,-63.95684 13.66002,-65.48041 0,-0.98792 -3.08743,-2.09009 -9.32481,-3.32882 -5.12865,-1.01854 -9.43729,-1.69551 -9.57477,-1.50438 -0.13747,0.19114 -1.36236,5.717 -2.72194,12.27972 -1.3596,6.56271 -3.19967,15.20078 -4.08904,19.19571 l -1.61705,7.26352 -3.82381,-2.38216 c -3.35144,-2.08789 -5.82621,-6.46669 -20.03335,-35.44655 -8.91526,-18.18542 -16.37221,-33.22705 -16.57101,-33.42585 -0.36829,-0.36829 -17.93914,7.43319 -17.93914,7.965 0,0.16031 5.8359,12.31616 12.96867,27.01299 l 12.96867,26.7215 -3.47714,2.11474 -3.47715,2.11472 -22.78891,-22.7702 c -12.5339,-12.52361 -23.28816,-22.7702 -23.89836,-22.7702 -0.6102,0 -4.01319,2.93435 -7.56221,6.52078 l -6.45275,6.5208 23.14523,23.16402 c 21.55207,21.56956 23.05684,23.32916 21.86115,25.56334 -0.86001,1.60693 -1.88355,2.17157 -3.0992,1.70968 -0.99831,-0.37929 -14.00697,-7.37308 -28.90814,-15.54174 -14.90116,-8.16868 -27.34862,-14.73808 -27.66102,-14.59868 -0.31239,0.13942 -2.60123,3.80043 -5.08629,8.1356 -3.40398,5.93821 -4.20656,8.17785 -3.25424,9.08122 0.69524,0.6595 13.95559,8.14894 29.46746,16.64321 15.51186,8.49426 28.3288,15.56484 28.4821,15.7124 0.1533,0.14755 -0.015,1.73656 -0.37385,3.53112 l -0.65257,3.26285 -26.6844,-6.8562 c -14.67642,-3.7709 -26.76006,-6.74766 -26.85253,-6.61501 -0.56102,0.8048 -4.6393,18.69578 -4.33182,19.00326 0.20681,0.20681 16.62748,4.4826 36.49039,9.50177 19.8629,5.01917 39.0687,10.07865 42.67954,11.2433 9.88374,3.18791 10.17077,3.22865 20.66686,2.93255 7.64117,-0.21554 10.78799,-0.80723 14.48072,-2.72274 l 0,0 z m 121.72824,0.90717 c 4.43422,-1.22282 24.82591,-6.55599 45.31485,-11.85148 20.48894,-5.29549 37.50087,-9.87642 37.80427,-10.17982 0.57749,-0.57749 -2.84451,-16.17106 -3.93644,-17.93784 -0.36036,-0.58306 -11.2896,1.72184 -25.56982,5.39251 -13.71726,3.52596 -25.7393,6.4145 -26.71565,6.41895 -1.11505,0.005 -1.93991,-1.11421 -2.21815,-3.01002 -0.43001,-2.92986 0.42368,-3.49315 29.18074,-19.25424 16.29303,-8.92985 29.49459,-16.72422 29.33679,-17.32083 -0.15779,-0.59661 -2.20429,-4.59441 -4.54777,-8.88399 -3.89367,-7.12712 -4.45456,-7.69651 -6.50848,-6.60713 -1.23617,0.65566 -14.068,7.70429 -28.51515,15.66365 -14.44715,7.95934 -26.69798,14.47154 -27.22406,14.47154 -0.52609,0 -1.47228,-1.09831 -2.10266,-2.44068 -1.05259,-2.24145 0.72516,-4.32128 21.77857,-25.47921 l 22.92471,-23.03853 -6.45275,-6.5208 c -3.54902,-3.58643 -6.96053,-6.52078 -7.58115,-6.52078 -0.6206,0 -11.31321,10.19349 -23.76133,22.65221 l -22.63295,22.65222 -3.11322,-1.77086 c -1.71227,-0.97397 -3.1163,-2.09964 -3.12008,-2.50148 -0.004,-0.40184 5.60671,-12.30804 12.46772,-26.45821 6.86102,-14.15017 12.47458,-26.03978 12.47458,-26.42134 0,-0.6578 -15.63846,-8.76271 -16.90768,-8.76271 -0.33033,0 -7.83514,14.817 -16.67735,32.92667 -12.78703,26.18901 -16.77964,33.42717 -19.5117,35.37258 -1.88923,1.34524 -3.7587,2.12216 -4.15438,1.72648 -0.39567,-0.39569 -2.56728,-8.8317 -4.82579,-18.7467 -2.25849,-9.915 -4.32087,-18.24177 -4.58303,-18.50394 -0.61228,-0.61227 -17.1522,2.99643 -18.19521,3.96987 -0.43304,0.40414 1.37998,10.14919 4.02894,21.65567 2.64896,11.50646 5.59525,25.64979 6.5473,31.42959 3.41052,20.70486 10.38557,36.04555 19.5673,43.03561 9.37145,7.1345 22.81294,8.87373 37.42903,4.84304 l 0,0 z"
     id="path3095"
     inkscape:connector-curvature="0" />
  <path
     inkscape:connector-curvature="0"
     id="path3103"
     d="M 19.573276,486.83379 19.621128,480 44.793615,456.2153 c 62.752935,-59.29331 68.644715,-65.22602 73.423995,-73.93411 l 4.47825,-8.1596 -5.32837,-7.26419 C 98.323141,340.89416 87.194428,313.38435 83.317164,282.68615 l -1.319956,-10.45076 -3.846062,-1.0525 c -2.115333,-0.57887 -13.731959,-3.88105 -25.814722,-7.33817 l -21.968661,-6.28567 25.041982,-7.01682 c 13.77309,-3.85924 25.468602,-7.27677 25.990025,-7.5945 0.521423,-0.31773 1.496878,-4.22282 2.167676,-8.67796 4.698984,-31.20861 16.349009,-58.6081 35.901694,-84.4366 l 5.26188,-6.95079 -3.13794,-5.54288 C 110.78315,118.24472 98.722531,96.170296 98.966853,95.926941 c 0.158062,-0.157434 10.653607,5.530189 23.323437,12.639169 12.66982,7.10898 23.4088,12.91815 23.86441,12.90928 0.45559,-0.009 2.65499,-1.59532 4.88755,-3.52543 l 4.05918,-3.50928 -24.39817,-47.075293 c -13.419,-25.89141 -24.39818,-47.247342 -24.39818,-47.457627 0,-0.210285 4.33124,-0.382336 9.62497,-0.382336 l 9.62497,0 22.04336,42.670229 22.04336,42.670227 8.73845,-4.64202 c 16.43461,-8.73035 38.48667,-15.87874 58.09163,-18.830959 4.47307,-0.673578 8.43466,-1.56762 8.80354,-1.98676 0.36888,-0.419141 3.75828,-11.855252 7.53203,-25.413581 3.77374,-13.55833 7.13419,-24.394091 7.46766,-24.079468 0.33347,0.314623 3.77919,11.631391 7.65715,25.148374 l 7.05085,24.576332 11.9322,1.813977 c 19.47197,2.960199 39.06028,8.76672 52.43021,15.541779 l 5.37436,2.723387 27.50449,-40.058517 27.5045,-40.058518 10.62839,-0.03724 10.62838,-0.03724 -3.52664,5.152542 c -1.93966,2.833898 -15.29073,22.237288 -29.66906,43.118644 -14.37832,20.881356 -26.47729,38.52111 -26.8866,39.19944 -0.44822,0.74282 2.47802,3.65859 7.3575,7.33118 l 8.10171,6.09783 22.24208,-12.48372 c 12.23315,-6.86604 22.46584,-12.483713 22.73932,-12.483713 0.27348,0 -5.09994,9.983793 -11.94093,22.186213 l -12.43817,22.18621 6.93404,9.00024 c 11.46479,14.88107 21.3522,32.45303 26.73223,47.50869 1.38576,3.87797 2.86019,7.44291 3.27651,7.9221 0.41632,0.47917 13.83923,-4.03608 29.82869,-10.0339 15.98944,-5.99783 29.25978,-10.90515 29.48962,-10.90515 0.22985,0 0.27687,4.19773 0.10446,9.3283 l -0.31339,9.32828 -20.0678,7.51033 c -11.03729,4.13068 -23.2816,8.73108 -27.20959,10.22309 l -7.14179,2.71277 1.42345,9.46556 c 0.78289,5.20607 1.43399,10.0109 1.44688,10.67741 0.0129,0.66651 10.95518,4.3206 24.31621,8.12021 l 24.29279,6.90838 -23.85756,6.72139 c -13.12166,3.69676 -23.96572,6.87658 -24.09791,7.06623 -0.1322,0.18966 -0.84545,5.47026 -1.58501,11.73466 -3.57065,30.24521 -15.91142,60.22519 -35.50838,86.26211 l -5.9909,7.95964 11.41205,20.37648 c 6.27663,11.20707 11.24537,20.54317 11.04167,20.74687 -0.20372,0.20372 -8.60051,-4.21777 -18.65954,-9.82553 -10.05903,-5.60776 -19.28119,-10.721 -20.49369,-11.36276 -1.88112,-0.99564 -3.31337,-0.29882 -9.76271,4.74979 -4.15699,3.25414 -11.55489,8.35428 -16.43979,11.33363 l -8.8816,5.41702 5.22624,11.08663 c 2.87443,6.09765 9.48636,19.87307 14.69317,30.61206 5.2068,10.73898 10.85843,22.57627 12.55914,26.30508 l 3.09224,6.77966 -9.54124,0 -9.54123,0 -16.01433,-33.35593 c -8.80788,-18.34576 -16.14569,-33.49585 -16.30626,-33.66687 -0.16057,-0.17103 -2.91812,0.72847 -6.12789,1.99888 -9.58263,3.79275 -28.96068,8.5142 -40.69246,9.9147 l -10.9921,1.3122 -6.23514,22.28835 c -3.42933,12.25858 -6.49722,22.74072 -6.81754,23.29363 -0.32031,0.55292 -3.56572,-9.45386 -7.21202,-22.23729 l -6.62963,-23.24258 -10.81496,-1.78882 c -33.67464,-5.56988 -58.00124,-16.09609 -85.44675,-36.97311 l -8.46228,-6.43702 -9.10473,5.24354 c -7.76501,4.47197 -15.91351,11.708 -55.376925,49.17575 l -46.272188,43.9322 -5.855712,0.32531 -5.855711,0.32533 0.04785,-6.8338 z M 216.7858,303.85255 c 11.17203,-5.79521 19.73538,-18.15459 23.38469,-33.75086 2.93087,-12.52581 13.66002,-63.95684 13.66002,-65.48041 0,-0.98792 -3.08743,-2.09009 -9.32481,-3.32882 -5.12865,-1.01854 -9.43729,-1.69551 -9.57477,-1.50438 -0.13747,0.19114 -1.36236,5.717 -2.72194,12.27972 -1.3596,6.56271 -3.19967,15.20078 -4.08904,19.19571 l -1.61705,7.26352 -3.82381,-2.38216 c -3.35144,-2.08789 -5.82621,-6.46669 -20.03335,-35.44655 -8.91526,-18.18542 -16.37221,-33.22705 -16.57101,-33.42585 -0.36829,-0.36829 -17.93914,7.43319 -17.93914,7.965 0,0.16031 5.8359,12.31616 12.96867,27.01299 l 12.96867,26.7215 -3.47714,2.11474 -3.47715,2.11472 -22.78891,-22.7702 c -12.5339,-12.52361 -23.28816,-22.7702 -23.89836,-22.7702 -0.6102,0 -4.01319,2.93435 -7.56221,6.52078 l -6.45275,6.5208 23.14523,23.16402 c 21.55207,21.56956 23.05684,23.32916 21.86115,25.56334 -0.86001,1.60693 -1.88355,2.17157 -3.0992,1.70968 -0.99831,-0.37929 -14.00697,-7.37308 -28.90814,-15.54174 -14.90116,-8.16868 -27.34862,-14.73808 -27.66102,-14.59868 -0.31239,0.13942 -2.60123,3.80043 -5.08629,8.1356 -3.40398,5.93821 -4.20656,8.17785 -3.25424,9.08122 0.69524,0.6595 13.95559,8.14894 29.46746,16.64321 15.51186,8.49426 28.3288,15.56484 28.4821,15.7124 0.1533,0.14755 -0.015,1.73656 -0.37385,3.53112 l -0.65257,3.26285 -26.6844,-6.8562 c -14.67642,-3.7709 -26.76006,-6.74766 -26.85253,-6.61501 -0.56102,0.8048 -4.6393,18.69578 -4.33182,19.00326 0.20681,0.20681 16.62748,4.4826 36.49039,9.50177 19.8629,5.01917 39.0687,10.07865 42.67954,11.2433 9.88374,3.18791 10.17077,3.22865 20.66686,2.93255 7.64117,-0.21554 10.78799,-0.80723 14.48072,-2.72274 l 0,0 z m 121.72824,0.90717 c 4.43422,-1.22282 24.82591,-6.55599 45.31485,-11.85148 20.48894,-5.29549 37.50087,-9.87642 37.80427,-10.17982 0.57749,-0.57749 -2.84451,-16.17106 -3.93644,-17.93784 -0.36036,-0.58306 -11.2896,1.72184 -25.56982,5.39251 -13.71726,3.52596 -25.7393,6.4145 -26.71565,6.41895 -1.11505,0.005 -1.93991,-1.11421 -2.21815,-3.01002 -0.43001,-2.92986 0.42368,-3.49315 29.18074,-19.25424 16.29303,-8.92985 29.49459,-16.72422 29.33679,-17.32083 -0.15779,-0.59661 -2.20429,-4.59441 -4.54777,-8.88399 -3.89367,-7.12712 -4.45456,-7.69651 -6.50848,-6.60713 -1.23617,0.65566 -14.068,7.70429 -28.51515,15.66365 -14.44715,7.95934 -26.69798,14.47154 -27.22406,14.47154 -0.52609,0 -1.47228,-1.09831 -2.10266,-2.44068 -1.05259,-2.24145 0.72516,-4.32128 21.77857,-25.47921 l 22.92471,-23.03853 -6.45275,-6.5208 c -3.54902,-3.58643 -6.96053,-6.52078 -7.58115,-6.52078 -0.6206,0 -11.31321,10.19349 -23.76133,22.65221 l -22.63295,22.65222 -3.11322,-1.77086 c -1.71227,-0.97397 -3.1163,-2.09964 -3.12008,-2.50148 -0.004,-0.40184 5.60671,-12.30804 12.46772,-26.45821 6.86102,-14.15017 12.47458,-26.03978 12.47458,-26.42134 0,-0.6578 -15.63846,-8.76271 -16.90768,-8.76271 -0.33033,0 -7.83514,14.817 -16.67735,32.92667 -12.78703,26.18901 -16.77964,33.42717 -19.5117,35.37258 -1.88923,1.34524 -3.7587,2.12216 -4.15438,1.72648 -0.39567,-0.39569 -2.56728,-8.8317 -4.82579,-18.7467 -2.25849,-9.915 -4.32087,-18.24177 -4.58303,-18.50394 -0.61228,-0.61227 -17.1522,2.99643 -18.19521,3.96987 -0.43304,0.40414 1.37998,10.14919 4.02894,21.65567 2.64896,11.50646 5.59525,25.64979 6.5473,31.42959 3.41052,20.70486 10.38557,36.04555 19.5673,43.03561 9.37145,7.1345 22.81294,8.87373 37.42903,4.84304 l 0,0 z"
     style="fill:#ffdd55" />
</svg>
