<?xml version="1.0" encoding="UTF-8" standalone="no"?>
<svg
   xmlns:dc="http://purl.org/dc/elements/1.1/"
   xmlns:cc="http://creativecommons.org/ns#"
   xmlns:rdf="http://www.w3.org/1999/02/22-rdf-syntax-ns#"
   xmlns:svg="http://www.w3.org/2000/svg"
   xmlns="http://www.w3.org/2000/svg"
   xmlns:xlink="http://www.w3.org/1999/xlink"
   xmlns:sodipodi="http://sodipodi.sourceforge.net/DTD/sodipodi-0.dtd"
   xmlns:inkscape="http://www.inkscape.org/namespaces/inkscape"
   viewBox="0 0 512 512"
   id="svg2"
   version="1.1"
   inkscape:version="0.48.4 r9939"
   width="100%"
   height="100%"
   sodipodi:docname="levitate.svg">
  <metadata
     id="metadata38">
    <rdf:RDF>
      <cc:Work
         rdf:about="">
        <dc:format>image/svg+xml</dc:format>
        <dc:type
           rdf:resource="http://purl.org/dc/dcmitype/StillImage" />
        <dc:title />
      </cc:Work>
    </rdf:RDF>
  </metadata>
  <defs
     id="defs36">
    <linearGradient
       id="linearGradient4368">
      <stop
         style="stop-color:#00ffff;stop-opacity:1;"
         offset="0"
         id="stop4370" />
      <stop
         style="stop-color:#ffffff;stop-opacity:1;"
         offset="1"
         id="stop4372" />
    </linearGradient>
    <linearGradient
       inkscape:collect="always"
       xlink:href="#linearGradient4368"
       id="linearGradient4374"
       x1="536.54803"
       y1="2259.0417"
       x2="536.40289"
       y2="2283.1296"
       gradientUnits="userSpaceOnUse" />
  </defs>
  <sodipodi:namedview
     pagecolor="#ffffff"
     bordercolor="#666666"
     borderopacity="1"
     objecttolerance="10"
     gridtolerance="10"
     guidetolerance="10"
     inkscape:pageopacity="0"
     inkscape:pageshadow="2"
     inkscape:window-width="1280"
     inkscape:window-height="1002"
     id="namedview34"
     showgrid="false"
     inkscape:zoom="0.4609375"
     inkscape:cx="256"
     inkscape:cy="256"
     inkscape:window-x="-8"
     inkscape:window-y="-8"
     inkscape:window-maximized="1"
     inkscape:current-layer="svg2" />
  <path
     d="m0,0h512v512h-512z"
     id="path4" />
  <g
     transform="matrix(14.950864,0,0,14.950864,-7759.3484,-33746.424)"
     id="g6"
     style="fill-opacity:1;fill:url(#linearGradient4374)">
    <path
       d="m 541.8265,2272.5387 5.0552,-2.3574 c 1.6561,-0.9464 -0.0671,-3.0936 -1.639,-2.2311 l -2.7112,1.1751 -2.2267,-3.4479 -3.1983,0.6475 z"
       id="path8"
       inkscape:connector-curvature="0"
       style="fill:url(#linearGradient4374);fill-opacity:1" />
    <path
       d="m 541.1024,2268.0703 -4.6692,-2.5468 -4.3835,2.5468 c 2.5171,2.6684 2.8164,5.3385 0,8.0099 h 9.0527 c -2.7832,-2.67 -2.1696,-5.34 0,-8.0099 z"
       id="path10"
       inkscape:connector-curvature="0"
       style="fill:url(#linearGradient4374);fill-opacity:1" />
    <path
       d="m 541.3127,2279.074 1.8503,4.479 -5.031,-1.5698 z"
       id="path12"
       inkscape:connector-curvature="0"
       style="fill:url(#linearGradient4374);fill-opacity:1" />
    <path
       d="m 531.6577,2279.0235 -1.8502,4.4791 5.031,-1.5697 z"
       id="path14"
       inkscape:connector-curvature="0"
       style="fill:url(#linearGradient4374);fill-opacity:1" />
    <path
       d="m 527.5713,2276.7636 c -0.4473,1.6697 2.8663,4.0087 7.4015,5.2238 h 3.3059 c 4.5352,-1.2151 7.8488,-3.5541 7.4015,-5.2238 -0.4473,-1.6697 -4.4865,-2.0383 -9.0545,-0.8232 -4.5679,-1.2151 -8.607,-0.8465 -9.0545,0.8232 z"
       id="path16"
       inkscape:connector-curvature="0"
       style="fill:url(#linearGradient4374);fill-opacity:1" />
    <path
       d="m 29.3565,1146.3989 c 0,1.4124 -1.145,2.5574 -2.5574,2.5574 -1.4124,0 -2.5574,-1.145 -2.5574,-2.5574 0,-1.4124 1.145,-2.5573 2.5574,-2.5573 1.4124,0 2.5574,1.1449 2.5574,2.5573 z"
       transform="matrix(-1.51789,0,0,0.83069,577.28211,1314.0205)"
       id="path18"
       inkscape:connector-curvature="0"
       style="fill:url(#linearGradient4374);fill-opacity:1" />
    <path
       d="m 531.3593,2272.5387 -5.0552,-2.3574 c -1.6561,-0.9464 0.0671,-3.0936 1.639,-2.2311 l 2.7112,1.1751 2.2267,-3.4479 3.1983,0.6475 z"
       id="path20"
       inkscape:connector-curvature="0"
       style="fill:url(#linearGradient4374);fill-opacity:1" />
    <path
       d="m 29.3565,1146.3989 c 0,1.4124 -1.145,2.5574 -2.5574,2.5574 -1.4124,0 -2.5574,-1.145 -2.5574,-2.5574 0,-1.4124 1.145,-2.5573 2.5574,-2.5573 1.4124,0 2.5574,1.1449 2.5574,2.5573 z"
       transform="matrix(-1.14165,0,0,1.49198,567.19912,551.33242)"
       id="path22"
       inkscape:connector-curvature="0"
       style="fill:url(#linearGradient4374);stroke:#000000;stroke-width:0.76620001000000004;fill-opacity:1" />
    <path
       d="m 533.6945,2262.1638 c 1.9013,-1.1524 3.8683,-1.1078 5.6962,0"
       id="path24"
       inkscape:connector-curvature="0"
       style="fill:url(#linearGradient4374);stroke:#000000;fill-opacity:1" />
    <path
       d="m 536.5121,2259.6474 v 3.5722"
       id="path26"
       inkscape:connector-curvature="0"
       style="fill:url(#linearGradient4374);stroke:#ffffff;fill-opacity:1" />
    <path
       d="m 532.4914,2277.0023 12.6232,4.192"
       id="path28"
       inkscape:connector-curvature="0"
       style="fill:url(#linearGradient4374);stroke:#000000;fill-opacity:1" />
    <path
       d="m 529.0716,2279.9706 c 3.2731,1.7747 5.5711,2.3169 9.1376,2.528"
       id="path30"
       inkscape:connector-curvature="0"
       style="fill:url(#linearGradient4374);stroke:#000000;fill-opacity:1" />
    <path
       d="m 540.4927,2277.0023 -4.1451,1.3765"
       id="path32"
       inkscape:connector-curvature="0"
       style="fill:url(#linearGradient4374);stroke:#000000;fill-opacity:1" />
  </g>
  <path
     sodipodi:type="arc"
     style="fill:#ffffff;fill-opacity:1;fill-rule:nonzero;stroke:#000000;stroke-width:1.97399998;stroke-miterlimit:4;stroke-opacity:1;stroke-dasharray:none"
     id="path3015"
     sodipodi:cx="265.76273"
     sodipodi:cy="469.69492"
     sodipodi:rx="100.88136"
     sodipodi:ry="14.101695"
     d="m 366.64409,469.69492 a 100.88136,14.101695 0 1 1 -201.76273,0 100.88136,14.101695 0 1 1 201.76273,0 z"
     transform="matrix(1.1785727,0,0,1.7390205,-46.373229,-357.96157)" />
</svg>
