<?xml version="1.0" encoding="UTF-8" standalone="no"?>
<svg
   xmlns:dc="http://purl.org/dc/elements/1.1/"
   xmlns:cc="http://creativecommons.org/ns#"
   xmlns:rdf="http://www.w3.org/1999/02/22-rdf-syntax-ns#"
   xmlns:svg="http://www.w3.org/2000/svg"
   xmlns="http://www.w3.org/2000/svg"
   xmlns:xlink="http://www.w3.org/1999/xlink"
   xmlns:sodipodi="http://sodipodi.sourceforge.net/DTD/sodipodi-0.dtd"
   xmlns:inkscape="http://www.inkscape.org/namespaces/inkscape"
   viewBox="0 0 512 512"
   id="svg2"
   version="1.1"
   inkscape:version="0.48.4 r9939"
   width="100%"
   height="100%"
   sodipodi:docname="treasure-map.svg">
  <metadata
     id="metadata40">
    <rdf:RDF>
      <cc:Work
         rdf:about="">
        <dc:format>image/svg+xml</dc:format>
        <dc:type
           rdf:resource="http://purl.org/dc/dcmitype/StillImage" />
        <dc:title></dc:title>
      </cc:Work>
    </rdf:RDF>
  </metadata>
  <defs
     id="defs38">
    <linearGradient
       id="linearGradient3017">
      <stop
         style="stop-color:#ffffff;stop-opacity:1;"
         offset="0"
         id="stop3019" />
      <stop
         style="stop-color:#ffffff;stop-opacity:0.05035971;"
         offset="1"
         id="stop3021" />
    </linearGradient>
    <radialGradient
       inkscape:collect="always"
       xlink:href="#linearGradient3017"
       id="radialGradient3023"
       cx="645.28253"
       cy="973.61121"
       fx="645.28253"
       fy="973.61121"
       r="12.9325"
       gradientTransform="matrix(0.49947231,-0.49776344,0.63355678,0.63573188,-293.8562,675.85427)"
       gradientUnits="userSpaceOnUse" />
  </defs>
  <sodipodi:namedview
     pagecolor="#ffffff"
     bordercolor="#666666"
     borderopacity="1"
     objecttolerance="10"
     gridtolerance="10"
     guidetolerance="10"
     inkscape:pageopacity="0"
     inkscape:pageshadow="2"
     inkscape:window-width="1280"
     inkscape:window-height="1002"
     id="namedview36"
     showgrid="false"
     inkscape:zoom="0.4609375"
     inkscape:cx="256"
     inkscape:cy="256"
     inkscape:window-x="-8"
     inkscape:window-y="-8"
     inkscape:window-maximized="1"
     inkscape:current-layer="svg2" />
  <path
     d="m0,0h512v512h-512z"
     id="path4" />
  <g
     transform="matrix(18.68858,0,0,18.68858,-11801.24502,-17932.916)"
     id="g6"
     style="fill-opacity:1;fill:url(#radialGradient3023)">
    <path
       d="m633.6434,962.1525c6.7789-1.4705 13.5578-1.2867 20.3366-.5438 4.007,5.9624.4226,14.1928 3.8607,23.1098-7.2882.1202-14.0572-1.5026-23.5448.9244-1.2936-10.1139 2.7872-15.6603-.6525-23.4904z"
       fill="#fff"
       id="path8"
       style="fill-opacity:1;fill:url(#radialGradient3023)" />
    <path
       d="m649.1182,979.7603c2.563.9129 5.0807,1.8847 6.7061,4.0164-.8817-2.6503-4.742-5.2736-6.8853-5.6661l.1793,1.6496z"
       fill-rule="evenodd"
       id="path10"
       style="fill-opacity:1;fill:url(#radialGradient3023)" />
    <path
       d="m653.7647,978.2596c-1.2732,1.9772-2.596,3.8801-4.8916,4.3192 2.677.5458 5.7911-1.7772 6.5004-3.6254l-1.6088-.6938z"
       fill-rule="evenodd"
       id="path12"
       style="fill-opacity:1;fill:url(#radialGradient3023)" />
    <path
       d="m652.1721,977.5361c-.2194-3.2269-1.5311-4.934-4.9789-3.2327-3.3926,2.678-9.6706,2.6362-7.9525-2.1045 .311-.8581 3.4157-4.5684-2.443-5.7319"
       fill="none"
       stroke="#000"
       stroke-dasharray="1, 1"
       id="path14"
       style="fill-opacity:1;fill:url(#radialGradient3023)" />
    <path
       d="m645.186,981.9941-2.2206,1.7973-.9913-1.5438-1.8688,3.659 4.2254-.1204-.1476-.2299 1.0712.0914-.0682-3.6536z"
       fill-rule="evenodd"
       id="path16"
       style="fill-opacity:1;fill:url(#radialGradient3023)" />
    <path
       d="m656.7326,973.8697-2.3767-1.367 1.8806-1.9484 .4961,3.3154z"
       fill-rule="evenodd"
       id="path18"
       style="fill-opacity:1;fill:url(#radialGradient3023)" />
    <path
       d="m639.8548,961.1971 3.3041,3.3853-.3708-3.9741-2.9334.5888z"
       fill-rule="evenodd"
       id="path20"
       style="fill-opacity:1;fill:url(#radialGradient3023)" />
    <path
       d="m657.5691,967.3567-4.7302.0574 3.0723-2.548 1.6579,2.4906z"
       fill-rule="evenodd"
       id="path22"
       style="fill-opacity:1;fill:url(#radialGradient3023)" />
    <path
       d="m633.904,978.7838 6.5968,7.2958-7.2436.1839 .6468-7.4798z"
       fill-rule="evenodd"
       id="path24"
       style="fill-opacity:1;fill:url(#radialGradient3023)" />
    <path
       d="m631.9757,963.3675 4.7302.0574-3.0723-2.548-1.6579,2.4906z"
       fill-rule="evenodd"
       id="path26"
       style="fill-opacity:1;fill:url(#radialGradient3023)" />
    <path
       d="m653.0475,960.8415 2.3,1.8607"
       fill="none"
       stroke="#000"
       id="path28"
       style="fill-opacity:1;fill:url(#radialGradient3023)" />
    <path
       d="m643.1048,970.0913 1.74-4.0782 1.4682,2.7732"
       fill="none"
       stroke="#000"
       id="path30"
       style="fill-opacity:1;fill:url(#radialGradient3023)" />
    <path
       d="m649.2492,968.1881-1.74-4.0782-2.0663,3.3713"
       fill="none"
       stroke="#000"
       id="path32"
       style="fill-opacity:1;fill:url(#radialGradient3023)" />
    <path
       d="m652.6206,969.9282-2.175-3.6976-2.7188,3.8063"
       fill="none"
       stroke="#000"
       id="path34"
       style="fill-opacity:1;fill:url(#radialGradient3023)" />
  </g>
</svg>
