<?xml version="1.0" encoding="UTF-8" standalone="no"?>
<svg
   xmlns:dc="http://purl.org/dc/elements/1.1/"
   xmlns:cc="http://creativecommons.org/ns#"
   xmlns:rdf="http://www.w3.org/1999/02/22-rdf-syntax-ns#"
   xmlns:svg="http://www.w3.org/2000/svg"
   xmlns="http://www.w3.org/2000/svg"
   xmlns:xlink="http://www.w3.org/1999/xlink"
   xmlns:sodipodi="http://sodipodi.sourceforge.net/DTD/sodipodi-0.dtd"
   xmlns:inkscape="http://www.inkscape.org/namespaces/inkscape"
   viewBox="0 0 512 512"
   id="svg2"
   version="1.1"
   inkscape:version="0.48.4 r9939"
   width="100%"
   height="100%"
   sodipodi:docname="minotaur.svg">
  <metadata
     id="metadata26">
    <rdf:RDF>
      <cc:Work
         rdf:about="">
        <dc:format>image/svg+xml</dc:format>
        <dc:type
           rdf:resource="http://purl.org/dc/dcmitype/StillImage" />
      </cc:Work>
    </rdf:RDF>
  </metadata>
  <defs
     id="defs24">
    <linearGradient
       id="linearGradient3857">
      <stop
         id="stop3859"
         offset="0"
         style="stop-color:#ffff00;stop-opacity:1;" />
      <stop
         style="stop-color:#0000ff;stop-opacity:0.98039216;"
         offset="0.25"
         id="stop3861" />
      <stop
         style="stop-color:#ff0000;stop-opacity:0.96470588;"
         offset="0.5"
         id="stop3863" />
      <stop
         id="stop3865"
         offset="1"
         style="stop-color:#ffe200;stop-opacity:0.93525177;" />
    </linearGradient>
    <linearGradient
       id="linearGradient3847">
      <stop
         style="stop-color:#0000ff;stop-opacity:0.98039216;"
         offset="0"
         id="stop3851" />
      <stop
         style="stop-color:#ff0000;stop-opacity:0.96470588;"
         offset="0.5"
         id="stop3853" />
      <stop
         id="stop3855"
         offset="1"
         style="stop-color:#ffe200;stop-opacity:0.93525177;" />
    </linearGradient>
    <linearGradient
       id="linearGradient3815">
      <stop
         id="stop3817"
         offset="0"
         style="stop-color:#ffff04;stop-opacity:1;" />
      <stop
         style="stop-color:#fff900;stop-opacity:0.99215686;"
         offset="0"
         id="stop3819" />
      <stop
         style="stop-color:#ffca00;stop-opacity:0.98039216;"
         offset="0.25"
         id="stop3823" />
      <stop
         style="stop-color:#ff9800;stop-opacity:0.96470588;"
         offset="0.5"
         id="stop3825" />
      <stop
         id="stop3827"
         offset="1"
         style="stop-color:#ff3300;stop-opacity:0.93525177;" />
    </linearGradient>
    <linearGradient
       id="linearGradient3027">
      <stop
         style="stop-color:#ffff00;stop-opacity:1;"
         offset="0"
         id="stop3029" />
      <stop
         id="stop3807"
         offset="0.25"
         style="stop-color:#0000ff;stop-opacity:0.98039216;" />
      <stop
         id="stop3805"
         offset="0.5"
         style="stop-color:#ff0000;stop-opacity:0.96470588;" />
      <stop
         style="stop-color:#ffe200;stop-opacity:0.93525177;"
         offset="1"
         id="stop3031" />
    </linearGradient>
    <radialGradient
       inkscape:collect="always"
       xlink:href="#linearGradient3027"
       id="radialGradient3035"
       cx="645.0639"
       cy="862.36212"
       fx="645.0639"
       fy="862.36212"
       r="12.822256"
       gradientTransform="matrix(1,0,0,0.96706461,0,28.445726)"
       gradientUnits="userSpaceOnUse" />
    <radialGradient
       inkscape:collect="always"
       xlink:href="#linearGradient3857"
       id="radialGradient3813"
       gradientUnits="userSpaceOnUse"
       gradientTransform="matrix(1,0,0,0.78702058,0,84.396045)"
       cx="289.67426"
       cy="396.26385"
       fx="289.67426"
       fy="396.26385"
       r="6.4545279" />
    <radialGradient
       inkscape:collect="always"
       xlink:href="#linearGradient3027"
       id="radialGradient3829"
       gradientUnits="userSpaceOnUse"
       gradientTransform="matrix(1,0,0,0.96706461,0,28.445726)"
       cx="644.71564"
       cy="868.24408"
       fx="644.71564"
       fy="868.24408"
       r="12.822256" />
    <radialGradient
       inkscape:collect="always"
       xlink:href="#linearGradient3857"
       id="radialGradient3831"
       gradientUnits="userSpaceOnUse"
       gradientTransform="matrix(1,0,0,0.78702058,0,84.396045)"
       cx="303.80276"
       cy="396.84076"
       fx="303.80276"
       fy="396.84076"
       r="6.4545279" />
  </defs>
  <sodipodi:namedview
     pagecolor="#ffffff"
     bordercolor="#666666"
     borderopacity="1"
     objecttolerance="10"
     gridtolerance="10"
     guidetolerance="10"
     inkscape:pageopacity="0"
     inkscape:pageshadow="2"
     inkscape:window-width="1280"
     inkscape:window-height="1002"
     id="namedview22"
     showgrid="false"
     inkscape:zoom="0.4609375"
     inkscape:cx="-151.86441"
     inkscape:cy="256"
     inkscape:window-x="-8"
     inkscape:window-y="-8"
     inkscape:window-maximized="1"
     inkscape:current-layer="g6" />
  <path
     d="m0,0h512v512h-512z"
     id="path4" />
  <g
     transform="matrix(18.68858,0,0,18.68858,-11801.76607,-15890.35085)"
     id="g6"
     style="fill:url(#radialGradient3035)">
    <path
       d="m636.4836,860.7541c3.6068.6358 6.4106,4.8129 6.5,8.8025h2.1875 .25 2.1875c.0894-3.9896 2.8932-8.1668 6.5-8.8025h-8.6875-.25-8.6875z"
       fill="#fff"
       id="path8"
       style="fill:url(#radialGradient3829)" />
    <g
       transform="matrix(1,0,0,-1.2784,349.25409,1369.662)"
       id="g10"
       style="fill:url(#radialGradient3035)">
      <path
         d="m291.2124,391.184c-10.3605,2.1886-12.5234,11.217 4.9164,10.0573v-6.1426c-6.8498,4.918-9.683,2.0276-7.2552-1.5277 1.9888,1.8795 4.5226-.7356 2.3388-2.387z"
         fill="#fff"
         id="path12"
         style="fill:url(#radialGradient3813);fill-opacity:1.0" />
      <path
         d="m300.8716,391.184c10.3605,2.1886 12.5234,11.217-4.9164,10.0573v-6.1426c6.8498,4.918 9.683,2.0276 7.2552-1.5277-1.9888,1.8795-4.5226-.7356-2.3388-2.387z"
         fill="#fff"
         id="path14"
         style="fill:url(#radialGradient3831);fill-opacity:1.0" />
    </g>
    <path
       d="m648.6104,857.7855c0,2.115-1.4848,4.6387-3.3143,4.6387s-3.3143-2.5238-3.3143-4.6387 1.4848-3.0242 3.3143-3.0242 3.3143.9092 3.3143,3.0242z"
       fill="#fff"
       stroke="#000"
       id="path16"
       style="fill:url(#radialGradient3035)" />
    <path
       d="m645.3188,868.5143c-2.7664,0-5.5329,4.2347-5.5329,4.2347l1.4097,2.0746-2.2104,1.2589h4.3953c-2.1678-2.1683-.6295-4.6074 1.9383-4.6074 2.603,0 3.9647,2.5807 1.9383,4.6074h4.35l-2.165-1.2589 1.4097-2.0746c0,0-2.7665-4.2347-5.5329-4.2347z"
       fill="#fff"
       id="path18"
       style="fill-opacity:1;fill:url(#radialGradient3035)" />
    <path
       d="m637.3819,851.2826c-.2015.4823-.1562.8514-.1562,1.5 0,1.4445 1.2882,2.5905 2.8125,2.8125 3.3048.4812 7.0077.4812 10.3125,0 1.5243-.2219 2.7541-1.2692 2.8125-2.8125 .0197-.5203-.0866-1.0029-.1562-1.5-.1575,1.4828-1.4022,2.444-2.9062,2.6562-3.2016.4518-6.6109.4518-9.8125,0-1.504-.2122-2.7487-1.1734-2.9062-2.6562z"
       fill="#fff"
       id="path20"
       style="fill:url(#radialGradient3035)" />
  </g>
</svg>
