<?xml version="1.0" encoding="UTF-8" standalone="no"?>
<svg
   xmlns:dc="http://purl.org/dc/elements/1.1/"
   xmlns:cc="http://creativecommons.org/ns#"
   xmlns:rdf="http://www.w3.org/1999/02/22-rdf-syntax-ns#"
   xmlns:svg="http://www.w3.org/2000/svg"
   xmlns="http://www.w3.org/2000/svg"
   xmlns:sodipodi="http://sodipodi.sourceforge.net/DTD/sodipodi-0.dtd"
   xmlns:inkscape="http://www.inkscape.org/namespaces/inkscape"
   viewBox="0 0 512 512"
   id="svg2"
   version="1.1"
   inkscape:version="0.48.4 r9939"
   width="100%"
   height="100%"
   sodipodi:docname="owl_wisdom.svg">
  <metadata
     id="metadata48">
    <rdf:RDF>
      <cc:Work
         rdf:about="">
        <dc:format>image/svg+xml</dc:format>
        <dc:type
           rdf:resource="http://purl.org/dc/dcmitype/StillImage" />
      </cc:Work>
    </rdf:RDF>
  </metadata>
  <defs
     id="defs46" />
  <sodipodi:namedview
     pagecolor="#ffffff"
     bordercolor="#666666"
     borderopacity="1"
     objecttolerance="10"
     gridtolerance="10"
     guidetolerance="10"
     inkscape:pageopacity="0"
     inkscape:pageshadow="2"
     inkscape:window-width="1280"
     inkscape:window-height="1002"
     id="namedview44"
     showgrid="false"
     inkscape:zoom="0.921875"
     inkscape:cx="225.22069"
     inkscape:cy="217.59554"
     inkscape:window-x="-8"
     inkscape:window-y="-8"
     inkscape:window-maximized="1"
     inkscape:current-layer="g6" />
  <path
     d="m0,0h512v512h-512z"
     id="path4" />
  <g
     transform="matrix(18.68858,0,0,18.68858,-4021.01251,-7886.21754)"
     id="g6"
     style="fill:#784421">
    <path
       d="m238.4217,435.9351c0,5.0256-4.2769,9.1043-9.5467,9.1043s-9.5467-4.0787-9.5467-9.1043 4.2769-6.4489 9.5467-6.4489 9.5467,1.4233 9.5467,6.4489z"
       fill="none"
       stroke="#fff"
       id="path8"
       style="fill:#ffff00" />
    <path
       d="m223.1546,448.7409 5.886-13.4864 5.886,13.4864"
       stroke="#fff"
       id="path10"
       style="fill:#784421" />
    <path
       d="m226.1459,448.7409 2.8947-11.7187 2.8947,11.7187"
       stroke="#fff"
       id="path12"
       style="fill:#ffff00" />
    <path
       d="m228.97,445.0458v3.7786"
       fill="none"
       stroke="#fff"
       id="path14"
       style="fill:#784421" />
    <path
       d="m221.756,431.2343c0,19.1247 14.2964,19.5542 14.2964,0"
       fill-rule="evenodd"
       stroke="#fff"
       id="path16"
       style="fill:#784421" />
    <g
       transform="translate(0,2.4749)"
       id="g18"
       style="fill:#784421">
      <path
         d="m229.3678,432.3179c0,1.977-1.6027,3.5797-3.5797,3.5797s-3.5797-1.6027-3.5797-3.5797 1.6027-3.5797 3.5797-3.5797 3.5797,1.6027 3.5797,3.5797z"
         fill="#fff"
         transform="matrix(1.17972,0,0,1.31507,-41.85474,-141.78123)"
         id="path20"
         style="fill:#784421" />
      <path
         d="m229.3678,432.3179c0,1.977-1.6027,3.5797-3.5797,3.5797s-3.5797-1.6027-3.5797-3.5797 1.6027-3.5797 3.5797-3.5797 3.5797,1.6027 3.5797,3.5797z"
         fill="#fff"
         transform="matrix(1.17972,0,0,1.31507,-32.99957,-141.78123)"
         id="path22"
         style="fill:#784421" />
      <path
         d="m227.625,431.7684c0,1.3289-1.0773,2.4062-2.4062,2.4062s-2.4062-1.0773-2.4062-2.4062 1.0773-2.4062 2.4062-2.4062 2.4062,1.0773 2.4062,2.4062z"
         stroke="#000"
         stroke-width="1.7307"
         transform="matrix(.5779,0,0,.57768,94.05324,177.69927)"
         id="path24"
         style="fill:#784421" />
      <path
         d="m227.625,431.7684c0,1.3289-1.0773,2.4062-2.4062,2.4062s-2.4062-1.0773-2.4062-2.4062 1.0773-2.4062 2.4062-2.4062 2.4062,1.0773 2.4062,2.4062z"
         stroke="#000"
         stroke-width="1.7307"
         transform="matrix(.5779,0,0,.57768,103.65477,177.69927)"
         id="path26"
         style="fill:#784421" />
      <path
         d="m239.0824,420.9126c-5.3579,1.4467-8.8316,5.301-10.1388,10.2174-1.2689-4.7724-4.5654-8.7124-10.1388-10.2174"
         stroke="#fff"
         id="path28"
         style="fill:#784421" />
      <path
         d="m222.3737,422.5542c3.45-1.9911 9.1543-2.0129 12.6422,0"
         fill="none"
         stroke="#fff"
         id="path30"
         style="fill:#784421" />
    </g>
    <path
       d="m220.7611,448.8157h16.4688"
       fill="none"
       stroke="#000"
       id="path32"
       style="fill:#784421" />
    <path
       d="m230.1875,437.0594c-.1877.7007-.7655,1.2405-1.3125,1.2405-.5342,1e-05-1.1028-.5382-1.2812-1.2044-.0435.1818-.0937.3762-.0937.5777 0,1.0287.6201,1.8413 1.375,1.8413s1.375-.8126 1.375-1.8413c0-.2133-.014-.4228-.0625-.6138z"
       fill="#fff"
       id="path34"
       style="fill:#784421" />
    <path
       d="m223.9173,435.3768c.0565,1.1458.7757,2.0349 1.6308,2.0349 .3202,0 .6295-.1199.8806-.3392-.1529.8497-.732,1.4696-1.4025,1.4696-.7879,0-1.4351-.8481-1.4351-1.9218 0-.466.1254-.9084.3262-1.2435z"
       fill="#fff"
       id="path36"
       style="fill:#784421" />
    <path
       d="m233.8653,435.5094c.2008.3351.2935.7775.2935,1.2435 0,1.0737-.6146,1.9218-1.4025,1.9218-.6705,0-1.2496-.6199-1.4025-1.4696 .2512.2192.5604.3392.8806.3392 .8551-2e-05 1.5743-.8891 1.6308-2.0349z"
       fill="#fff"
       id="path38"
       style="fill:#784421" />
    <path
       d="m225.875,440.701c.1989.8524.8089,1.4803 1.5,1.4803 .441,0 .8429-.2462 1.125-.6499-.0395.9806-.6143,1.7691-1.3438,1.7691-.7549,0-1.375-.8487-1.375-1.8774 0-.2572.0245-.4991.0937-.7221z"
       fill="#fff"
       id="path40"
       style="fill:#784421" />
    <path
       d="m232.0625,440.6288c.0865.2444.1562.505.1562.7943 0,1.0287-.6201,1.8774-1.375,1.8774-.7294,0-1.3355-.7885-1.375-1.7691 .2821.4037.684.6499 1.125.6499 .7085,0 1.285-.6668 1.4688-1.5525z"
       fill="#fff"
       id="path42"
       style="fill:#784421" />
  </g>
</svg>
