<?xml version="1.0" encoding="UTF-8" standalone="no"?>
<svg
   xmlns:dc="http://purl.org/dc/elements/1.1/"
   xmlns:cc="http://creativecommons.org/ns#"
   xmlns:rdf="http://www.w3.org/1999/02/22-rdf-syntax-ns#"
   xmlns:svg="http://www.w3.org/2000/svg"
   xmlns="http://www.w3.org/2000/svg"
   xmlns:xlink="http://www.w3.org/1999/xlink"
   xmlns:sodipodi="http://sodipodi.sourceforge.net/DTD/sodipodi-0.dtd"
   xmlns:inkscape="http://www.inkscape.org/namespaces/inkscape"
   viewBox="0 0 512 512"
   id="svg2"
   version="1.1"
   inkscape:version="0.48.4 r9939"
   width="100%"
   height="100%"
   sodipodi:docname="prayer.svg">
  <metadata
     id="metadata38">
    <rdf:RDF>
      <cc:Work
         rdf:about="">
        <dc:format>image/svg+xml</dc:format>
        <dc:type
           rdf:resource="http://purl.org/dc/dcmitype/StillImage" />
      </cc:Work>
    </rdf:RDF>
  </metadata>
  <defs
     id="defs36">
    <linearGradient
       id="linearGradient3015">
      <stop
         style="stop-color:#ffff00;stop-opacity:1;"
         offset="0"
         id="stop3017" />
      <stop
         style="stop-color:#0000ff;stop-opacity:1;"
         offset="1"
         id="stop3019" />
    </linearGradient>
    <radialGradient
       inkscape:collect="always"
       xlink:href="#linearGradient3015"
       id="radialGradient3021"
       cx="687.1723"
       cy="1082.1823"
       fx="687.1723"
       fy="1082.1823"
       r="12.528926"
       gradientTransform="matrix(8.1774358e-4,-1.3063824,0.84814754,5.2876793e-4,-236.64608,1972.4348)"
       gradientUnits="userSpaceOnUse" />
  </defs>
  <sodipodi:namedview
     pagecolor="#ffffff"
     bordercolor="#666666"
     borderopacity="1"
     objecttolerance="10"
     gridtolerance="10"
     guidetolerance="10"
     inkscape:pageopacity="0"
     inkscape:pageshadow="2"
     inkscape:window-width="1280"
     inkscape:window-height="1002"
     id="namedview34"
     showgrid="false"
     inkscape:zoom="0.4609375"
     inkscape:cx="256"
     inkscape:cy="256"
     inkscape:window-x="-8"
     inkscape:window-y="-8"
     inkscape:window-maximized="1"
     inkscape:current-layer="svg2" />
  <path
     d="m0,0h512v512h-512z"
     id="path4" />
  <g
     transform="matrix(18.68858,0,0,18.68858,-12483.06769,-19766.01735)"
     id="g6"
     style="fill-opacity:1;fill:url(#radialGradient3021)">
    <path
       d="m673.6419,1072.0262 2.3125,11.9529h11.8027l2.1323-11.9529h-16.2474z"
       fill="#fff"
       id="path8"
       style="fill-opacity:1;fill:url(#radialGradient3021)" />
    <path
       d="m686.4835,1066.0636c-1.8667-1.07-7.814-.8839-9.3561,0-5.3619,3.1544-7.5103,8.2987-7.3685,14.8726h24.0446c.1418-6.5739-1.9582-11.7182-7.32-14.8726z"
       fill="#fff"
       fill-rule="evenodd"
       stroke="#000"
       id="path10"
       style="fill-opacity:1;fill:url(#radialGradient3021)" />
    <path
       d="m691.9251,1078.8062h2.0644v2.0303h-2.0644z"
       id="path12"
       style="fill-opacity:1;fill:url(#radialGradient3021)" />
    <path
       d="m674.6202,1077.182c0-1.6983 1.327-4.3477 2.3438-5.6089"
       fill="#fff"
       fill-rule="evenodd"
       stroke="#000"
       id="path14"
       style="fill-opacity:1;fill:url(#radialGradient3021)" />
    <path
       d="m690.3024,1077.182h-5.0308c-.0682-2.3846-1.7895-3.8987-3.4903-3.8987-1.8993,0-3.4419,1.6213-3.4419,3.8987h-4.8716"
       fill="#fff"
       fill-rule="evenodd"
       stroke="#000"
       id="path16"
       style="fill-opacity:1;fill:url(#radialGradient3021)" />
    <path
       d="m686.857,1071.5731c1.0168,1.2612 2.3438,3.9106 2.4287,5.6089"
       fill="#fff"
       fill-rule="evenodd"
       stroke="#000"
       id="path18"
       style="fill-opacity:1;fill:url(#radialGradient3021)" />
    <path
       d="m681.7578,1073.4348v7.314"
       fill="none"
       stroke="#000"
       id="path20"
       style="fill-opacity:1;fill:url(#radialGradient3021)" />
    <path
       d="m685.5121,1064.6028c0,1.8494-1.4992,3.3487-3.3487,3.3487s-3.3487-1.4993-3.3487-3.3487 1.4992-3.3487 3.3487-3.3487 3.3487,1.4993 3.3487,3.3487z"
       fill="#fff"
       stroke="#000"
       stroke-width=".5785"
       transform="matrix(1.66257,0,0,1.79752,-452.18442,-849.5063)"
       id="path22"
       style="fill-opacity:1;fill:url(#radialGradient3021)" />
    <path
       d="m678.6803,1066.6768c2.2437.6201 4.4217.5783 6.5449,0"
       fill="none"
       stroke="#000"
       id="path24"
       style="fill-opacity:1;fill:url(#radialGradient3021)" />
    <path
       d="m680.9209,1065.6045h2.0886v2.1526h-2.0886z"
       fill="#fff"
       id="path26"
       style="fill-opacity:1;fill:url(#radialGradient3021)" />
    <path
       d="m693.263,1079.412c0,.7388-.5989,1.3378-1.3378,1.3378s-1.3378-.599-1.3378-1.3378 .5989-1.3378 1.3378-1.3378 1.3378.599 1.3378,1.3378z"
       fill="#fff"
       transform="translate(.0346,-.3227)"
       id="path28"
       style="fill-opacity:1;fill:url(#radialGradient3021)" />
    <path
       d="m-671.6566,1078.8062h2.0644v2.0303h-2.0644z"
       transform="scale(-1,1)"
       id="path30"
       style="fill-opacity:1;fill:url(#radialGradient3021)" />
    <path
       d="m693.263,1079.412c0,.7388-.5989,1.3378-1.3378,1.3378s-1.3378-.599-1.3378-1.3378 .5989-1.3378 1.3378-1.3378 1.3378.599 1.3378,1.3378z"
       fill="#fff"
       transform="matrix(-1,0,0,1,1363.547,-.32269)"
       id="path32"
       style="fill-opacity:1;fill:url(#radialGradient3021)" />
  </g>
</svg>
