<?xml version="1.0" encoding="UTF-8" standalone="no"?>
<svg
   xmlns:dc="http://purl.org/dc/elements/1.1/"
   xmlns:cc="http://creativecommons.org/ns#"
   xmlns:rdf="http://www.w3.org/1999/02/22-rdf-syntax-ns#"
   xmlns:svg="http://www.w3.org/2000/svg"
   xmlns="http://www.w3.org/2000/svg"
   xmlns:xlink="http://www.w3.org/1999/xlink"
   xmlns:sodipodi="http://sodipodi.sourceforge.net/DTD/sodipodi-0.dtd"
   xmlns:inkscape="http://www.inkscape.org/namespaces/inkscape"
   viewBox="0 0 512 512"
   id="svg2"
   version="1.1"
   inkscape:version="0.48.4 r9939"
   width="100%"
   height="100%"
   sodipodi:docname="scribe_scroll.svg">
  <metadata
     id="metadata28">
    <rdf:RDF>
      <cc:Work
         rdf:about="">
        <dc:format>image/svg+xml</dc:format>
        <dc:type
           rdf:resource="http://purl.org/dc/dcmitype/StillImage" />
      </cc:Work>
    </rdf:RDF>
  </metadata>
  <defs
     id="defs26">
    <linearGradient
       id="linearGradient3047">
      <stop
         style="stop-color:#ffff00;stop-opacity:1;"
         offset="0"
         id="stop3049" />
      <stop
         style="stop-color:#ffa353;stop-opacity:1;"
         offset="1"
         id="stop3051" />
    </linearGradient>
    <linearGradient
       inkscape:collect="always"
       xlink:href="#linearGradient3047"
       id="linearGradient3053"
       x1="249.49153"
       y1="431.72882"
       x2="210.44067"
       y2="-4.3389773"
       gradientUnits="userSpaceOnUse" />
    <linearGradient
       inkscape:collect="always"
       xlink:href="#linearGradient3047"
       id="linearGradient3055"
       x1="31.02357"
       y1="84.073268"
       x2="144.99162"
       y2="53.700382"
       gradientUnits="userSpaceOnUse" />
    <linearGradient
       inkscape:collect="always"
       xlink:href="#linearGradient3047"
       id="linearGradient3057"
       x1="168.43013"
       y1="444.9351"
       x2="508.19143"
       y2="444.9351"
       gradientUnits="userSpaceOnUse" />
  </defs>
  <sodipodi:namedview
     pagecolor="#ffffff"
     bordercolor="#666666"
     borderopacity="1"
     objecttolerance="10"
     gridtolerance="10"
     guidetolerance="10"
     inkscape:pageopacity="0"
     inkscape:pageshadow="2"
     inkscape:window-width="1280"
     inkscape:window-height="1002"
     id="namedview24"
     showgrid="false"
     showguides="true"
     inkscape:guide-bbox="true"
     inkscape:zoom="0.54206916"
     inkscape:cx="256"
     inkscape:cy="256"
     inkscape:window-x="-8"
     inkscape:window-y="-8"
     inkscape:window-maximized="1"
     inkscape:current-layer="svg2" />
  <path
     d="m0,0h512v512h-512z"
     id="path4" />
  <path
     style="fill:url(#linearGradient3053);fill-rule:evenodd;fill-opacity:1"
     inkscape:connector-curvature="0"
     id="path8"
     d="m 127.08164,490.04559 278.72148,1.95857 c -68.07128,-62.13019 -64.34104,-169.07933 -0.51393,-238.81763 71.3829,-77.99492 90.68073,-229.45278 -20.2659,-229.45278 -54.51085,10.590819 -225.0348,12.717579 -278.72148,-1.958563 101.06597,43.6939 60.14733,136.325713 0.17941,230.635763 -59.211027,93.11772 -72.223886,237.63651 20.60042,237.63651 z" />
  <path
     style="fill:url(#linearGradient3057);fill-rule:evenodd;stroke:#ff00ff;stroke-width:18.68857956000000100"
     inkscape:connector-curvature="0"
     id="path10"
     d="m 177.77442,388.53109 h 250.01021 c 96.2275,0 86.87947,112.80801 18.77268,112.80801 H 183.13056" />
  <path
     style="fill:none;stroke:#ff00ff;stroke-width:18.68790054000000100"
     inkscape:connector-curvature="0"
     id="path12"
     d="m 129.75957,499.54388 c 53.8336,4e-5 108.5085,-13.1532 94.55213,-74.68799 -5.83069,-25.70691 -35.21906,-42.18147 -61.15522,-33.56068 -19.72756,6.55705 -33.08124,28.11096 -25.98883,48.51774 5.26088,15.13879 22.00051,25.38798 37.69171,19.64527 l 46.31768,3.1e-4" />
  <path
     style="fill:url(#linearGradient3055);stroke:#ff00ff;stroke-width:18.68899918;stroke-miterlimit:4;stroke-dasharray:none"
     inkscape:connector-curvature="0"
     id="path14"
     d="M 149.2762,38.794877 C 112.6335,20.724889 71.597117,21.498596 47.96167,57.410572 c -20.239732,30.753927 1.31007,83.541688 48.820178,83.541688 39.506932,0 16.428132,-18.12648 -2.397552,-48.769487 -2.369183,-3.856375 1.985575,3.994421 0.186711,0.124916 l 29.352563,-22.828026 44.43748,0.652229"
     sodipodi:nodetypes="ccssccc" />
  <path
     style="fill:#ff00ff;stroke:#ff00ff;stroke-width:14.8329401"
     inkscape:connector-curvature="0"
     id="path16"
     d="M 93.956711,142.93885 H 141.0958" />
  <path
     style="fill-rule:evenodd;fill:#ff00ff"
     inkscape:connector-curvature="0"
     id="path18"
     d="m 85.090272,247.34822 49.978868,51.2011 -68.355349,11.44862" />
  <path
     style="fill-rule:evenodd;fill:#ff00ff"
     inkscape:connector-curvature="0"
     id="path20"
     d="m 410.26409,100.69519 43.37246,25.80893 -38.27048,6.90543 57.82994,34.97381 16.15815,-81.115913 -79.09194,13.429613 z" />
  <path
     style="fill-rule:evenodd;fill:#ff00ff"
     inkscape:connector-curvature="0"
     id="path22"
     d="m 497.58648,384.63826 -80.44313,39.30022 74.89449,8.78737" />
  <path
     style="fill:none;stroke:#000000;stroke-width:18.68899918;stroke-linecap:butt;stroke-linejoin:miter;stroke-miterlimit:4;stroke-opacity:1;stroke-dasharray:none"
     d="M 101.80116,234.74916 C 98.404758,242.43871 90.116338,246.77187 87.340356,253.03911 62.217902,309.75724 66.441828,313.8136 66.441828,313.8136 z"
     id="path3059"
     inkscape:connector-curvature="0"
     sodipodi:nodetypes="cscc" />
  <path
     style="fill:none;stroke:#000000;stroke-width:17.30841064;stroke-linecap:butt;stroke-linejoin:miter;stroke-miterlimit:4;stroke-opacity:1;stroke-dasharray:none"
     d="M 465.18505,174.65189 486.56485,88.002581 470.76399,87.54429 z"
     id="path3831"
     inkscape:connector-curvature="0"
     sodipodi:nodetypes="cccc" />
  <path
     style="fill:none;stroke:#000000;stroke-width:18.68899918;stroke-linecap:butt;stroke-linejoin:miter;stroke-miterlimit:4;stroke-opacity:1;stroke-dasharray:none"
     d="m 474.82293,375.03184 30.65478,30.65478"
     id="path3833"
     inkscape:connector-curvature="0" />
</svg>
