<?xml version="1.0" encoding="UTF-8" standalone="no"?>
<svg
   xmlns:dc="http://purl.org/dc/elements/1.1/"
   xmlns:cc="http://creativecommons.org/ns#"
   xmlns:rdf="http://www.w3.org/1999/02/22-rdf-syntax-ns#"
   xmlns:svg="http://www.w3.org/2000/svg"
   xmlns="http://www.w3.org/2000/svg"
   xmlns:sodipodi="http://sodipodi.sourceforge.net/DTD/sodipodi-0.dtd"
   xmlns:inkscape="http://www.inkscape.org/namespaces/inkscape"
   viewBox="0 0 512 512"
   id="svg3378"
   version="1.1"
   inkscape:version="0.48.4 r9939"
   width="100%"
   height="100%"
   sodipodi:docname="shoot.svg">
  <metadata
     id="metadata3402">
    <rdf:RDF>
      <cc:Work
         rdf:about="">
        <dc:format>image/svg+xml</dc:format>
        <dc:type
           rdf:resource="http://purl.org/dc/dcmitype/StillImage" />
      </cc:Work>
    </rdf:RDF>
  </metadata>
  <defs
     id="defs3400" />
  <sodipodi:namedview
     pagecolor="#ffffff"
     bordercolor="#666666"
     borderopacity="1"
     objecttolerance="10"
     gridtolerance="10"
     guidetolerance="10"
     inkscape:pageopacity="0"
     inkscape:pageshadow="2"
     inkscape:window-width="1280"
     inkscape:window-height="1002"
     id="namedview3398"
     showgrid="false"
     inkscape:zoom="1.5003828"
     inkscape:cx="256.20304"
     inkscape:cy="254.28976"
     inkscape:window-x="-8"
     inkscape:window-y="-8"
     inkscape:window-maximized="1"
     inkscape:current-layer="svg3378" />
  <path
     d="m0,0h512v512h-512z"
     id="path3380"
     style="fill:#000000;fill-opacity:1" />
  <g
     transform="matrix(18.68858,0,0,18.68858,-7724.10095,-44230.57933)"
     id="g3382">
    <path
       d="m437.9448,2391.9038-18.664-1.6789m-2.1669-2.2951-1.4356-18.001"
       fill="none"
       stroke="#fff"
       id="path3384" />
    <path
       d="m439.8515,2393.2643c-6.5692.3778-3.0626-10.4317-9.7371-13.8738l3.4685-3.4685c5.2865,2.5866 1.9907,13.7465 6.2687,17.3423z"
       fill="#fff"
       id="path3386" />
    <path
       d="m414.3438,2367.8125c-.3745,6.5114 10.3398,3.0358 13.7517,9.6514l3.4379-3.4379c-2.5639-5.24-13.6257-1.9731-17.1896-6.2135z"
       fill="#fff"
       id="path3388" />
    <path
       d="m417.6891,2393.7964 22.6276-26.5611-26.6034,22.5851"
       fill="#fff"
       stroke="#000"
       id="path3390" />
    <path
       d="m433.322,2370.8175 6.3461-3.008-3.0082,6.346-.6343-2.7036z"
       fill="#fff"
       id="path3392" />
    <path
       d="m418.6854,2388.7921 17.7188-17.7186"
       fill="none"
       stroke="#fff"
       id="path3394" />
    <path
       d="m413.3689,2390.3953 6.7243-3.048-2.9777,6.7951z"
       id="path3396" />
  </g>
  <path
     style="fill:#552200;stroke-width:4;stroke-miterlimit:4;stroke-dasharray:none;stroke:#000000"
     d="m 465.55277,491.23089 c -4.66462,-1.70908 -11.64978,-5.52426 -15.52254,-8.47817 -6.86778,-5.23831 -10.73258,-5.70238 -156.72797,-18.81952 l -149.68655,-13.44876 5.75147,-7.20827 c 4.57135,-5.72921 7.30947,-7.1969 13.34468,-7.15296 4.17628,0.0304 65.67514,5.32471 136.66414,11.76517 70.98901,6.44044 129.31448,11.46635 129.61216,11.16865 0.2977,-0.29768 -1.3046,-4.3717 -3.56066,-9.05337 -4.89517,-10.15834 -14.27824,-40.67736 -25.2954,-82.27485 -9.59022,-36.20983 -17.60258,-57.24665 -29.67973,-77.9256 -8.65818,-14.82485 -28.88022,-37.3034 -41.35585,-45.97063 l -6.08992,-4.23086 22.07914,-25.97035 c 12.14354,-14.28369 24.92169,-29.21241 28.39589,-33.17492 l 6.31676,-7.20457 10.2364,7.34762 c 18.92881,13.587 33.43852,39.4862 42.73384,76.27809 3.02397,11.96918 5.41919,29.25447 16.26262,117.3597 2.34964,19.09152 6.33081,43.01017 8.84701,53.15254 5.34797,21.55683 18.7382,50.15828 28.18523,60.20339 l 6.63101,7.05085 -9.33029,-0.15295 c -5.13167,-0.0842 -13.14682,-1.55121 -17.81144,-3.26031 l 0,8e-5 z"
     id="path3404"
     inkscape:connector-curvature="0" />
  <path
     style="fill:#552200;stroke:#000000;stroke-width:3.99911594;stroke-miterlimit:4;stroke-dasharray:none"
     d="M 62.136054,370.97598 C 62.122887,370.07689 56.8219,302.75551 50.356161,221.37293 39.050619,79.073041 38.402967,73.102919 33.449846,65.529005 27.621463,56.616706 24.279437,46.878478 22.144802,32.587579 l -1.465075,-9.80836 6.170695,5.762865 c 10.668303,9.963221 27.309579,18.929648 47.299443,25.485241 23.871118,7.828435 33.509395,9.498143 102.407525,17.740792 82.66343,9.889461 106.91789,15.957863 132.74408,33.212223 12.32668,8.23541 29.29939,26.45676 28.99767,31.131 -0.14115,2.18564 -59.78035,53.61441 -63.64832,54.88588 -1.12356,0.36934 -4.40626,-2.83197 -7.29488,-7.11402 -9.46394,-14.02912 -32.22407,-33.00258 -51.57588,-42.99506 -20.9726,-10.82937 -45.43133,-19.26276 -89.87077,-30.9875 -32.189882,-8.49287 -62.208717,-18.817703 -67.427342,-23.191307 -2.758902,-2.312169 -3.01998,-1.363565 -1.932484,7.021532 0.691551,5.332175 5.74124,67.399995 11.221533,137.928495 l 9.964165,128.23361 -6.032936,6.35887 c -5.8959,6.21443 -9.51802,8.00316 -9.566172,4.72414 l 0,0 z"
     id="path3406"
     inkscape:connector-curvature="0" />
  <path
     style="fill:#d45500;stroke:#000000;stroke-width:4.50000000000000000;stroke-miterlimit:4;stroke-dasharray:none"
     d="m 86.779661,480.83959 c 0,-0.43314 9.322153,-22.02624 20.715899,-47.98468 11.39374,-25.95842 20.37525,-47.53777 19.9589,-47.95412 -0.41634,-0.41634 -22.1217,8.95627 -48.234121,20.82801 C 53.107914,417.60056 31.495103,427.06573 31.191871,426.7625 30.88864,426.45927 95.725002,371.07298 175.27268,303.68184 288.85241,207.45948 330.32014,170.90521 368.41611,133.42373 l 48.51133,-47.728815 -17.54848,-4.211729 c -9.65165,-2.316451 -17.54845,-4.85481 -17.54845,-5.640797 0,-1.689431 104.82608,-51.751802 106.07349,-50.658105 0.70148,0.615028 -48.75487,106.645006 -50.8214,108.956546 -0.35261,0.3944 -2.30626,-6.92763 -4.34148,-16.27119 -2.03522,-9.34356 -4.37912,-17.73488 -5.20867,-18.64739 -0.82957,-0.91251 -19.03403,16.17224 -40.45438,37.9661 -26.36554,26.82529 -80.85384,88.85637 -168.6815,192.03199 -71.35448,83.82373 -130.15875,152.40678 -130.676161,152.40678 -0.517411,0 -0.940748,-0.35439 -0.940748,-0.78753 z"
     id="path3408"
     inkscape:connector-curvature="0" />
  <path
     style="fill:#d45500;stroke:#000000;stroke-width:2.44067788;stroke-miterlimit:4;stroke-dasharray:none"
     d="m 24.092846,430.47675 c 1.044068,-0.90475 2.777905,-2.35151 3.852971,-3.21501 l 1.954666,-1.57002 0.641912,1.40885 c 0.353052,0.77486 0.571757,1.4596 0.486012,1.52164 -0.750882,0.54327 -7.739833,3.53863 -8.216794,3.52159 -0.33939,-0.0121 0.237165,-0.76229 1.281233,-1.66705 z"
     id="path4178"
     inkscape:connector-curvature="0" />
  <path
     style="fill:#d45500;stroke:#000000;stroke-width:2.44067788;stroke-miterlimit:4;stroke-dasharray:none"
     d=""
     id="path4180"
     inkscape:connector-curvature="0" />
  <path
     style="fill:#d45500;stroke:#000000;stroke-width:2.44067788;stroke-miterlimit:4;stroke-dasharray:none"
     d=""
     id="path4182"
     inkscape:connector-curvature="0" />
  <path
     style="fill:#d45500;stroke:#000000;stroke-width:2.44067788;stroke-miterlimit:4;stroke-dasharray:none"
     d=""
     id="path4184"
     inkscape:connector-curvature="0" />
  <path
     style="fill:#d45500;stroke:#000000;stroke-width:2.44067788;stroke-miterlimit:4;stroke-dasharray:none"
     d=""
     id="path4186"
     inkscape:connector-curvature="0" />
  <path
     style="fill:#d45500;stroke:#000000;stroke-width:2.44067788;stroke-miterlimit:4;stroke-dasharray:none"
     d=""
     id="path4188"
     inkscape:connector-curvature="0" />
  <path
     style="fill:#d45500;stroke:#000000;stroke-width:2.44067788;stroke-miterlimit:4;stroke-dasharray:none"
     d=""
     id="path4190"
     inkscape:connector-curvature="0" />
  <path
     style="fill:#d45500;stroke:#000000;stroke-width:2.44067788;stroke-miterlimit:4;stroke-dasharray:none"
     d=""
     id="path4192"
     inkscape:connector-curvature="0" />
  <path
     style="fill:#d45500;stroke:#000000;stroke-width:2.44067788;stroke-miterlimit:4;stroke-dasharray:none"
     d="m 272.20614,192.94332 c -0.49719,-0.80447 -0.0296,-1.1386 1.0263,-0.73341 0.48844,0.18743 0.75304,0.55928 0.58799,0.82632 -0.40594,0.65684 -1.1784,0.61238 -1.61429,-0.0929 z"
     id="path4194"
     inkscape:connector-curvature="0" />
  <path
     style="fill:#d45500;stroke:#000000;stroke-width:2.44067788;stroke-miterlimit:4;stroke-dasharray:none"
     d=""
     id="path4196"
     inkscape:connector-curvature="0" />
  <path
     style="fill:#d45500;stroke:#000000;stroke-width:2.44067788;stroke-miterlimit:4;stroke-dasharray:none"
     d=""
     id="path4198"
     inkscape:connector-curvature="0" />
  <path
     style="fill:#d45500;stroke:#000000;stroke-width:2.44067788;stroke-miterlimit:4;stroke-dasharray:none"
     d=""
     id="path4200"
     inkscape:connector-curvature="0" />
  <path
     style="fill:#d45500;stroke:#000000;stroke-width:2.44067788;stroke-miterlimit:4;stroke-dasharray:none"
     d=""
     id="path4202"
     inkscape:connector-curvature="0" />
  <path
     style="fill:#d45500;stroke:#000000;stroke-width:2.44067788;stroke-miterlimit:4;stroke-dasharray:none"
     d="m 376.68196,76.959897 c -1.30118,-0.37037 -1.31213,-0.40853 -0.27119,-0.945057 0.84531,-0.43569 1.29426,-0.338563 2.0339,0.440018 1.00962,1.062771 0.6045,1.178844 -1.76271,0.505039 z"
     id="path4204"
     inkscape:connector-curvature="0" />
  <path
     style="fill:#000000;fill-opacity:1;stroke:#000000;stroke-width:4.5;stroke-miterlimit:4;stroke-dasharray:none"
     id="path4210"
     d="m 19.852535,29.414851 c -0.125437,1.249737 0.243592,2.45245 0.550237,3.647071 0.263639,1.15835 0.601064,2.299472 0.970606,3.42814 0.368203,1.081908 0.503156,2.213719 0.578937,3.347642 -0.01356,1.00116 0.07139,1.971256 0.267501,2.950529 0.205259,1.000252 0.259454,2.020739 0.295108,3.038421 0.02763,1.081581 0.02455,2.163639 0.02405,3.245483 -0.04238,0.874038 -0.05937,1.684028 0.527095,2.377734 0.429057,0.649397 0.915483,1.251888 1.385188,1.871182 0.481341,0.740535 1.039932,1.419131 1.577543,2.11748 0.526515,0.86232 0.859403,1.830562 1.100965,2.8074 0.169214,1.074688 0.344584,2.14752 0.626254,3.199786 0.308684,0.854864 0.919615,1.49867 1.487888,2.18013 0.620897,0.511443 1.084694,1.144598 1.579798,1.767463 0.493381,0.716014 1.015565,1.409973 1.549881,2.096683 0.457112,0.645556 1.054859,1.16773 1.607079,1.737383 0.26232,0.128056 0.16033,0.162828 0.322597,-0.02074 -2.304841,1.228216 -4.619658,2.437888 -6.914522,3.684646 -0.05665,0.03078 0.32079,0.01643 0.275497,-0.235899 C 26.956524,72.364394 26.27764,72.087486 25.684918,71.587515 25.036386,71.044066 24.41997,70.444662 23.865344,69.803769 23.276615,69.067443 22.807496,68.219885 22.426786,67.357417 21.913708,66.568453 21.66624,65.690405 21.519789,64.77156 21.392704,63.829334 20.912466,63.131359 20.34161,62.409261 19.720059,61.533383 19.389442,60.488678 19.088296,59.467384 18.796904,58.388877 18.735207,57.271467 18.696239,56.16078 c -0.02928,-1.019699 0.0404,-2.034661 -0.146044,-3.041175 -0.230742,-0.89927 -0.765978,-1.65678 -1.089085,-2.521086 -0.466384,-0.776108 -0.611088,-1.661413 -0.868573,-2.511325 -0.410243,-0.985996 -0.722876,-1.980935 -0.918854,-3.032608 -0.152796,-1.051384 -0.432341,-2.080002 -0.656506,-3.11874 -0.294141,-1.118327 -0.414945,-2.266644 -0.723121,-3.380323 -0.305825,-1.194962 -0.387227,-2.423101 -0.438662,-3.64991 -0.04379,-1.224937 -0.04977,-2.450759 -0.05333,-3.676337 -0.01134,-0.548346 -0.002,-1.093749 0.03246,-1.64085 0,0 7.167494,-3.530916 7.167494,-3.530916 l 0,0 c -0.115833,0.519216 -0.120305,1.023304 -0.102497,1.556039 -0.0052,1.219796 -0.01584,2.439899 0.01508,3.659456 0.04462,1.163629 0.10805,2.33559 0.396145,3.469074 0.301842,1.125773 0.409951,2.280637 0.713,3.407077 0.287873,1.037768 0.512948,2.106752 0.674106,3.169829 0.171851,1.026422 0.498265,1.968993 0.914334,2.918897 0.268369,0.83465 0.373765,1.719172 0.844306,2.484395 0.317174,0.9091 0.887314,1.696623 1.148764,2.63 0.213508,1.05041 0.192523,2.098374 0.185032,3.167868 0.02407,1.048222 0.05468,2.104888 0.301053,3.129332 0.256463,0.924984 0.563199,1.87179 1.106755,2.669206 0.649084,0.828451 1.213874,1.657063 1.389331,2.721286 0.113633,0.860219 0.335295,1.66027 0.814177,2.396949 0.334065,0.790368 0.757857,1.573277 1.325322,2.218576 0.538454,0.590422 1.097846,1.172972 1.727992,1.665733 0.73112,0.505218 1.69583,0.644999 2.239623,1.399528 1.489125,3.235 -5.154785,7.199969 -7.564629,4.676269 -0.55336,-0.603699 -1.202326,-1.118374 -1.63965,-1.818151 -0.515441,-0.69828 -1.057439,-1.370781 -1.556681,-2.080635 -0.476186,-0.625098 -0.987878,-1.202418 -1.557175,-1.748077 -0.641035,-0.766093 -1.259702,-1.542767 -1.615853,-2.49151 -0.317088,-1.052013 -0.511844,-2.138079 -0.65541,-3.225978 -0.19514,-0.87335 -0.497492,-1.726612 -0.958219,-2.496401 -0.54128,-0.696666 -1.066715,-1.40273 -1.587884,-2.113724 -0.477991,-0.611909 -0.940167,-1.231759 -1.38365,-1.868489 -0.637104,-0.871274 -0.841627,-1.784709 -0.741353,-2.862368 9.25e-4,-1.073405 0.0044,-2.146949 -0.01689,-3.2202 -0.02746,-0.974217 -0.0646,-1.952414 -0.250823,-2.911841 -0.203901,-1.017383 -0.350174,-2.017479 -0.297836,-3.06109 -0.05134,-1.071005 -0.141083,-2.1452 -0.472821,-3.172256 -0.370922,-1.148595 -0.730283,-2.30468 -0.978742,-3.486694 -0.302655,-1.24566 -0.698719,-2.482335 -0.727082,-3.775183 0,0 7.162697,-3.649576 7.162697,-3.649576 z"
     inkscape:connector-curvature="0" />
  <path
     style="fill:#000000;fill-opacity:1;stroke:#000000;stroke-width:4.5;stroke-miterlimit:4;stroke-dasharray:none"
     id="path4216"
     d="m 36.939554,95.229064 c 0.306401,1.56791 0.314367,3.168826 0.467072,4.753879 0.276086,2.335537 0.393378,4.685247 0.480275,7.034137 0.05344,1.52786 0.06778,3.05663 0.07196,4.58529 0.02849,0.25175 -0.08439,2.33278 0.06933,2.32156 -0.329184,-0.0333 -0.684592,0.033 -0.987553,-0.10003 -0.09371,-0.0412 0.0693,-0.19302 0.0935,-0.29246 0.03478,-0.14287 0.06123,-0.28783 0.08315,-0.43323 0.105124,-0.6974 0.137894,-1.40497 0.226763,-2.10505 0.283383,-2.21116 0.404884,-4.43819 0.48503,-6.66458 0.05375,-1.72652 0.05715,-3.45402 0.05629,-5.1812 -0.0022,-1.201364 -0.0054,-2.402725 -0.0071,-3.60409 -0.0013,-1.082769 -0.0014,-2.16554 -0.0014,-3.248309 0.0104,-0.701088 -0.252367,-1.111194 1.069798,-0.432363 0.06865,0.03525 -0.0053,1.176647 -0.0055,1.258374 0.01025,1.478491 -0.05663,2.958328 0.05805,4.43324 0.185494,1.559591 0.340058,3.122038 0.418299,4.690788 0.06142,1.64199 0.05873,3.28541 0.06326,4.92827 0.111555,1.59839 0.322393,3.18702 0.444262,4.78471 0.08724,1.21068 0.09485,2.42471 0.100218,3.63786 -9.92e-4,1.58177 -0.0026,3.16353 -0.0047,4.7453 -0.07046,0.75337 0.528379,2.55946 -1.063214,1.33984 -0.133533,-0.10233 0.0026,-0.33645 0.0036,-0.50468 0.0013,-0.22292 0.0021,-0.44585 0.0032,-0.66877 0.0077,-2.06164 0.0079,-4.1233 0.01083,-6.18495 0.0016,-2.00679 -0.0065,-4.01357 -0.0076,-6.02035 0.01559,-1.69951 -0.253707,-3.38606 -0.545942,-5.05529 -0.220508,-1.70748 -0.492855,-3.405277 -0.748319,-5.107601 -0.193451,-1.227503 -0.242627,-2.469056 -0.331744,-3.706329 -0.0046,-0.02802 -0.04136,-0.09094 -0.0138,-0.08407 0.36405,0.09081 0.771729,0.120808 1.070577,0.347677 0.122576,0.09305 -0.0035,0.307772 -0.0045,0.461664 -0.0035,0.553953 -0.0019,1.107942 -0.0013,1.6619 7.01e-4,1.265631 0.0018,2.531262 0.0033,3.796898 -6.14e-4,1.33997 -6.83e-4,2.67994 -8.38e-4,4.01992 -0.002,1.61858 -0.0034,3.23715 -0.0036,4.85573 -0.001,2.26496 -0.0058,4.52991 -0.01266,6.79486 0.152721,4.0833 0.31585,8.16477 0.585616,12.24214 0.288249,2.58605 0.0658,5.30108 0.814452,7.82346 0.02979,0.0286 0.130503,0.0892 0.08937,0.0857 -0.341391,-0.0286 -0.713013,-9e-4 -1.014715,-0.16319 -0.105875,-0.057 0.03544,-0.23795 0.04648,-0.35766 0.05112,-0.55456 0.05158,-1.11442 0.0622,-1.67063 0.01399,-1.48693 0.01115,-2.97397 0.008,-4.46095 -0.0036,-1.2796 -0.0061,-2.55921 -0.0075,-3.83881 -0.02343,-1.10661 -0.02672,-2.19767 0.153716,-3.29074 0.232519,-0.83474 0.06334,-1.8589 0.592481,-2.59107 0.403993,0.0669 0.835309,0.0401 1.211979,0.20069 0.260542,0.11111 0.562975,2.41774 0.596391,2.72348 0.121741,1.48516 0.127813,2.97619 0.136595,4.46529 -0.0014,1.52647 -0.0016,3.05294 -0.0018,4.57942 0.125461,1.30675 0.330859,2.60281 0.443013,3.91125 0.04594,0.52521 0.05269,1.05263 0.0837,1.57866 0.0035,0.0589 0.07463,0.17869 0.0157,0.17624 -1.182684,-0.0493 -1.075004,0.0843 -1.063851,-0.55587 0.0093,-1.29189 0.0081,-2.58387 0.0075,-3.8758 0.0039,-1.63949 -8.6e-4,-3.27898 -0.0037,-4.91846 0.03745,-1.33998 -0.211834,-2.66201 -0.548903,-3.95195 -0.0036,-0.0112 -0.177397,-0.61883 -0.266904,-0.69985 -0.02669,-0.0242 -0.124786,0.0503 -0.09003,0.0597 0.328209,0.0888 0.71508,0.006 1.002698,0.18731 0.117268,0.0739 -0.03832,0.2747 -0.05098,0.41276 -0.01568,0.17101 -0.02267,0.34271 -0.03401,0.51407 -0.05453,1.29807 -0.04639,2.5978 -0.04462,3.89673 -0.52784,-0.38329 0.242931,0.75845 0.01033,0.71168 -0.377761,-0.076 -0.802775,-0.15972 -1.070089,-0.43724 -0.01916,-0.0199 0.0108,-2.22038 0.01105,-2.38181 -0.0498,-0.85327 -0.120654,-1.70668 -0.248135,-2.55228 -0.05635,-0.37377 -0.07409,-0.75393 -0.208049,-0.6765 0.346395,0.0343 0.720939,-0.0382 1.039185,0.10287 0.105357,0.0467 -0.0234,0.22937 -0.0297,0.34443 -0.01099,0.20068 -0.01688,0.40163 -0.02216,0.60255 -0.02558,0.97316 -0.02547,1.94716 -0.03111,2.92056 0.147117,3.08362 0.345914,6.16384 0.586328,9.24149 0.246244,2.81408 0.357855,5.63613 0.472949,8.45764 -0.815587,-0.72328 0.271512,0.77691 0.04389,0.71023 -0.373325,-0.10937 -0.804163,-0.18796 -1.065514,-0.47611 -0.02216,-0.0244 0.01393,-2.49645 0.01423,-2.63991 0.0015,-2.2782 4.5e-5,-4.5564 -0.0049,-6.83459 -0.0072,-1.49635 0.0052,-2.9929 -0.01508,-4.48917 -0.0015,-0.0402 -0.04431,-0.12599 -0.0044,-0.12065 0.366416,0.0491 0.766014,0.0647 1.077098,0.26442 0.119253,0.0766 -0.0023,0.28343 -0.0032,0.42515 -0.0042,0.66355 -0.0048,1.3271 -0.0064,1.99066 0.157318,2.0197 0.344614,4.03566 0.437386,6.05981 0.07936,2.02134 0.08683,4.04437 0.107272,6.06686 -0.0024,0.7406 0.282686,1.22185 -1.065961,0.55805 -0.10874,-0.0535 0.0024,-0.24239 0.0033,-0.36358 0.0013,-0.18291 0.0021,-0.36581 0.0031,-0.54872 -0.0037,-1.12329 0.01741,-2.24702 -0.0087,-3.37016 0.359149,0.0576 0.751882,0.0106 1.077445,0.17279 0.108059,0.0538 -0.0028,0.24144 -0.0038,0.36216 -0.0075,0.91427 -0.01442,1.81832 0.05561,2.73047 0.280188,1.87494 0.701213,3.7202 1.10569,5.57054 0.317944,1.36805 0.406336,2.7664 0.446663,4.16518 0.03036,1.58227 0.01831,3.16496 0.01603,4.74742 -0.0065,1.73563 0.257563,3.45902 0.386422,5.18856 0.101961,1.43769 0.136881,2.8787 0.153156,4.31951 -0.114834,0.97172 -0.05751,1.41585 -1.453852,0.81662 -0.123894,-0.0532 -0.380884,-0.93312 -0.444915,-1.12873 -0.488558,-2.27306 -0.813687,-4.58122 -1.204411,-6.87402 -0.350672,-1.92455 -0.544366,-3.87012 -0.630777,-5.82293 -0.110816,-1.42109 -0.0072,-2.81189 0.501773,-4.14705 0.143657,-0.0158 0.847199,-2.27808 0.902329,-2.27785 0.397491,0.002 0.779985,0.15373 1.169978,0.23059 0.143953,1.13898 0.105679,2.29402 0.09767,3.4399 -0.10853,1.32413 0.388185,2.56211 0.700875,3.82392 0.17808,0.73803 0.251601,1.49301 0.31052,2.24785 0,0 -1.062827,0.008 -1.062827,0.008 l 0,0 c -0.05841,-0.74898 -0.131334,-1.49809 -0.308025,-2.23039 -0.31416,-1.27012 -0.806582,-2.51781 -0.698655,-3.85022 0.004,-1.13111 0.05067,-2.27461 -0.113624,-3.39649 0.326014,-0.075 0.643541,-0.2207 0.978041,-0.22498 0.08012,-0.001 -0.07874,0.13998 -0.109714,0.21388 -0.204753,0.48852 -0.351908,0.997 -0.55944,1.48557 -0.08095,0.19058 -0.16612,0.37934 -0.24918,0.56901 -0.516801,1.31673 -0.61011,2.69801 -0.507545,4.10336 0.08505,1.94783 0.266314,3.88945 0.611797,5.81012 0.389513,2.28831 0.715402,4.59344 1.226555,6.85703 0.07901,0.22628 0.143342,0.45823 0.237022,0.67884 0.06103,0.14373 0.345718,0.31081 0.225588,0.41058 -0.242163,0.20113 -0.616369,0.1313 -0.928372,0.1731 -0.03708,0.005 0.07834,-0.0273 0.094,-0.0613 0.100144,-0.21726 0.129352,-0.64861 0.154661,-0.85359 -0.01311,-1.43844 -0.04224,-2.87728 -0.142254,-4.31275 -0.130322,-1.73217 -0.394157,-3.45811 -0.388123,-5.19658 0.0031,-1.58134 0.0091,-3.16292 -0.02082,-4.74405 -0.04395,-1.39174 -0.131507,-2.78343 -0.441371,-4.14594 -0.398946,-1.85612 -0.817786,-3.70685 -1.106697,-5.58471 -0.07372,-0.91492 -0.06672,-1.82163 -0.07413,-2.73874 -9.76e-4,-0.12073 -0.111802,-0.30835 -0.0037,-0.36219 0.325606,-0.16222 0.718378,-0.1152 1.077567,-0.1728 -0.02508,1.12314 -0.0039,2.24683 -0.0055,3.3701 0.0014,0.18288 0.0025,0.36576 0.0043,0.54864 0.0012,0.12113 0.113351,0.31007 0.0046,0.36338 -1.345801,0.65962 -1.060828,0.18188 -1.067275,-0.5572 0.003,-2.02108 -0.01609,-4.04267 -0.09383,-6.06242 -0.09808,-2.02579 -0.27697,-4.04435 -0.450793,-6.06471 -0.0016,-0.66356 -0.0022,-1.32711 -0.0064,-1.99066 -8.95e-4,-0.14172 -0.122454,-0.34857 -0.0032,-0.42515 0.311077,-0.19975 0.710672,-0.21531 1.077086,-0.26443 0.03988,-0.005 -0.0029,0.0804 -0.0044,0.12065 -0.02004,1.49626 -0.0072,2.99279 -0.01315,4.48913 -0.0026,2.2782 -4.2e-4,4.5564 0.0054,6.8346 4.35e-4,0.15068 0.03892,2.60771 0.0081,2.64135 -0.266093,0.29003 -0.699648,0.37352 -1.078108,0.48163 -0.228805,0.0654 0.691473,-1.42653 -0.01523,-0.71371 -0.06992,-2.82112 -0.205687,-5.64026 -0.437086,-8.4531 -0.245686,-3.08059 -0.453703,-6.16329 -0.611824,-9.24976 -1.77e-4,-0.97438 -0.0042,-1.94896 0.0093,-2.92329 0.0037,-0.26538 0.01539,-0.95996 0.03443,-0.96949 0.337661,-0.16897 0.742522,-0.13758 1.113783,-0.20637 0.409346,0.5616 0.270347,2.66192 0.431064,3.35786 9.3e-5,0.16293 0.02783,2.36017 0.0066,2.38213 -0.26861,0.27761 -0.69435,0.36165 -1.073135,0.43739 -0.23278,0.0465 0.527984,-1.09468 0.0063,-0.71214 1.4e-4,-1.30113 -0.0065,-2.60293 0.03971,-3.90341 0.01239,-0.21236 0.04817,-0.93071 0.07532,-0.94804 1.178335,-0.75202 1.23481,-0.37672 1.487831,0.45373 0.336433,1.29915 0.58114,2.63053 0.546255,3.9789 -0.0023,1.63946 -0.0063,3.27893 2.04e-4,4.91838 0.0018,1.29235 0.0072,2.58469 0.01025,3.87704 -0.0024,0.64672 0.108323,0.51219 -1.085167,0.56123 -0.05947,0.002 -0.0038,-0.11897 -0.0057,-0.17846 -0.01235,-0.37201 -0.01903,-0.60937 -0.03999,-0.99422 -0.01053,-0.19334 -0.02455,-0.38648 -0.03683,-0.57972 -0.110784,-1.31149 -0.314375,-2.61076 -0.44048,-3.9204 0.0041,-1.52624 0.01146,-3.0525 0.004,-4.57874 -0.0063,-1.48536 -0.01252,-2.97307 -0.138364,-4.45416 -0.06942,-0.62011 -0.137287,-1.23383 -0.302529,-1.83757 -0.04363,-0.15941 -0.09197,-0.3178 -0.149567,-0.47271 -0.04565,-0.12278 -0.266508,-0.28324 -0.159696,-0.35907 0.259729,-0.1844 0.624052,-0.12809 0.936078,-0.19214 -0.604631,0.63102 -0.347526,1.75917 -0.604532,2.53418 -0.180694,1.08719 -0.176614,2.17235 -0.154534,3.27324 -2.89e-4,1.27958 -8.26e-4,2.55915 -4.39e-4,3.83872 9.29e-4,1.48759 0.0094,2.97523 -0.0029,4.4628 -0.0025,0.18786 -0.06458,2.04888 -0.09127,2.06202 -1.009164,0.49706 -0.958734,0.48911 -1.21905,0.0707 -0.650633,-2.55293 -0.483162,-5.24479 -0.745772,-7.84565 -0.264311,-4.08005 -0.436192,-8.16393 -0.611404,-12.24867 -0.0069,-2.26495 -0.01163,-4.52991 -0.01264,-6.79486 -1.75e-4,-1.61858 -0.0015,-3.23715 -0.0035,-4.85573 -1.8e-4,-1.33996 -2.3e-4,-2.67991 -0.0019,-4.01987 1.14e-4,-1.265594 -8.23e-4,-2.531188 -0.0051,-3.796778 -9.98e-4,-0.471812 -0.0035,-2.125089 -0.0031,-2.125365 0.302435,-0.229579 0.712682,-0.267223 1.081333,-0.358162 0.02919,-0.0072 0.0039,0.06 0.0058,0.08999 0.05381,1.235882 0.128875,2.471895 0.310271,3.696802 0.257069,1.701271 0.521718,3.399011 0.745339,5.105111 0.294383,1.67478 0.56681,3.36822 0.549007,5.0735 -0.0011,2.00678 -0.0093,4.01356 -0.0077,6.02035 0.0029,2.06164 0.003,4.1233 0.01087,6.18493 0.0011,0.22292 0.002,0.44584 0.0033,0.66875 0.001,0.16821 0.13741,0.40227 0.0039,0.50463 -1.591841,1.22065 -0.990786,-0.58789 -1.060359,-1.33982 1.55e-4,-1.58157 0.0039,-3.16315 -0.0034,-4.7447 -0.0067,-1.21063 -0.01715,-2.4221 -0.09856,-3.63049 -0.117484,-1.60046 -0.321257,-3.19214 -0.439054,-4.79243 -9.31e-4,-1.64117 -0.002,-3.28296 -0.06598,-4.92313 -0.07992,-1.56761 -0.226731,-3.129511 -0.414654,-4.687892 -0.116437,-1.47756 -0.04927,-2.960186 -0.07173,-4.441454 -1.94e-4,-0.08172 -0.07417,-1.223131 -0.0055,-1.258374 1.322116,-0.678824 1.059373,-0.26874 1.069858,0.432351 1.08e-4,1.082738 2.83e-4,2.165475 9.58e-4,3.248213 7.49e-4,1.201439 0.0022,2.40288 7.5e-5,3.604318 -0.0049,1.728488 -0.01148,3.457268 -0.06815,5.184998 -0.08756,2.22894 -0.21491,4.4575 -0.477125,6.6737 -0.02818,0.23068 -0.27978,2.85188 -0.378622,2.88847 -0.366743,0.13577 -0.777218,0.0876 -1.165827,0.13135 -0.263231,-0.40329 0.07057,-1.89515 -0.05326,-2.4235 -9.2e-5,-1.52739 -0.0063,-3.05495 -0.05244,-4.58177 -0.07872,-2.34734 -0.198727,-4.69473 -0.481919,-7.027678 -0.155866,-1.581789 -0.170435,-3.181242 -0.495633,-4.742857 0,0 1.071387,-0.02115 1.071387,-0.02115 z"
     inkscape:connector-curvature="0" />
  <path
     style="fill:#000000;fill-opacity:1;stroke:#000000;stroke-width:4.5;stroke-miterlimit:4;stroke-dasharray:none"
     id="path4218"
     d="m 211.32048,73.136501 c 1.74604,0.02885 3.46763,0.321552 5.20742,0.449101 1.14915,0.192016 2.29622,0.363065 3.40905,0.710361 0.96122,0.324725 1.90235,0.660844 2.90496,0.839762 0.99686,0.06209 1.88981,0.516745 2.81929,0.831541 1.04167,0.351993 2.10735,0.604176 3.17058,0.879645 1.45664,0.325444 2.91216,0.662827 4.38516,0.909241 1.07972,0.296473 2.16585,0.556209 3.23866,0.875376 0.96344,0.254573 1.95747,0.325044 2.85746,0.777033 0.78115,0.467937 1.65945,0.618747 2.54992,0.711948 1.11375,0.11041 2.20476,0.358773 3.32083,0.474297 1.20123,0.108889 2.4079,0.126256 3.61319,0.136849 1.10888,0.0026 2.19671,0.270191 3.29617,0.40038 1.01064,0.176638 2.1772,-0.09839 3.11106,0.409221 -0.0221,0.04953 -0.0121,0.146272 -0.0662,0.148574 -1.49449,0.06351 -2.99076,-0.495397 -4.41091,-0.886819 -1.95556,-0.587 -3.99425,-0.705561 -6.00307,-0.982898 -1.7557,-0.240981 -3.51035,-0.51138 -5.23932,-0.904039 -1.43416,-0.405503 -2.93267,-0.446292 -4.35021,-0.90424 -1.11752,-0.427107 -2.28763,-0.670778 -3.43677,-0.992131 -1.13949,-0.281964 -2.30782,-0.405618 -3.46443,-0.59939 -1.60535,-0.183517 -3.20224,-0.403083 -4.80246,-0.629505 -1.53806,-0.119017 -3.05745,-0.306575 -4.57854,-0.55913 -1.13316,-0.194619 -2.28123,-0.256269 -3.4285,-0.288986 -0.72089,-0.01841 -1.44203,-0.01288 -2.16305,-0.01697 -0.14784,-8.38e-4 0.59138,-4.12e-4 0.44354,4.9e-5 -0.2103,6.57e-4 -0.4206,3.58e-4 -0.6309,5.36e-4 -1.08225,0.115041 -2.13828,-0.165412 -0.22182,-0.162211 2.49445,-0.05125 4.98022,0.02185 7.45783,0.319172 2.23792,0.305229 4.47929,0.575241 6.69681,1.00894 2.35252,0.509862 4.75293,0.787295 7.08241,1.396909 1.93969,0.437371 3.74945,1.271912 5.63674,1.875212 1.82205,0.654812 3.67532,1.204743 5.51692,1.800586 1.47301,0.537955 2.9236,1.089036 4.46141,1.410035 1.49698,0.168701 2.98424,0.364799 4.47503,0.582773 0.87678,0.119933 1.75918,0.19433 2.64299,0.235984 0.20005,0.0094 0.59466,0.223283 0.60039,0.02308 0.006,-0.200423 -0.39982,-0.03089 -0.59973,-0.04633 0.04,-0.03559 0.13435,-0.05516 0.12004,-0.10676 -0.0162,-0.05828 -0.5355,-0.218529 -0.60818,-0.242719 -0.85245,-0.283732 -1.70027,-0.529891 -2.57218,-0.748552 -2.0892,-0.64838 -4.26168,-0.919854 -6.37545,-1.463545 -1.90703,-0.5117 -3.82293,-0.984428 -5.73587,-1.474928 -1.29735,-0.350941 -2.52513,-0.863876 -3.64771,-1.601717 -0.98914,-0.657375 -2.02856,-1.227764 -3.06097,-1.812288 -0.99488,-0.581579 -2.10213,-0.808081 -3.23254,-0.928222 -1.08235,-0.08192 -2.16923,-0.07354 -3.25395,-0.07442 -0.0837,-6.8e-5 0.16731,5.54e-4 0.25097,8.32e-4 -1.65346,0.0039 -3.30692,0.0076 -4.96039,0.0098 -0.25028,-0.01597 -2.85949,0.02896 -2.88326,0.0037 -0.0415,-0.04413 0.0449,-0.11244 0.0674,-0.16866 3.29914,0.108242 6.57013,0.599697 9.82941,1.093841 8.26305,1.127564 16.35948,3.165798 24.4534,5.129221 3.17621,0.77632 6.35463,1.536111 9.51532,2.373241 0,0 -0.97194,0.128091 -0.97194,0.128091 l 0,0 c -3.13904,-0.841802 -6.29587,-1.607061 -9.45277,-2.379435 -8.10475,-1.971746 -16.21584,-4.003411 -24.49404,-5.115109 -3.29818,-0.488968 -6.60968,-0.979937 -9.94827,-1.060641 -0.0203,-0.05625 -0.10399,-0.127318 -0.0609,-0.16876 0.0599,-0.05757 2.62975,0.03831 2.90614,5e-5 1.65316,-0.0018 3.30631,-0.0055 4.95947,-0.0099 1.69753,-7.76e-4 3.40067,-0.03853 5.09513,0.08363 1.13458,0.13244 2.24048,0.380832 3.23549,0.970928 1.03562,0.581973 2.0711,1.162475 3.06248,1.818759 1.12213,0.719085 2.3429,1.225999 3.63183,1.569138 1.91045,0.492724 3.82475,0.96558 5.7304,1.475426 2.11464,0.533939 4.28345,0.820177 6.37237,1.46368 0.37681,0.09547 3.17978,0.727865 3.22274,1.206998 0.007,0.07649 -0.0926,0.122526 -0.13891,0.183789 -1.58884,0.0557 -3.16996,0.03661 -4.74481,-0.218099 -1.48961,-0.221154 -2.97915,-0.400283 -4.47251,-0.589838 -1.53558,-0.331831 -2.98652,-0.890316 -4.46233,-1.421026 -1.83794,-0.598885 -3.68831,-1.151439 -5.50933,-1.801269 -1.88276,-0.60988 -3.69437,-1.433632 -5.63207,-1.869772 -2.33089,-0.599467 -4.72894,-0.884597 -7.08126,-1.390499 -2.21524,-0.425029 -4.45265,-0.698499 -6.68692,-1.002626 -2.48693,-0.288915 -4.9812,-0.358 -7.48394,-0.302807 -1.94539,0.0013 -0.87375,-0.279082 0.22224,-0.169242 1.48249,-0.0018 2.96527,-0.01104 4.44755,0.01891 1.14691,0.03641 2.29404,0.105113 3.42616,0.303802 1.51826,0.253635 3.03786,0.425057 4.57159,0.557605 1.60149,0.229404 3.20203,0.436553 4.80757,0.631366 1.15926,0.193606 2.33282,0.310588 3.47138,0.609901 1.14806,0.321573 2.31682,0.567873 3.43296,0.996054 1.41891,0.43496 2.91319,0.490691 4.34263,0.896247 1.72892,0.382298 3.47916,0.658982 5.23335,0.895851 2.01141,0.269836 4.04797,0.410109 6.00435,0.99664 0.83354,0.226368 1.66868,0.448301 2.50444,0.666047 0.1802,0.04695 0.67056,-0.0055 0.54322,0.130403 -0.50594,0.539805 -0.93012,-0.202339 -0.67719,0.19669 -0.95857,-0.434877 -2.08112,-0.199393 -3.09341,-0.374483 -1.09706,-0.135485 -2.1846,-0.39864 -3.29352,-0.388867 -1.20508,-0.01235 -2.41158,-0.0327 -3.61214,-0.147316 -1.11649,-0.121068 -2.2096,-0.371618 -3.32654,-0.473914 -0.89612,-0.103863 -1.77069,-0.279524 -2.55726,-0.747527 -0.9069,-0.419464 -1.89573,-0.495891 -2.85113,-0.760571 -1.0685,-0.317621 -2.15178,-0.576306 -3.22881,-0.863766 -1.47393,-0.253458 -2.93287,-0.587761 -4.39097,-0.917185 -1.06793,-0.268428 -2.13113,-0.537864 -3.17632,-0.887574 -0.92509,-0.322098 -1.82301,-0.748225 -2.8164,-0.815974 -1.00085,-0.190266 -1.94308,-0.535449 -2.90807,-0.851987 -1.1084,-0.339663 -2.25444,-0.505804 -3.39802,-0.687764 -0.46479,-0.03554 -3.36911,-0.243611 -3.57997,-0.380848 -0.13425,-0.08737 0.31798,-0.03881 0.47698,-0.05821 0,0 -1.05866,-0.167675 -1.05866,-0.167675 z"
     inkscape:connector-curvature="0" />
  <path
     style="fill:#000000;fill-opacity:1;stroke:#000000;stroke-width:4.5;stroke-miterlimit:4;stroke-dasharray:none"
     id="path4220"
     d="m 298.49259,93.440642 c 0.62543,0.743855 1.25592,1.491933 1.94906,2.174889 0.66348,0.65803 1.3407,1.308811 1.96385,2.006083 0.58575,0.53486 1.06413,1.176178 1.73358,1.611021 0.61904,0.568102 1.44448,0.733153 2.14478,1.165925 0.98937,0.67288 2.0784,1.12577 3.17775,1.58035 0.62655,0.24083 1.26308,0.46493 1.90732,0.6546 0.476,0.14014 1.55104,0.0693 -1.06796,0.0287 -1.71649,-0.89292 -3.38679,-1.86376 -5.02101,-2.899227 -1.52611,-0.929602 -3.02623,-1.884591 -4.60148,-2.728225 -1.06315,-0.458604 -2.12836,-0.867877 -3.05485,-1.577497 -1.15765,-1.279094 1.37822,-0.75092 2.07817,-0.532469 1.47921,0.596183 2.84531,1.421971 4.26352,2.139855 1.31485,0.914584 2.60266,1.870916 3.87821,2.840301 0.86616,0.805452 1.82497,1.483362 2.68291,2.298472 1.1283,1.01674 2.37718,1.8774 3.63774,2.71824 1.05729,0.69499 1.95569,1.58982 2.90751,2.41584 0.94494,0.77901 1.92262,1.52508 2.90167,2.26278 1.26317,0.95841 2.57061,1.85697 3.88194,2.74736 0.82534,0.65846 1.52294,1.44499 2.28857,2.16991 0.56492,0.60513 0.9965,1.29568 1.41215,2.00727 0.18769,0.56964 1.24213,1.37847 0.94857,1.99341 -0.42883,0.003 -0.86074,0.061 -1.2865,0.01 -0.20094,-0.0242 -1.59898,-1.11787 -1.81606,-1.29847 -0.80703,-0.53688 -1.45132,-1.26075 -2.1586,-1.91243 -0.57354,-0.70044 -1.2574,-1.29376 -1.87411,-1.95269 -0.77346,-0.83247 -1.49569,-1.7099 -2.25739,-2.55159 -0.86031,-0.85828 -1.83471,-1.61716 -2.82111,-2.32768 -1.05217,-0.76767 -1.94881,-1.70398 -2.84551,-2.64169 -0.18375,-0.0104 -1.29944,-1.54102 -0.59196,-1.52344 0.45671,0.0114 0.91063,0.0749 1.36595,0.11229 1.34601,0.56664 2.47642,1.46507 3.61191,2.36514 1.95268,1.65997 3.79762,3.45867 5.52914,5.34803 1.59187,1.73044 3.23546,3.41191 4.63142,5.30743 0.39026,0.49804 0.60385,1.09371 0.90003,1.64434 0.0439,0.0815 0.0836,0.16807 0.14674,0.23572 0.0219,0.0234 0.12535,0.026 0.0936,0.0217 -0.40102,-0.0548 -0.80122,-0.1154 -1.20183,-0.1731 -0.7459,-1.19507 -1.74074,-2.2025 -2.7762,-3.14595 -0.96386,-0.9431 -2.0198,-1.79929 -2.94291,-2.78341 -0.37126,-0.42012 -0.73375,-0.86158 -1.04929,-1.326 -0.16778,-0.24694 -0.21314,-0.41778 -0.15782,-0.4265 0.40004,-0.063 0.80948,-0.0276 1.21422,-0.0414 0.53775,0.61297 1.17145,1.12959 1.85967,1.56479 0.0849,0.0188 0.34176,0.0565 0.25478,0.0564 -0.31468,-4e-4 -0.63617,0.0156 -0.9423,-0.0573 -0.0661,-0.0157 -0.0453,-0.12956 -0.0823,-0.18663 -0.3386,-0.52306 -0.8254,-0.88539 -1.3067,-1.26554 -1.82622,-1.42581 -3.80245,-2.64892 -5.80212,-3.81386 -1.33054,-0.81289 -2.7325,-1.52482 -4.20562,-2.04024 -1.14517,-0.39442 -2.13741,-1.09583 -3.13223,-1.76589 -0.69515,-0.59178 -1.42588,-1.151 -2.05547,-1.81432 -0.628,-0.76183 -1.33952,-1.4051 -2.16016,-1.94764 -0.85499,-0.650474 -1.60641,-1.41633 -2.51105,-1.999529 -1.23344,-0.933167 -2.55973,-1.649665 -3.96241,-2.291153 -1.10261,-0.479033 -2.28091,-0.733497 -3.41858,-1.113949 -0.91585,-0.4843 0.80462,-0.478382 1.05099,-0.485616 2.17063,-0.220249 4.16012,0.40465 6.19475,1.034191 1.81453,0.581053 3.51426,1.423737 5.23095,2.234688 1.46331,0.715531 2.65457,1.759581 3.86104,2.824418 1.27061,1.21936 2.38105,2.58555 3.59545,3.85804 1.12373,0.99399 1.72192,2.21298 2.53577,3.41647 0.16447,0.13042 0.96653,1.50456 0.29987,1.54898 -0.46203,0.0308 -0.92593,-0.0181 -1.3889,-0.0271 -1.19902,-0.40997 -2.36172,-0.91823 -3.46114,-1.54804 -1.14655,-0.63445 -2.29627,-1.27165 -3.4063,-1.96777 -0.74418,-0.39561 -1.5232,-0.98313 -1.38747,-1.91229 0.69491,-0.89887 2.27031,-0.73028 3.29758,-0.77382 2.06693,-0.17788 3.49372,0.33314 5.3511,1.00697 0.34024,-0.13608 1.75709,1.10364 0.78214,1.12119 -0.48652,0.009 -0.97292,-0.0229 -1.45938,-0.0343 -1.30377,-0.30388 -2.58006,-0.71867 -3.85538,-1.12516 -0.38291,-0.16881 -2.32013,-0.67381 -2.46909,-1.04861 0.42699,-0.008 0.85814,-0.0848 1.28098,-0.0248 0.32692,0.0464 2.20337,1.6777 2.49832,1.93113 1.36778,1.01055 2.54764,2.25096 3.92434,3.24667 0.48159,0.21244 1.52604,1.47388 2.01721,1.43133 -0.41169,-0.0248 -0.82862,-0.004 -1.23509,-0.0743 -0.0734,-0.0126 -2.12871,-1.47532 -2.32685,-1.61059 -1.28073,-0.66205 -2.38273,-1.52998 -3.40067,-2.53972 -0.78514,-1.04838 -1.64434,-2.00811 -2.59619,-2.90608 0.0136,0.1027 -1.41484,-1.11421 -0.98243,-1.20311 0.9488,-0.19508 1.10964,-0.11488 1.82275,0.0446 1.87196,0.72472 3.55306,1.84149 5.17037,3.01249 2.13867,1.46292 4.04375,3.22111 6.00745,4.90146 1.54912,1.39274 3.05734,2.83569 4.29247,4.51885 0.75749,0.99295 0.8383,2.19431 1.10387,3.35811 -0.38299,-0.22284 0.3145,0.46987 0.1528,0.46114 -0.43856,-0.0237 -0.8934,-0.0477 -1.30023,-0.21316 -0.1722,-0.07 -1.25478,-1.62722 -1.40597,-1.81168 -1.48605,-1.85417 -3.46163,-3.18327 -5.33984,-4.59764 -1.51707,-1.08032 -3.10746,-2.05209 -4.68686,-3.03696 -0.92561,-0.57864 -1.86276,-1.12386 -2.65944,-1.8762 -0.57062,-0.68434 -1.20656,-1.29328 -1.80177,-1.95628 -0.97708,-1.47531 1.76943,-0.38355 2.30854,-0.14158 1.92765,1.04155 3.72278,2.31365 5.42621,3.68678 1.52705,1.26514 2.90618,2.68998 4.22253,4.16904 1.15714,1.06796 2.33028,2.11107 3.43712,3.23197 1.12119,1.0007 2.23243,2.03035 3.47879,2.87369 0.97699,0.69725 1.86632,1.50486 2.80648,2.24848 0.66777,0.61013 1.21753,1.32398 1.52865,2.17556 0.20611,0.66263 0.20781,1.36283 0.29741,2.04292 -0.35939,-0.0355 -0.73182,-0.004 -1.07818,-0.10639 -0.0762,-0.0225 -0.0301,-0.15728 -0.0617,-0.23017 -0.21464,-0.4954 -0.56293,-0.95982 -0.87507,-1.39484 -0.67912,-0.87518 -1.52728,-1.59466 -2.2781,-2.40611 -0.89413,-1.0533 -2.67764,-1.29044 -0.25861,-0.94657 0.46091,0.39887 0.87999,1.03545 1.4495,1.29694 0.0868,0.0399 0.37687,0.0567 0.2848,0.0313 -0.36248,-0.1 -0.73244,-0.17049 -1.09866,-0.25573 -1.24939,-1.9028 -2.87591,-3.56297 -4.4063,-5.24534 -3.30156,-3.56824 -6.82512,-6.91026 -10.57486,-10.00193 -1.30081,-1.07154 -2.72031,-1.97912 -4.12594,-2.90262 0,0 1.02925,-0.10169 1.02925,-0.10169 l 0,0 c 1.38944,0.93166 2.7935,1.84628 4.08268,2.91735 3.74598,3.1087 7.27558,6.45681 10.60031,10.01391 1.55366,1.6957 3.23891,3.362 4.46621,5.31027 -0.34525,0.1377 -0.67532,0.32227 -1.03574,0.41309 -0.3819,0.0962 -1.47384,-1.14532 -1.7415,-1.41443 0.29954,-0.12102 0.59076,-0.26514 0.89862,-0.36306 0.15127,-0.0481 1.34027,1.0218 1.49134,1.16892 0.75607,0.81051 1.60308,1.53752 2.27895,2.4196 0.0752,0.10526 1.13052,1.62736 0.95495,1.69418 -0.34024,0.12948 -0.72321,0.0841 -1.08481,0.12623 -0.05,-0.68079 -0.0813,-1.37008 -0.2814,-2.02786 -0.31387,-0.82969 -0.86219,-1.52742 -1.5211,-2.11822 -0.93135,-0.74952 -1.82519,-1.54706 -2.80003,-2.2414 -1.23892,-0.86147 -2.35931,-1.88403 -3.47839,-2.89388 -1.10778,-1.11957 -2.28501,-2.15855 -3.43126,-3.2378 -1.31543,-1.47072 -2.68463,-2.89561 -4.20993,-4.15272 -1.70743,-1.36633 -3.49991,-2.6437 -5.44223,-3.65759 -0.21356,-0.0924 -0.42435,-0.19147 -0.64068,-0.27719 -0.15462,-0.0613 -0.60399,-0.0631 -0.4714,-0.16346 0.2113,-0.16003 0.52687,-0.0601 0.79127,-0.0788 0.0318,-0.002 -0.0839,-0.002 -0.091,0.0293 -0.0323,0.1408 0.16891,0.36094 0.21899,0.4322 0.58676,0.66609 1.23025,1.26389 1.79823,1.94659 0.79939,0.73684 1.73303,1.27839 2.64898,1.85689 1.57075,0.99288 3.16094,1.95931 4.66865,3.04761 1.88607,1.41791 3.85613,2.76664 5.35209,4.62163 0.42162,0.51353 1.44242,1.7848 1.42848,1.80774 -0.1564,0.25736 -0.55161,0.25497 -0.84665,0.31534 -0.15819,0.0324 0.23632,-0.78791 -0.13911,-0.46399 -0.25244,-1.15246 -0.34311,-2.33431 -1.09008,-3.31486 -1.23027,-1.6734 -2.7267,-3.11373 -4.27079,-4.49652 -1.96083,-1.68216 -3.87023,-3.43322 -6.01012,-4.89249 -1.62027,-1.16208 -3.30395,-2.28795 -5.19335,-2.96477 -0.16184,-0.029 -0.63145,-0.0114 -0.4855,-0.087 0.2362,-0.12248 0.52969,-0.0957 0.79482,-0.0734 0.0485,0.004 -0.0651,0.0884 -0.0537,0.1357 0.0212,0.0875 0.0805,0.16414 0.1423,0.22964 0.0884,0.0937 0.82795,0.68611 0.8721,0.72187 0.95037,0.89959 1.79837,1.87032 2.59516,2.90851 1.0188,1.002 2.12856,1.85089 3.3976,2.52079 0.54703,0.37224 1.10999,0.72957 1.65084,1.10986 0.13721,0.0965 0.26223,0.20929 0.39606,0.3104 0.0985,0.0744 0.39461,0.13575 0.30087,0.21615 -0.24203,0.2076 -0.60473,0.20254 -0.90709,0.30381 -0.76002,-0.305 -1.28811,-1.09352 -1.99936,-1.48501 -1.36479,-1.01207 -2.55266,-2.24304 -3.91997,-3.25511 -0.5564,-0.47488 -1.09062,-0.95275 -1.69849,-1.3608 -0.57414,-0.38541 -0.82815,-0.52151 -0.81976,-0.52805 0.23262,-0.18119 0.57909,-0.11147 0.86863,-0.16721 0.79308,0.35391 1.57772,0.77157 2.43416,0.97461 1.27793,0.40018 2.55183,0.83453 3.86551,1.09982 -0.21978,0.0107 -0.44186,-0.001 -0.65935,0.032 -0.20061,0.0308 0.38216,0.0756 0.353,-0.0254 -0.0299,-0.10349 -0.10173,-0.19453 -0.18041,-0.26809 -0.28128,-0.26301 -0.60117,-0.37714 -0.94362,-0.53799 -0.64783,-0.23735 -1.2956,-0.52713 -1.96363,-0.70327 -2.40856,-0.63506 0.98794,0.33238 -1.52185,-0.22648 -0.0748,-0.0166 0.15014,-0.0305 0.2252,-0.0457 -1.01036,0.0392 -2.487,-0.11465 -3.26492,0.63062 -0.15832,0.87773 0.70571,1.41341 1.37192,1.78746 1.11369,0.68705 2.2515,1.33739 3.40036,1.96406 1.10047,0.61792 2.26019,1.14052 3.47036,1.50486 -0.24673,0.018 -0.49307,0.0422 -0.74017,0.0539 -0.0663,0.003 0.14461,0.0125 0.19695,-0.0282 0.0881,-0.0686 0.003,-0.45591 0.002,-0.45924 -0.0982,-0.30876 -0.31924,-0.60679 -0.48881,-0.87131 -0.78493,-1.18524 -1.43926,-2.43596 -2.52254,-3.39925 -1.21102,-1.27379 -2.32235,-2.63857 -3.60033,-3.84866 -1.19772,-1.062725 -2.39771,-2.086225 -3.85307,-2.795429 -1.71089,-0.813783 -3.41299,-1.642259 -5.22366,-2.220363 -0.93538,-0.285938 -1.88,-0.591946 -2.83518,-0.806839 -0.27508,-0.06189 -0.56812,-0.05064 -0.83289,-0.147563 -0.0875,-0.03203 0.36619,-0.04693 0.27358,-0.05718 -0.23721,-0.02625 -0.47729,0.0055 -0.71594,0.0082 -0.0804,0.002 -1.95982,-0.07073 -1.04162,0.189451 1.13622,0.377836 2.31319,0.634888 3.40877,1.126612 1.40479,0.643819 2.72208,1.386767 3.96677,2.306638 0.89725,0.595655 1.65707,1.354396 2.51794,1.999581 0.82233,0.54867 1.52309,1.21594 2.1635,1.97061 0.6352,0.64851 1.35149,1.21465 2.05022,1.79245 0.98767,0.67128 1.98492,1.35272 3.12618,1.73957 1.4659,0.53122 2.86302,1.24369 4.18913,2.06197 1.99928,1.17724 3.97944,2.40259 5.81371,3.82764 0.71195,0.56937 2.85056,2.48819 -0.035,1.65346 -0.67074,-0.4511 -1.2795,-0.97455 -1.86456,-1.52552 0.31163,-0.0346 0.62137,-0.1009 0.93491,-0.10395 0.0317,-3.1e-4 -0.016,0.0655 -0.004,0.0949 0.0369,0.093 0.0903,0.17913 0.14616,0.26211 0.31164,0.46276 0.66899,0.90218 1.04265,1.31537 0.92752,0.97506 1.97204,1.83769 2.93564,2.77625 1.04156,0.95659 2.04159,1.98042 2.7984,3.18332 -0.31492,0.11282 -0.62022,0.25736 -0.94475,0.33846 -0.12879,0.0322 -0.17021,-0.20648 -0.23052,-0.32474 -0.28052,-0.55015 -0.50435,-1.13123 -0.88524,-1.6258 -1.38663,-1.89184 -3.01663,-3.57554 -4.60491,-5.29779 -1.73888,-1.88297 -3.58432,-3.68175 -5.54761,-5.33005 -1.13693,-0.89538 -2.27508,-1.78658 -3.63382,-2.32441 0.25396,-0.0268 0.51449,-0.017 0.76187,-0.0803 0.0632,-0.0162 -0.12341,-0.0933 -0.18341,-0.0678 -0.13702,0.0582 -0.0157,0.31419 0.0596,0.44257 0.15887,0.27074 0.5232,0.68221 0.70576,0.90106 0.89549,0.93308 1.79478,1.86071 2.84595,2.62265 0.98607,0.72153 1.97137,1.47434 2.82478,2.34981 0.75615,0.84787 1.48789,1.71704 2.26347,2.54845 0.62165,0.65155 1.28959,1.25776 1.87305,1.94594 0.69899,0.65814 1.35694,1.36332 2.15633,1.90591 0.49523,0.40066 1.01589,0.76861 1.56505,1.0918 0.0849,0.05 0.34743,0.11423 0.25526,0.14905 -0.26798,0.10123 -0.57057,0.0519 -0.85586,0.0778 0.33066,-0.29458 -0.83241,-1.51284 -0.93899,-1.87245 -0.41556,-0.70071 -0.84032,-1.38622 -1.40803,-1.97722 -0.76494,-0.71696 -1.44367,-1.51546 -2.27818,-2.15421 -1.30627,-0.89888 -2.61637,-1.79397 -3.88021,-2.75243 -0.98175,-0.74024 -1.96725,-1.48168 -2.91028,-2.26941 -0.94647,-0.82351 -1.83877,-1.71771 -2.89614,-2.40343 -1.26468,-0.84552 -2.51502,-1.71572 -3.64848,-2.73514 -0.85795,-0.80607 -1.81093,-1.48734 -2.67385,-2.2878 -1.27301,-0.964551 -2.54994,-1.929107 -3.87386,-2.821918 -1.41325,-0.725124 -2.78289,-1.544889 -4.2697,-2.119653 -0.86759,-0.244095 -0.69352,-0.117339 0.0258,-0.228638 0.0283,-0.0044 -0.29055,-0.03397 -0.29633,0.06484 -0.0108,0.185352 0.21227,0.360259 0.30533,0.462111 0.93241,0.688785 1.99388,1.091411 3.04419,1.562288 1.57109,0.844089 3.06026,1.812551 4.58478,2.737511 1.64229,1.03661 3.32236,2.00753 5.05292,2.88981 -0.26014,0.0995 -0.51812,0.20485 -0.78043,0.2985 -0.18586,0.0663 -1.90514,-0.69165 -2.17202,-0.74377 -1.10628,-0.45455 -2.1942,-0.9248 -3.19179,-1.59488 -0.70836,-0.41454 -1.52882,-0.603354 -2.14728,-1.171133 -0.65749,-0.458009 -1.15269,-1.091193 -1.73442,-1.637138 -0.62877,-0.690016 -1.29452,-1.348392 -1.96165,-2.000647 -0.68597,-0.693079 -1.31714,-1.439223 -1.95687,-2.174391 0,0 1.07049,-0.08425 1.07049,-0.08425 z"
     inkscape:connector-curvature="0" />
  <path
     style="fill:#000000;fill-opacity:1;stroke:#000000;stroke-width:4.5;stroke-miterlimit:4;stroke-dasharray:none"
     id="path4222"
     d="m 158.60391,432.35502 c -0.55301,0.11537 -1.22855,-0.16384 -1.76764,-0.001 -0.14617,0.0442 0.54236,-0.0654 0.45423,0.0593 -0.10859,0.15364 -0.37424,0.0452 -0.55766,0.087 -0.16073,0.0367 -0.31464,0.0986 -0.47196,0.14786 -0.83711,0.24504 -1.56736,0.66964 -2.27724,1.16151 -0.69398,0.57059 -0.61237,0.78067 0.19978,0.96987 0.97713,0.14247 1.96926,0.12809 2.95439,0.13119 -0.16804,-0.0197 -0.55238,0.10311 -0.50412,-0.0591 0.0528,-0.17736 0.36776,-0.0467 0.54803,-0.0885 0.57684,-0.13362 1.12389,-0.35726 1.56956,-0.74721 0.35394,-0.61318 -1.94316,-0.5549 -0.33003,-0.47463 -1.06482,0.0643 -1.96157,0.49107 -2.78892,1.12906 -0.63407,0.5745 -1.20159,1.21464 -1.82485,1.79938 -0.30725,-0.33571 -0.0358,0.14655 -0.0905,0.13877 -1.28189,-0.18239 -1.14019,-0.15843 -0.34211,-0.64388 0.80939,-0.29778 1.65605,-0.49831 2.48987,-0.72941 0.73944,-0.2264 1.76502,-0.26385 2.28332,-0.91331 0.1211,-0.13771 -0.56815,-0.2199 -0.51098,-0.22529 1.67858,-0.15823 0.2839,0.0865 -0.0113,0.13637 -0.83873,0.20931 -1.49343,0.74255 -2.12251,1.30894 -0.39736,0.3233 -0.64739,0.62472 -1.24207,0.0563 -0.0962,-0.092 0.24325,-0.10819 0.36431,-0.16353 0.72051,-0.32939 0.15418,-0.083 0.92413,-0.40923 0.75078,-0.22498 1.44737,-0.57965 2.15215,-0.91486 0,0 1.05377,0.11932 1.05377,0.11932 l 0,0 c -0.70486,0.33411 -1.39453,0.70626 -2.14942,0.92001 -1.10325,0.46027 -1.23243,0.64444 -2.60384,0.60022 -0.17623,-0.006 0.99985,-0.3007 0.43796,-0.29663 0.62805,-0.58328 1.2909,-1.12497 2.12726,-1.36961 0.79796,-0.14064 2.3179,-0.60746 2.65451,0.30633 -0.48338,0.70295 -1.54341,0.76864 -2.29949,0.98377 -0.83159,0.22352 -1.66178,0.44967 -2.48179,0.70227 -1.00622,0.55973 -0.10581,0.4882 -1.80342,0.43092 -0.005,-1.8e-4 0.006,0.008 0.009,0.0124 0.0308,-0.0462 0.0616,-0.0924 0.0924,-0.13863 0.63979,-0.57189 1.19863,-1.2275 1.83178,-1.80764 0.83385,-0.64809 1.71539,-1.11482 2.79639,-1.19307 0.18924,-0.002 2.83906,-0.35365 2.4522,0.7249 -0.99576,0.93795 -2.44637,0.95235 -3.73146,0.97152 -0.98915,-0.005 -1.9884,0.013 -2.96611,-0.15713 -0.86171,-0.2575 -0.88801,-0.63536 -0.20192,-1.21304 0.71753,-0.49284 1.43626,-0.94782 2.28469,-1.19139 1.43002,-0.49262 2.96953,-0.28625 4.45824,-0.32779 0,0 -1.05866,0.16767 -1.05866,0.16767 z"
     inkscape:connector-curvature="0" />
  <path
     style="fill:#000000;fill-opacity:1;stroke:#000000;stroke-width:4.5;stroke-miterlimit:4;stroke-dasharray:none"
     id="path4224"
     d="m 82.147784,482.16337 c 0.881792,0.37138 1.761213,0.72353 2.601726,1.18499 0.915856,0.37771 1.623255,1.04928 2.376357,1.66368 0.137875,0.13469 0.436209,0.44659 0.620563,0.55913 0.06608,0.0403 0.296395,0.0766 0.218981,0.0774 -1.27267,0.0131 -0.909919,0.0523 -1.337334,-0.75174 -0.824692,-1.26396 -1.940867,-2.23855 -3.159326,-3.10649 0.673745,-0.29927 -1.404165,-0.30925 -1.045724,-0.42276 0.222145,-0.0703 0.483217,-0.0441 0.69743,0.0476 0.0717,0.0307 -0.117118,0.11939 -0.126548,0.19682 -0.03881,0.31863 0.187808,0.56602 0.336296,0.81132 0.849119,1.1382 2.055309,1.92247 3.153235,2.795 0.73006,0.59822 1.506369,1.11949 2.280145,1.6574 0.148798,1.01933 -3.278902,-0.93105 -3.37824,-0.97638 -0.968597,-0.4681 -1.345858,-0.75499 0.624699,-0.50326 0.369117,0.0471 0.704266,0.24178 1.062358,0.34298 0.671044,0.21648 1.318085,0.52131 2.003656,0.69386 0.187749,0.0473 0.629106,-0.0852 0.572161,0.0999 -0.05826,0.18933 -0.427497,0.0775 -0.593481,-0.0306 -0.103001,-0.0671 0.229662,-0.0877 0.344494,-0.13158 0.724939,-0.60976 0.500087,-1.3598 -0.19021,-1.85708 -0.31264,-0.16056 -1.87709,-0.71972 -2.147459,-0.48303 -0.120327,0.10534 0.313251,0.0646 0.469876,0.0969 -0.19198,0.069 -0.38396,0.13796 -0.57594,0.20694 -1.138475,0.60631 -2.035641,1.53826 -2.900792,2.47591 -1.146871,1.18096 -2.027144,2.57992 -3.05404,3.85962 -0.06336,0.12208 -2.134664,3.5015 -2.263497,1.01412 0.522836,-1.09849 1.542888,-2.00678 2.620475,-2.55275 2.037542,-0.39983 2.060671,0.43861 1.499479,1.7954 -0.092,0.16103 -0.174754,0.3277 -0.276002,0.48308 -0.545921,0.8378 -2.301123,1.4848 -1.570524,-0.118 0.802498,-1.4168 2.221743,-2.25683 3.47942,-3.21707 0.321167,-0.54524 2.744217,-1.13987 1.427264,0.21139 -0.912636,0.90964 -1.830132,1.81785 -2.767272,2.7034 -0.704104,0.73503 -1.418448,1.5934 -2.604329,1.05043 -0.129248,-0.0592 0.140445,-0.55213 0.350943,-0.98703 0.876953,-1.58366 2.112206,-2.83055 3.651038,-3.76164 0.833928,-0.44184 1.148295,-1.1786 2.179152,-0.69487 0.105387,0.0495 -0.215415,0.0895 -0.317446,0.14559 -0.173277,0.0952 -0.338137,0.20495 -0.507205,0.30743 -1.332373,0.77112 -2.286859,1.91492 -3.212987,3.11071 -0.550531,0.4871 -0.931179,2.0656 -1.530918,2.39398 -0.343164,-0.11635 -0.782916,-0.0835 -1.029494,-0.34905 -0.126124,-0.13581 0.150652,-0.33912 0.239198,-0.50194 0.691791,-1.27211 1.583048,-2.45011 2.451554,-3.60402 0.0767,-0.11483 1.813219,-2.36192 1.821215,-2.35993 0.299018,0.0743 0.591615,0.17248 0.887423,0.25872 -1.013067,1.17316 -1.850127,2.44461 -2.554892,3.82278 -0.857111,1.28887 -0.849837,2.92805 -1.49076,4.29211 -0.381418,-0.0277 -0.788773,0.0579 -1.144253,-0.0831 -0.269606,-0.10694 0.406236,-3.51233 0.481851,-3.82682 0.05325,-0.83454 0.584889,-1.57923 0.728924,-2.38458 0.0049,-0.0276 -0.07392,0.0626 -0.04683,0.07 0.317041,0.0861 0.645949,0.12037 0.968924,0.18056 -0.495784,1.01285 -0.966092,2.03421 -1.292405,3.11527 -0.264939,0.0213 -0.579262,2.29472 -0.748129,2.25895 -0.406685,-0.0861 -0.770877,-0.31143 -1.156316,-0.46715 0.114226,-1.55576 0.304895,-3.16683 0.738133,-4.67338 1.491232,-1.74241 1.32681,1.51957 1.331957,1.78621 0.01255,1.22365 0.0048,2.44741 0.003,3.6711 -0.0014,0.676 0.208156,0.99944 -1.071752,0.40953 -0.02814,-0.013 0.0056,-0.97342 0.0064,-1.33942 -0.06364,-0.48719 -0.0076,-0.80927 0.149284,-1.24519 0.35764,-0.91266 0.711639,-1.79795 1.202233,-2.64861 0.522812,-0.90687 1.41974,-1.10434 2.337166,-1.40123 0.961579,-0.41239 0.573005,-1.31553 0.204884,-2.04383 -0.02424,-0.23094 -1.226881,-1.67176 -0.781133,-1.71094 0.464395,-0.0408 0.932358,0.005 1.398537,0.007 1.530254,0.43484 3.013548,1.01752 4.53134,1.49373 0.203507,0.0663 0.40872,0.12753 0.610523,0.19883 1.724854,0.60942 -0.994783,0.4718 -1.634315,0.32471 -1.276189,-0.49989 -2.806119,-0.66832 -3.905819,-1.54043 -0.01392,-0.0616 -0.06861,-0.12764 -0.04177,-0.18481 0.248989,-0.53038 3.235426,-0.30312 3.38559,-0.29848 0.930596,0.35421 1.629098,0.53649 -0.328515,0.5879 -0.162137,0.004 -0.816287,-0.19983 -0.892815,-0.22172 -0.585533,-0.18244 -1.090808,-0.53817 -1.634525,-0.80071 -0.131804,-0.0636 -0.55849,-0.11336 -0.415158,-0.143 1.226481,-0.25366 0.772269,0.0491 0.513927,0.27829 -0.287564,0.89536 0.302088,1.77278 0.636576,2.5742 -0.368085,-0.0332 -0.753776,0.0177 -1.104255,-0.0996 -0.106443,-0.0356 -0.0783,-0.21068 -0.126299,-0.31215 -0.213931,-0.45224 -0.429037,-1.01521 -0.785456,-1.37693 -0.08018,-0.0814 -0.193461,-0.12154 -0.290192,-0.18232 0.272796,0.0282 0.581762,-0.0541 0.818387,0.0846 0.09831,0.0576 -0.153288,0.17451 -0.195714,0.28026 -0.07543,0.18801 -0.115002,0.3892 -0.152719,0.58824 -0.167394,0.88337 -0.18822,1.79338 -0.232638,2.68836 -0.0093,0.30533 -0.02039,0.6106 -0.02784,0.91598 -0.0059,0.24061 -0.0092,0.48128 -0.01215,0.72195 -0.0017,0.13627 -0.0022,0.27256 -0.0016,0.40883 1.22e-4,0.0249 0.02855,0.0783 0.0039,0.0746 -1.217368,-0.18135 -1.082754,0.10128 -1.073233,-0.65767 0.07277,-0.63995 -0.631605,-1.99446 0.786054,-0.95308 0.10054,0.0739 -0.0808,0.23751 -0.09896,0.36093 -0.01527,0.1038 -2.96e-4,0.20983 -4.44e-4,0.31474 0.01653,0.0393 0.09228,0.11801 0.04961,0.11801 -0.340152,2e-5 -0.702845,0.0203 -1.013617,-0.11796 -0.09275,-0.0413 0.09979,-0.17785 0.13445,-0.27326 0.06149,-0.16929 0.100132,-0.34604 0.153026,-0.51821 0.54165,-1.76304 -0.136229,0.49944 0.41606,-1.35597 0.338073,-1.2079 0.636994,-1.32255 2.060695,-1.01581 0.32929,0.0709 0.544017,0.39737 0.81599,0.59611 0.159055,0.14592 0.54757,0.51683 0.746768,0.65005 0.08329,0.0557 0.369546,0.11458 0.270663,0.1308 -1.355523,0.22232 -0.808984,0.0658 -0.629576,-0.38629 -0.001,-0.0912 0.01486,-0.18422 -0.0031,-0.27366 -0.02869,-0.14312 -0.115175,-0.40774 -0.277114,-0.48615 -0.04823,-0.0234 -0.213052,0.002 -0.160316,0.0118 1.063601,0.19139 0.923947,-0.19741 1.031135,0.31751 0.03009,0.0345 0.13605,0.10247 0.09027,0.10355 -1.62626,0.0383 -0.548873,-0.0921 -0.87781,-1.26585 -0.382275,-0.92197 -1.224708,-1.44916 -1.90564,-2.11431 -0.348179,-0.33769 -0.745183,-0.61258 -1.119608,-0.91955 -0.05684,-0.0466 -0.247212,-0.133 -0.173759,-0.13577 1.240644,-0.0469 1.00675,-0.1061 1.657155,0.44772 1.105861,0.93522 2.38005,1.63995 3.211215,2.85459 0.456697,1.20018 -1.333687,1.19311 -2.094145,1.26522 -0.505509,0.21594 -1.605132,-0.11404 -1.941578,0.46087 -0.257656,0.44027 -0.633903,2.08164 -0.700134,2.33519 -1.00111,4.21983 -1.719374,8.4996 -2.635602,12.73663 -0.116924,0.51682 0.0811,1.7815 -1.091765,0.66789 -0.130243,-0.12366 0.127864,-0.33574 0.186074,-0.50564 0.236348,-0.68987 0.21229,-0.66191 0.402161,-1.40677 0.565415,-1.71936 0.815213,-3.50657 0.980256,-5.30151 -0.02902,-0.74092 0.573769,-3.13881 -0.600521,-3.26672 0.253651,0.0408 0.561036,-0.0391 0.760953,0.12225 0.100586,0.0812 -0.19518,0.16966 -0.288678,0.25891 -0.661372,0.63133 -0.532762,0.46149 -1.671848,0.17969 0.189228,-0.50168 0.685399,-1.21011 0.815416,-1.56264 0.273124,-0.66958 1.746345,-0.79248 1.204173,0.40362 -0.465325,0.84953 -1.342123,1.47788 -1.623653,2.41753 -0.498965,0.19487 0.984588,0.36362 0.735562,0.23001 -0.16858,-0.0905 -0.540931,0.10375 -0.567503,-0.0857 -0.02561,-0.18257 0.357947,-0.0884 0.536828,-0.13301 0.18723,-0.0467 0.374336,-0.0938 0.561504,-0.14075 0.808688,-0.16489 3.857073,-0.75475 2.00998,0.72099 -0.9022,0.61704 -1.826635,1.06285 -2.976451,0.67576 -0.246765,-0.0831 -0.124978,-1.03573 -0.123781,-1.06251 0.0061,-0.26085 0.61501,-2.29857 0.830176,-2.24584 0.352912,0.0865 0.693123,0.21837 1.039685,0.32755 -0.351859,0.84709 -0.659741,1.6679 -1.369808,2.27515 -0.79238,0.53269 -2.662217,1.25628 -3.262875,0.0892 -0.08194,-0.15922 -0.109383,-0.34101 -0.164074,-0.51152 -0.121084,-0.95858 0.335535,-1.86915 1.358128,-1.93674 0.466037,0.054 0.944317,0.043 1.398111,0.16211 0.562879,0.14771 0.803879,1.78923 0.927633,2.24544 -0.552996,-0.14477 0.475565,0.60676 0.265631,0.57767 -0.325988,-0.0452 -0.701379,-0.0788 -0.938279,-0.30724 -0.02393,-0.0231 0.162778,-1.54453 0.18025,-1.95845 -0.0138,-1.42073 -0.07242,-2.59328 0.80087,-3.77414 0.810067,-0.93319 1.814629,-1.65695 2.721809,-2.48718 0.786635,-0.68146 0.771202,-1.74975 1.815426,-2.0692 0.506455,0.008 1.015329,-0.0273 1.519366,0.0227 0.448482,0.0445 1.529368,0.61342 1.895506,0.90749 0.05443,0.60642 -1.830228,0.43301 -2.219841,0.44099 -1.104355,0.0522 -2.118318,0.46361 -2.995774,1.12004 -0.525318,0.39666 -0.756447,0.72417 -1.489338,0.21296 -0.09479,-0.0661 0.21723,-0.0802 0.329317,-0.1084 0.153492,-0.0385 0.310608,-0.0608 0.465911,-0.0913 1.27883,-0.27594 2.570896,-0.63182 3.637337,-1.41313 0.685239,-0.73408 -0.702335,-0.71869 -1.151664,-0.75937 -0.57429,-0.21255 -5.077576,0.22081 -1.804287,-0.22008 0.926682,0.0204 1.853828,-0.0388 2.774149,0.0807 0.739079,0.12418 1.477808,0.25156 2.22363,0.32895 0.183476,0.019 0.670756,-0.0908 0.551155,0.0496 -0.122956,0.14437 -0.378754,-0.0198 -0.568131,-0.0297 0.183735,-0.15883 1.70921,-0.17646 0.647924,-0.0409 -1.266496,0.12959 -2.460797,0.59189 -3.683407,0.91733 -0.556587,0.26535 -3.319881,0.34543 -2.70835,-0.79702 0.989343,-0.51119 2.195863,-0.45098 3.284149,-0.48426 0.929714,0.15194 2.173629,-0.33888 3.056805,0.14641 0.121388,0.0667 -0.277007,0.001 -0.415511,0.002 -1.375482,0.11426 -2.220615,-0.23622 -3.289453,-0.9526 0.235457,-0.10143 -0.777956,-0.18137 -0.59335,-0.10258 0.227603,0.0971 0.580172,-0.0383 0.724312,0.16289 0.09615,0.13419 -0.263131,0.20101 -0.38003,0.31758 -0.338623,0.33766 -0.400558,0.48824 -0.654134,0.8926 -0.51808,0.96897 -1.353134,1.91534 -1.323392,3.07122 0.161278,0.15625 1.106596,0.79241 -0.323059,0.2389 -0.114357,-0.0443 0.239167,-0.061 0.349887,-0.11367 0.298645,-0.1422 0.566683,-0.34142 0.853469,-0.50623 0.887159,-0.54739 1.657787,-1.24827 2.610884,-1.6808 0.254939,-0.12363 1.69762,0.0129 1.387819,-0.49852 -0.847686,-0.65069 -1.848891,-1.06842 -2.770698,-1.61598 0.387802,0.11343 -1.497983,-0.92673 -1.082764,-1.00663 1.134369,-0.21826 0.941851,-0.2345 1.589606,0.15757 1.409131,0.94045 2.905536,1.72002 4.383228,2.54093 0.51624,0.29332 2.154023,0.79472 -0.21307,0.47216 -0.0146,-0.002 -0.651349,-0.53033 -0.65244,-0.53123 -1.024378,-0.71741 -2.013009,-1.56605 -2.592473,-2.69267 0.701482,-1.20752 4.627622,1.98124 5.228364,2.4225 0.724361,0.45138 1.381403,1.04524 2.136402,1.45151 0.06613,0.0356 0.290153,0.0748 0.215701,0.065 -1.371573,-0.18071 -0.951175,0.0237 -1.695916,-0.50408 -1.09514,-0.59985 -2.095168,-1.44481 -3.23826,-1.94795 0.358724,-0.83652 2.226938,0.49131 2.603717,0.93611 -0.406872,0.0302 -0.813121,0.11072 -1.220616,0.0906 -0.139494,-0.007 -0.252698,-0.11964 -0.383044,-0.1698 -0.192547,-0.0741 -0.388477,-0.13928 -0.58482,-0.20263 -0.935957,-0.302 -1.883401,-0.54229 -2.839333,-0.77086 -1.032488,-0.0828 -2.176396,-0.65111 -3.230384,-0.4431 -0.155455,0.0307 0.462595,-0.11999 0.473836,0.0381 0.01128,0.15866 -0.30859,0.0773 -0.462884,0.11592 -0.565079,0.20023 -0.287195,0.0823 -0.832873,0.35553 0,0 -1.059879,-0.11641 -1.059879,-0.11641 l 0,0 c 0.546456,-0.29099 0.267371,-0.1657 0.83629,-0.37801 1.727053,-0.49925 3.59807,-0.0486 5.311125,0.28901 0.960575,0.2328 1.914773,0.47539 2.855961,0.77915 0.199437,0.0644 0.396264,0.13658 0.593623,0.20705 0.130667,0.0467 0.512963,0.0793 0.390415,0.14435 -0.274825,0.14591 -0.615427,0.0923 -0.923141,0.13849 -0.230296,-0.25447 -0.560874,-0.47082 -0.84511,-0.65552 -0.130707,-0.0849 -0.515062,-0.12668 -0.403803,-0.23586 0.199598,-0.19586 0.553639,-0.0908 0.820829,-0.17336 0.02475,-0.008 -0.02346,-0.0462 -0.03519,-0.0693 1.119276,0.57086 2.148834,1.33313 3.232491,1.96949 0.585646,0.45366 0.76735,0.38973 -0.430865,0.73367 -0.05659,0.0162 -1.120502,-0.70571 -1.363513,-0.87441 -0.319483,-0.2218 -0.63415,-0.45045 -0.951226,-0.67567 -0.955059,-0.69778 -1.909331,-1.37932 -2.926682,-1.98474 -0.240424,-0.14307 -0.676253,-0.1396 -0.730022,-0.41416 -0.03545,-0.18101 0.900135,-0.29135 0.526248,-0.17099 0.566989,1.12149 1.58036,1.93127 2.585718,2.64882 0.130122,0.10512 0.259901,0.21067 0.390367,0.31537 0.09187,0.0737 0.376667,0.15768 0.276643,0.2199 -0.824665,0.513 -1.223413,0.0533 -1.909879,-0.27002 -1.481903,-0.82056 -2.968675,-1.6238 -4.396528,-2.53876 -0.131013,-0.0638 -0.52118,-0.122 -0.393038,-0.19139 1.060446,-0.57416 0.75737,-0.13807 1.180326,0.21903 0.259119,0.21877 0.569174,0.3721 0.823278,0.5977 0.932493,0.55628 1.983632,0.9504 2.789337,1.67976 0.289395,0.7944 -0.944257,0.54805 -1.404186,0.66733 -0.964359,0.41064 -1.732372,1.11132 -2.612407,1.66939 -0.817054,0.46448 -2.32306,1.45072 -3.008746,0.27078 -4.92e-4,-1.17971 0.789754,-2.14177 1.334226,-3.13129 0.678823,-1.11619 1.571578,-2.01264 3.02746,-1.31634 0.33914,0.2278 0.650863,0.44429 1.029182,0.60366 0.123032,0.0518 0.244913,0.10826 0.373051,0.14573 0.136678,0.04 0.540132,0.0116 0.418517,0.0857 -0.185809,0.11318 -0.433555,0.037 -0.650333,0.0555 0.787973,-0.004 0.583243,-0.02 1.801688,0.16211 0.09751,0.0146 -0.197182,-9.5e-4 -0.295774,-8.6e-4 -0.683015,6.1e-4 -1.366053,0.005 -2.048944,0.0189 -1.0858,0.0304 -2.219017,0.01 -3.252585,0.38503 -0.17403,0.20042 -0.118212,0.34223 0.1379,0.48417 0.119397,0.0662 0.472905,0.043 0.382806,0.1455 -0.121096,0.13783 -0.711857,0.12724 -0.548704,0.0433 0.183555,-0.0944 0.409611,-0.0514 0.614416,-0.0771 1.22209,-0.31907 2.410164,-0.79136 3.672298,-0.93159 0.651969,-0.0994 2.973337,-0.12906 1.463803,0.35415 -1.460021,0.0243 -2.879338,-0.0463 -4.311434,-0.35574 -0.92637,-0.0998 -1.857514,-0.0489 -2.788255,-0.0679 1.298129,-0.24379 2.60324,-0.18646 3.921988,-0.10265 0.584151,0.0615 1.889662,0.16953 1.159236,1.01446 -1.063164,0.80251 -2.354899,1.17314 -3.641219,1.4617 -0.631213,0.10911 -3.236957,0.735 -1.424169,-0.25852 0.870822,-0.6831 1.900138,-1.11144 3.011966,-1.18599 0.337253,-0.006 2.05879,0.0724 2.195137,-0.17899 -0.421121,-0.30815 -0.94986,-0.51688 -1.435208,-0.70265 -0.145164,-0.0556 -0.541881,-0.0232 -0.443618,-0.14367 0.125589,-0.15393 0.396366,-0.0275 0.594549,-0.0413 -1.082852,0.21766 -1.035622,1.33795 -1.817925,2.01597 -0.90029,0.83071 -1.901444,1.54748 -2.717697,2.46824 -0.890194,1.15385 -0.819584,2.30288 -0.807633,3.70965 -0.0067,0.17469 -0.06329,1.93013 -0.164397,1.99728 -1.171752,0.7782 -1.203734,0.44782 -1.460154,-0.28559 -0.136535,-0.51212 -0.196535,-1.08351 -0.425236,-1.56571 -0.05794,-0.12215 -0.132846,-0.23763 -0.221201,-0.33996 -0.0809,-0.0937 -0.377012,-0.16351 -0.281489,-0.24224 0.188212,-0.15514 0.481143,-0.0804 0.721715,-0.12063 -0.989914,-0.0575 -1.47204,0.82051 -1.351559,1.73533 0.05526,0.1568 0.08326,0.32608 0.165775,0.47042 0.06615,0.11571 0.354774,0.19004 0.271179,0.29385 -0.135039,0.16769 -0.460726,0.0145 -0.62834,0.14968 -0.312906,0.25228 1.908466,-0.59214 1.491835,-0.55106 0.721883,-0.57206 1.002968,-1.36881 1.357528,-2.19579 0.368045,-0.0481 0.739586,-0.0744 1.104134,-0.14427 0.02895,-0.006 -0.04645,-0.0712 -0.07022,-0.0537 -0.576658,0.42311 -0.548803,1.55183 -0.768137,2.13518 -0.007,0.19604 -0.04748,0.39375 -0.02097,0.58812 0.05953,0.43648 0.642314,0.55364 -0.581284,0.41917 -0.165907,-0.0182 0.330275,-0.0586 0.487277,-0.11523 0.452063,-0.16308 0.691449,-0.34929 1.094966,-0.60755 0.134884,-0.0968 0.281739,-0.17881 0.404653,-0.29043 0.06885,-0.0625 0.144299,-0.13491 0.163864,-0.22583 0.01003,-0.0466 -0.138395,-0.10039 -0.09166,-0.10972 0.230378,-0.0459 0.470771,-0.0348 0.704631,-0.0125 0.361845,0.0344 -1.563804,0.005 -1.079243,0.15577 -0.728527,0.1827 -2.890061,0.72235 -3.323876,0.21585 -0.0577,-0.0674 -0.04411,-0.17183 -0.06617,-0.25774 0.280578,-0.94511 1.138265,-1.59009 1.622017,-2.4339 0.03856,-0.0779 0.08733,-0.15161 0.115676,-0.23381 0.02595,-0.0752 -0.03125,-0.21432 0.04578,-0.23434 1.677369,-0.43603 1.249977,-0.12453 0.787,0.0289 0.126399,0.42902 -0.744965,1.18621 -0.81797,1.64101 -2.211403,0.22894 -1.006081,0.24586 -0.719165,-0.006 0.03169,-0.0278 0.5309,-0.55039 0.538098,-0.55229 0.443231,-0.11698 0.912037,-0.0935 1.368056,-0.14022 1.158551,0.44472 0.561117,2.50082 0.585858,3.41878 -0.169988,1.79889 -0.413814,3.59289 -0.977242,5.31763 -0.03659,0.14808 -0.46099,1.86684 -0.567267,1.92479 -1.55706,0.84903 -1.17409,0.0675 -1.015695,-0.72923 1.002584,-4.21842 1.69267,-8.50887 2.646431,-12.73881 0.109625,-0.45142 0.368802,-2.39797 0.990848,-2.70663 0.487082,-0.2417 1.135842,0.0226 1.627077,-0.22035 0.38154,-0.0321 2.188237,-0.0284 2.194481,-0.69393 0.0012,-0.12313 -0.07676,-0.234 -0.115145,-0.35101 -0.833166,-1.20018 -2.113252,-1.89449 -3.208775,-2.82685 -0.549412,-0.46802 -0.800144,-0.47523 0.473516,-0.63518 0.08045,-0.0101 1.143092,0.9609 1.283064,1.06504 0.708312,0.66377 1.533395,1.23247 1.912944,2.17179 0.09011,0.34038 0.143965,0.40296 0.09956,0.74841 -0.08733,0.67938 -0.804317,1.43291 -1.457004,0.46117 -0.147254,-0.95587 1.939672,-0.65334 1.558339,0.44898 -0.417284,1.2512 -1.945731,0.3239 -2.51949,-0.33173 -0.581715,-0.4189 -1.437083,-0.56326 -0.08609,-0.67119 0.09306,-0.007 -0.201341,0.01 -0.270486,0.0726 -0.204941,0.18589 -0.338813,0.74101 -0.406125,0.94852 -0.05507,0.18716 -0.648744,2.16669 -0.680534,2.17618 -0.366311,0.10941 -0.761211,0.11344 -1.143027,0.0942 -0.0532,-0.003 -0.02857,-0.10263 -0.04285,-0.15394 0.0127,-1.3894 1.355636,-1.8291 1.452866,-0.25382 0.01093,0.17706 8.3e-5,0.3548 1.24e-4,0.53219 0.004,0.75962 0.140456,0.47346 -1.076516,0.65327 -0.02414,0.004 0.0082,-0.0482 0.0094,-0.0726 0.0066,-0.1363 0.0099,-0.27274 0.01402,-0.40915 0.0072,-0.24094 0.01264,-0.48193 0.01989,-0.72287 0.0092,-0.30597 0.01964,-0.61191 0.02947,-0.91786 0.05243,-1.07521 0.0041,-2.29808 0.36386,-3.33033 0.04528,-0.1299 0.06571,-0.32591 0.198505,-0.36183 0.42269,-0.11433 0.875198,-0.0313 1.312798,-0.0469 0.09544,0.0733 0.206029,0.13018 0.286324,0.21979 0.155827,0.17389 0.989391,1.70077 0.929055,1.73321 -0.312549,0.16807 -0.701593,0.10722 -1.05239,0.16083 -0.310454,-0.86427 -0.930208,-1.74492 -0.627566,-2.69784 0.994133,-1.11947 2.626379,0.25285 3.657758,0.61091 0.179763,0.047 0.357639,0.10194 0.539288,0.14102 0.12004,0.0258 0.480766,0.0141 0.364464,0.0534 -0.863135,0.29221 -1.020941,-0.0606 -1.785611,-0.26517 1.504102,-0.15328 -1.184529,0.0525 -1.257679,0.11533 -0.02957,0.0254 0.02056,0.0752 0.03084,0.1128 1.11432,0.83397 2.610909,1.02414 3.889373,1.49435 0.197294,0.0388 0.655615,-0.0744 0.591881,0.1163 -0.06847,0.20486 -0.432534,0.0158 -0.646328,0.0466 -0.03701,0.005 0.127633,0.0627 0.10781,0.031 -0.194043,-0.31033 -0.901181,-0.21956 -1.123995,-0.44088 -1.517388,-0.48365 -3.002228,-1.07982 -4.547629,-1.46803 0.244902,-0.0169 0.490659,-0.0242 0.734707,-0.0508 0.03749,-0.004 -0.107932,-0.0545 -0.111855,-0.017 -0.0083,0.0792 0.0534,0.15052 0.09053,0.2209 0.243172,0.46101 0.598901,0.85287 0.791258,1.34263 0.38245,0.77265 0.772858,1.75212 -0.208605,2.2262 -0.892627,0.30327 -1.80632,0.4338 -2.33294,1.3239 -0.488863,0.84442 -0.848165,1.71644 -1.191797,2.62857 -0.13936,0.42065 -0.229013,0.73623 -0.158947,1.20944 0.0011,0.36619 0.03573,1.3265 0.0087,1.33897 -1.283089,0.59208 -1.068164,0.26471 -1.066377,-0.40923 0.0028,-1.22288 0.0076,-2.44585 -0.0075,-3.66868 -0.01058,-0.46827 -0.0099,-0.94174 -0.06485,-1.40772 -0.0113,-0.0959 -0.137835,-0.2479 -0.0489,-0.28541 0.312338,-0.13175 0.67168,-0.0966 1.009861,-0.11992 0.03708,-0.003 -0.06396,0.0379 -0.09595,0.0568 -0.491656,1.46638 -0.629778,3.09092 -0.740093,4.62125 -0.328344,0.14639 -0.639407,0.34026 -0.985031,0.43917 -0.06699,0.0192 0.07362,-0.11949 0.09716,-0.18507 0.243015,-0.67708 0.340858,-1.40683 0.665837,-2.05697 0.324955,-1.08526 0.796115,-2.10846 1.278798,-3.13136 0.393089,-0.0895 0.779824,-0.21396 1.179267,-0.26851 0.11152,-0.0152 0.0015,0.23055 -0.03959,0.33534 -0.273489,0.69739 -0.510021,1.4054 -0.672358,2.13897 -0.223436,0.92657 -0.386786,1.81998 -0.457947,2.7713 -0.01576,0.21064 -0.03793,0.42145 -0.03581,0.63267 0.0011,0.11082 0.146641,0.28417 0.04545,0.32936 -0.308394,0.13771 -0.672155,0.067 -1.008233,0.10058 0.744183,-1.30773 0.622217,-3.02832 1.518332,-4.29019 0.703943,-1.38452 1.538484,-2.65989 2.531038,-3.85548 0.42178,-0.0449 0.842043,-0.10765 1.26534,-0.1348 0.125713,-0.008 -0.121168,0.22246 -0.200338,0.32045 -0.555405,0.68738 -1.196581,1.309 -1.667216,2.06475 -0.701387,0.92504 -1.382776,1.86659 -2.000694,2.85055 -0.150272,0.23929 -0.289965,0.48527 -0.424299,0.73386 -0.08298,0.15355 -0.0696,0.39674 -0.227191,0.47174 -0.338731,0.16122 -0.742057,0.11077 -1.113086,0.16616 0.03038,0.0147 0.06349,0.0637 0.09113,0.0443 0.525086,-0.36842 0.934689,-1.87822 1.454093,-2.34216 0.929579,-1.20239 1.880605,-2.36051 3.211289,-3.1485 0.746576,-0.47938 0.950359,-0.66477 1.999674,-0.41517 0.08185,0.0195 -0.109086,0.12961 -0.174989,0.18191 -0.324653,0.25768 -0.727885,0.48072 -1.077508,0.6909 -1.540478,0.90351 -2.769422,2.12568 -3.636963,3.70114 -0.373048,0.7647 -0.148508,0.98474 -1.252258,0.89201 -0.120273,-0.0101 0.238559,-0.0575 0.341394,-0.12066 0.401817,-0.2469 0.732298,-0.6376 1.053126,-0.96866 0.93786,-0.87888 1.84627,-1.79123 2.751807,-2.70166 0.08738,-0.0842 0.181533,-0.16195 0.262135,-0.25268 0.05647,-0.0636 0.0638,-0.19229 0.147314,-0.20823 2.107195,-0.40217 0.742508,0.0847 0.281426,0.43074 -1.247842,0.9473 -2.664591,1.76749 -3.465004,3.16709 -0.284559,0.57994 -0.04918,0.78906 -1.101441,0.57043 -0.08177,-0.017 1.07419,-0.88917 0.817368,-1.02476 0.148404,-0.35068 0.368133,-0.79435 0.308333,-1.19492 -0.01617,-0.10834 -0.213959,-0.2425 -0.123638,-0.30448 0.222999,-0.15302 0.537496,-0.0776 0.796043,-0.15694 0.114134,-0.035 -0.238318,0.0149 -0.357477,0.0223 -1.073848,0.49164 -2.044688,1.3859 -2.604718,2.42731 0.03409,0.50717 0.105548,0.40017 -0.92042,0.38582 -0.07594,-0.001 0.115063,-0.10064 0.161452,-0.16077 0.322242,-0.41774 0.51906,-0.92379 0.893702,-1.30483 1.040292,-1.27218 1.914442,-2.67741 3.056247,-3.86605 0.868813,-0.95019 1.767607,-1.88886 2.900982,-2.52571 1.405641,-0.55016 3.029155,-0.48413 4.367644,0.20986 0.71602,0.58392 0.912298,1.38231 0.190994,2.07878 -1.445855,0.69226 -3.062858,-0.1641 -4.438606,-0.61935 -0.215709,-0.0622 -0.432729,-0.12003 -0.647127,-0.18661 -0.144504,-0.0449 -0.560016,-0.0715 -0.429247,-0.14766 0.610312,-0.35527 0.925258,-0.0532 1.487012,0.23803 0.606126,0.27943 1.195292,0.58152 1.790263,0.88319 0.682947,0.34627 0.413824,0.13557 -0.529206,0.31578 -0.762812,-0.54753 -1.543,-1.06211 -2.265558,-1.66469 -1.108387,-0.87675 -2.314864,-1.67898 -3.160212,-2.83371 -1.142026,-1.99507 1.198875,-1.43246 2.24822,-0.7891 1.222195,0.88596 2.348682,1.87396 3.174212,3.15453 0.224139,0.42862 0.399216,0.72251 0.310848,0.76233 -1.003283,0.45215 -1.323132,0.10605 -1.937829,-0.50158 -0.745008,-0.61792 -1.467333,-1.2606 -2.373131,-1.64348 -0.842295,-0.45041 -1.717451,-0.81439 -2.608191,-1.15711 0,0 1.064686,-0.14199 1.064686,-0.14199 z"
     inkscape:connector-curvature="0" />
  <path
     style="fill:#000000;fill-opacity:1;stroke:#000000;stroke-width:4.5;stroke-miterlimit:4;stroke-dasharray:none"
     id="path4226"
     d="m 22.577904,432.50794 c -0.99869,0.83254 -1.90416,1.76356 -2.782346,2.71936 -0.657979,0.8267 -0.896667,1.34451 -2.169093,0.98769 -0.09733,-0.0273 -0.153367,-0.60587 -0.189384,-0.8678 -0.02604,-1.45956 0.602866,-2.76396 1.479203,-3.89264 1.191574,-0.98251 2.111313,-0.82296 2.012342,0.78535 -0.235091,1.09392 -0.73902,2.09526 -1.051425,3.16673 -0.0957,0.49771 -0.247094,1.00314 -0.273817,1.51259 -0.004,0.0754 -0.01623,0.16291 0.02668,0.22511 0.02395,0.0347 0.167613,0.006 0.126498,-0.003 -0.277858,-0.0636 -0.559989,-0.10679 -0.839984,-0.16019 0.963924,-1.13625 1.735346,-2.41969 2.523191,-3.68 0.722072,-0.87119 0.753118,-2.16044 1.517569,-2.98766 1.330189,-0.14545 1.2922,-0.1136 1.398814,0.89976 0,0 -1.069384,0.0118 -1.069384,0.0118 l 0,0 c -0.10962,-0.93713 -0.567563,-0.78195 0.7426,-0.82594 -0.841835,0.73624 -0.788525,2.13388 -1.5392,2.96082 -0.793713,1.26681 -1.576504,2.5456 -2.504895,3.72035 -0.433523,0.0623 -0.863189,0.16403 -1.300567,0.1868 -0.375312,0.0195 0.104986,-1.67101 0.130965,-1.89038 0.307964,-1.06465 0.804468,-2.05905 1.045001,-3.14304 0.01021,-0.17967 0.05343,-0.54101 -0.01138,-0.73312 -0.0268,-0.0794 -0.220645,-0.17522 -0.14302,-0.20692 2.125029,-0.86767 0.34499,0.18314 0.267951,0.23199 -0.88185,1.0909 -1.503984,2.37361 -1.473074,3.80604 0.112308,0.70731 0.554671,1.00871 -0.70466,0.8217 -0.09688,-0.0144 0.167249,-0.10441 0.238498,-0.17161 0.191421,-0.18055 0.561211,-0.65502 0.705208,-0.83309 0.87951,-0.95139 1.773534,-1.88938 2.767208,-2.72488 0,0 1.070494,0.0842 1.070494,0.0842 z"
     inkscape:connector-curvature="0" />
  <path
     style="fill:#552200;fill-opacity:1;stroke:#000000;stroke-width:4.50000000000000000;stroke-miterlimit:4;stroke-dasharray:none"
     id="path4228"
     d="m 61.643003,373.54241 c -0.732061,-0.62957 -1.194748,-1.58548 -2.018929,-2.10284 0.295665,0.0258 0.60768,-0.0228 0.886995,0.0775 0.07311,0.0263 -0.09782,0.12351 -0.12654,0.19569 -0.04373,0.10992 -0.06647,0.22748 -0.08809,0.34379 -0.08094,0.43539 -0.08902,0.88302 -0.106841,1.32408 -0.0013,0.0574 0.05295,0.18077 -0.0038,0.17215 -0.371317,-0.0564 -0.788083,-0.0942 -1.075447,-0.33601 -0.143841,-0.12104 0.0043,-0.37596 0.006,-0.56395 0.0073,-0.80632 0.0099,-1.61265 0.01323,-2.41899 0.0015,-0.77596 0.0047,-1.55192 -1.16e-4,-2.32787 -8.3e-4,-0.13522 -0.002,-0.27044 -0.0039,-0.40566 -7.97e-4,-0.0585 -0.06196,-0.18409 -0.0041,-0.17555 0.371172,0.0547 0.716692,0.22224 1.075037,0.33336 -0.01649,1.28463 0.359006,2.5324 0.630788,3.77729 0.299414,1.49304 0.375678,3.01591 0.427919,4.53383 0.01376,0.66388 0.320087,1.37121 -1.039149,0.43514 -0.127874,-0.0881 0.0026,-0.31051 0.0033,-0.46578 7.84e-4,-0.18873 6.74e-4,-0.37747 0.001,-0.5662 -9.44e-4,-1.48736 0.001,-2.97473 1.92e-4,-4.46209 0.02338,-1.78874 0.02632,-3.5687 -0.153853,-5.34921 -0.344239,-1.19349 -0.361084,-2.51841 -0.809813,-3.68085 0.335016,0.0639 0.702524,0.0341 1.005047,0.19158 0.09209,0.0479 -0.03466,0.20489 -0.04482,0.30821 -0.01331,0.13542 -0.01983,0.27147 -0.02552,0.40743 -0.02456,0.58679 -0.01917,1.17487 -0.01936,1.76199 0.0043,1.30137 0.0053,2.60282 0.01812,3.90415 0.0018,0.0958 0.0035,0.19152 0.0053,0.28728 0.002,0.007 0.01325,0.0217 0.0061,0.0207 -0.361058,-0.052 -0.748905,-0.0228 -1.080197,-0.17547 -0.04317,-0.0199 0.0088,-1.10618 0.0103,-1.5322 0.05536,-1.52363 -0.102212,-3.0438 -0.389208,-4.53866 -0.33468,-1.34725 -0.53795,-2.71188 -0.625993,-4.0955 -0.01475,-2.21168 -0.134288,-4.41163 -0.371273,-6.61072 -0.351107,-2.95926 -0.816371,-5.90036 -1.085011,-8.86969 -0.169577,-1.90341 -0.222605,-3.81376 -0.245077,-5.72367 -0.0094,-1.19361 -0.0043,-2.38727 -0.0016,-3.5809 -0.002,-0.93319 0.011,-1.86651 -0.0025,-2.79965 -0.0012,-0.0164 -0.0023,-0.0328 -0.0035,-0.0491 0.360532,0.0376 0.737506,-0.001 1.081597,0.11266 0.02073,0.007 -0.0061,1.02562 -0.0071,1.48454 -0.0017,1.07387 -0.0016,2.14774 -0.0016,3.22162 -0.0021,1.24558 -6.84e-4,2.49117 -0.0025,3.73675 0.02205,1.55099 -0.06527,3.10553 0.06267,4.65244 0.186898,1.62455 0.329945,3.25324 0.417936,4.88607 0.08623,0.91764 0.83047,1.52939 -0.679696,1.00982 -0.0735,-0.0253 0.05586,-0.1459 0.0708,-0.22218 0.02738,-0.13976 0.03713,-0.2824 0.0557,-0.42361 0.109754,-1.44039 0.101454,-2.8872 0.106161,-4.33092 0.0013,-1.38344 -0.0038,-2.76688 -0.0066,-4.15032 -3.12e-4,-0.19203 -1.34e-4,-0.38407 -9.35e-4,-0.57611 -6e-4,-0.14401 -0.0017,-0.28803 -0.0033,-0.43203 -0.0011,-0.0995 -0.107372,-0.30354 -0.008,-0.29844 1.163199,0.0597 1.085248,-0.23868 1.078563,0.35524 -0.0068,1.13178 -0.0093,2.26357 -0.0094,3.39537 -0.02502,0.8053 0.369902,1.57315 -1.066667,0.8112 -0.110562,-0.0587 0.0026,-0.25029 0.0036,-0.37544 0.0014,-0.18348 0.0023,-0.36697 0.0035,-0.55046 0.0073,-1.90026 0.01115,-3.80052 0.01218,-5.7008 0.003,-2.33335 -3.48e-4,-4.66669 -0.0015,-7.00004 -0.07197,-1.62063 -0.250343,-3.23113 -0.762716,-4.77445 -0.464898,-1.4178 -0.884504,-2.85409 -1.272943,-4.29521 -0.389793,-1.60121 -0.567712,-3.24031 -0.649638,-4.88287 -0.07405,-0.61279 -0.02546,-2.47334 -0.446456,-2.92503 0.336045,0.10759 0.733107,0.10173 1.008137,0.32278 0.118005,0.0948 -0.03319,0.30104 -0.0441,0.45204 -0.0631,0.87353 -0.04927,1.75391 -0.0518,2.62898 0.0019,1.60271 0.268853,3.19149 0.402334,4.78709 0.107091,1.60955 0.09806,3.21537 0.306991,4.81636 0.149021,0.60962 0.264171,1.23465 0.493635,1.82169 0.03717,0.0951 0.07533,0.19218 0.135511,0.27464 0.02325,0.0319 0.144299,0.056 0.10488,0.0548 -0.334288,-0.0103 -0.666635,-0.0549 -0.999953,-0.0824 0.175774,-0.80674 0.138369,-1.65304 0.144198,-2.47569 3.86e-4,-0.18069 0.0015,-0.36138 0.0012,-0.54206 -2.48e-4,-0.13951 -0.0013,-0.27902 -0.0029,-0.41852 -0.0011,-0.10022 -0.105679,-0.32815 -0.0093,-0.30052 1.222464,0.3506 1.076987,0.0141 1.07139,0.83282 -0.0052,1.23364 -0.006,2.46729 -0.0055,3.70094 -0.0031,0.71731 0.255651,1.12305 -1.068593,0.49414 -0.106314,-0.0505 0.01227,-0.23567 0.0039,-0.35307 -0.01115,-0.15617 -0.04156,-0.31037 -0.06234,-0.46555 -0.202722,-1.23269 -0.287145,-2.47136 -0.568982,-3.68959 -0.271868,-1.04787 -0.369971,-2.12379 -0.417141,-3.20155 -0.04987,-1.30063 -0.299728,-2.58384 -0.427913,-3.87963 -0.0029,-0.0366 -0.07996,-1.02786 -0.0902,-1.1461 -0.0085,-0.0983 -0.0165,-0.19678 -0.02908,-0.29467 -0.0039,-0.0305 -0.05033,-0.097 -0.02035,-0.0901 1.230273,0.28657 1.070245,0.007 1.053878,0.85003 0.202321,1.48524 0.600828,2.93453 0.831448,4.41926 0.244266,1.48542 0.628339,2.93884 0.942356,4.40919 0.258548,1.23156 0.342702,2.48712 0.385473,3.74164 -0.01086,0.68855 0.382638,1.73514 -1.050577,0.80857 -0.140683,-0.0909 0.0041,-0.33502 0.0054,-0.50253 0.002,-0.26403 0.0031,-0.52807 0.0046,-0.7921 0.04795,-2.85595 0.003,-5.70627 -0.140318,-8.55856 -0.168494,-3.02977 -0.2872,-6.06176 -0.365422,-9.09511 -0.02912,-1.52333 -0.505229,-2.94644 -0.97246,-4.37497 -0.366375,-1.28762 -0.6396,-2.60051 -0.990263,-3.89272 -0.03169,-0.0761 -0.177182,-0.23639 -0.09508,-0.22846 0.344018,0.0332 0.740261,0.0736 0.987954,0.31466 0.141894,0.13808 -0.04422,0.39365 -0.05706,0.59122 -0.064,0.98443 -0.05283,1.97547 -0.06021,2.96122 -0.07619,2.651 0.05817,5.29154 0.25909,7.93339 0.267678,1.51212 0.02149,3.10641 0.307197,4.61208 -0.355806,-0.0617 -0.758555,0.002 -1.067416,-0.18504 -0.129637,-0.0785 0.009,-0.30301 0.01159,-0.45456 0.0038,-0.22181 0.0055,-0.44365 0.0074,-0.66549 0.0089,-1.05077 0.01004,-2.10158 0.01147,-3.15238 0.0019,-2.22625 -0.0025,-4.4525 -0.0088,-6.67874 -0.0037,-0.73245 -3.09e-4,-1.4649 -0.006,-2.19734 -0.001,-0.13175 -0.0018,-0.26351 -0.0045,-0.39523 -7.28e-4,-0.0358 -0.04151,-0.10976 -0.0058,-0.10737 0.36379,0.0243 0.719359,0.11942 1.079038,0.17913 0.481938,2.66633 0.872429,5.32989 1.12581,8.03149 0.262728,3.05768 0.406553,6.12367 0.478778,9.19127 -0.01573,0.69128 0.439394,1.98015 -1.042678,0.85075 -0.142261,-0.10841 0.0026,-0.35771 0.0034,-0.53657 0.001,-0.24243 0.0013,-0.48488 0.002,-0.72732 0.03818,-1.6622 -0.0073,-3.33318 -0.338717,-4.96713 -0.02399,-0.0347 -0.114124,-0.10417 -0.07197,-0.10398 0.344284,0.002 0.712356,-0.031 1.027166,0.10834 0.100807,0.0446 -0.0324,0.21826 -0.04136,0.32814 -0.01484,0.18205 -0.02271,0.36464 -0.03,0.54715 -0.02119,0.53 -0.02536,1.0268 -0.03372,1.55898 -0.0157,1.74872 -0.01337,3.49754 -0.0094,5.24632 0.0037,1.27883 0.0062,2.55766 0.0075,3.83649 0.01723,0.93578 0.122164,1.9108 0.399629,2.81033 0.425264,0.14598 -0.718776,0.0136 -0.986515,-0.18722 -0.146484,-0.1099 0.0246,-0.36547 0.03202,-0.54844 0.03859,-0.95213 0.03759,-1.90617 0.04499,-2.85884 0.01311,-2.21003 0.002,-4.42008 0.0016,-6.63012 -0.01989,-2.26243 0.0534,-4.52588 -0.0621,-6.78593 -0.219348,-2.52857 -0.596254,-5.03706 -0.809966,-7.56805 -0.157033,-2.13455 -0.146882,-4.27151 -0.373733,-6.40043 -0.223319,-1.37546 -0.211395,-2.77989 -0.425285,-4.15404 -0.213395,-1.09381 -0.351501,-2.19421 -0.607207,-3.279 -0.14048,-0.53549 -0.180158,-1.0901 -0.35541,-1.61738 -0.03888,-0.11698 -0.07621,-0.23916 -0.149583,-0.33822 -0.02779,-0.0375 -0.179695,-0.0473 -0.13316,-0.0435 0.323127,0.0266 0.644125,0.0746 0.966188,0.11195 -0.272367,1.20059 -0.237383,2.46104 -0.254605,3.68757 -0.01436,1.57002 -0.008,3.1401 -0.0067,4.71015 0.0074,1.21434 -0.0046,2.42888 0.01358,3.64314 0.0204,0.4178 0.05336,0.52828 -1.074423,-0.13533 -0.118341,-0.0696 0.003,-0.2746 0.0039,-0.41191 0.004,-0.61318 0.0039,-1.2264 0.0065,-1.83959 -7.9e-5,-1.51884 0.0061,-3.03771 -0.0029,-4.55653 -0.0016,-0.65643 -0.198043,-0.91071 1.070805,-0.39938 0.108954,0.0439 0.03341,0.23283 0.0598,0.34729 0.100163,0.43438 0.222649,0.86334 0.327301,1.29666 0.313459,2.23713 0.740988,4.44868 1.197685,6.66073 0.02185,0.0976 0.23733,1.11529 0.320267,1.32516 0.0176,0.0445 0.152127,0.10114 0.104293,0.0988 -1.263288,-0.0615 -0.989639,-0.0852 -1.08277,-1.048 -0.08519,-1.47721 -0.325564,-2.92557 -0.570566,-4.38155 -0.210821,-1.25951 -0.287218,-2.53437 -0.32743,-3.80894 -0.190692,-1.17174 -0.378424,-2.33676 -0.46091,-3.52204 -0.08424,-1.42088 -0.08988,-2.84458 -0.09675,-4.26742 0.03968,-1.53906 -0.136492,-3.0747 -0.386509,-4.59102 -0.355817,-1.85758 -0.522609,-3.73944 -0.622934,-5.62549 -0.04485,-1.6729 -0.0622,-3.33641 -0.229659,-5.00196 -0.135385,-1.53847 -0.524707,-3.03708 -0.745665,-4.56398 -0.167867,-1.23036 -0.174859,-2.47289 -0.184305,-3.71203 -0.04184,-1.445 0.0758,-2.89694 -0.06622,-4.33682 -0.180772,-1.4502 -0.460467,-2.88386 -0.653469,-4.33202 -0.340969,-2.91252 -0.570768,-5.83211 -0.722388,-8.76026 -0.10576,-2.17831 -0.167706,-4.35849 -0.184415,-6.53924 -0.0083,-1.47965 -0.0028,-2.95932 0.0012,-4.43898 0.02775,-2.00699 -0.394326,-3.98242 -0.625665,-5.96869 -0.310246,-3.23585 -0.622873,-6.46928 -0.815785,-9.71479 -0.06455,-2.08806 -0.11178,-4.17201 -0.671406,-6.19401 -0.398361,-1.05563 -0.883573,-2.07668 -1.251572,-3.14329 -0.32503,-1.03561 -0.38636,-2.12128 -0.42597,-3.1981 0.0069,-1.02329 -0.401524,-1.42467 1.244765,-0.85539 0.126552,0.0438 0.376537,0.78273 0.387789,0.81208 0.375638,1.198 0.438057,2.45573 0.485068,3.70087 0.03718,1.31654 0.02791,2.63374 0.02589,3.95062 -0.0027,1.21287 -0.0022,2.42574 -0.0052,3.6386 -0.0021,1.35975 -0.0012,2.71949 -0.0028,4.07924 -0.0253,1.61238 -0.02043,3.2146 0.152061,4.81858 0.195775,1.59598 0.295049,3.20047 0.355463,4.80652 0.15916,1.0541 0.379428,2.09386 0.487154,3.15561 0.0086,1.06674 0.259977,2.10213 0.423415,3.15076 0.126722,0.7666 0.12378,1.54903 0.216823,2.31724 -0.35856,-0.0343 -0.739266,0.0257 -1.075679,-0.103 -0.09529,-0.0365 0.0053,-0.204 0.0068,-0.30602 0.01227,-0.85084 0.0086,-1.70205 0.0086,-2.55295 0.0017,-1.65515 -8e-6,-3.3103 -0.0016,-4.96544 -0.0024,-1.4179 -0.0018,-2.83579 -0.0031,-4.25369 -1.54e-4,-1.47887 0.0019,-2.95774 0.0039,-4.43661 0.0042,-1.73977 8.23e-4,-3.47955 -0.0023,-5.21932 -0.0023,-1.20545 -0.0032,-2.41091 -0.0037,-3.61636 -0.03928,-1.05678 0.08179,-2.12522 -0.06627,-3.17433 -0.07409,-0.45351 -0.775534,-1.90846 0.713517,-0.54908 0.120198,0.10973 -0.04784,0.32213 -0.06303,0.48417 -0.01933,0.2063 -0.02699,0.41353 -0.04048,0.6203 -0.07864,1.44835 0.01793,2.90011 -0.102721,4.34534 -0.215235,1.68677 -0.338446,3.38093 -0.409553,5.07922 -0.05512,1.57304 -0.05855,3.14722 -0.05939,4.72103 -0.722976,-0.44963 0.234576,0.67033 0.01023,0.67301 -0.362872,0.004 -0.758419,0.0188 -1.077816,-0.1535 -0.124583,-0.0672 0.01264,-0.28321 0.006,-0.42461 -0.0269,-0.57425 -0.09492,-1.14583 -0.141452,-1.71883 -0.464342,-3.65114 -0.538061,-7.33431 -0.846043,-10.99806 0,0 1.014778,-0.008 1.014778,-0.008 l 0,0 c 0.284713,3.66599 0.367228,7.35018 0.8753,10.99715 0.009,0.0961 0.194822,2.13961 0.170044,2.15294 -0.319876,0.17217 -0.715722,0.1578 -1.078961,0.15331 -0.224487,-0.003 0.728106,-1.12247 0.01007,-0.67343 0.0053,-1.57519 0.0128,-3.15077 0.06756,-4.72517 0.06977,-1.69966 0.192918,-3.39516 0.404637,-5.08361 0.119353,-1.44458 0.02423,-2.89533 0.09741,-4.34304 0.01262,-0.22374 0.0517,-1.09398 0.09402,-1.12433 1.312045,-0.94106 1.238126,-0.29705 1.421449,0.56092 0.139444,1.0552 0.02865,2.12676 0.06349,3.18879 -4.63e-4,1.20545 -0.0014,2.41091 -0.0037,3.61636 -0.0031,1.73977 -0.0064,3.47955 -0.0023,5.21933 0.002,1.47886 0.004,2.95773 0.0038,4.4366 -0.0013,1.41789 -6.39e-4,2.83577 -0.0025,4.25366 -7.51e-4,1.65513 -0.0011,3.31026 0.0038,4.96538 3.18e-4,0.17464 0.01354,2.86314 0.0098,2.86463 -0.339017,0.13393 -0.724737,0.079 -1.087105,0.11844 -0.0872,-0.77073 -0.05202,-1.55599 -0.197369,-2.32178 -0.164489,-1.05035 -0.41503,-2.08787 -0.424993,-3.15642 -0.108809,-1.06334 -0.332669,-2.10481 -0.478856,-3.16259 -0.05597,-1.60372 -0.153826,-3.20575 -0.35028,-4.79918 -0.169888,-1.6076 -0.183095,-3.21388 -0.156893,-4.82975 -0.0015,-1.35978 -7.18e-4,-2.71955 -0.0012,-4.07932 -0.0012,-1.21291 0.0033,-2.42581 0.0068,-3.63872 0.003,-1.31545 0.0088,-2.63124 -0.02539,-3.94637 -0.04771,-1.23314 -0.109597,-2.48097 -0.491152,-3.6648 -0.06249,-0.15285 -0.112488,-0.31142 -0.187456,-0.45855 -0.05699,-0.11185 -0.302229,-0.23351 -0.206614,-0.31484 1.190454,-1.0126 0.848629,0.23525 0.88877,0.77266 0.03951,1.06639 0.100109,2.14178 0.425238,3.16656 0.37149,1.0671 0.858897,2.08911 1.246742,3.15065 0.543385,2.03199 0.574947,4.12295 0.636974,6.21616 0.184647,3.24439 0.494797,6.47607 0.824389,9.70847 0.24346,1.98955 0.676765,3.96875 0.646307,5.98109 3.72e-4,1.47938 -0.0031,2.95876 -6.49e-4,4.43814 0.0128,2.17891 0.04773,4.3579 0.150373,6.53472 0.149443,2.92644 0.389917,5.84289 0.750253,8.75129 0.202162,1.4488 0.490299,2.8829 0.664926,4.336 0.137309,1.4433 0.02015,2.89795 0.06388,4.34611 0.0125,1.23427 0.02668,2.47194 0.187296,3.69786 0.217721,1.52825 0.60047,3.0291 0.7361,4.56837 0.173905,1.66696 0.186641,3.33234 0.228501,5.00718 0.09699,1.88238 0.265842,3.7606 0.623807,5.61379 0.252175,1.52153 0.437517,3.06306 0.394404,4.60777 0.005,1.42043 0.01219,2.84184 0.09663,4.26024 0.0888,1.18604 0.281172,2.35247 0.465664,3.52637 0.03861,1.26965 0.112011,2.53986 0.321994,3.79455 0.247376,1.45789 0.474878,2.91061 0.57542,4.38815 0.04101,0.36379 0.112695,0.94905 0.08991,0.96003 -1.511537,0.7281 -1.289212,-0.30334 -1.534589,-1.30392 -0.44719,-2.21248 -0.873448,-4.42451 -1.21034,-6.65625 -0.03541,-0.14083 -0.429887,-1.66143 -0.412987,-1.66944 0.326958,-0.15492 0.718004,-0.12317 1.079633,-0.11188 0.170363,0.005 -0.452321,0.75569 -0.0088,0.51127 -0.009,1.51882 -0.0028,3.03769 -0.0029,4.55653 0.0026,0.6132 0.0025,1.22642 0.0064,1.83961 8.73e-4,0.13731 0.122105,0.3423 0.0038,0.41194 -1.12642,0.66281 -1.093849,0.55344 -1.074891,0.13537 0.01629,-1.21427 0.0029,-2.42876 0.0067,-3.64309 -0.0028,-1.57057 -0.0071,-3.14122 0.0051,-4.71175 0.017,-1.25254 -0.0084,-2.52768 0.233834,-3.76059 0.394052,-0.0497 0.785144,-0.13782 1.182156,-0.14895 0.260618,-0.007 0.565309,1.80317 0.627698,2.08598 0.255652,1.08745 0.393752,2.19074 0.60591,3.28738 0.20884,1.37636 0.195859,2.7814 0.411817,4.15927 0.219968,2.13006 0.208301,4.26741 0.361049,6.4028 0.207316,2.5328 0.596939,5.04076 0.809443,7.5713 0.117362,2.2618 0.05413,4.52696 0.07188,6.7912 0.0024,2.21025 -0.0031,4.42051 -0.0049,6.63076 -0.0034,0.95429 1.37e-4,1.90914 -0.02322,2.86323 -0.0046,0.18668 0.13031,0.44884 -0.01984,0.55984 -0.90139,0.66638 -0.927815,0.57082 -1.163119,0.20094 -0.245766,-0.9196 -0.380573,-1.89085 -0.387108,-2.84038 3.27e-4,-1.27882 9.93e-4,-2.55764 0.0022,-3.83645 0.0014,-1.74925 -0.0029,-3.49853 0.01074,-5.24774 0.0018,-0.18772 0.05235,-2.46874 0.07742,-2.47908 0.349972,-0.1442 0.751115,-0.12336 1.12957,-0.11645 0.05039,9.3e-4 0.04085,0.0922 0.06127,0.13822 0.291476,1.64622 0.354376,3.31786 0.327366,4.98689 0.0019,0.24242 0.0033,0.48485 0.0056,0.72727 0.0017,0.17888 0.148216,0.4274 0.0065,0.53662 -1.459675,1.12536 -1.03884,-0.14673 -1.075013,-0.84842 -0.0495,-3.06491 -0.171989,-6.12916 -0.436014,-9.18382 -0.262337,-2.70824 -0.674146,-5.37476 -1.201871,-8.04102 0.359688,-0.0597 0.715264,-0.15483 1.079064,-0.17915 0.03577,-0.002 -0.005,0.0716 -0.0057,0.10739 -0.0026,0.13172 -0.0034,0.26348 -0.0044,0.39522 -0.0055,0.73244 -0.0019,1.46488 -0.0051,2.19732 -0.0048,2.22625 -0.0069,4.4525 -0.0026,6.67875 0.0025,1.27312 0.01007,2.54625 0.01001,3.81937 -7e-6,0.15309 0.130404,0.38066 -9.66e-4,0.45927 -0.316388,0.1893 -0.726085,0.12864 -1.089127,0.19296 -0.117672,-1.53663 -0.09765,-3.08429 -0.262284,-4.6185 -0.192191,-2.64492 -0.332062,-5.28794 -0.262864,-7.94153 0.0015,-0.98905 -0.01274,-1.9816 0.03766,-2.96989 0.01038,-0.20358 -0.114295,-0.48459 0.0466,-0.60975 0.316385,-0.24609 0.757384,-0.29909 1.157262,-0.32666 0.08512,-0.006 0.05766,0.16061 0.08649,0.24091 0.325062,1.29614 0.62151,2.59966 0.980788,3.8864 0.473988,1.43701 0.941779,2.8722 0.95574,4.40614 0.05924,3.03258 0.168069,6.06389 0.341444,9.09224 0.150604,2.85379 0.198969,5.70578 0.17833,8.56364 0.0023,0.26403 0.0041,0.52806 0.0069,0.79209 0.0018,0.16762 0.14746,0.41149 0.0069,0.50284 -1.410132,0.91644 -1.05053,-0.10639 -1.088577,-0.80515 -0.04134,-1.24812 -0.122749,-2.49751 -0.379014,-3.72299 -0.314452,-1.47211 -0.696098,-2.92803 -0.940575,-4.41523 -0.229741,-1.4917 -0.634774,-2.94536 -0.84176,-4.43678 0.0049,-0.84645 -0.161225,-0.58463 1.091032,-0.86724 0.03262,-0.007 0.0097,0.0662 0.01252,0.0995 0.0224,0.26359 0.03525,0.5279 0.05444,0.79173 0.01572,0.21598 0.03324,0.43182 0.04986,0.64773 0.127786,1.29785 0.381549,2.58226 0.43119,3.88515 0.05205,1.07112 0.148445,2.14059 0.417815,3.18253 0.277166,1.222 0.358099,2.46539 0.57276,3.69897 0.04136,0.2947 0.12642,0.80693 0.07122,0.83316 -1.32422,0.62928 -1.065669,0.22331 -1.068764,-0.49415 5.99e-4,-1.23374 -6.53e-4,-2.46747 -0.0018,-3.70121 -0.0014,-0.81912 -0.148412,-0.48517 1.077151,-0.83472 0.09701,-0.0277 -0.0042,0.20171 -0.0049,0.30259 -9.63e-4,0.13959 -0.0017,0.27919 -0.0021,0.4188 -5.14e-4,0.18084 -4.49e-4,0.36169 -6.73e-4,0.54254 -0.0046,0.8483 0.02545,1.71151 -0.130442,2.54818 -0.384192,0.0357 -0.766726,0.10676 -1.152576,0.10719 -0.186477,2.1e-4 -0.678876,-1.97617 -0.71377,-2.23555 -0.204058,-1.60262 -0.197133,-3.21036 -0.304709,-4.82104 -0.1352,-1.59855 -0.400011,-3.19068 -0.404351,-4.79615 0.0011,-0.87847 -0.01657,-1.76126 0.03993,-2.63854 0.0099,-0.15443 -0.08653,-0.37341 0.03999,-0.46252 0.32671,-0.23012 0.760422,-0.24603 1.140633,-0.36905 0.449292,0.80141 0.305419,2.10473 0.423643,2.98626 0.08295,1.63464 0.247292,3.26807 0.64396,4.86034 0.393153,1.43889 0.816252,2.87244 1.281061,4.28944 0.506211,1.55616 0.680385,3.17668 0.746423,4.80805 -0.0012,2.33335 -0.0045,4.66669 -0.0015,7.00004 0.001,1.90028 0.0048,3.80054 0.01218,5.7008 0.0012,0.18349 0.0021,0.36698 0.0035,0.55046 9.54e-4,0.12515 0.114144,0.3168 0.0036,0.37544 -1.436561,0.76194 -1.041667,-0.006 -1.066702,-0.8112 -1.22e-4,-1.13181 -0.0027,-2.26362 -0.0092,-3.39541 -0.0063,-0.59404 -0.08446,-0.29589 1.078998,-0.3556 0.09948,-0.005 -0.0061,0.19914 -0.007,0.29874 -0.0013,0.14401 -0.0021,0.28802 -0.0025,0.43203 -4.46e-4,0.19203 7.8e-5,0.38407 1.17e-4,0.5761 2e-4,1.38359 4.14e-4,2.76718 -0.0031,4.15077 -0.0047,1.44785 0.0082,2.89821 -0.0901,4.34347 -0.02542,0.22796 -0.06591,0.70306 -0.117389,0.71802 -1.414594,0.41092 -1.294792,-0.053 -1.453203,-1.08942 -0.08301,-1.63205 -0.22125,-3.26006 -0.415015,-4.88288 -0.12869,-1.54974 -0.03787,-3.10725 -0.06709,-4.66115 -0.0018,-1.24558 -3.94e-4,-2.49117 -0.0025,-3.73676 -1.2e-5,-1.07387 1.22e-4,-2.14774 -0.0015,-3.22161 -9.89e-4,-0.45899 -0.02774,-1.47767 -0.0072,-1.48448 0.344062,-0.11393 0.72098,-0.075 1.08147,-0.11246 -0.0012,0.0163 -0.0025,0.0326 -0.0037,0.049 -0.01516,0.93317 -0.0032,1.86658 -0.01008,2.79983 -0.0035,1.1932 -0.01029,2.3864 -0.006,3.5796 0.0146,1.90692 0.06109,3.81435 0.220755,5.7155 0.261951,2.96928 0.721228,5.91013 1.081631,8.86761 0.247037,2.20005 0.373552,4.40152 0.399176,6.61507 0.09326,1.37829 0.295037,2.73912 0.624019,4.08253 0.285243,1.50194 0.444795,3.02814 0.394009,4.55856 0.0014,0.42496 0.05372,1.51178 0.009,1.53254 -0.331446,0.15374 -0.719691,0.12727 -1.081337,0.17928 -0.0082,0.001 0.0029,-0.0163 0.0044,-0.0244 9.16e-4,-0.0958 0.0018,-0.19158 0.0027,-0.28737 0.0037,-1.30149 -0.0071,-2.60299 -0.01265,-3.90447 -9.12e-4,-0.72531 -0.02777,-1.45999 0.03292,-2.1837 0.0093,-0.11112 -0.06144,-0.28716 0.04064,-0.33205 0.354385,-0.15585 0.763881,-0.12648 1.145822,-0.18971 0.379079,1.19893 0.476547,2.48906 0.783986,3.70656 0.177693,1.78423 0.178187,3.56732 0.156429,5.35965 6.74e-4,1.48732 0.0048,2.97464 0.01042,4.46195 9.91e-4,0.18877 0.0017,0.37755 0.003,0.56631 0.001,0.15542 0.130919,0.37658 0.004,0.46624 -1.320643,0.93272 -1.065192,0.25461 -1.091113,-0.43201 -0.04859,-1.51174 -0.123954,-3.02846 -0.426248,-4.51468 -0.273142,-1.25331 -0.650638,-2.50727 -0.64716,-3.79982 0.358077,-0.11106 0.703342,-0.27846 1.074231,-0.33317 0.05788,-0.009 -0.004,0.11694 -0.0051,0.17544 -0.0024,0.1352 -0.0041,0.27042 -0.0054,0.40563 -0.0076,0.77597 -0.0067,1.55197 -0.0091,2.32796 -9.08e-4,0.80633 -0.0037,1.61266 -9.82e-4,2.41899 6.3e-4,0.18781 0.147309,0.44303 0.0032,0.56344 -0.287485,0.24016 -0.703481,0.27546 -1.073931,0.33106 -0.05678,0.009 0.0085,-0.11452 0.01278,-0.17178 0.01199,-0.2399 0.110076,-1.94185 0.321469,-1.99144 0.405915,-0.0952 0.83323,-0.0327 1.249845,-0.0491 0.788826,0.57877 1.284039,1.48303 2.021485,2.12287 0,0 -1.070494,0.0842 -1.070494,0.0842 z"
     inkscape:connector-curvature="0" />
  <path
     style="fill:#552200;fill-opacity:1;stroke:#000000;stroke-width:4.5;stroke-miterlimit:4;stroke-dasharray:none"
     id="path4230"
     d="m 42.84101,172.25659 c 0.180006,1.08378 0.342569,2.16759 0.438944,3.26238 0.04323,1.10714 0.159542,2.22066 0.493423,3.28072 0.400545,1.03858 0.531995,2.14737 0.623253,3.24864 0.07323,1.11206 0.0722,2.22716 0.07366,3.3411 0.180899,1.3645 0.345476,2.72624 0.434394,4.10049 0.06924,1.37206 0.08322,2.74616 0.09625,4.11967 0,0 -1.054568,8.5e-4 -1.054568,8.5e-4 l 0,0 c -0.0091,-1.37157 -0.02062,-2.74379 -0.09557,-4.11368 -0.08998,-1.3767 -0.26295,-2.74018 -0.443499,-4.10721 -0.0013,-1.11103 2.69e-4,-2.22324 -0.07259,-3.33243 -0.09099,-1.09474 -0.226532,-2.19342 -0.625493,-3.22556 -0.324031,-1.07058 -0.451143,-2.18785 -0.490842,-3.30326 -0.0968,-1.09844 -0.261085,-2.18552 -0.449212,-3.27171 0,0 1.071851,0 1.071851,0 z"
     inkscape:connector-curvature="0" />
  <path
     style="fill:#552200;fill-opacity:1;stroke:#000000;stroke-width:4.5;stroke-miterlimit:4;stroke-dasharray:none"
     id="path4232"
     d="m 45.551585,194.55875 c -0.01238,1.50685 -0.0087,3.01377 -0.0069,4.52065 -0.0055,1.31232 0.261279,2.60697 0.394619,3.91063 0.112627,1.17811 0.136724,2.3618 0.15029,3.5444 0.04973,0.53929 0.144844,1.10092 0.469512,1.55352 0.2948,0.41096 0.63502,0.2811 0.501055,0.26377 -0.289569,-0.0375 -0.579837,-0.0693 -0.869755,-0.10398 0.472826,-1.14418 0.429059,-2.45049 0.462344,-3.67095 0.03484,-1.49399 -0.237831,-2.97494 -0.380649,-4.45947 -0.09882,-1.21115 -0.397625,-2.39268 -0.550414,-3.59892 -0.122733,-1.06409 -0.134427,-2.13581 -0.155525,-3.20536 -0.01356,-0.56283 -0.131149,-0.57065 1.07098,-0.17664 0.01531,0.005 -0.0038,0.74052 -0.0052,1.07557 -0.0039,1.57736 -0.0065,3.15472 -0.0059,4.73209 -0.0011,1.57818 0.0028,3.15636 0.005,4.73454 -0.04558,0.99107 0.183829,1.94757 0.551753,2.85804 0.341247,0.78095 0.709223,1.51642 0.893822,2.35642 0,0 -1.06648,0.0234 -1.06648,0.0234 l 0,0 c -0.187864,-0.83203 -0.563325,-1.56052 -0.894688,-2.33899 -0.36911,-0.92375 -0.589689,-1.8964 -0.543149,-2.89884 0.0023,-1.57817 0.0062,-3.15635 0.0047,-4.73453 1.15e-4,-1.57731 -0.0028,-3.15463 -0.01054,-4.73193 -0.0025,-0.33584 -0.02414,-1.07081 -0.0097,-1.07559 1.192388,-0.39364 1.078662,-0.38865 1.077575,0.17505 0.0076,1.06574 0.03126,2.13323 0.148867,3.19343 0.152762,1.20694 0.453692,2.38924 0.545027,3.60224 0.140953,1.48912 0.414709,2.97383 0.380267,4.47243 -0.03505,1.26154 -0.0098,2.57799 -0.448203,3.77742 -0.421799,0.0466 -0.841339,0.12365 -1.265397,0.13971 -0.759515,0.0288 -0.90189,-1.48969 -0.967927,-1.96122 -0.0128,-1.17934 -0.03537,-2.35982 -0.146426,-3.53481 -0.133086,-1.30712 -0.404438,-2.60512 -0.391471,-3.9214 0.0019,-1.50688 0.0055,-3.0138 -0.0069,-4.52065 0,0 1.069272,0 1.069272,0 z"
     inkscape:connector-curvature="0" />
  <path
     style="fill:#803300;fill-opacity:1;stroke:#552200;stroke-width:4.50000000000000000;stroke-miterlimit:4;stroke-dasharray:none"
     id="path4242"
     d="m 62.58193,313.23859 c -0.247177,-1.08378 -0.343714,-2.19264 -0.413303,-3.29956 -0.05086,-0.94723 -0.05806,-1.89597 -0.06368,-2.8443 0,0 0.531355,-3.1e-4 0.531355,-3.1e-4 l 0,0 c 0.0054,0.94732 0.01229,1.89505 0.06287,2.84128 0.06934,1.10388 0.164015,2.21071 0.419649,3.28973 0,0 -0.536895,0.0132 -0.536895,0.0132 z"
     inkscape:connector-curvature="0" />
  <path
     style="fill:#000000;fill-opacity:1;stroke:#000000;stroke-width:4.5;stroke-miterlimit:4;stroke-dasharray:none"
     id="path4244"
     d="m 377.48486,73.119964 c 1.28659,-0.243746 2.5626,-0.574117 3.75787,-1.11473 0.0832,0.0044 0.96402,-0.982218 0.93048,-0.336244 -0.007,0.140807 -0.21784,0.179141 -0.32377,0.272196 -0.1328,0.116658 -0.26152,0.237882 -0.39227,0.356823 -0.77734,0.661948 -1.25171,1.587153 -1.95325,2.308404 -0.17591,0.203658 -0.37901,0.436631 -0.70378,0.04836 -0.061,-0.07293 0.1498,-0.117127 0.22392,-0.176677 0.0957,-0.07687 0.19029,-0.155052 0.28544,-0.232577 0,0 0.53296,0.04715 0.53296,0.04715 l 0,0 c -0.13345,0.110885 -1.60323,1.07836 -0.87212,0.271999 0.71556,-0.7085 1.17699,-1.650129 1.95682,-2.310743 0.23417,-0.215326 0.41379,-0.524576 0.71191,-0.635603 1.5203,-0.566202 0.46528,0.225815 0.13015,0.44735 -1.19072,0.547794 -2.46717,0.880427 -3.75201,1.125294 0,0 -0.53235,-0.071 -0.53235,-0.071 z"
     inkscape:connector-curvature="0" />
  <path
     style="fill:#000000;fill-opacity:1;stroke:#000000;stroke-width:4.5;stroke-miterlimit:4;stroke-dasharray:none"
     id="path4246"
     d="m 379.32829,76.697851 c -0.0292,-0.171114 -0.0584,-0.342228 -0.0877,-0.513341 0,0 0.53195,-0.0092 0.53195,-0.0092 l 0,0 c 0.0305,0.170655 0.0609,0.341311 0.0914,0.511966 0,0 -0.5357,0.01058 -0.5357,0.01058 z"
     inkscape:connector-curvature="0" />
  <path
     style="fill:#000000;fill-opacity:1;stroke:#000000;stroke-width:4.5;stroke-miterlimit:4;stroke-dasharray:none"
     id="path4248"
     d="m 485.48345,20.56825 c 1.38624,9.78e-4 2.77247,6.6e-4 4.15871,5.56e-4 1.61036,-0.0036 1.97514,0.270172 2.52151,1.660094 0.3692,0.467714 0.22757,1.799788 0.54542,2.199286 -0.17304,-0.03249 -0.37215,-5.27e-4 -0.51912,-0.09747 -0.0623,-0.04109 0.0312,-1.426072 -0.0402,-1.900311 -0.3049,-0.916949 -1.19977,-1.066581 -2.0479,-1.182059 0,0 0.52726,-0.07595 0.52726,-0.07595 l 0,0 c 0.86979,0.126865 1.75727,0.307756 2.05411,1.25013 0.0251,0.17066 0.0908,1.89091 0.0469,1.918654 -0.16164,0.102 -0.37417,0.07826 -0.56125,0.117394 -0.33725,-0.657178 -0.13737,-1.557839 -0.53766,-2.209633 -0.38018,-0.958232 -0.51554,-1.182581 -1.46668,-1.597406 -1.3839,-1.04e-4 -2.7678,-4.25e-4 -4.1517,5.56e-4 0,0 -0.52933,-0.08384 -0.52933,-0.08384 z"
     inkscape:connector-curvature="0" />
  <path
     style="fill:#000000;fill-opacity:1;stroke:#000000;stroke-width:4.5;stroke-miterlimit:4;stroke-dasharray:none"
     id="path4250"
     d="m 434.5004,139.34791 c 1.23804,7.4e-4 2.47609,5.3e-4 3.71413,4.8e-4 0.80849,-4e-5 0.40723,-2e-5 1.20378,-6e-5 0,0 0.52405,0.083 0.52405,0.083 l 0,0 c -0.79708,-4e-5 -0.39547,-2e-5 -1.20451,-6e-5 -1.23604,-5e-5 -2.47208,-2.6e-4 -3.70812,4.8e-4 0,0 -0.52933,-0.0838 -0.52933,-0.0838 z"
     inkscape:connector-curvature="0" />
  <path
     style="fill:#000000;fill-opacity:1;stroke:#000000;stroke-width:4.5;stroke-miterlimit:4;stroke-dasharray:none"
     id="path4252"
     d="m 412.66565,196.51255 c 1.00588,0.87641 1.91287,1.85044 2.9247,2.72215 0.84174,0.76284 1.49489,1.67323 2.04589,2.65768 0.68633,0.99791 1.05294,2.15536 1.50468,3.26639 0.53179,1.1162 0.65987,2.34022 0.9188,3.53006 0.20526,1.11099 0.58105,2.17608 0.82068,3.27887 0.18328,1.39298 0.49638,2.76189 0.96667,4.08538 0.33469,1.16197 0.86706,2.22805 1.4878,3.26012 0.53962,0.87511 1.1737,1.68893 1.77481,2.52466 0.67511,1.24836 1.34183,2.49966 2.04219,3.73416 0.75167,1.53 1.54658,3.0393 2.33978,4.54833 0,0 -0.52203,0.0252 -0.52203,0.0252 l 0,0 c -0.79096,-1.50996 -1.58596,-3.01862 -2.34145,-4.54648 -0.7017,-1.23318 -1.36837,-2.48414 -2.05035,-3.72817 -0.59791,-0.83956 -1.23934,-1.64848 -1.77308,-2.52911 -0.61842,-1.03711 -1.15297,-2.10464 -1.48583,-3.27077 -0.46827,-1.32651 -0.78116,-2.69762 -0.96973,-4.09198 -0.24025,-1.10254 -0.61569,-2.16784 -0.82032,-3.2789 -0.25677,-1.18723 -0.38629,-2.4076 -0.91656,-3.521 -0.45073,-1.10984 -0.82266,-2.26296 -1.50768,-3.25962 -0.54915,-0.97821 -1.20238,-1.88266 -2.04051,-2.63954 -1.01261,-0.8747 -1.92062,-1.85279 -2.93371,-2.72534 0,0 0.53525,-0.0421 0.53525,-0.0421 z"
     inkscape:connector-curvature="0" />
  <path
     style="fill:#000000;fill-opacity:1;stroke:#000000;stroke-width:4.5;stroke-miterlimit:4;stroke-dasharray:none"
     id="path4254"
     d="m 409.41119,188.44567 c 1.00889,1.21951 1.94122,2.4973 2.87205,3.77655 1.04232,1.44654 2.27003,2.74002 3.32838,4.17322 0.97584,1.07432 1.66773,2.31971 2.23803,3.64254 0.63985,1.23982 0.76562,2.62711 1.08176,3.9605 0.33742,1.02051 0.39435,2.09633 0.6032,3.14143 0.34281,1.20539 1.03461,2.24988 1.85204,3.18515 0.63913,0.67729 1.30216,1.33075 1.93685,2.01197 0,0 -0.52857,0.0397 -0.52857,0.0397 l 0,0 c -0.63525,-0.68074 -1.29592,-1.33664 -1.93507,-2.01391 -0.81957,-0.94509 -1.51575,-1.99686 -1.85701,-3.21249 -0.20748,-1.0447 -0.26735,-2.11905 -0.60128,-3.13966 -0.31037,-1.332 -0.44169,-2.71464 -1.08186,-3.95113 -0.56958,-1.31814 -1.26082,-2.55796 -2.23107,-3.63077 -1.06167,-1.43041 -2.28784,-2.72566 -3.32796,-4.17367 -0.93233,-1.28076 -1.86849,-2.5584 -2.8843,-3.77501 0,0 0.53481,-0.0345 0.53481,-0.0345 z"
     inkscape:connector-curvature="0" />
  <path
     style="fill:#000000;fill-opacity:1;stroke:#000000;stroke-width:4.5;stroke-miterlimit:4;stroke-dasharray:none"
     id="path4256"
     d="m 411.03853,197.05492 c 0.79084,0.58345 1.34352,1.4088 2.00213,2.12495 0.6843,0.79675 1.44388,1.5193 2.15979,2.28643 0.7648,0.60789 1.18571,1.45986 1.61905,2.30935 0.35361,0.55102 0.58198,1.15398 0.76939,1.77675 0,0 -0.53217,0.0156 -0.53217,0.0156 l 0,0 c -0.18833,-0.61964 -0.41926,-1.21816 -0.77042,-1.76717 -0.43332,-0.84532 -0.85528,-1.68793 -1.61583,-2.2946 -0.71923,-0.76477 -1.47359,-1.49261 -2.16133,-2.28696 -0.65466,-0.72018 -1.21483,-1.53849 -2.00586,-2.12226 0,0 0.53525,-0.0421 0.53525,-0.0421 z"
     inkscape:connector-curvature="0" />
  <path
     style="fill:#000000;fill-opacity:1;stroke:#000000;stroke-width:4.5;stroke-miterlimit:4;stroke-dasharray:none"
     id="path4258"
     d="m 417.00441,203.63211 c 0.3671,0.58462 0.16691,0.29114 0.6047,0.87762 0,0 -0.53003,0.034 -0.53003,0.034 l 0,0 c -0.43868,-0.59003 -0.2368,-0.29677 -0.60948,-0.87714 0,0 0.53481,-0.0345 0.53481,-0.0345 z"
     inkscape:connector-curvature="0" />
  <path
     style="fill:#000000;fill-opacity:1;stroke:#000000;stroke-width:4.5;stroke-miterlimit:4;stroke-dasharray:none"
     id="path4260"
     d="m 415.79095,204.72751 c 0.0978,0.66708 0.28054,1.30611 0.47999,1.94844 0,0 -0.53167,0.016 -0.53167,0.016 l 0,0 c -0.19945,-0.64347 -0.37929,-1.28484 -0.48521,-1.95129 0,0 0.53689,-0.0131 0.53689,-0.0131 z"
     inkscape:connector-curvature="0" />
</svg>
