<?xml version="1.0" encoding="UTF-8" standalone="no"?>
<svg
   xmlns:dc="http://purl.org/dc/elements/1.1/"
   xmlns:cc="http://creativecommons.org/ns#"
   xmlns:rdf="http://www.w3.org/1999/02/22-rdf-syntax-ns#"
   xmlns:svg="http://www.w3.org/2000/svg"
   xmlns="http://www.w3.org/2000/svg"
   xmlns:sodipodi="http://sodipodi.sourceforge.net/DTD/sodipodi-0.dtd"
   xmlns:inkscape="http://www.inkscape.org/namespaces/inkscape"
   viewBox="0 0 512 512"
   id="svg2"
   version="1.1"
   inkscape:version="0.48.5 r10040"
   width="100%"
   height="100%"
   sodipodi:docname="expander.svg">
  <metadata
     id="metadata12">
    <rdf:RDF>
      <cc:Work
         rdf:about="">
        <dc:format>image/svg+xml</dc:format>
        <dc:type
           rdf:resource="http://purl.org/dc/dcmitype/StillImage" />
        <dc:title></dc:title>
      </cc:Work>
    </rdf:RDF>
  </metadata>
  <defs
     id="defs10" />
  <sodipodi:namedview
     pagecolor="#ffffff"
     bordercolor="#666666"
     borderopacity="1"
     objecttolerance="10"
     gridtolerance="10"
     guidetolerance="10"
     inkscape:pageopacity="0"
     inkscape:pageshadow="2"
     inkscape:window-width="1280"
     inkscape:window-height="1002"
     id="namedview8"
     showgrid="false"
     inkscape:zoom="0.4609375"
     inkscape:cx="-151.86441"
     inkscape:cy="256"
     inkscape:window-x="-8"
     inkscape:window-y="-8"
     inkscape:window-maximized="1"
     inkscape:current-layer="svg2" />
  <path
     stroke-width="0"
     stroke="#fff"
     fill="#000"
     d="M0 0h512v512H0z"
     id="path4" />
  <path
     fill="#fff"
     d="M20.625 16c-1.74.052-2.956.394-3.594 1.03-10.2 10.203 58.65 170.85 76.5 178.5 5.02 2.152 15.865-3.563 28.72-13.28h.03L196 256l-73.72 73.75c-12.863-9.726-23.728-15.433-28.75-13.28-17.85 7.65-86.7 168.297-76.5 178.5 10.203 10.2 170.85-58.65 178.5-76.5 2.153-5.022-3.554-15.887-13.28-28.75L256 316l73.75 73.75c-9.717 12.855-15.432 23.7-13.28 28.72 7.65 17.85 168.297 86.7 178.5 76.5 10.2-10.203-58.65-170.85-76.5-178.5-5.02-2.152-15.865 3.563-28.72 13.28L316 256l73.75-73.75c12.855 9.717 23.7 15.432 28.72 13.28 17.85-7.65 86.7-168.297 76.5-178.5-10.203-10.2-170.85 58.65-178.5 76.5-2.153 5.022 3.554 15.887 13.28 28.75L256 196l-73.75-73.72c.005-.006-.005-.023 0-.03 9.717-12.855 15.432-23.7 13.28-28.72C188.36 76.796 46.71 15.225 20.626 16z"
     id="path6"
     style="fill:#ffdd55;fill-opacity:1" />
</svg>
