<?xml version="1.0" encoding="UTF-8" standalone="no"?>
<svg
   xmlns:dc="http://purl.org/dc/elements/1.1/"
   xmlns:cc="http://creativecommons.org/ns#"
   xmlns:rdf="http://www.w3.org/1999/02/22-rdf-syntax-ns#"
   xmlns:svg="http://www.w3.org/2000/svg"
   xmlns="http://www.w3.org/2000/svg"
   xmlns:sodipodi="http://sodipodi.sourceforge.net/DTD/sodipodi-0.dtd"
   xmlns:inkscape="http://www.inkscape.org/namespaces/inkscape"
   viewBox="0 0 512 512"
   id="svg2"
   version="1.1"
   inkscape:version="0.48.5 r10040"
   width="100%"
   height="100%"
   sodipodi:docname="beveled-star.svg">
  <metadata
     id="metadata12">
    <rdf:RDF>
      <cc:Work
         rdf:about="">
        <dc:format>image/svg+xml</dc:format>
        <dc:type
           rdf:resource="http://purl.org/dc/dcmitype/StillImage" />
        <dc:title></dc:title>
      </cc:Work>
    </rdf:RDF>
  </metadata>
  <defs
     id="defs10" />
  <sodipodi:namedview
     pagecolor="#ffffff"
     bordercolor="#666666"
     borderopacity="1"
     objecttolerance="10"
     gridtolerance="10"
     guidetolerance="10"
     inkscape:pageopacity="0"
     inkscape:pageshadow="2"
     inkscape:window-width="1280"
     inkscape:window-height="1002"
     id="namedview8"
     showgrid="false"
     inkscape:zoom="0.4609375"
     inkscape:cx="-151.86441"
     inkscape:cy="256"
     inkscape:window-x="-8"
     inkscape:window-y="-8"
     inkscape:window-maximized="1"
     inkscape:current-layer="svg2" />
  <path
     stroke-width="0"
     stroke="#fff"
     fill="#000"
     d="M0 0h512v512H0z"
     id="path4" />
  <path
     fill="#fff"
     d="M320.188 23.375l-69.25 103.063 3.687 54.062 24.563-36.375 15.156-22.47 1.906 27.032 2.97 42.282 29.436-43.814-8.47-123.78zM88.155 85.655l54.688 111.626 48.03 23.532-19.405-39.156-12.25-24.72 24.75 12.19 39.343 19.374-23.625-48.188L88.156 85.656zm191.375 91.376l-25.842 38.282-4.563 6.75-7.313-3.593-41.343-20.376 20.25 40.875 3.624 7.343-6.78 4.562-38.408 25.875 46.22 3.03 8.124.533.563 8.156 3.218 45.717 25.25-38.03 4.533-6.844 7.375 3.625L316 313.406l-20.344-41.594-3.594-7.343 6.813-4.533 37.938-25.25-45.344-2.906-8.158-.53-.562-8.156-3.22-46.063zm86.533 7.69l-45.032 30.25 44.564 2.874 27.625 1.78-23.033 15.314-35.812 23.843 52.688 3.595 102.968-69.22-123.967-8.436zm-237.407 63.593l-103 69.218 124 8.44 44-29.564-43.03-2.844-27.282-1.78L146.03 276.5l36.407-24.5-53.78-3.688zm197.03 42.375l19.127 39.093 12 24.564-24.532-12.063-39.217-19.342 23.562 48.125 111.5 54.625-54.688-111.625-47.75-23.375zm-108.217 28.28l-30.157 44.876 8.468 123.78 69.25-103.062-3.592-52.937-23.782 35.75L222.5 390.25l-1.938-27.375-3.093-43.906z"
     id="path6"
     style="fill:#ffdd55;fill-opacity:1" />
</svg>
