<?xml version="1.0" encoding="UTF-8" standalone="no"?>
<svg
   xmlns:dc="http://purl.org/dc/elements/1.1/"
   xmlns:cc="http://creativecommons.org/ns#"
   xmlns:rdf="http://www.w3.org/1999/02/22-rdf-syntax-ns#"
   xmlns:svg="http://www.w3.org/2000/svg"
   xmlns="http://www.w3.org/2000/svg"
   xmlns:xlink="http://www.w3.org/1999/xlink"
   xmlns:sodipodi="http://sodipodi.sourceforge.net/DTD/sodipodi-0.dtd"
   xmlns:inkscape="http://www.inkscape.org/namespaces/inkscape"
   viewBox="0 0 512 512"
   id="svg2"
   version="1.1"
   inkscape:version="0.48.5 r10040"
   width="100%"
   height="100%"
   sodipodi:docname="spell_combat.svg">
  <metadata
     id="metadata12">
    <rdf:RDF>
      <cc:Work
         rdf:about="">
        <dc:format>image/svg+xml</dc:format>
        <dc:type
           rdf:resource="http://purl.org/dc/dcmitype/StillImage" />
        <dc:title />
      </cc:Work>
    </rdf:RDF>
  </metadata>
  <defs
     id="defs10">
    <linearGradient
       id="linearGradient2998">
      <stop
         style="stop-color:#bbf2ff;stop-opacity:1;"
         offset="0"
         id="stop3000" />
      <stop
         style="stop-color:#0000ff;stop-opacity:1;"
         offset="1"
         id="stop3002" />
    </linearGradient>
    <linearGradient
       inkscape:collect="always"
       xlink:href="#linearGradient2998"
       id="linearGradient3004"
       x1="264.67795"
       y1="351.45764"
       x2="151.86443"
       y2="75.932205"
       gradientUnits="userSpaceOnUse" />
  </defs>
  <sodipodi:namedview
     pagecolor="#ffffff"
     bordercolor="#666666"
     borderopacity="1"
     objecttolerance="10"
     gridtolerance="10"
     guidetolerance="10"
     inkscape:pageopacity="0"
     inkscape:pageshadow="2"
     inkscape:window-width="1280"
     inkscape:window-height="1002"
     id="namedview8"
     showgrid="false"
     inkscape:zoom="0.4609375"
     inkscape:cx="-151.86441"
     inkscape:cy="256"
     inkscape:window-x="-8"
     inkscape:window-y="-8"
     inkscape:window-maximized="1"
     inkscape:current-layer="svg2" />
  <path
     d="M 6.5084746,0 H 518.50847 V 512 H 6.5084746 z"
     id="path4"
     inkscape:connector-curvature="0"
     style="fill:#000000;stroke:#ffffff;stroke-width:0" />
  <path
     d="m 255.09218,1.1871149 -4.46549,29.6235101 c -29.21567,1.1428 -58.12564,11.88511 -81.59088,32.23908 l -58.33277,-43.30495 43.27853,58.639888 c -20.07042,24.008787 -30.3199,53.445877 -30.7513,83.000097 l -33.741157,4.98832 33.978997,5.12117 c 1.70277,27.8086 12.11796,55.18293 31.25914,77.68037 l -44.02278,59.64698 59.51842,-44.18634 c 22.98313,19.46831 51.02886,29.85421 79.41742,31.17486 l 5.44973,36.16603 5.33759,-36.10532 c 0.60925,-0.0214 1.21922,-0.0371 1.82847,-0.0664 -0.60211,-0.0271 -1.20208,-0.0643 -1.80276,-0.1 l 11.56584,-78.23177 c 4.98832,-1.62134 9.65666,-3.94694 13.88859,-6.86394 l 31.55983,17.70483 -17.8091,-31.39342 c 2.83986,-4.08265 5.12474,-8.57528 6.75895,-13.37075 l 114.2778,-17.17773 -32.24623,-4.75262 C 388.06333,131.58267 377.551,101.65276 356.88347,77.403983 l 42.53785,-57.297108 h -10e-4 l -57.41996,42.37858 C 318.2237,42.127905 288.95232,31.557015 259.46452,30.757055 L 255.09331,1.1871149 z m 12.57437,53.2273201 c 30.90344,0 61.8083,11.79012 85.38711,35.369638 20.09613,20.096127 31.62198,45.514127 34.58969,71.717807 l -80.9402,-11.93154 c -1.60992,-4.99618 -3.92338,-9.6738 -6.8318,-13.91573 l 17.59625,-31.01558 -30.87201,17.51483 c -4.45263,-3.17126 -9.40167,-5.68685 -14.71569,-7.39819 l -8.90669,-60.241955 c 1.56421,-0.06 3.12841,-0.0986 4.69262,-0.0986 z m -20.87038,1.81419 -8.86527,58.811315 c -4.88832,1.6642 -9.45952,4.00694 -13.6036,6.92108 l -30.53274,-17.32341 17.21842,30.69487 c -2.98842,4.29265 -5.37116,9.03669 -7.02108,14.11358 l -55.81575,8.25172 c 3.6141,-24.85088 14.98067,-48.79182 34.10256,-67.913707 18.24908,-18.249078 40.88794,-29.431368 64.51818,-33.555448 z m -99.88567,118.798285 57.3671,8.64599 c 1.68563,4.90333 4.05408,9.48524 6.99679,13.63503 l -17.73196,31.25556 31.40056,-17.81481 c 3.93837,2.68772 8.2553,4.85904 12.84792,6.43682 l 11.66013,77.35752 c -24.58448,-3.72981 -48.24043,-15.05138 -67.17161,-33.984 -23.61524,-23.61452 -35.40393,-54.57939 -35.3675,-85.5314 z"
     id="path6"
     style="fill:url(#linearGradient3004);fill-opacity:1"
     inkscape:connector-curvature="0" />
  <path
     style="fill:#b3b3b3"
     inkscape:connector-curvature="0"
     d="m 517.4494,137.73704 -67.27595,11.98822 -170.85286,170.85287 c 2.63071,3.88316 4.33076,8.64538 4.33076,13.65519 0,4.72835 -1.37907,9.15347 -3.74446,12.90034 -4.08478,-1.29519 -8.42602,-1.99763 -12.92533,-1.99763 -12.68099,0 -24.11678,5.5566 -32.00892,14.35199 l -7.34857,-7.34939 13.90116,-13.90117 c -3.64122,-4.65496 -7.18324,-9.39137 -10.63736,-14.19392 l -15.68025,15.67783 -10.65754,-10.65754 17.60369,-17.60288 c -3.5509,-5.31465 -6.99212,-10.70834 -10.3164,-16.18429 l -32.9057,32.90651 47.02865,47.02865 c -1.30084,4.09284 -2.00812,8.44376 -2.00812,12.95437 0,6.18242 1.33068,12.06483 3.70332,17.39077 l -58.17894,58.17894 -11.74224,-11.74225 -19.9973,19.99972 11.74063,11.74224 -6.94131,6.94212 21.97315,21.97316 6.94051,-6.94373 11.74224,11.74224 19.99891,-20.00052 -11.73982,-11.73902 58.19346,-58.19507 c 5.31143,2.35651 11.1761,3.67913 17.33755,3.67913 4.5106,0 8.86152,-0.70728 12.95437,-2.00812 l 47.06817,47.06817 32.90489,-32.90651 c -5.48159,-3.32831 -10.87609,-6.77034 -16.18429,-10.3172 l -17.6053,17.60529 -10.65512,-10.65914 15.67944,-15.67783 c -4.80819,-3.45977 -9.5446,-7.00261 -14.19633,-10.6406 l -13.90198,13.90197 -7.38729,-7.38729 c 8.79458,-7.89133 14.35118,-19.32711 14.35118,-32.00889 0,-4.31141 -0.65002,-8.47603 -1.84279,-12.41162 3.79284,-2.45168 8.29699,-3.88478 13.11728,-3.88397 5.0082,0 9.49702,1.42746 13.32293,3.99607 L 505.46199,205.01057 517.4494,137.73704 z m -53.41027,42.75273 10.65754,10.65754 -154.58792,154.5847 -10.65673,-10.65592 154.58711,-154.58632 z M 266.98236,360.2082 c 15.53025,0 27.95638,12.42774 27.95638,27.95637 0,15.52944 -12.42613,27.95718 -27.95638,27.95718 -15.52944,0 -27.9572,-12.42774 -27.9572,-27.95637 0,-15.52863 12.42776,-27.95718 27.9572,-27.95718 z"
     id="path6-1" />
</svg>
