<?xml version="1.0" encoding="UTF-8" standalone="no"?>
<svg
   xmlns:dc="http://purl.org/dc/elements/1.1/"
   xmlns:cc="http://creativecommons.org/ns#"
   xmlns:rdf="http://www.w3.org/1999/02/22-rdf-syntax-ns#"
   xmlns:svg="http://www.w3.org/2000/svg"
   xmlns="http://www.w3.org/2000/svg"
   xmlns:xlink="http://www.w3.org/1999/xlink"
   xmlns:sodipodi="http://sodipodi.sourceforge.net/DTD/sodipodi-0.dtd"
   xmlns:inkscape="http://www.inkscape.org/namespaces/inkscape"
   viewBox="0 0 512 512"
   id="svg2"
   version="1.1"
   inkscape:version="0.48.5 r10040"
   width="100%"
   height="100%"
   sodipodi:docname="potion-ball.svg">
  <metadata
     id="metadata12">
    <rdf:RDF>
      <cc:Work
         rdf:about="">
        <dc:format>image/svg+xml</dc:format>
        <dc:type
           rdf:resource="http://purl.org/dc/dcmitype/StillImage" />
      </cc:Work>
    </rdf:RDF>
  </metadata>
  <defs
     id="defs10">
    <linearGradient
       id="linearGradient2989">
      <stop
         style="stop-color:#ffffff;stop-opacity:1;"
         offset="0"
         id="stop2991" />
      <stop
         style="stop-color:#0000ff;stop-opacity:1;"
         offset="1"
         id="stop2993" />
    </linearGradient>
    <linearGradient
       inkscape:collect="always"
       xlink:href="#linearGradient2989"
       id="linearGradient2995"
       x1="136.67796"
       y1="141.01695"
       x2="184.40677"
       y2="186.57628"
       gradientUnits="userSpaceOnUse" />
  </defs>
  <sodipodi:namedview
     pagecolor="#ffffff"
     bordercolor="#666666"
     borderopacity="1"
     objecttolerance="10"
     gridtolerance="10"
     guidetolerance="10"
     inkscape:pageopacity="0"
     inkscape:pageshadow="2"
     inkscape:window-width="1280"
     inkscape:window-height="962"
     id="namedview8"
     showgrid="false"
     inkscape:zoom="0.4609375"
     inkscape:cx="256"
     inkscape:cy="256"
     inkscape:window-x="-8"
     inkscape:window-y="-8"
     inkscape:window-maximized="1"
     inkscape:current-layer="svg2" />
  <path
     stroke-width="0"
     stroke="#fff"
     fill="#000"
     d="M0 0h512v512H0z"
     id="path4" />
  <path
     fill="#fff"
     d="M94.055 21.9L18.998 96.96l42.727 23.6-26.98 26.952L142.35 212.39c-40.443 70.148-30.72 161.07 29.2 220.958 71.605 71.606 187.737 71.587 259.356 0 71.62-71.587 71.642-187.654.037-259.22-59.915-59.878-150.896-69.57-221.084-29.177L144.95 37.415l-8.44 8.432-18.588 18.57L94.055 21.9zm47.224 45.598l62.337 103.275 8.098-5.248c44.21-28.663 99.014-34.044 147.166-16.078-1.16-.026-2.328-.04-3.503-.04-38.988 0-70.594 14.807-70.594 33.073 0 18.27 31.606 33.075 70.594 33.075 31.53 0 58.225-9.684 67.287-23.05 15.942 17.34 27.492 37.224 34.65 58.253-7.76-3.387-18.28-6.706-30.902-9.563-31.383-7.1-75.547-11.615-124.305-11.615-48.757 0-92.92 4.514-124.304 11.615-13.71 3.102-24.997 6.75-32.893 10.438 4.34-12.997 10.343-25.568 18.018-37.383l5.263-8.104-103.33-62.3 13.894-13.88 46.937 25.923 27.914-27.915-26.18-46.635 13.855-13.842zm-1.087 201.287c.482.28.982.56 1.506.84 7.89 4.22 20.41 8.487 36.103 12.037 31.383 7.1 75.547 11.615 124.304 11.615 48.758 0 92.922-4.514 124.305-11.615 15.687-3.55 28.203-7.813 36.094-12.033 1.236 5.837 2.153 11.727 2.746 17.643-9.432 4.277-21.204 7.893-35.074 11.032-33.205 7.513-78.27 12.037-128.07 12.037-49.802 0-94.866-4.524-128.07-12.037-14.67-3.32-27-7.17-36.69-11.776.625-5.952 1.57-11.876 2.845-17.745z"
     id="path6"
     style="fill-opacity:1;fill:url(#linearGradient2995)" />
</svg>
